<svg width="653" height="635" viewBox="0 0 653 635" fill="none" xmlns="http://www.w3.org/2000/svg">
<g clip-path="url(#clip0_318_57)">
<rect y="31.3418" width="623" height="604" transform="rotate(-2.86 0 31.3418)" fill="white"/>
<path d="M163.638 37.1005L165.14 36.5781L164.748 35.4532L163.559 35.5127L163.638 37.1005ZM200.063 141.799L200.142 143.387L202.262 143.281L201.565 141.276L200.063 141.799ZM156.044 143.998L154.503 144.387L154.822 145.651L156.123 145.586L156.044 143.998ZM152.25 128.971L153.791 128.581L153.472 127.318L152.171 127.383L152.25 128.971ZM132.517 129.956L132.438 128.368L131.136 128.434L130.945 129.723L132.517 129.956ZM130.24 145.287L130.319 146.875L131.621 146.81L131.812 145.521L130.24 145.287ZM86.2208 147.486L84.6747 147.116L84.1806 149.18L86.3001 149.074L86.2208 147.486ZM112.029 39.6788L111.95 38.0909L110.761 38.1503L110.483 39.3086L112.029 39.6788ZM135.858 105.442L134.284 105.217L134.011 107.127L135.937 107.03L135.858 105.442ZM146.483 104.912L146.562 106.5L148.489 106.403L148.026 104.531L146.483 104.912ZM139.805 77.8549L141.349 77.474L138.232 77.6297L139.805 77.8549ZM162.136 37.6229L198.561 142.321L201.565 141.276L165.14 36.5781L162.136 37.6229ZM199.984 140.211L155.965 142.41L156.123 145.586L200.142 143.387L199.984 140.211ZM157.585 143.609L153.791 128.581L150.708 129.36L154.503 144.387L157.585 143.609ZM152.171 127.383L132.438 128.368L132.597 131.544L152.329 130.558L152.171 127.383ZM130.945 129.723L128.667 145.053L131.812 145.521L134.09 130.19L130.945 129.723ZM130.16 143.699L86.1415 145.898L86.3001 149.074L130.319 146.875L130.16 143.699ZM87.7669 147.856L113.576 40.0489L110.483 39.3086L84.6747 147.116L87.7669 147.856ZM112.109 41.2666L163.717 38.6883L163.559 35.5127L111.95 38.0909L112.109 41.2666ZM135.937 107.03L146.562 106.5L146.404 103.324L135.778 103.855L135.937 107.03ZM148.026 104.531L141.349 77.474L138.262 78.2359L144.939 105.293L148.026 104.531ZM138.232 77.6297L134.284 105.217L137.431 105.668L141.379 78.0801L138.232 77.6297ZM280.67 81.4694L280.158 79.9645L279.023 80.351L279.083 81.5487L280.67 81.4694ZM280.708 82.2284L279.12 82.3077L279.189 83.6848L280.562 83.8115L280.708 82.2284ZM283.319 82.7066L282.939 84.2503L283.025 84.2715L283.113 84.283L283.319 82.7066ZM289.201 84.6953L288.583 86.1603L288.616 86.1739L288.648 86.186L289.201 84.6953ZM296.866 88.8774L295.893 90.1346L295.911 90.1483L295.929 90.1615L296.866 88.8774ZM303.021 96.3305L301.636 97.1116L301.65 97.1363L301.665 97.1605L303.021 96.3305ZM294.975 130.21L294.024 128.935L294.017 128.94L294.975 130.21ZM234.046 141.166L234.03 139.576L234.019 139.577L234.009 139.577L234.046 141.166ZM216.704 141.272L216.747 139.682L216.725 139.682L216.704 139.682L216.704 141.272ZM210.617 141.271L209.029 141.351L209.105 142.861L210.617 142.861L210.617 141.271ZM205.309 35.0187L205.117 33.4406L203.647 33.6196L203.721 35.098L205.309 35.0187ZM297.641 67.8394L296.195 67.179L296.185 67.2004L296.176 67.2221L297.641 67.8394ZM293.102 74.4573L292.056 73.2601L292.056 73.2601L293.102 74.4573ZM287.524 78.5402L286.714 77.172L286.714 77.172L287.524 78.5402ZM282.765 80.7561L282.331 79.2267L282.291 79.2379L282.253 79.2511L282.765 80.7561ZM246.063 58.8513L245.984 57.2635L244.396 57.3428L244.476 58.9307L246.063 58.8513ZM246.746 72.5124L245.158 72.5917L245.237 74.1796L246.825 74.1003L246.746 72.5124ZM258.032 69.9704L259.131 71.1184L259.131 71.1184L258.032 69.9704ZM257.546 60.2559L256.566 61.5077L256.566 61.5077L257.546 60.2559ZM248.035 98.3167L247.956 96.7288L246.368 96.8081L246.447 98.396L248.035 98.3167ZM248.793 113.496L247.205 113.575L247.285 115.163L248.873 115.083L248.793 113.496ZM279.083 81.5487L279.12 82.3077L282.296 82.149L282.258 81.3901L279.083 81.5487ZM280.562 83.8115C281.169 83.8674 281.956 84.0082 282.939 84.2503L283.699 81.1629C282.628 80.899 281.674 80.7209 280.854 80.6453L280.562 83.8115ZM283.113 84.283C283.994 84.3981 285.768 84.9739 288.583 86.1603L289.818 83.2302C287.038 82.0587 284.891 81.3086 283.525 81.1302L283.113 84.283ZM288.648 86.186C291.406 87.2083 293.817 88.5275 295.893 90.1346L297.839 87.6202C295.483 85.7967 292.783 84.3278 289.753 83.2046L288.648 86.186ZM295.929 90.1615C297.898 91.5989 299.813 93.8796 301.636 97.1116L304.405 95.5495C302.444 92.0721 300.256 89.3841 297.803 87.5934L295.929 90.1615ZM301.665 97.1605C303.499 100.156 304.533 103.641 304.734 107.658L307.91 107.499C307.686 103.015 306.52 99.0014 304.377 95.5005L301.665 97.1605ZM304.734 107.658C305.16 116.178 301.668 123.235 294.024 128.935L295.925 131.484C304.321 125.223 308.394 117.193 307.91 107.499L304.734 107.658ZM294.017 128.94C286.486 134.623 273.967 138.037 256.151 138.927L256.309 142.102C274.315 141.203 287.626 137.746 295.932 131.479L294.017 128.94ZM256.151 138.927C248.988 139.284 241.615 139.501 234.03 139.576L234.062 142.756C241.686 142.68 249.102 142.462 256.309 142.102L256.151 138.927ZM234.009 139.577C226.416 139.753 220.668 139.788 216.747 139.682L216.661 142.861C220.664 142.968 226.476 142.933 234.083 142.756L234.009 139.577ZM216.704 139.682L210.617 139.682L210.617 142.861L216.704 142.862L216.704 139.682ZM212.205 141.192L206.897 34.9394L203.721 35.098L209.029 141.351L212.205 141.192ZM205.501 36.5969C219.577 34.8822 234.439 33.6335 250.09 32.8516L249.932 29.676C234.213 30.4612 219.274 31.7159 205.117 33.4406L205.501 36.5969ZM250.09 32.8516C266.05 32.0543 277.788 34.2448 285.552 39.1584L287.252 36.4717C278.674 31.0427 266.152 28.8656 249.932 29.676L250.09 32.8516ZM285.552 39.1584C293.349 44.0927 297.315 50.5377 297.716 58.5534L300.891 58.3948C300.432 49.2077 295.798 41.88 287.252 36.4717L285.552 39.1584ZM297.716 58.5534C297.876 61.77 297.357 64.6338 296.195 67.179L299.087 68.4999C300.485 65.4391 301.074 62.0593 300.891 58.3948L297.716 58.5534ZM296.176 67.2221C295.069 69.8493 293.683 71.8384 292.056 73.2601L294.148 75.6544C296.215 73.8482 297.855 71.4255 299.106 68.4568L296.176 67.2221ZM292.056 73.2601C290.274 74.8179 288.493 76.1195 286.714 77.172L288.334 79.9083C290.299 78.7449 292.237 77.3245 294.148 75.6544L292.056 73.2601ZM286.714 77.172C284.898 78.2471 283.445 78.9104 282.331 79.2267L283.199 82.2854C284.686 81.8632 286.406 81.0492 288.334 79.9083L286.714 77.172ZM282.253 79.2511L280.158 79.9645L281.183 82.9744L283.278 82.261L282.253 79.2511ZM244.476 58.9307L245.158 72.5917L248.334 72.4331L247.651 58.772L244.476 58.9307ZM246.825 74.1003L252.138 73.8348L251.979 70.6592L246.667 70.9246L246.825 74.1003ZM252.138 73.8348C254.947 73.6945 257.337 72.8375 259.131 71.1184L256.932 68.8225C255.822 69.886 254.229 70.5468 251.979 70.6592L252.138 73.8348ZM259.131 71.1184C260.9 69.4243 261.774 67.3262 261.654 64.9201L258.478 65.0787C258.55 66.5179 258.068 67.7338 256.932 68.8225L259.131 71.1184ZM261.654 64.9201C261.533 62.5139 260.454 60.5134 258.526 59.004L256.566 61.5077C257.805 62.4777 258.406 63.6395 258.478 65.0787L261.654 64.9201ZM258.526 59.004C256.57 57.4723 254.106 56.8577 251.297 56.9981L251.455 60.1738C253.705 60.0614 255.356 60.5601 256.566 61.5077L258.526 59.004ZM251.297 56.9981L245.984 57.2635L246.143 60.4392L251.455 60.1738L251.297 56.9981ZM254.944 114.78C258.161 114.619 260.837 113.82 262.678 112.123C264.573 110.377 265.324 107.927 265.181 105.068L262.005 105.227C262.115 107.428 261.538 108.849 260.523 109.785C259.455 110.769 257.64 111.462 254.786 111.604L254.944 114.78ZM265.181 105.068C265.038 102.21 264.047 99.8475 261.987 98.2989C259.986 96.7937 257.244 96.2648 254.027 96.4255L254.186 99.6012C257.04 99.4586 258.916 99.967 260.076 100.84C261.179 101.67 261.895 103.026 262.005 105.227L265.181 105.068ZM254.027 96.4255L247.956 96.7288L248.114 99.9045L254.186 99.6012L254.027 96.4255ZM246.447 98.396L247.205 113.575L250.381 113.416L249.623 98.2373L246.447 98.396ZM248.873 115.083L254.944 114.78L254.786 111.604L248.714 111.908L248.873 115.083ZM391.548 75.9302L391.035 74.4252L389.9 74.8118L389.96 76.0095L391.548 75.9302ZM391.586 76.6891L389.998 76.7685L390.067 78.1456L391.44 78.2722L391.586 76.6891ZM394.197 77.1674L393.816 78.7111L393.903 78.7323L393.991 78.7438L394.197 77.1674ZM400.078 79.1561L399.461 80.6211L399.493 80.6347L399.526 80.6468L400.078 79.1561ZM407.744 83.3382L406.77 84.5954L406.788 84.6091L406.806 84.6222L407.744 83.3382ZM413.898 90.7913L412.514 91.5724L412.528 91.5971L412.542 91.6213L413.898 90.7913ZM405.852 124.67L404.902 123.396L404.894 123.401L405.852 124.67ZM344.923 135.627L344.908 134.037L344.897 134.037L344.886 134.038L344.923 135.627ZM327.581 135.733L327.624 134.143L327.603 134.143L327.582 134.143L327.581 135.733ZM321.495 135.732L319.907 135.812L319.982 137.322L321.495 137.322L321.495 135.732ZM316.187 29.4795L315.994 27.9013L314.525 28.0804L314.599 29.5588L316.187 29.4795ZM408.519 62.3002L407.072 61.6397L407.063 61.6612L407.054 61.6829L408.519 62.3002ZM403.98 68.918L402.934 67.7209L402.934 67.7209L403.98 68.918ZM398.401 73.0009L397.592 71.6328L397.592 71.6328L398.401 73.0009ZM393.643 75.2169L393.208 73.6875L393.169 73.6987L393.13 73.7119L393.643 75.2169ZM356.941 53.3121L356.862 51.7243L355.274 51.8036L355.353 53.3915L356.941 53.3121ZM357.623 66.9732L356.036 67.0525L356.115 68.6404L357.703 68.561L357.623 66.9732ZM368.909 64.4312L370.009 65.5792L370.009 65.5792L368.909 64.4312ZM368.424 54.7167L367.444 55.9685L367.444 55.9685L368.424 54.7167ZM358.913 92.7774L358.833 91.1896L357.245 91.2689L357.325 92.8568L358.913 92.7774ZM359.671 107.956L358.083 108.036L358.162 109.624L359.75 109.544L359.671 107.956ZM389.96 76.0095L389.998 76.7685L393.174 76.6098L393.136 75.8509L389.96 76.0095ZM391.44 78.2722C392.047 78.3282 392.834 78.469 393.816 78.7111L394.577 75.6237C393.505 75.3598 392.552 75.1817 391.732 75.106L391.44 78.2722ZM393.991 78.7438C394.871 78.8589 396.645 79.4347 399.461 80.6211L400.696 77.691C397.916 76.5195 395.768 75.7694 394.403 75.591L393.991 78.7438ZM399.526 80.6468C402.284 81.6691 404.694 82.9883 406.77 84.5954L408.717 82.081C406.361 80.2575 403.661 78.7886 400.631 77.6654L399.526 80.6468ZM406.806 84.6222C408.775 86.0597 410.691 88.3404 412.514 91.5724L415.283 90.0103C413.322 86.5329 411.134 83.8449 408.681 82.0541L406.806 84.6222ZM412.542 91.6213C414.376 94.6172 415.411 98.1022 415.611 102.118L418.787 101.96C418.563 97.4756 417.397 93.4622 415.254 89.9613L412.542 91.6213ZM415.611 102.118C416.037 110.639 412.545 117.696 404.902 123.396L406.802 125.945C415.198 119.684 419.271 111.654 418.787 101.96L415.611 102.118ZM404.894 123.401C397.364 129.084 384.844 132.497 367.028 133.387L367.187 136.563C385.193 135.664 398.503 132.207 406.81 125.939L404.894 123.401ZM367.028 133.387C359.866 133.745 352.492 133.962 344.908 134.037L344.939 137.217C352.564 137.141 359.98 136.923 367.187 136.563L367.028 133.387ZM344.886 134.038C337.294 134.214 331.545 134.249 327.624 134.143L327.539 137.322C331.541 137.429 337.354 137.393 344.96 137.216L344.886 134.038ZM327.582 134.143L321.495 134.142L321.495 137.322L327.581 137.322L327.582 134.143ZM323.083 135.653L317.774 29.4002L314.599 29.5588L319.907 135.812L323.083 135.653ZM316.379 31.0577C330.454 29.343 345.317 28.0943 360.968 27.3124L360.809 24.1368C345.09 24.922 330.152 26.1766 315.994 27.9013L316.379 31.0577ZM360.968 27.3124C376.927 26.5151 388.666 28.7055 396.43 33.6192L398.13 30.9324C389.552 25.5035 377.029 23.3264 360.809 24.1368L360.968 27.3124ZM396.43 33.6192C404.226 38.5535 408.193 44.9985 408.593 53.0142L411.769 52.8556C411.31 43.6685 406.676 36.3407 398.13 30.9324L396.43 33.6192ZM408.593 53.0142C408.754 56.2308 408.235 59.0946 407.072 61.6397L409.965 62.9607C411.363 59.8998 411.952 56.5201 411.769 52.8556L408.593 53.0142ZM407.054 61.6829C405.946 64.31 404.561 66.2992 402.934 67.7209L405.026 70.1152C407.093 68.309 408.733 65.8863 409.984 62.9176L407.054 61.6829ZM402.934 67.7209C401.151 69.2787 399.37 70.5803 397.592 71.6328L399.211 74.3691C401.177 73.2057 403.115 71.7853 405.026 70.1152L402.934 67.7209ZM397.592 71.6328C395.775 72.7079 394.322 73.3712 393.208 73.6875L394.077 76.7462C395.564 76.324 397.283 75.51 399.211 74.3691L397.592 71.6328ZM393.13 73.7119L391.035 74.4252L392.06 77.4352L394.155 76.7218L393.13 73.7119ZM355.353 53.3915L356.036 67.0525L359.211 66.8939L358.529 53.2328L355.353 53.3915ZM357.703 68.561L363.015 68.2956L362.857 65.12L357.544 65.3854L357.703 68.561ZM363.015 68.2956C365.825 68.1553 368.215 67.2983 370.009 65.5792L367.809 63.2832C366.699 64.3468 365.107 65.0075 362.857 65.12L363.015 68.2956ZM370.009 65.5792C371.777 63.8851 372.651 61.787 372.531 59.3809L369.355 59.5395C369.427 60.9787 368.945 62.1946 367.809 63.2832L370.009 65.5792ZM372.531 59.3809C372.411 56.9747 371.332 54.9742 369.404 53.4648L367.444 55.9685C368.683 56.9385 369.284 58.1003 369.355 59.5395L372.531 59.3809ZM369.404 53.4648C367.447 51.9331 364.984 51.3185 362.174 51.4589L362.333 54.6346C364.583 54.5222 366.233 55.0209 367.444 55.9685L369.404 53.4648ZM362.174 51.4589L356.862 51.7243L357.02 54.9L362.333 54.6346L362.174 51.4589ZM365.822 109.241C369.039 109.08 371.714 108.281 373.556 106.584C375.45 104.837 376.201 102.388 376.059 99.5293L372.883 99.6879C372.993 101.889 372.416 103.31 371.401 104.245C370.333 105.23 368.518 105.923 365.663 106.065L365.822 109.241ZM376.059 99.5293C375.916 96.6709 374.924 94.3082 372.865 92.7597C370.864 91.2545 368.122 90.7256 364.905 90.8863L365.063 94.062C367.918 93.9194 369.793 94.4278 370.954 95.3008C372.057 96.1304 372.773 97.4867 372.883 99.6879L376.059 99.5293ZM364.905 90.8863L358.833 91.1896L358.992 94.3653L365.063 94.062L364.905 90.8863ZM357.325 92.8568L358.083 108.036L361.259 107.877L360.5 92.6981L357.325 92.8568ZM359.75 109.544L365.822 109.241L365.663 106.065L359.592 106.369L359.75 109.544ZM502.2 20.1867L503.702 19.6643L503.31 18.5394L502.121 18.5988L502.2 20.1867ZM538.625 124.885L538.704 126.473L540.824 126.367L540.127 124.362L538.625 124.885ZM494.606 127.084L493.065 127.473L493.384 128.737L494.685 128.672L494.606 127.084ZM490.812 112.057L492.353 111.667L492.034 110.404L490.733 110.469L490.812 112.057ZM471.079 113.042L471 111.455L469.698 111.52L469.507 112.809L471.079 113.042ZM468.802 128.373L468.881 129.961L470.183 129.896L470.374 128.607L468.802 128.373ZM424.783 130.572L423.237 130.202L422.743 132.266L424.862 132.16L424.783 130.572ZM450.592 22.7649L450.512 21.1771L449.323 21.2365L449.045 22.3948L450.592 22.7649ZM474.42 88.5286L472.846 88.3034L472.573 90.2127L474.499 90.1165L474.42 88.5286ZM485.045 87.9978L485.124 89.5857L487.051 89.4894L486.588 87.6169L485.045 87.9978ZM478.367 60.9411L479.911 60.5601L476.794 60.7159L478.367 60.9411ZM500.698 20.709L537.123 125.407L540.127 124.362L503.702 19.6643L500.698 20.709ZM538.546 123.297L494.527 125.496L494.685 128.672L538.704 126.473L538.546 123.297ZM496.147 126.695L492.353 111.667L489.27 112.446L493.065 127.473L496.147 126.695ZM490.733 110.469L471 111.455L471.159 114.63L490.891 113.645L490.733 110.469ZM469.507 112.809L467.229 128.139L470.374 128.607L472.652 113.276L469.507 112.809ZM468.722 126.785L424.703 128.984L424.862 132.16L468.881 129.961L468.722 126.785ZM426.329 130.942L452.138 23.135L449.045 22.3948L423.237 130.202L426.329 130.942ZM450.671 24.3527L502.279 21.7745L502.121 18.5988L450.512 21.1771L450.671 24.3527ZM474.499 90.1165L485.124 89.5857L484.966 86.41L474.34 86.9408L474.499 90.1165ZM486.588 87.6169L479.911 60.5601L476.824 61.322L483.501 88.3787L486.588 87.6169ZM476.794 60.7159L472.846 88.3034L475.993 88.7538L479.941 61.1663L476.794 60.7159Z" fill="black"/>
<path d="M347.054 92.8444L372.821 166.907L341.682 168.463L338.998 157.833L325.039 158.53L323.428 169.375L292.29 170.93L310.547 94.6682L347.054 92.8444ZM327.402 141.189L334.919 140.813L330.195 121.674L327.402 141.189ZM405.468 110.378L405.817 117.358C409.378 116.821 413.306 116.445 417.601 116.231C426.478 115.787 433.645 117.761 439.103 122.153C444.561 126.545 447.469 132.32 447.826 139.479C448.195 146.852 445.594 152.974 440.025 157.845C434.452 162.644 426.01 165.326 414.7 165.891C409.26 166.163 403.671 166.335 397.934 166.406C392.2 166.549 387.824 166.588 384.807 166.524L380.287 166.534L376.532 91.3717L435.588 88.4214L436.607 108.823L405.468 110.378ZM413.198 135.826L406.756 136.148L407.292 146.886L413.735 146.564C415.524 146.474 417.001 145.862 418.164 144.728C419.395 143.518 419.977 142.233 419.909 140.873C419.841 139.513 419.136 138.328 417.794 137.319C416.52 136.235 414.988 135.737 413.198 135.826ZM482.749 106.517L483.097 113.497C486.659 112.96 490.587 112.584 494.882 112.37C503.758 111.926 510.925 113.901 516.383 118.293C521.841 122.684 524.749 128.459 525.107 135.618C525.475 142.991 522.875 149.113 517.305 153.984C511.732 158.783 503.291 161.465 491.981 162.031C486.54 162.302 480.952 162.474 475.214 162.545C469.48 162.688 465.105 162.727 462.088 162.663L457.567 162.673L453.812 87.511L512.868 84.5606L513.887 104.962L482.749 106.517ZM490.479 131.966L484.036 132.287L484.573 143.025L491.015 142.703C492.805 142.614 494.281 142.002 495.444 140.867C496.676 139.657 497.257 138.373 497.189 137.012C497.121 135.652 496.416 134.468 495.074 133.458C493.8 132.374 492.268 131.876 490.479 131.966ZM584.243 80.9949L610.01 155.058L578.871 156.613L576.187 145.983L562.229 146.68L560.618 157.525L529.479 159.081L547.736 82.8187L584.243 80.9949ZM564.592 129.339L572.108 128.964L567.384 109.824L564.592 129.339Z" fill="black"/>
<rect x="-25" y="245.787" width="684.418" height="387.121" transform="rotate(-2.86 -25 245.787)" fill="black"/>
<path fill-rule="evenodd" clip-rule="evenodd" d="M363.109 306.457C362.711 306.684 361.472 315.917 360.355 326.975C358.137 348.933 353.322 395.369 350.964 417.536C349.844 428.074 349.758 431.612 350.621 431.809C351.253 431.953 353.859 431.868 356.413 431.621L361.056 431.172L361.86 422.709C362.303 418.054 362.839 413.831 363.051 413.323C363.337 412.639 365.732 412.337 372.297 412.159L381.157 411.918L381.968 415.738C382.414 417.839 383.203 422.018 383.722 425.025C384.241 428.031 385.011 430.203 385.436 429.852C385.86 429.501 386.499 425.263 386.857 420.435C387.216 415.606 387.705 411.397 387.946 411.08C388.709 410.078 405.198 409.554 405.761 410.514C406.036 410.983 407.018 415.197 407.946 419.88L409.63 428.394L415.488 428.102L421.346 427.809L420.286 422.773C419.705 420.003 417.848 411.647 416.16 404.204C414.474 396.76 411.174 381.764 408.827 370.879C403.021 343.941 394.391 305.303 394.143 305.14C393.655 304.817 363.758 306.086 363.109 306.457ZM600.684 294.558C594.263 296.403 585.578 301.274 582.21 304.92C574.391 313.379 573.839 318.88 576.647 360.389C579.026 395.564 579.687 399.201 584.935 406.048C588.471 410.659 593.32 413.676 601.447 416.32C606.862 418.081 609.127 418.428 613.723 418.198C628.326 417.469 641.736 406.8 644.104 394.026C645.447 386.784 641.087 319.472 638.95 314.461C634.94 305.056 628.443 299.454 617.818 296.241C610.325 293.975 604.653 293.418 600.684 294.558ZM807.341 284.977C797.078 288.24 788.979 294.683 786.335 301.689C785.563 303.737 784.896 308.753 784.853 312.835C784.69 328.367 790.95 335.639 816.102 349.142C827.698 355.367 834.574 359.875 838.588 363.884C842.021 367.313 842.348 368.047 843.011 373.782C843.721 379.918 843.702 379.995 840.926 382.251C837.364 385.146 832.724 385.556 829.024 383.303C825.775 381.325 824.287 376.048 823.592 364.02L823.278 358.596L815.078 359.006L806.878 359.416L810.344 362.577C816.532 368.217 817.504 369.974 817.875 376.178C818.178 381.238 817.971 382.103 816.065 383.754C813.322 386.129 809.829 386.951 806.264 386.06C801.338 384.83 800.152 382.314 799.011 370.688L797.983 360.211L792.73 360.473L787.477 360.736L788.357 372.975C789.327 386.464 790.522 391.278 794.046 395.882C798.889 402.208 810.878 407.277 821.617 407.539C828.856 407.715 836.253 405.328 842.374 400.841C851.281 394.311 854.325 386.617 853.636 372.38C853.142 362.178 851.887 357.863 847.715 352.031C842.783 345.137 835.564 340.484 808.076 326.475C799.91 322.314 796.815 319.916 795.221 316.513C792.871 311.493 795.976 307.318 802.293 307.002C809.521 306.641 812.203 309.727 812.673 318.943L812.932 324.018L821.162 323.607L829.393 323.196L825.754 320.534C823.752 319.069 821.665 317.1 821.114 316.158C817.461 309.899 823.526 303.652 831.356 305.609C835.337 306.604 837.112 309.371 838.106 316.129L838.97 322.016L843.713 321.779L848.455 321.542L847.543 311.936C846.799 304.092 846.192 301.591 844.231 298.296C840.137 291.421 830.503 285.859 819.621 284.089C813.211 283.047 813.476 283.027 807.341 284.977ZM141.613 379.949L144.729 442.33L164.274 441.354C187.048 440.216 190.94 439.339 198.797 433.579C209.051 426.061 211.941 416.22 210.066 395.197C208.683 379.685 207.217 375.601 201.845 372.269L198.405 370.137L201.194 367.562C204.843 364.193 205.535 361.539 205.739 350.141C205.946 338.534 204.296 330.971 200.464 325.954C197.231 321.724 193.713 319.61 186.37 317.487C181.216 315.998 180.272 315.972 159.761 316.756L138.496 317.568L141.613 379.949ZM249.551 374.658L252.666 437.004L258.625 436.498L264.585 435.991L263.215 408.57C262.461 393.488 262.137 380.911 262.493 380.621C263.636 379.69 271.947 380.581 273.855 381.838C277.331 384.128 277.961 387.686 279.176 411.924L280.363 435.554L285.138 435.316L289.914 435.077L288.515 407.071L287.116 379.065L291.824 378.83C296.648 378.589 298.425 379.231 300.92 382.115C301.835 383.173 302.663 390.524 303.92 408.758L305.657 433.94L311.202 433.874L316.745 433.808L315.091 406.305C313.214 375.117 313.281 375.354 305.171 371.379C301.803 369.727 301.322 369.247 302.652 368.861C305.571 368.014 310.489 363.698 312.4 360.306C314.109 357.273 314.201 355.799 313.523 342.3C312.827 328.469 312.638 327.359 310.318 323.592C305.682 316.063 297.442 311.914 285.503 311.094C282.141 310.864 271.976 311.044 262.914 311.494L246.437 312.311L249.551 374.658ZM407.499 316.197L408.093 328.1L416.212 327.694C423.38 327.336 424.324 327.141 424.269 326.034C424.201 324.68 420.903 309.615 419.867 305.928L419.234 303.678L413.07 303.986L406.904 304.294L407.499 316.197ZM430.422 315.029L431.015 326.91L442.248 326.546L453.481 326.183L456.238 376.432L458.993 426.681L468.29 426.015L477.586 425.35L475.085 375.289L472.584 325.229L481.41 324.586L490.235 323.943L490.03 319.944C489.919 317.745 489.371 312.414 488.814 308.099L487.801 300.253L458.814 301.701L429.828 303.149L430.422 315.029ZM495.374 311.807L495.969 323.71L503.132 323.352L510.296 322.994L509.701 311.091L509.107 299.189L501.943 299.547L494.779 299.904L495.374 311.807ZM519.173 347.355C520.507 374.056 522.191 402.078 522.914 409.625L524.23 423.348L532.904 422.708L541.578 422.068L540.567 401.982C540.01 390.934 538.507 362.996 537.226 339.898L534.896 297.9L525.822 298.354L516.748 298.807L519.173 347.355ZM681.004 340.611C682.683 368.033 684.34 395.903 684.687 402.545L685.317 414.622L690.57 414.359L695.824 414.097L694.348 384.55C693.536 368.3 693.236 355.285 693.682 355.63C694.488 356.252 700.013 370.533 710.186 398.288L715.492 412.763L718.697 412.83L721.902 412.898L719.833 383.469C718.646 366.587 718.124 354.023 718.607 353.999C719.072 353.976 721.218 358.527 723.377 364.114C726.742 372.819 740.676 411.038 740.706 411.645C740.712 411.759 743.297 411.725 746.452 411.567L752.189 411.281L748.858 349.505L745.527 287.728L740.025 287.793L734.522 287.857L735.929 316.015C736.702 331.502 737.059 343.99 736.72 343.768C736.034 343.315 734.386 339.161 730.243 327.447C728.701 323.085 726.032 315.954 724.314 311.6C722.596 307.246 720.546 301.505 719.757 298.843C718.968 296.18 717.724 292.925 716.993 291.611C715.84 289.536 715.196 289.214 712.106 289.176L708.547 289.132L710.28 317.168C711.232 332.588 711.69 345.22 711.295 345.24C710.901 345.259 710.57 345.088 710.558 344.859C710.547 344.631 706.236 332.923 700.979 318.841C695.722 304.76 691.183 292.541 690.893 291.686C690.411 290.269 689.826 290.16 684.159 290.443L677.951 290.754L681.004 340.611ZM-20.9525 326.808C-20.9405 327.047 -20.1457 330.403 -19.1857 334.265C-18.2258 338.127 -15.7955 348.153 -13.7857 356.546C0.56593 416.46 7.81207 446.158 8.59091 448.254C9.15178 449.763 9.49488 449.788 21.5022 449.188C32.4284 448.642 33.8847 448.429 34.2584 447.323C34.4903 446.636 35.4961 440.031 36.4936 432.646C37.4901 425.262 39.5597 410.471 41.0919 399.778C42.6241 389.086 44.8795 373.338 46.1039 364.784C47.3284 356.23 48.8989 344.465 49.5951 338.639C50.2904 332.814 51.0689 326.853 51.3234 325.393L51.7863 322.737L45.4937 323.052C42.0331 323.225 39.214 323.624 39.2297 323.939C39.2724 324.794 35.6643 363.51 34.2557 377.308C33.5817 383.905 32.8781 392.073 32.6911 395.46C32.5041 398.848 32.0152 401.636 31.6055 401.656C31.1957 401.677 30.4502 399.424 29.9497 396.65C22.2474 353.989 16.1979 324.515 15.1539 324.567C14.3611 324.607 13.9843 327.186 12.7758 340.83C12.2782 346.452 11.0444 359.938 10.0338 370.798C9.02417 381.657 8.03563 393.323 7.83769 396.721C7.63978 400.12 7.11578 403.086 6.6742 403.313C6.23265 403.541 5.82738 402.999 5.77436 402.111C5.72039 401.222 5.12307 397.68 4.44656 394.239C3.77005 390.799 2.32177 383.448 1.22711 377.906C0.132451 372.363 -2.50555 358.755 -4.6347 347.666C-6.76384 336.577 -8.71856 327.12 -8.97855 326.65C-9.46156 325.78 -20.9963 325.931 -20.9525 326.808ZM59.1788 322.894C59.024 323.918 63.8969 412.314 64.1157 412.459C64.5623 412.753 76.6018 324.493 76.4714 321.884C76.4419 321.294 59.2696 322.297 59.1788 322.894ZM87.2055 383.41L90.3199 445.75L99.3987 445.297L108.479 444.843L105.13 382.717L101.782 320.591L92.9365 320.83L84.0912 321.071L87.2055 383.41ZM113.304 320.312C113.022 320.682 114.077 342.029 115.647 367.748C117.219 393.468 118.825 421.208 119.217 429.391L119.93 444.271L122.24 444.156C127.993 443.868 127.815 448.763 124.492 382.258C122.822 348.829 121.17 320.992 120.821 320.399C120.126 319.218 114.189 319.15 113.304 320.312ZM766.597 294.748C754.837 307.498 756.611 327.533 770.432 338.074L773.455 340.379L772.671 326.381C772.24 318.681 771.383 307.669 770.769 301.909L769.651 291.437L766.597 294.748ZM221.661 323.187C221.17 326.003 223.851 366.718 224.557 367.184C224.783 367.333 226.045 366.195 227.361 364.656C230.857 360.569 231.579 355.133 230.433 341.547C229.389 329.164 228.24 325.672 224.055 322.144L222.125 320.518L221.661 323.187ZM557.634 305.304C554.566 308.019 551.303 313.923 550.301 318.574C549.642 321.627 550.02 333.325 551.646 360.246C553.673 393.799 554.103 398.062 555.806 401.438C558.325 406.429 561.893 411 564.458 412.521L566.538 413.754L564.691 379.52C563.676 360.691 562.114 335.899 561.221 324.427L559.597 303.568L557.634 305.304ZM656.111 353.353C657.912 383.324 659.545 407.967 659.741 408.115C660.212 408.473 663.426 405.44 665.527 402.657C666.449 401.435 667.898 398.506 668.75 396.147C670.17 392.206 670.142 388.959 668.403 356.156C667.177 333.031 666.03 318.623 665.144 315.258C663.646 309.562 659.136 302.75 655.291 300.376L652.838 298.862L656.111 353.353ZM335.822 326.095C334.905 330.476 331.625 363.843 332.078 364.184C333.115 364.967 337.017 360.047 338.329 356.302C339.45 353.102 339.613 349.648 339.08 340.321C338.707 333.777 337.937 327.34 337.371 326.018L336.341 323.612L335.822 326.095ZM626.532 317.541C629.611 319.817 629.957 322.397 632.008 358.346C633.679 387.63 633.699 390.372 632.256 392.168C630.419 394.453 625.1 395.745 621.579 394.762C616.17 393.251 615.958 392.309 613.521 358.898C610.716 320.458 610.841 318.772 616.665 316.554C620.332 315.158 623.773 315.503 626.532 317.541ZM599.825 318.196C601.007 318.73 602.5 320.404 603.143 321.916C603.887 323.665 604.998 336.989 606.196 358.525L608.081 392.385L605.856 394.313C603.443 396.405 598.756 397.104 595.186 395.905C590.44 394.311 590.107 392.554 587.856 357.212C585.624 322.166 585.682 321.077 589.9 318.638C592.424 317.179 597.112 316.97 599.825 318.196ZM189.867 339.976C192.755 341.879 193.842 345.107 193.62 351.13C193.402 357.051 191.143 359.125 183.815 360.132C180.022 360.653 178.55 360.592 177.876 359.886C176.842 358.803 175.693 340.179 176.614 339.43C176.951 339.156 179.539 338.816 182.365 338.675C186.507 338.468 187.961 338.72 189.867 339.976ZM165.165 341.862C167.502 343.178 167.906 343.984 168.545 348.617C169.376 354.628 168.222 358.613 165.197 360.178C162.53 361.557 157.395 362.479 154.512 362.096C152.196 361.788 152.196 361.787 151.675 351.362L151.154 340.936L156.832 340.652C161.392 340.424 163.033 340.662 165.165 341.862ZM299.261 335.503C302.55 337.671 303.917 341.617 303.266 347.066C302.627 352.419 299.428 354.585 291.584 354.977L285.927 355.26L285.402 344.757L284.877 334.255L290.682 333.965C295.766 333.711 296.83 333.902 299.261 335.503ZM274.581 337.523C276.716 338.93 277.533 340.132 277.694 342.105C278.202 348.314 277.878 351.895 276.674 353.412C275.1 355.39 269.602 356.967 264.464 356.914L260.632 356.874L259.852 346.56L259.072 336.246L265.379 335.931C271.078 335.646 271.966 335.801 274.581 337.523ZM372.258 359.073C373.854 368.615 375.611 379.018 376.164 382.192C376.716 385.366 376.979 388.117 376.748 388.304C376.516 388.492 373.605 388.782 370.278 388.948C363.089 389.307 363.685 391.122 364.824 372.359C365.258 365.205 365.835 354.918 366.106 349.499C366.377 344.081 366.827 338.847 367.105 337.868C367.555 336.285 367.708 336.401 368.484 338.906C368.965 340.456 370.663 349.531 372.258 359.073ZM396.58 354.722C401.785 384.079 402.041 385.913 401.048 386.72C399.565 387.926 390.055 388.13 389.373 386.971C388.759 385.928 391.112 338.66 391.89 336.402C392.138 335.685 392.533 335.226 392.771 335.381C393.007 335.538 394.721 344.241 396.58 354.722ZM225.038 385.5C225.388 394.265 225.919 407.511 226.217 414.934C226.555 423.335 227.103 428.329 227.67 428.159C229.641 427.572 233.767 420.232 234.913 415.273C236.393 408.873 234.644 380.211 232.518 376.024C231.176 373.381 226.79 369.444 225.271 369.52C224.778 369.545 224.676 376.464 225.038 385.5ZM329.872 381.316C329.251 387.234 327.765 401.127 326.569 412.189C325.374 423.251 324.738 432.536 325.156 432.822C325.574 433.107 329.31 433.079 333.458 432.758L340.998 432.174L339.969 405.904C339.248 387.491 338.568 378.814 337.693 376.889C336.391 374.023 333.066 370.452 331.76 370.517C331.343 370.538 330.494 375.398 329.872 381.316ZM434.514 395.215C435.229 410.235 436.138 423.692 436.536 425.12C437.259 427.712 437.267 427.715 441.979 427.48L446.699 427.244L445.864 423.25C445.406 421.053 443.395 411.915 441.396 402.943C439.397 393.971 436.914 382.724 435.877 377.95C434.841 373.176 433.818 368.963 433.604 368.588C433.39 368.213 433.799 380.195 434.514 395.215ZM191.707 383.527C195.67 384.807 197.21 387.552 198.383 395.43C199.739 404.537 198.634 410.513 195.06 413.419C192.77 415.279 191.382 415.74 186.561 416.237L180.8 416.832L179.956 399.944L179.112 383.057L183.936 382.816C186.589 382.683 190.085 383.003 191.707 383.527ZM168.846 386.297C171.804 388.718 172.859 392.29 173.322 401.442C173.961 414.048 171.837 417.138 161.826 418.172L156.291 418.743L154.8 402.602C153.979 393.724 153.587 386.095 153.927 385.647C154.321 385.13 156.818 384.826 160.777 384.813C165.818 384.797 167.358 385.08 168.846 386.297ZM763.113 376.131C764.451 392 765.064 393.86 770.917 399.789C776.886 405.836 776.862 405.929 775.415 382.553L774.104 361.404L767.995 361.498L761.886 361.592L763.113 376.131ZM813.876 409.992C808.061 411.918 800.193 416.655 797.414 419.901C790.757 427.677 789.312 442.649 794.322 451.933C798.557 459.78 803.034 463.207 825.792 476.016C846.689 487.776 849.436 490.539 849.964 500.334C850.264 505.868 850.147 506.262 847.684 507.993C844.935 509.928 840.656 510.548 837.465 509.477C833.381 508.106 832.134 505.072 831.185 494.194L830.286 483.886L822.215 484.289C813.379 484.731 813.512 484.576 818.382 488.732C822.616 492.344 824.755 496.495 825.094 501.758C825.336 505.514 825.009 506.902 823.49 508.554C819.469 512.929 811.914 512.718 808.529 508.136C807.192 506.326 806.638 503.65 806.181 496.799C805.375 484.749 805.599 485.119 799.339 485.432L794.198 485.689L794.708 495.315C795.279 506.096 796.784 513.761 799.278 518.608C801.55 523.024 809.563 528.697 816.694 530.937C821.525 532.456 823.444 532.659 829.898 532.337C840.884 531.788 848.667 528.395 854.38 521.666C859.281 515.891 860.701 511.182 860.748 500.546C860.842 479.588 854.481 471.889 824.337 456.474C804.164 446.159 801.705 444.282 801.441 439.005C801.245 435.087 804.349 432.54 809.642 432.275C812.316 432.142 814.062 432.504 815.438 433.48C817.786 435.145 819.695 440.213 819.958 445.481L820.149 449.298L828.389 448.886L836.63 448.474L832.6 445.586C830.383 443.997 827.991 441.462 827.285 439.953C824.655 434.338 831.028 429.003 838.219 430.8C842.1 431.77 843.567 434.144 844.559 441.059L845.408 446.983L850.559 446.941L855.712 446.899L854.742 437.607C853.993 430.427 853.226 427.308 851.368 423.878C845.527 413.093 826.164 405.921 813.876 409.992ZM368.942 434.814C368.72 436.465 367.542 447.816 366.326 460.037C361.569 507.819 357.736 544.986 356.591 554.438L356.223 557.474L362.247 556.963L368.273 556.451L368.959 547.643C369.335 542.799 369.672 538.755 369.707 538.657C369.741 538.558 373.823 538.275 378.779 538.028C389.158 537.509 388.362 536.963 389.73 545.553C391.725 558.095 393.214 558.897 393.605 547.64C394.02 535.66 393.193 536.606 403.702 536.081L412.629 535.635L413.276 537.884C413.984 540.35 416.392 552.118 416.475 553.517C416.509 554.119 418.313 554.302 422.257 554.105C427.085 553.864 427.975 553.626 427.908 552.595C427.806 551.035 425.143 538.554 421.127 520.821C419.399 513.187 414.361 490.539 409.93 470.493C405.5 450.447 401.588 433.191 401.236 432.148L400.596 430.249L384.971 431.03L369.345 431.811L368.942 434.814ZM455.936 428.025L436.126 429.205L436.702 440.743L437.278 452.281L448.74 451.709L460.202 451.136L461.298 473.076C461.901 485.143 463.319 507.814 464.45 523.455L466.505 551.895L475.424 551.449L484.343 551.004L481.844 500.995L479.346 450.987L487.918 450.065L496.49 449.142L495.917 437.68L495.344 426.218L491.757 426.288C484.447 426.43 475.244 426.876 455.936 428.025ZM504.413 425.657C501.219 426.332 501.341 425.23 502.629 441.822L503.185 448.989L510.348 448.631L517.512 448.273L516.935 436.721C516.394 425.891 516.246 425.174 514.567 425.258C513.582 425.307 511.534 425.282 510.016 425.202C508.498 425.123 505.977 425.327 504.413 425.657ZM523.957 436.545C524.628 443.364 526.305 471.392 527.684 498.828L530.19 548.713L539.264 548.26L548.338 547.806L545.493 490.85C543.928 459.524 542.249 431.497 541.762 428.567L540.877 423.241L531.806 423.694L522.736 424.148L523.957 436.545ZM600.821 422.397C590.734 426.857 585.152 432.796 582.808 441.563C581.814 445.285 581.882 451.859 583.18 477.28C585.542 523.54 586.803 528.8 597.322 536.306C607.916 543.865 620.854 545.696 631.471 541.138C643.037 536.172 649.674 528.211 651.264 517.396C652.533 508.759 648.265 447.668 645.914 440.817C643.577 434.012 639.89 429.467 633.68 425.742C622.094 418.791 611.43 417.706 600.821 422.397ZM685.037 416.625C684.754 416.995 684.947 422.449 685.464 428.743C685.982 435.037 687.569 462.633 688.991 490.068L691.578 539.949L697.299 539.663L703.019 539.377L701.791 509.783L700.562 480.189L706.313 494.993C711.329 507.904 719.286 529.416 721.544 536.17C722.201 538.133 722.674 538.395 725.323 538.263L728.352 538.112L726.599 508.552C725.595 491.604 725.218 479.27 725.717 479.643C726.753 480.415 732.006 493.313 737.341 508.183C743.747 526.038 746.907 534.666 747.498 535.927C747.955 536.899 749.167 537.072 753.883 536.836L759.705 536.545L757.736 509.796C756.652 495.083 754.975 467.214 754.007 447.864L752.248 412.682L746.39 412.974L740.531 413.267L742.369 441.251C743.379 456.642 743.851 469.253 743.418 469.275C742.984 469.296 742.605 468.818 742.575 468.213C742.544 467.607 741.546 464.578 740.356 461.48C739.166 458.383 735.439 448.406 732.073 439.309C728.708 430.212 725.145 420.836 724.155 418.472C722.399 414.282 722.275 414.179 719.154 414.335L715.952 414.495L717.358 442.641C718.188 459.247 718.4 470.531 717.875 470.165C717.387 469.822 715.689 465.817 714.104 461.263C712.518 456.71 708.661 446.164 705.532 437.827C702.403 429.49 699.273 421.119 698.575 419.223L697.307 415.777L691.428 415.864C688.196 415.911 685.319 416.253 685.037 416.625ZM122.99 502.902C124.671 534.764 126.333 562.792 126.681 565.187L127.316 569.542L130.574 569.379L133.832 569.216L130.719 506.903L127.606 444.589L123.769 444.781L119.933 444.973L122.99 502.902ZM147.222 492.223C148.557 518.955 150.244 547.028 150.971 554.609L152.293 568.391L172.425 567.161C192.185 565.954 192.655 565.891 197.834 563.729C200.735 562.518 204.981 559.903 207.269 557.918C216.172 550.193 217.843 544.328 216.888 524.156C216.089 507.301 214.474 501.984 209.109 498.555C205.334 496.141 205.115 495.431 207.582 493.61C211.804 490.496 212.533 486.594 211.765 471.231L211.046 456.84L207.532 452.27C203.824 447.451 200.771 445.365 194.196 443.161C190.447 441.904 188.714 441.875 167.49 442.718L144.794 443.619L147.222 492.223ZM256.068 500.408L259.419 562.591L265.399 562.502L271.379 562.411L269.979 534.372L268.578 506.333L272.353 506.144C274.43 506.04 277.17 506.246 278.442 506.601C283.544 508.027 283.761 508.889 285.877 536.177L287.843 561.522L291.31 561.338C297.738 560.997 297.498 562.624 295.597 532.266L293.872 504.718L298.452 504.536C304.199 504.306 307.688 506.337 309.081 510.722C309.608 512.38 310.571 524.032 311.223 536.614C312.552 562.275 311.765 560.206 319.86 559.318L324.107 558.853L322.287 532.525C321.123 515.693 320.022 505.263 319.234 503.608C317.837 500.675 312.951 496.678 310.143 496.17C307.812 495.75 307.677 494.775 309.862 494.144C315.009 492.659 319.457 487.008 320.809 480.234C321.87 474.924 321.197 461.224 319.588 455.358C317.169 446.54 310.872 440.573 301.162 437.9C296.556 436.631 294.696 436.595 274.464 437.38L252.717 438.224L256.068 500.408ZM413.668 432.492C414.056 433.679 414.592 439.022 414.859 444.364L415.345 454.079L422.93 453.7C427.102 453.492 430.683 453.076 430.89 452.776C431.097 452.476 430.14 447.155 428.763 440.95L426.259 429.669L419.61 430.001L412.962 430.334L413.668 432.492ZM-14.0461 454.298C-13.2756 456.803 -8.10494 477.847 -5.14364 490.528C1.113 517.324 15.1305 573.54 15.9269 575.03C16.3431 575.809 18.6227 575.783 28.5394 574.888C35.1969 574.288 40.7845 573.681 40.9566 573.542C41.3164 573.249 41.8896 569.409 44.7048 548.4C45.8251 540.045 47.384 528.754 48.1691 523.31C52.7779 491.36 58.0581 451.651 57.9595 449.677C57.9273 449.033 56.172 448.86 51.87 449.075L45.8257 449.377L45.1054 458.362C44.0798 471.163 42.1014 492.399 41.2801 499.439C40.8954 502.739 40.197 510.324 39.7292 516.292C39.2613 522.261 38.7042 527.287 38.4917 527.459C37.9322 527.913 36.9708 524.599 36.0392 519.003C35.5922 516.323 34.6774 511.315 34.0057 507.874C33.334 504.433 31.5792 495.203 30.1064 487.363C26.2376 466.77 22.8708 451.186 22.1936 450.74C21.8708 450.527 21.4353 450.493 21.2265 450.664C20.8337 450.987 16.3632 498.143 14.8519 517.919C14.3793 524.099 13.8294 529.288 13.6307 529.45C13.1126 529.871 12.5985 527.439 5.42966 490.701C1.88533 472.541 -1.34389 456.357 -1.74561 454.736L-2.47788 451.79L-8.55463 452.094L-14.6304 452.397L-14.0461 454.298ZM67.9064 493.722C69.29 520.402 70.5531 538.171 70.9766 536.91C71.3716 535.733 72.97 525.387 74.5268 513.921C76.0835 502.455 77.8352 489.734 78.4183 485.651C79.8579 475.577 82.8786 450.135 82.8066 448.695C82.7568 447.697 81.5278 447.593 74.1521 447.962L65.5556 448.391L67.9064 493.722ZM92.7732 486.864C94.14 508.703 95.7709 536.576 96.3969 548.801L97.5361 571.029L106.752 570.569L115.967 570.109L113.341 529.705C111.897 507.484 110.226 479.614 109.627 467.773L108.538 446.244L99.4133 446.7L90.2896 447.155L92.7732 486.864ZM773.892 419.497C772.304 420.831 769.946 423.87 768.653 426.251C766.679 429.887 766.291 431.884 766.228 438.737C766.123 450.22 768.796 456.415 776.688 462.972L779.786 465.545L778.574 441.294C777.908 427.955 777.232 417.049 777.072 417.057C776.913 417.065 775.481 418.162 773.892 419.497ZM229.426 469.55C230.069 482.763 230.946 493.393 231.375 493.173C231.802 492.952 233.27 491.465 234.635 489.867C236.897 487.223 237.168 486.068 237.663 476.959C238.497 461.593 236.047 452.207 229.804 446.854C228.399 445.649 228.364 447.736 229.426 469.55ZM564.34 430.966C560.878 433.913 557.606 440.184 556.696 445.614C555.794 450.998 557.648 489.473 559.784 509.683C560.996 521.151 561.686 524.505 563.644 528.442C565.754 532.683 571.198 538.943 572.712 538.868C573.224 538.843 568.12 439.8 567.215 432.226L566.814 428.859L564.34 430.966ZM663.076 478.485C664.856 508.471 666.57 533.175 666.886 533.383C667.66 533.893 670.58 530.826 673.123 526.833C677.812 519.471 678.093 510.226 674.846 470.244C672.929 446.644 672.11 440.074 670.671 436.761C668.817 432.489 665.622 428.391 661.961 425.589L659.841 423.966L663.076 478.485ZM340.919 466.732C339.935 476.344 338.956 485.638 338.745 487.386C338.363 490.548 338.37 490.557 340.263 489.19C341.308 488.435 343.09 486.135 344.221 484.079C346.163 480.549 346.237 479.542 345.56 465.988C344.504 444.848 343.14 445.067 340.919 466.732ZM606.819 443.987C610.599 446.126 611.25 450.229 613.36 485.248C615.362 518.456 615.273 519.614 610.588 521.443C606.124 523.186 601.966 522.33 599.045 519.068C597.291 517.109 596.943 514.312 594.628 483.57C592.239 451.844 592.195 450.065 593.746 447.472C596.457 442.938 602.241 441.395 606.819 443.987ZM633.515 443.406C636.437 446.009 637.032 450.62 638.955 485.555C640.873 520.375 640.947 520.017 631.805 520.474C628.198 520.654 624.831 518.646 623.397 515.461C622.877 514.305 621.414 498.907 620.143 481.244C617.685 447.048 617.775 445.102 621.919 442.684C625.156 440.794 630.993 441.157 633.515 443.406ZM172.33 467.71C173.988 468.762 174.415 470.071 174.975 475.821C175.601 482.253 175.504 482.806 173.412 484.777C171.518 486.562 170.3 486.969 165.323 487.483L159.463 488.088L158.937 477.546L158.41 467.004L161.5 466.561C166.161 465.892 170.127 466.313 172.33 467.71ZM197.48 466.043C200.038 468.199 201.531 475.335 200.27 479.38C198.974 483.539 195.772 485.404 189.379 485.723L184.254 485.979L183.73 475.477L183.205 464.974L189.344 464.668C194.781 464.396 195.712 464.554 197.48 466.043ZM306.5 461.271C308.749 462.752 309.089 463.591 309.655 469.07C310.249 474.814 310.139 475.354 307.95 477.462C306.009 479.331 304.699 479.83 300.267 480.389C291.924 481.441 292.249 481.819 291.679 470.411C291.111 459.042 290.821 459.459 299.232 459.555C302.695 459.596 304.661 460.06 306.5 461.271ZM279.657 462.003C286.225 464.97 287.07 478.297 280.866 481.096C279.827 481.565 276.369 482.079 273.183 482.238L267.388 482.528L266.864 472.025L266.339 461.523L271.857 461.247C275.413 461.07 278.187 461.338 279.657 462.003ZM379.564 487.803C381.918 501.583 383.856 513.266 383.872 513.766C383.893 514.438 382.242 514.703 377.502 514.786L371.104 514.898L371.097 510.336C371.093 507.827 371.322 502.446 371.606 498.378C371.889 494.31 372.337 486.234 372.601 480.43C373.261 465.932 373.73 461.586 374.57 462.213C374.964 462.508 377.211 474.023 379.564 487.803ZM404.471 486.208C406.721 499.028 408.592 510.226 408.629 511.093C408.692 512.573 408.299 512.689 402.151 512.996L395.605 513.323L395.793 509.979C395.897 508.14 396.404 498.087 396.92 487.638C398.147 462.795 398.446 459.807 399.528 461.537C399.996 462.286 402.221 473.388 404.471 486.208ZM232.191 524.821L233.721 554.75L235.976 552.532C241.886 546.72 243.738 536.226 242.101 517.833C241.169 507.361 240.618 504.64 238.81 501.58C236.735 498.067 233.126 494.768 231.451 494.851C231.017 494.873 231.35 508.36 232.191 524.821ZM337.735 498.108C337.489 499.393 336.707 506.316 335.996 513.493C335.286 520.67 333.966 533.213 333.063 541.365C332.159 549.517 331.442 556.739 331.468 557.413C331.511 558.491 332.56 558.586 340.173 558.206L348.83 557.773L347.131 530.309C345.318 500.968 345.087 499.872 340.118 496.921C338.235 495.804 338.169 495.836 337.735 498.108ZM441.945 523.466L443.27 553.055L448.599 552.789C453.902 552.524 453.926 552.513 453.313 550.623C452.975 549.578 451.813 544.504 450.731 539.347C449.65 534.189 447.148 522.943 445.169 514.356C443.192 505.769 441.359 497.648 441.097 496.31C440.835 494.972 441.217 507.192 441.945 523.466ZM198.908 509.147C202.804 510.455 204.185 513.635 205.096 523.401C206.193 535.147 205.058 538.419 199.082 540.746C196.949 541.576 193.66 542.339 191.772 542.442L188.339 542.629L187.235 533.097C185.766 520.404 185.259 509.451 186.11 508.745C186.978 508.024 196.452 508.322 198.908 509.147ZM172.035 510.669C178.121 511.893 179.454 514.478 180.039 526.198C180.376 532.925 180.166 537.093 179.42 538.553C177.984 541.358 174.058 543.295 168.168 544.104C163.883 544.693 163.483 544.619 162.846 543.11C161.924 540.931 160.453 511.395 161.235 510.76C162.193 509.98 168.352 509.928 172.035 510.669ZM769.015 487.53C768.734 487.899 769.193 494.444 770.035 502.075C771.291 513.463 771.961 516.626 773.769 519.733C776.055 523.659 781.51 529.139 783.056 529.061C783.587 529.035 783.417 520.536 782.632 507.85L781.32 486.683L775.423 486.771C772.181 486.818 769.296 487.16 769.015 487.53ZM749.396 566.414C750.175 582.014 750.634 594.656 750.416 594.507C750.198 594.357 746.474 584.777 742.142 573.219C737.809 561.661 733.173 549.338 731.838 545.834L729.413 539.462L725.67 539.649L721.927 539.836L723.899 567.814C724.984 583.201 725.57 595.806 725.203 595.824C724.835 595.842 721.383 587.407 717.532 577.08C713.681 566.753 708.992 554.354 707.113 549.525L703.697 540.747L697.517 541.056L691.336 541.364L693.76 577.155C695.092 596.841 696.77 624.71 697.488 639.087L698.794 665.228L704.679 664.934L710.563 664.64L708.434 635.267C707.263 619.111 706.64 605.877 707.05 605.857C707.461 605.838 710.147 611.941 713.022 619.422C718.534 633.767 729.314 662.793 729.343 663.364C729.352 663.55 730.666 663.636 732.263 663.556L735.168 663.411L733.663 634.884C731.922 601.856 731.987 603.589 732.513 603.94C733.15 604.366 740.215 622.18 745.319 636.231C747.868 643.246 751.059 651.93 752.41 655.53L754.868 662.076L760.264 662.017C764.192 661.973 765.653 661.709 765.634 661.046C765.108 641.851 759.225 538.886 758.632 538.495C758.166 538.189 755.578 537.962 752.881 537.993L747.978 538.048L749.396 566.414ZM817.823 536.141C815.004 537.262 811.001 539.318 808.927 540.71C796.772 548.863 794.429 568.071 803.968 581.361C806.324 584.642 820.872 594.637 831.522 600.291C841.14 605.397 848.818 610.412 852.201 613.8C855.655 617.258 858.005 623.26 857.477 627.27C856.506 634.632 847.414 637.706 841.67 632.614C839.448 630.645 839.193 629.69 838.253 619.888C837.695 614.059 836.959 609.108 836.618 608.885C836.278 608.662 832.471 608.748 828.16 609.076L820.321 609.673L823.511 612.321C829.174 617.023 830.883 619.912 831.658 626.095C832.363 631.722 832.328 631.856 829.572 634.096C827.638 635.668 825.839 636.42 823.767 636.524C815.897 636.917 813.984 634.209 812.663 620.806L811.643 610.457L806.529 610.713L801.414 610.968L801.959 621.294C802.648 634.332 804.184 641.077 807.471 645.507C812.865 652.775 826.889 658.513 837.751 657.896C850.708 657.16 863.167 648.259 866.421 637.411C868.352 630.976 868.281 618.812 866.272 612.156C862.737 600.439 855.097 593.603 833.054 582.436C814.399 572.986 809.966 570.093 808.697 566.54C807.36 562.8 808.037 560.45 811 558.538C815.528 555.617 821.644 556.79 824.4 561.108C825.196 562.356 825.957 565.575 826.092 568.26C826.227 570.968 826.8 573.325 827.38 573.553C827.953 573.78 830.865 573.831 833.849 573.669C843.634 573.135 843.221 573.385 839.196 570.44C834.984 567.358 833.605 565.316 833.435 561.913C833.264 558.499 836.648 555.857 841.457 555.646C848.199 555.351 850.367 557.658 851.586 566.425L852.456 572.688L857.316 572.236L862.176 571.785L862.29 567.919C862.353 565.792 861.796 561.165 861.05 557.635C858.601 546.029 852.151 539.498 839.331 535.645C830.806 533.082 825.183 533.212 817.823 536.141ZM384.485 557.246L375.795 557.88L374.727 568.613C373.494 581.002 371.161 604.477 369.245 623.785C368.514 631.156 367.189 644.33 366.301 653.061C363.787 677.804 363.421 682.129 363.818 682.391C364.897 683.103 374.267 682.359 374.912 681.512C375.307 680.993 375.745 677.068 375.885 672.789C376.025 668.511 376.355 664.727 376.619 664.381C376.882 664.035 381.104 663.552 386.002 663.307L394.905 662.862L396.476 671.031C398.244 680.216 398.566 681.172 399.697 680.59C400.136 680.364 400.6 676.324 400.727 671.612C400.855 666.899 401.17 662.766 401.428 662.427C402.224 661.382 419.925 660.768 419.979 661.785C420.042 662.974 422.454 674.623 423.215 677.416L423.829 679.666L429.6 679.378L435.372 679.09L434.667 676.493C434.28 675.065 432.856 668.74 431.503 662.438C426.673 639.941 408.147 557.599 407.701 556.649C407.388 555.983 398.722 556.206 384.485 557.246ZM531.008 565.07C531.434 573.595 533.119 601.587 534.752 627.273L537.72 673.977L546.637 673.531L555.555 673.086L553.926 643.161C553.03 626.702 551.31 598.756 550.105 581.058L547.913 548.881L539.073 549.225L530.233 549.57L531.008 565.07ZM607.223 547.716C599.995 550.8 593.53 556.343 591.257 561.405C588.104 568.429 587.938 575.589 590.173 608.368C591.334 625.389 592.786 641.684 593.4 644.58C596.231 657.932 605.806 665.894 622.862 669.078L626.728 669.8L622.784 670.516C613.039 672.285 601.964 679.951 598.321 687.449L596.226 691.76L598.178 730.618C600.218 771.246 600.565 773.783 604.981 780.332C609.232 786.637 618.43 791.743 629.187 793.77C634.679 794.805 635.806 794.809 639.687 793.808C642.078 793.192 646.428 791.403 649.352 789.835C659.79 784.235 664.333 777.887 665.722 766.957C666.781 758.626 662.55 700.172 660.336 692.547C657.044 681.211 648.113 673.816 634.024 670.761L628.766 669.621L632.477 668.554C641.945 665.831 650.336 660.298 654.073 654.312C658.844 646.669 658.917 645.536 656.919 610.115C654.492 567.11 653.519 562.338 645.647 554.863C635.454 545.185 619.924 542.296 607.223 547.716ZM154.931 625.466C156.539 656.601 158.267 684.739 158.773 687.995L159.692 693.915L179.261 692.705C198.314 691.527 198.981 691.436 204.529 689.258C213.774 685.63 220.259 679.198 223.018 670.923C224.111 667.644 224.223 663.509 223.575 650.364C222.646 631.5 221.564 627.903 215.551 623.694L212.099 621.276L214.757 618.822C218.774 615.113 219.438 610.752 218.302 595.529C217.338 582.602 217.233 582.137 214.417 578.356C210.744 573.426 206.645 570.73 199.888 568.801C194.756 567.336 193.679 567.306 173.274 568.066L152.008 568.858L154.931 625.466ZM259.778 564.07C259.549 564.416 260.947 592.494 262.885 626.466L266.406 688.233L272.489 687.929L278.57 687.625L277.43 659.782L276.289 631.938L279.438 631.888C284.817 631.801 287.238 632.396 289.08 634.261C290.67 635.868 291.043 638.735 292.597 661.273L294.335 686.487L298.883 686.474L303.43 686.46L302.029 658.416L300.628 630.371L304.449 630.18C307.229 630.042 308.284 630.279 308.323 631.053C308.362 631.839 308.996 631.971 310.746 631.557C315.307 630.48 315.972 633.079 318.157 660.505L320.124 685.198L324.818 685.182C327.834 685.172 329.762 684.839 330.209 684.251C330.93 683.304 328.026 636.484 326.933 631.435C326.172 627.92 322.079 623.598 318.097 622.106L315.117 620.988L317.393 619.765C325.999 615.134 328.3 609.263 327.532 593.893C326.74 578.027 324.597 572.943 316.319 567.287C309.27 562.47 304.925 561.913 280.858 562.734C269.492 563.122 260.007 563.723 259.778 564.07ZM421.007 567.414L421.597 579.227L429.722 578.939C434.19 578.78 437.833 578.393 437.818 578.077C437.774 577.206 434.149 560.547 433.359 557.586L432.666 554.989L426.541 555.295L420.417 555.601L421.007 567.414ZM443.54 565.501C444.124 571.552 444.79 576.894 445.021 577.372C445.335 578.023 448.156 578.059 456.199 577.516L466.959 576.789L469.968 625.421C471.623 652.168 473.08 674.846 473.204 675.816C473.429 677.568 473.481 677.576 482.264 677.118L491.099 676.657L488.275 626.437L485.451 576.217L491.97 575.813C495.555 575.591 499.418 575.417 500.552 575.426C501.687 575.435 502.896 575.075 503.236 574.627C503.578 574.179 503.295 568.805 502.609 562.684L501.361 551.557L471.921 553.028L442.48 554.499L443.54 565.501ZM508.869 562.763L509.446 574.316L516.61 573.958L523.773 573.6L523.196 562.048L522.619 550.495L515.455 550.853L508.292 551.211L508.869 562.763ZM-7.09314 578.774C-7.29967 579.221 -6.04772 585.325 -4.31084 592.338C-2.57492 599.351 0.40222 611.486 2.3048 619.305C4.20738 627.124 9.55818 648.649 14.1943 667.139C18.8314 685.628 22.6295 700.837 22.6344 700.935C22.6392 701.032 28.4019 700.825 35.4396 700.473L48.235 699.834L49.0162 694.004C50.5697 682.397 54.8389 650.934 57.9092 628.459C62.3685 595.818 64.8653 574.781 64.3236 574.423C64.0672 574.254 61.3691 574.24 58.3288 574.392C51.6942 574.723 52.5709 572.09 50.4854 597.946C49.657 608.218 48.4393 622.176 47.7797 628.965C47.1192 635.754 46.4136 643.922 46.2113 647.117C46.008 650.313 45.5122 652.943 45.1072 652.963C44.7032 652.983 43.9682 650.73 43.4734 647.956C36.6965 609.922 29.6601 576.526 28.4366 576.587C27.5292 576.633 20.7971 647.31 21.1641 652.931C21.2332 653.99 20.9049 654.874 20.434 654.898C19.9631 654.921 19.1351 652.357 18.5924 649.199C18.0506 646.041 14.6613 628.76 11.0607 610.795L4.51479 578.133L-1.10168 578.047C-4.81787 577.991 -6.84517 578.237 -7.09314 578.774ZM72.3095 574.421C71.7811 575.115 77.3059 664.946 77.8495 664.5C78.1328 664.266 78.6119 660.88 82.8217 629.32C84.5584 616.301 86.5717 600.42 87.2951 594.029C88.0186 587.638 88.8775 580.488 89.2036 578.141C89.5287 575.794 89.6201 573.675 89.405 573.432C88.7504 572.693 72.9277 573.608 72.3095 574.421ZM97.5779 572.958C97.376 576.698 103.271 682.204 104.033 688.474L105.073 697.044L113.652 696.416L122.231 695.787L119.079 636.283C117.346 603.555 115.618 575.61 115.241 574.181L114.555 571.583L106.08 572.006C101.419 572.239 97.593 572.667 97.5779 572.958ZM128.11 601.554C129.299 618.35 130.977 646.229 131.84 663.507C133.548 697.686 133.249 696.31 138.683 695.027L141.047 694.469L138.955 652.587C137.804 629.552 136.128 601.689 135.229 590.669L133.595 570.632L129.772 570.823L125.95 571.014L128.11 601.554ZM780.682 544.395C768.563 554.764 770.066 577.684 783.524 587.762L786.896 590.286L785.991 573.836C785.494 564.789 784.649 553.99 784.115 549.839L783.141 542.291L780.682 544.395ZM571.183 555.906C567.939 558.879 566.458 561.263 564.566 566.564C562.759 571.624 562.766 572.172 565.079 609.282C567.044 640.817 567.706 647.57 569.184 651.194C571.172 656.068 573.756 659.609 577.442 662.517L579.953 664.497L578.058 628.444C577.016 608.615 575.468 583.792 574.619 573.282L573.074 554.174L571.183 555.906ZM669.457 601.901C671.119 630.698 672.754 655.303 673.092 656.578C673.667 658.757 673.804 658.824 675.357 657.678C678.117 655.641 681.609 649.727 682.898 644.904C683.881 641.225 683.842 634.854 682.694 611.986C681.173 581.659 679.411 566.042 676.938 560.951C674.794 556.538 671.761 552.807 668.881 551.042L666.435 549.542L669.457 601.901ZM235.664 594.501C236.323 606.926 237.232 617.489 237.683 617.973C238.741 619.108 241.827 616.056 243.415 612.305C245.007 608.544 243.676 582.683 241.697 578.918C240.107 575.895 236.356 571.827 235.204 571.878C234.798 571.895 235.005 582.076 235.664 594.501ZM349.341 577.05C349.054 578.223 348.258 585.211 347.572 592.58C346.888 599.949 346.081 608.123 345.78 610.744C345.479 613.364 345.58 615.491 346.004 615.47C347.343 615.403 351.131 610.076 352.213 606.737C353.443 602.942 352.415 580.121 350.872 576.974L349.864 574.918L349.341 577.05ZM640.721 568.684C642.593 570.346 642.875 571.937 644.364 589.17C647.17 621.65 647.854 638.731 646.461 641.487C643.386 647.569 632.481 647.068 630.162 640.739C629.099 637.835 624.651 577.742 625.234 574.147C625.912 569.955 627.693 567.788 631.164 566.929C635.082 565.959 638.324 566.554 640.721 568.684ZM613.084 568.86C614.399 569.412 615.97 570.992 616.574 572.37C617.194 573.787 618.668 589.318 619.964 608.101C622.536 645.39 622.579 644.962 616.083 646.881C611.494 648.237 607.657 646.9 605.356 643.144C603.844 640.675 603.31 635.889 601.393 607.583C598.994 572.163 599.04 571.462 603.883 569.247C607.129 567.762 610.167 567.634 613.084 568.86ZM203.379 591.282C206.277 593.192 207.353 596.415 207.129 602.513C206.984 606.466 206.593 607.421 204.525 608.874C201.57 610.95 192.673 612.548 191.439 611.224C190.51 610.228 189.217 591.979 190.002 590.947C190.295 590.563 192.892 590.13 195.774 589.986C200.025 589.774 201.461 590.019 203.379 591.282ZM178.042 592.802C181.844 594.811 183.748 603.852 181.363 608.571C179.773 611.716 177.573 612.654 171.032 612.981L165.716 613.247L165.215 603.211C164.939 597.691 164.989 592.951 165.327 592.677C166.662 591.592 175.922 591.683 178.042 592.802ZM287.824 588.447C290.268 590.057 290.535 590.728 291.141 596.784C291.765 603.008 291.677 603.47 289.536 605.209C287.92 606.523 285.744 607.267 281.93 607.809C273.437 609.017 273.724 609.345 273.146 597.783C272.776 590.366 272.954 587.547 273.815 587.216C274.462 586.968 277.28 586.75 280.078 586.731C284.083 586.704 285.73 587.069 287.824 588.447ZM313.145 586.923C315.987 589.16 317.634 594.679 316.82 599.239C316.065 603.475 313.18 605.26 305.785 606.067L299.61 606.74L298.839 597.738C297.742 584.913 297.418 585.61 304.625 585.25C310.128 584.975 310.849 585.117 313.145 586.923ZM411.179 611.512C413.046 622.035 414.897 632.245 415.29 634.199L416.008 637.753L410.12 638.539C406.881 638.971 403.861 639.08 403.407 638.781C402.703 638.317 402.829 625.739 403.658 613.643C403.791 611.706 404.134 604.898 404.421 598.514C405.253 579.972 405.754 580.936 411.179 611.512ZM384.534 603.455C385.979 611.828 387.711 621.494 388.383 624.934C389.056 628.375 389.966 633.147 390.407 635.537L391.208 639.884L384.475 640.221C380.771 640.406 377.725 640.321 377.705 640.032C377.56 637.883 380.191 589.335 380.496 588.554C381.344 586.374 382.011 588.835 384.534 603.455ZM237.837 621.713C237.684 622.611 238.41 636.094 239.452 651.677L241.346 680.009L244.227 676.455C249.687 669.722 251.31 654.988 248.494 637.736C246.94 628.224 244.985 624.224 240.594 621.575L238.117 620.081L237.837 621.713ZM343.502 633.318C342.903 639.622 342.139 647.003 341.805 649.722C339.898 665.294 338.513 682.619 339.094 683.608C339.671 684.587 340.81 684.644 347.005 684.006C350.987 683.596 354.66 682.922 355.167 682.509C355.768 682.021 355.495 672.596 354.387 655.642L352.682 629.526L349.952 625.626C345.541 619.324 344.745 620.273 343.502 633.318ZM448.799 648.348C449.754 664.26 450.733 677.665 450.976 678.135C451.39 678.939 459.205 679.021 460.177 678.231C460.733 677.779 449.803 627.815 447.818 621.725C447.404 620.456 447.845 632.437 448.799 648.348ZM205.086 634.634C209.961 636.14 211.546 639.746 212.097 650.587C212.648 661.448 211.772 664.068 206.868 666.213C203.956 667.485 197.233 668.358 195.524 667.684C194.727 667.37 194.126 662.41 193.481 650.802L192.566 634.366L197.61 634.125C200.385 633.992 203.749 634.221 205.086 634.634ZM180.42 636.774C185.153 638.303 186.496 641.379 187.154 652.184C187.635 660.096 187.461 662.077 186.079 664.376C183.981 667.866 180.272 669.509 174.462 669.525L169.965 669.537L168.682 653.458C167.977 644.614 167.521 637.136 167.669 636.838C168.16 635.853 177.424 635.806 180.42 636.774ZM776.591 625.369C777.843 638.322 779.102 643.044 782.553 647.738C784.536 650.433 790.076 654.67 790.823 654.062C791.101 653.836 790.538 644.2 789.571 632.65L787.814 611.648L781.57 611.96L775.326 612.272L776.591 625.369ZM825.943 661.126C822.476 662.333 818.897 664.437 815.106 667.497C810.308 671.368 809.163 672.821 807.598 677.029C803.969 686.79 805.4 698.725 811.134 706.531C813.856 710.238 825.737 718.63 835.288 723.593C839.073 725.56 846.016 729.603 850.717 732.578C861.42 739.35 863.913 742.633 864.365 750.54C864.668 755.86 864.588 756.085 861.66 758.221C858.299 760.671 856.044 761.031 852.075 759.749C847.647 758.319 846.638 755.997 845.488 744.584L844.431 734.108L836.541 734.299C832.201 734.403 828.665 734.773 828.682 735.121C828.7 735.469 830.12 736.911 831.838 738.325C835.636 741.454 837.53 744.264 838.992 748.939C841.132 755.784 837.732 761.466 831.302 761.787C823.37 762.183 821.667 759.792 820.057 745.994L818.86 735.737L813.596 736L808.332 736.263L809.58 749.712C811.098 766.105 812.721 770.236 819.711 775.506C826.159 780.369 836.889 783.633 844.918 783.177C859.344 782.355 872.105 772.294 874.476 759.869C875.877 752.527 875.364 742.647 873.258 736.399C869.39 724.925 862.305 719.03 836.13 705.502C819.259 696.783 816.094 694.291 815.904 689.572C815.761 686.038 817.016 684.262 820.465 683.112C823.706 682.032 827.436 682.51 830.039 684.34C831.831 685.6 832.492 687.204 833.546 692.867L834.845 699.843L842.354 699.468C849.952 699.088 851.139 698.581 848.158 696.982C845.029 695.305 840.799 690.156 840.686 687.886C840.442 682.999 846.838 679.698 853.141 681.459C856.529 682.406 857.945 684.88 858.954 691.62L859.84 697.542L864.866 697.502L869.891 697.464L869.575 691.301C868.733 674.828 862.131 665.797 847.544 661.167C839.796 658.708 832.925 658.695 825.943 661.126ZM542.1 675.013L537.667 675.455L540.921 732.286C542.712 763.542 544.528 791.389 544.959 794.166L545.741 799.216L554.256 798.79L562.771 798.365L560.673 758.988C559.518 737.331 557.799 709.385 556.852 696.885L555.13 674.16L550.831 674.365C548.467 674.479 544.538 674.77 542.1 675.013ZM701.635 711.587C703.136 736.315 704.997 764.176 705.772 773.498L707.181 790.449L712.455 790.185L717.73 789.922L715.818 760.537C714.766 744.376 714.221 731.138 714.608 731.118C715.381 731.08 719.668 741.894 729.885 769.656C733.581 779.699 736.98 788.163 737.439 788.465C737.897 788.767 739.283 788.858 740.52 788.667L742.767 788.32L740.938 758.581C739.933 742.224 739.391 729.019 739.735 729.237C741.098 730.098 744.768 739.373 755.776 769.772C758.866 778.303 761.648 785.839 761.96 786.517C762.434 787.55 763.404 787.673 767.929 787.271L773.332 786.793L772.387 769.293C771.868 759.668 770.371 731.869 769.061 707.516L766.681 663.24L760.845 663.532L755.009 663.823L756.753 691.779C757.712 707.155 758.217 719.526 757.875 719.273C757.239 718.8 754.245 711.159 745.412 687.465C742.657 680.075 739.571 671.938 738.553 669.383L736.702 664.738L733.065 664.92L729.427 665.101L731.375 693.255C732.64 711.549 732.981 721.058 732.345 720.406C731.806 719.853 728.07 710.564 724.042 699.763C720.014 688.962 715.503 677.093 714.016 673.389C712.53 669.683 711.306 666.507 711.298 666.33C711.289 666.153 708.497 666.147 705.095 666.317L698.908 666.626L701.635 711.587ZM266.943 689.519C266.831 689.768 268.34 717.686 270.296 751.56L273.851 813.15L279.832 813.06L285.812 812.97L284.429 785.281L283.045 757.591L287.768 757.356C291.292 757.179 293.146 757.489 295.074 758.574C298.751 760.643 299.656 765.621 300.959 790.953L302.05 812.169L306.576 811.729L311.103 811.289L309.364 783.475L307.625 755.662L312.605 755.413C316.891 755.199 317.967 755.434 320.328 757.103C321.837 758.171 323.4 760.224 323.802 761.667C324.204 763.112 325.053 774.605 325.689 787.209L326.844 810.125L329.121 810.427C330.373 810.594 332.848 810.555 334.623 810.341L337.847 809.953L336.538 784.048C335.555 764.593 334.872 757.351 333.795 754.962C332.331 751.715 329 748.814 324.671 747.014L322.249 746.007L325.224 744.706C332.571 741.493 335.534 735.431 335.648 723.378C335.857 701.446 328.221 690.685 310.686 688.202C306.463 687.603 267.271 688.783 266.943 689.519ZM383.364 684.32C383.111 685.008 381.779 697.472 380.404 712.018C379.029 726.563 377.472 742.433 376.944 747.285C376.415 752.137 375.68 759.912 375.31 764.563C374.94 769.214 373.92 779.373 373.043 787.137C372.165 794.902 371.283 802.764 371.082 804.607L370.717 807.96L376.856 807.653L382.994 807.346L383.266 800.138C383.415 796.174 383.722 792.053 383.946 790.98L384.353 789.029L393.275 788.583L402.197 788.138L402.789 790.038C403.114 791.084 404.047 795.143 404.86 799.059C405.673 802.976 406.673 806.163 407.082 806.143C407.491 806.122 407.991 802.544 408.194 798.191C408.396 793.838 408.63 790.036 408.714 789.742C408.798 789.448 408.896 788.733 408.933 788.152C408.987 787.294 410.687 787.012 417.971 786.648C428.437 786.125 427.25 785.066 429.7 797.117L431.288 804.934L436.992 804.649L442.696 804.364L441.884 800.017C441.437 797.627 440.227 792.092 439.194 787.718C438.162 783.343 437.033 778.346 436.685 776.613C436.337 774.879 435.519 771.277 434.867 768.607C434.216 765.937 430.912 751.415 427.529 736.335C419.631 701.148 416.687 688.118 415.807 684.454L415.098 681.506L399.461 682.288C385.404 682.99 383.778 683.195 383.364 684.32ZM428.106 681.608C427.502 682.402 428.773 702.431 429.512 703.774C429.834 704.359 432.353 704.509 437.521 704.251C446.382 703.808 445.861 704.93 443.026 692.365C440.115 679.459 440.92 680.534 434.324 680.729C431.202 680.822 428.403 681.217 428.106 681.608ZM451.151 691.638L451.746 703.54L463.208 702.968L474.67 702.395L476.16 728.115C476.979 742.261 477.802 755.091 477.989 756.626C478.176 758.161 478.844 769.065 479.474 780.859L480.619 802.301L486.291 802.318C489.41 802.328 493.524 802.123 495.432 801.863L498.901 801.391L496.197 751.598L493.492 701.806L502.228 701.167L510.963 700.529L510.425 689.76C510.13 683.838 509.602 678.506 509.252 677.913C508.693 676.962 505.178 677.006 479.587 678.285L450.557 679.735L451.151 691.638ZM516.085 688.043L516.662 699.595L523.826 699.237L530.99 698.879L530.412 687.327L529.835 675.774L522.672 676.132L515.508 676.49L516.085 688.043ZM107.845 698.081L104.646 698.521L107.447 743.427C108.988 768.126 110.643 795.974 111.126 805.311L112.004 822.288L121.178 821.83L130.352 821.372L126.577 759.618C124.5 725.653 122.629 697.669 122.419 697.432C122.008 696.966 113.056 697.365 107.845 698.081ZM134.398 697.418C134.278 702.508 139.527 795.386 140.571 806.648L141.883 820.796L145.106 820.635L148.329 820.473L144.971 758.348L141.614 696.222L138.021 696.184C135.109 696.152 134.422 696.386 134.398 697.418ZM162.652 756.61C164.661 790.494 166.583 818.514 166.922 818.879C167.317 819.302 174.477 819.029 186.791 818.122C209.043 816.482 213.099 815.531 220.278 810.263C225.287 806.587 229.776 799.855 231.149 793.959C232.6 787.731 232.528 776.568 230.97 766.269C229.743 758.161 229.08 756.044 226.808 752.982C225.32 750.979 223.07 748.81 221.807 748.163L219.51 746.988L222.161 744.527C226.39 740.599 226.967 737.541 226.244 722.878C225.442 706.636 224.372 704.094 215.931 698.364C208.088 693.041 205.203 692.694 179.495 693.979L158.998 695.003L162.652 756.61ZM0.400682 704.205C0.149082 704.535 0.451344 706.81 1.07168 709.26C1.693 711.711 4.35916 722.451 6.99823 733.129C9.6373 743.806 13.1538 757.844 14.8133 764.324C16.4728 770.804 18.2685 777.979 18.8042 780.268C19.3399 782.558 22.1527 793.875 25.0562 805.418L30.3342 826.405L43.1953 825.569L56.0565 824.732L57.2434 815.197C58.6919 803.557 62.7477 773.323 65.4913 753.72C67.9215 736.353 69.2589 726.093 70.694 713.803C71.2845 708.755 71.9533 703.589 72.1802 702.323L72.5947 700.021L66.4158 700.33L60.2368 700.638L59.8193 705.046C59.59 707.471 58.7341 717.384 57.917 727.075C56.1407 748.159 54.1183 770.717 53.5243 776.077C53.1285 779.656 53.0255 779.798 52.2133 777.897C51.7287 776.763 49.8182 767.541 47.9693 757.403C44.107 736.232 37.0823 702.286 36.481 701.883C36.2571 701.734 35.8557 701.788 35.5898 702.005C35.0635 702.433 32.9337 724.587 30.5855 754.06C29.7677 764.331 28.9262 774.762 28.7167 777.24C28.186 783.503 27.153 781.475 25.2684 770.469C23.1999 758.39 12.384 705.06 11.7745 703.937C11.2524 702.975 1.15545 703.212 0.400682 704.205ZM79.9435 710.709C80.5895 716.757 81.9058 737.432 82.868 756.654C83.8302 775.876 84.8027 791.452 85.03 791.267C85.6364 790.774 97.3586 702.47 97.2365 699.316C97.2249 699.027 93.0658 698.998 87.992 699.252L78.7689 699.713L79.9435 710.709ZM787.201 670.462C782.351 675.226 780.696 680.086 780.672 689.632C780.655 696.291 781.046 698.998 782.485 702.175C784.692 707.054 788.638 712.029 791.891 714.038L794.276 715.511L792.942 691.56C792.209 678.388 791.252 667.628 790.816 667.65C790.38 667.671 788.754 668.937 787.201 670.462ZM576.947 682.943C570.868 689.667 570.552 691.654 571.422 717.565C571.849 730.284 573.006 748.229 573.993 757.445C576.071 776.861 577.821 781.937 584.093 786.757L587.714 789.54L584.749 736.799C583.117 707.792 581.433 682.992 581.004 681.688L580.224 679.318L576.947 682.943ZM674.482 686.973C675.574 698.363 678.783 746.592 680.168 772.429L680.802 784.263L682.745 782.83C685.761 780.605 688.756 775.986 690.227 771.292C691.38 767.613 691.327 762.454 689.849 734.504C688.114 701.677 686.923 691.699 683.976 685.332C682.327 681.768 675.818 674.798 674.215 674.879C673.68 674.905 673.786 679.723 674.482 686.973ZM242.466 705.331C243.014 709.417 243.812 719.79 244.242 728.383C245.094 745.443 245.431 746.165 249.703 740.098C251.799 737.121 251.835 736.628 251.086 721.637C250.284 705.581 249.846 703.872 245.445 699.633C241.968 696.282 241.399 697.369 242.466 705.331ZM355.986 710.496C355.385 716.474 354.435 725.748 353.874 731.105C353.314 736.463 353.094 741.004 353.385 741.196C354.498 741.93 358.551 735.725 359.849 731.299C360.947 727.557 361.004 724.403 360.148 714.789C358.655 698.04 357.373 696.717 355.986 710.496ZM619.185 693.738C620.519 694.039 622.155 694.957 622.821 695.779C624.74 698.15 626.207 710.656 628.008 740.007C629.837 769.8 629.84 769.768 624.482 771.717C618.046 774.058 613.441 771.582 611.878 764.94C611.305 762.508 609.883 746.984 608.716 730.442C606.731 702.275 606.698 700.206 608.202 697.839C609.708 695.472 613.049 693.41 615.629 693.258C616.251 693.221 617.852 693.437 619.185 693.738ZM646.308 692.793C647.49 693.327 648.918 694.914 649.482 696.32C650.814 699.645 652.686 719.527 654.089 745.27C655.147 764.677 655.11 765.926 653.421 767.764C649.785 771.72 643.513 771.994 639.449 768.375C637.62 766.746 637.231 765.104 636.077 754.154C635.359 747.345 634.248 731.915 633.608 719.863C632.379 696.737 632.584 694.977 636.742 692.95C639.17 691.767 643.866 691.69 646.308 692.793ZM208.547 715.66C212.277 716.501 214.25 719.705 214.574 725.448C214.729 728.207 214.429 731.37 213.908 732.477C212.777 734.875 208.076 736.77 202.573 737.045L198.722 737.238L198.18 726.385L197.637 715.533L201.874 715.321C204.203 715.205 207.207 715.357 208.547 715.66ZM183.748 717.6C187.53 718.454 189.316 721.471 189.618 727.515C190.029 735.749 187.163 738.517 177.736 738.988L174.195 739.165L173.365 734.892C172.318 729.49 171.829 720.092 172.518 718.6C173.122 717.291 179.759 716.701 183.748 717.6ZM320.742 712.382C322.944 713.832 323.496 714.892 324.014 718.662C325.321 728.171 322.685 731.037 312.147 731.568L306.655 731.846L306.126 721.262L305.598 710.678L311.846 710.658C317.044 710.64 318.539 710.93 320.742 712.382ZM295.19 714.03C300.187 717.323 300.937 727.595 296.432 731.041C294.702 732.365 292.785 732.891 288.028 733.352L281.864 733.949L281.47 730.202C280.734 723.2 280.243 713.865 280.582 713.319C280.768 713.02 283.506 712.647 286.667 712.489C291.691 712.238 292.765 712.432 295.19 714.03ZM418.254 733.991C420.122 744.128 421.879 754.922 422.158 757.979L422.665 763.536L416.573 764.092L410.48 764.647L410.608 756.701C410.856 741.408 412.135 712.879 412.621 711.812C413.475 709.932 414.734 714.889 418.254 733.991ZM393.641 737.102C396.065 750.037 398.111 761.643 398.189 762.894L398.329 765.168L391.976 765.486L385.622 765.803L385.778 757.197C385.973 746.412 387.266 720.06 387.8 715.97C388.022 714.283 388.434 713.056 388.718 713.243C389.002 713.43 391.217 724.166 393.641 737.102ZM246.646 776.08C248.157 805.921 248.167 806.005 249.944 804.167C256.038 797.86 257.833 790.321 257.046 774.332C256.408 761.37 255.053 754.591 252.407 751.132C250.58 748.745 247.099 746.051 245.918 746.11C245.485 746.132 245.812 759.618 246.646 776.08ZM352.07 747.93C351.853 748.849 350.665 760.232 349.431 773.226C348.196 786.22 346.895 799.495 346.539 802.726C346.183 805.957 346.163 808.892 346.495 809.248C346.829 809.605 350.588 809.63 354.891 809.303L362.682 808.712L361.308 781.407C359.832 752.066 359.785 751.832 354.5 747.809L352.465 746.26L352.07 747.93ZM211.798 760.043C217.362 761.448 218.648 763.95 219.554 775.152C220.23 783.501 220.112 785.305 218.749 787.426C216.518 790.902 213.284 792.562 207.736 793.082L202.97 793.528L201.363 777.626C200.478 768.881 199.976 761.247 200.245 760.661C200.885 759.276 207.382 758.928 211.798 760.043ZM456.398 775.077L457.703 803.614L463.04 803.347L468.378 803.081L467.692 800.483C467.315 799.054 465.04 789.139 462.638 778.45C454.548 742.448 454.916 742.647 456.398 775.077ZM189.234 762.749C193.043 764.592 194.362 768.14 194.944 778.09C195.695 790.951 193.174 794.369 182.545 794.9L177.952 795.129L177.107 790.433C176.642 787.851 175.986 780.265 175.648 773.577L175.033 761.415L180.792 761.433C184.584 761.444 187.468 761.894 189.234 762.749ZM783.577 738.026C783.394 738.325 783.861 744.855 784.615 752.538C786.185 768.534 787.618 772.133 794.392 777.085L798.286 779.931L797.832 770.064C797.583 764.637 796.834 754.962 796.168 748.564L794.958 736.931L789.433 737.207C786.395 737.358 783.759 737.727 783.577 738.026Z" fill="white"/>
</g>
<rect x="0.891268" y="32.1482" width="621.3" height="602.3" transform="rotate(-2.86 0.891268 32.1482)" stroke="white" stroke-width="1.69984"/>
<defs>
<clipPath id="clip0_318_57">
<rect y="31.3418" width="623" height="604" transform="rotate(-2.86 0 31.3418)" fill="white"/>
</clipPath>
</defs>
</svg>
