<svg width="623" height="604" viewBox="0 0 623 604" fill="none" xmlns="http://www.w3.org/2000/svg">
<rect x="1.38104" y="1.38104" width="620.238" height="601.238" fill="black"/>
<path d="M58.6547 262.599C42.3637 262.599 28.1091 263.617 28.1091 263.617L28.1091 334.89L54.582 334.89L54.582 311.981C54.582 311.981 59.6729 312.49 63.7456 312.49C81.0548 312.49 91.2367 302.308 91.2367 287.544C91.2367 272.781 81.0548 262.599 58.6547 262.599ZM54.582 293.144L54.582 281.944L58.6547 281.944C62.2184 281.944 64.7638 284.49 64.7638 287.544C64.7638 290.599 62.2184 293.144 58.6547 293.144L54.582 293.144ZM122.769 279.399C106.987 279.399 94.2594 292.126 94.2594 307.908C94.2594 323.69 106.987 336.417 124.296 336.417C138.041 336.417 145.678 328.272 145.678 328.272L137.023 314.526C137.023 314.526 132.95 318.599 127.86 318.599C119.714 318.599 118.696 312.999 118.696 312.999L151.278 312.999C151.278 312.592 151.278 308.315 151.278 307.908C151.278 292.126 138.551 279.399 122.769 279.399ZM118.187 303.326C118.187 299.253 120.223 297.217 122.769 297.217C125.314 297.217 127.35 299.253 127.35 303.326L118.187 303.326ZM182.368 279.399C168.623 279.399 160.986 287.544 160.986 287.544L169.641 301.29C169.641 301.29 173.714 297.217 178.805 297.217C186.95 297.217 187.968 302.817 187.968 302.817L179.823 302.817C162.514 302.817 155.386 309.944 155.386 319.617C155.386 329.29 162.514 336.417 173.714 336.417C182.877 336.417 186.95 328.781 186.95 328.781L188.987 334.89L212.405 334.89C212.405 326.948 212.405 316.664 212.405 307.908C212.405 292.126 199.677 279.399 182.368 279.399ZM182.877 320.126C181.35 320.126 179.823 318.599 179.823 317.072C179.823 314.017 182.368 311.472 187.968 311.472C187.968 317.581 185.423 320.126 182.877 320.126ZM244.999 307.908C244.999 303.326 248.053 300.272 253.144 300.272C258.235 300.272 262.308 304.344 262.308 304.344L272.49 288.053C272.49 288.053 264.344 279.399 249.581 279.399C232.271 279.399 219.544 292.126 219.544 307.908C219.544 323.69 232.271 336.417 249.581 336.417C264.344 336.417 272.49 327.763 272.49 327.763L262.308 311.472C262.308 311.472 258.235 315.544 253.144 315.544C248.053 315.544 244.999 312.49 244.999 307.908ZM304.034 279.399C288.252 279.399 275.524 292.126 275.524 307.908C275.524 323.69 288.252 336.417 305.561 336.417C319.306 336.417 326.943 328.272 326.943 328.272L318.288 314.526C318.288 314.526 314.215 318.599 309.125 318.599C300.979 318.599 299.961 312.999 299.961 312.999L332.543 312.999C332.543 312.592 332.543 308.315 332.543 307.908C332.543 292.126 319.816 279.399 304.034 279.399ZM299.452 303.326C299.452 299.253 301.488 297.217 304.034 297.217C306.579 297.217 308.615 299.253 308.615 303.326L299.452 303.326ZM382.999 315.544C372.817 315.544 365.69 308.926 365.69 308.926L356.017 324.199C356.017 324.199 365.18 336.417 387.581 336.417C405.399 336.417 416.599 325.217 416.599 313.508C416.599 291.108 389.108 291.108 389.108 286.017C389.108 284.49 390.635 282.962 393.181 282.962C400.308 282.962 406.417 288.562 406.417 288.562L416.09 273.29C416.09 273.29 406.926 262.09 388.599 262.09C370.781 262.09 359.58 273.29 359.58 284.999C359.58 307.399 387.071 307.399 387.071 312.49C387.071 314.017 385.544 315.544 382.999 315.544ZM447.654 279.399C433.908 279.399 426.272 287.544 426.272 287.544L434.926 301.29C434.926 301.29 438.999 297.217 444.09 297.217C452.235 297.217 453.254 302.817 453.254 302.817L445.108 302.817C427.799 302.817 420.672 309.944 420.672 319.617C420.672 329.29 427.799 336.417 438.999 336.417C448.163 336.417 452.235 328.781 452.235 328.781L454.272 334.89L477.69 334.89C477.69 326.948 477.69 316.664 477.69 307.908C477.69 292.126 464.963 279.399 447.654 279.399ZM448.163 320.126C446.635 320.126 445.108 318.599 445.108 317.072C445.108 314.017 447.654 311.472 453.254 311.472C453.254 317.581 450.708 320.126 448.163 320.126ZM525.557 279.399C516.393 279.399 512.32 287.035 512.32 287.035L510.284 280.926L486.866 280.926L486.866 334.89L511.302 334.89L511.302 306.381C511.302 302.308 513.339 300.272 515.375 300.272C517.411 300.272 519.448 302.308 519.448 306.381L519.448 334.89L543.884 334.89L543.884 306.381C543.884 287.544 535.739 279.399 525.557 279.399ZM598.397 318.599C598.397 302.308 578.542 301.29 578.542 298.235C578.542 297.217 579.56 296.199 581.088 296.199C586.688 296.199 590.76 300.272 590.76 300.272L598.397 288.053C598.397 288.053 589.742 279.399 575.997 279.399C560.215 279.399 552.069 287.544 552.069 297.217C552.069 313.508 571.924 314.526 571.924 317.581C571.924 318.599 570.906 319.617 569.379 319.617C561.742 319.617 556.651 314.526 556.651 314.526L549.015 326.744C549.015 326.744 557.669 336.417 574.469 336.417C590.251 336.417 598.397 328.272 598.397 318.599Z" fill="white"/>
<rect x="1.38104" y="1.38104" width="620.238" height="601.238" stroke="white" stroke-width="2.76208"/>
</svg>
