<svg width="634" height="622" viewBox="0 0 634 622" fill="none" xmlns="http://www.w3.org/2000/svg">
<g clip-path="url(#clip0_318_62)">
<rect x="111.678" width="534.637" height="518.331" transform="rotate(12.4423 111.678 0)" fill="black"/>
<path d="M169.801 108.012L142.165 101.915L135.786 78.2888L134.865 78.0856L130.19 99.2727L106.239 93.9883L120.467 29.5057C129.2 30.7885 138.172 32.4462 147.384 34.4787C157.21 36.6466 164.132 40.2992 168.151 45.4364C172.17 50.5736 173.414 56.6119 171.882 63.5515C171.327 66.0694 170.505 68.3353 169.417 70.3492C168.39 72.3767 167.335 73.9472 166.252 75.0607C165.169 76.1742 164.127 77.1034 163.125 77.8485C162.123 78.5935 161.306 79.0893 160.672 79.3358L159.628 79.6853L169.801 108.012ZM138.523 61.5043L141.287 62.1141C142.883 62.4664 144.312 62.2664 145.573 61.5141C146.834 60.7619 147.62 59.6795 147.932 58.2671C148.243 56.8546 147.986 55.5419 147.158 54.3289C146.331 53.116 145.119 52.3334 143.523 51.9811L140.759 51.3713L138.523 61.5043ZM233.354 54.413L238.011 123.062L211.297 117.168L211.487 107.55L199.512 104.907L195.637 113.713L168.923 107.819L202.034 47.5026L233.354 54.413ZM205.527 90.7783L211.976 92.2011L212.41 74.9085L205.527 90.7783ZM298.766 136.467L279.421 132.199L276.294 93.8338L268.367 129.76L244.416 124.475L258.644 59.9928L292.727 67.5129L295.598 104.855L313.915 72.1876L347.998 79.7078L333.771 144.19L309.82 138.906L317.747 102.98L298.766 136.467ZM391.445 131.412C393.871 129.758 395.436 127.334 396.141 124.141C396.845 120.947 396.446 118.09 394.941 115.568C393.437 113.047 391.272 111.474 388.447 110.851C385.622 110.228 382.997 110.743 380.571 112.398C378.145 114.052 376.58 116.476 375.875 119.669C375.17 122.863 375.57 125.72 377.075 128.242C378.579 130.763 380.744 132.336 383.569 132.959C386.394 133.582 389.019 133.067 391.445 131.412ZM417.085 103.645C422.432 111.523 424.048 120.251 421.934 129.832C419.82 139.412 414.674 146.681 406.496 151.639C398.393 156.549 389.091 157.845 378.589 155.528C368.088 153.211 360.164 148.114 354.818 140.237C349.547 132.311 347.968 123.559 350.082 113.978C352.196 104.398 357.304 97.153 365.407 92.2431C373.585 87.2853 382.925 85.9649 393.426 88.2819C403.928 90.5989 411.814 95.72 417.085 103.645ZM463.675 172.852L454.316 140.84L448.015 169.397L424.064 164.113L438.292 99.63L465.006 105.524L474.365 137.536L480.666 108.979L504.617 114.264L490.389 178.746L463.675 172.852ZM530.461 163.437L529.445 168.043L557.08 174.14L553.015 192.564L501.429 181.182L515.657 116.7L565.4 127.675L561.335 146.099L535.542 140.408L534.526 145.013L558.477 150.298L554.412 168.722L530.461 163.437ZM585.009 181.269C586.114 181.512 587.066 181.433 587.863 181.029C588.661 180.625 589.141 180.055 589.303 179.318C589.452 178.642 588.987 177.831 587.908 176.885C586.829 175.938 585.436 174.955 583.729 173.934C582.022 172.914 580.216 171.613 578.311 170.034C576.419 168.393 574.707 166.663 573.177 164.844C571.646 163.025 570.544 160.721 569.871 157.932C569.199 155.143 569.215 152.152 569.919 148.958C571.139 143.431 574.628 139.146 580.388 136.102C586.222 133.01 593.008 132.317 600.746 134.024C603.817 134.702 606.683 135.721 609.345 137.081C612.083 138.393 614.264 139.744 615.89 141.133C617.515 142.522 618.926 143.864 620.122 145.158C621.317 146.452 622.172 147.543 622.684 148.429L623.382 149.645L611.582 161.532C611.234 161.069 610.752 160.479 610.137 159.764C609.522 159.049 608.272 158 606.387 156.618C604.516 155.175 602.628 154.243 600.725 153.823C599.619 153.579 598.668 153.659 597.87 154.063C597.073 154.467 596.593 155.037 596.43 155.774C596.281 156.449 596.746 157.26 597.825 158.207C598.905 159.153 600.298 160.137 602.005 161.158C603.711 162.178 605.511 163.509 607.403 165.15C609.308 166.73 611.026 168.429 612.557 170.248C614.088 172.067 615.19 174.371 615.862 177.16C616.535 179.949 616.519 182.94 615.814 186.133C614.595 191.66 611.068 195.97 605.234 199.062C599.474 202.106 592.726 202.775 584.988 201.067C581.18 200.227 577.676 199.035 574.474 197.492C571.32 196.023 568.815 194.537 566.957 193.032C565.113 191.466 563.539 189.991 562.234 188.609C560.942 187.164 560.04 185.999 559.527 185.113L558.87 183.713L570.67 171.826C571.066 172.364 571.62 173.066 572.331 173.931C573.103 174.81 574.718 176.1 577.176 177.802C579.696 179.517 582.307 180.672 585.009 181.269Z" fill="white"/>
<path d="M45.0314 445.741L44.7025 459.023L49.3314 446.69L58.2622 448.66L48.1921 470.719L38.5997 468.603L38.7098 456.313L33.6382 467.508L24.0459 465.392L24.193 441.143L33.1238 443.114L32.1332 456.25L37.4238 444.063L45.0314 445.741ZM75.6198 452.49L77.292 477.14L67.6997 475.024L67.7679 471.57L63.4679 470.621L62.0766 473.783L52.4843 471.666L64.3737 450.009L75.6198 452.49ZM65.6279 465.548L67.9433 466.059L68.0993 459.849L65.6279 465.548ZM93.8149 480.786L90.4542 469.291L88.1919 479.545L79.5919 477.647L84.7005 454.494L94.2928 456.61L97.6535 468.104L99.9159 457.851L108.516 459.748L103.407 482.902L93.8149 480.786ZM121.594 486.915L118.234 475.42L115.971 485.674L107.371 483.777L112.48 460.623L122.072 462.739L125.433 474.234L127.695 463.98L136.295 465.877L131.187 489.031L121.594 486.915ZM156.632 470.364L158.305 495.014L148.712 492.898L148.781 489.444L144.481 488.496L143.089 491.657L133.497 489.541L145.386 467.883L156.632 470.364ZM146.641 483.422L148.956 483.933L149.112 477.724L146.641 483.422ZM185.803 488.247L185.767 488.413C185.916 488.469 186.094 488.554 186.3 488.669C186.533 488.767 186.915 489.025 187.448 489.443C188.007 489.844 188.474 490.294 188.849 490.793C189.23 491.27 189.525 491.924 189.734 492.757C189.97 493.572 189.987 494.443 189.782 495.369C189.344 497.354 188.087 498.753 186.012 499.567C183.958 500.385 180.979 500.364 177.076 499.503C175.511 499.158 173.908 498.769 172.269 498.338C170.625 497.929 169.38 497.597 168.535 497.341L167.226 496.983L172.335 473.829C175.471 474.29 178.748 474.897 182.166 475.651C185.672 476.425 188.151 477.608 189.603 479.2C191.056 480.792 191.575 482.526 191.162 484.4C190.996 485.15 190.694 485.788 190.253 486.316C189.835 486.848 189.38 487.233 188.888 487.471C188.397 487.71 187.917 487.893 187.449 488.021C186.981 488.149 186.597 488.214 186.296 488.217L185.803 488.247ZM179.694 481.35L179.037 484.327L180.195 484.582C180.746 484.704 181.219 484.658 181.613 484.444C182.007 484.23 182.25 483.914 182.343 483.495C182.435 483.076 182.348 482.687 182.08 482.327C181.813 481.967 181.403 481.727 180.852 481.605L179.694 481.35ZM178.39 493.549C179.713 493.841 180.496 493.436 180.74 492.333C180.983 491.231 180.443 490.533 179.12 490.242L177.797 489.95L177.067 493.257L178.39 493.549ZM201.812 495.942L201.448 497.596L211.371 499.785L209.911 506.401L191.388 502.314L196.497 479.16L214.358 483.101L212.899 489.716L203.637 487.673L203.272 489.327L211.872 491.224L210.412 497.84L201.812 495.942ZM231.908 486.973L232.764 494.099L236.539 487.995L246.462 490.184L235.385 502.656L233.415 511.587L224.815 509.689L226.785 500.758L221.985 484.784L231.908 486.973ZM258.104 507.877C258.975 507.282 259.537 506.412 259.79 505.265C260.043 504.119 259.899 503.093 259.359 502.187C258.819 501.282 258.042 500.717 257.027 500.493C256.013 500.27 255.07 500.455 254.199 501.049C253.328 501.643 252.766 502.513 252.513 503.66C252.26 504.807 252.404 505.833 252.944 506.738C253.484 507.643 254.261 508.208 255.276 508.432C256.29 508.656 257.233 508.471 258.104 507.877ZM267.31 497.906C269.23 500.735 269.81 503.869 269.051 507.309C268.292 510.749 266.445 513.359 263.508 515.139C260.599 516.902 257.258 517.368 253.488 516.536C249.717 515.704 246.872 513.873 244.952 511.045C243.059 508.199 242.492 505.056 243.251 501.616C244.01 498.176 245.845 495.575 248.754 493.812C251.691 492.032 255.044 491.558 258.815 492.39C262.586 493.222 265.418 495.06 267.31 497.906ZM281.075 513.084C281.46 513.747 282.028 514.161 282.778 514.326C283.527 514.492 284.217 514.355 284.845 513.915C285.474 513.476 285.886 512.815 286.081 511.933L288.817 499.529L297.417 501.427L294.681 513.831C293.951 517.139 292.307 519.609 289.75 521.241C287.193 522.874 284.261 523.325 280.953 522.596C277.645 521.866 275.175 520.222 273.543 517.665C271.91 515.108 271.458 512.176 272.188 508.868L274.925 496.464L283.525 498.362L280.788 510.766C280.594 511.648 280.689 512.42 281.075 513.084ZM319.095 530.491L309.171 528.301L306.881 519.818L306.55 519.745L304.871 527.353L296.271 525.455L301.38 502.301C304.516 502.762 307.738 503.357 311.045 504.087C314.574 504.865 317.059 506.177 318.502 508.022C319.945 509.866 320.392 512.034 319.842 514.526C319.643 515.43 319.347 516.244 318.957 516.967C318.588 517.695 318.209 518.259 317.82 518.659C317.431 519.059 317.057 519.392 316.697 519.66C316.338 519.927 316.044 520.105 315.817 520.194L315.442 520.319L319.095 530.491ZM307.864 513.791L308.856 514.01C309.429 514.137 309.942 514.065 310.395 513.795C310.848 513.525 311.13 513.136 311.242 512.629C311.354 512.122 311.261 511.65 310.964 511.215C310.667 510.779 310.232 510.498 309.659 510.372L308.666 510.153L307.864 513.791ZM345.632 523.512L345.596 523.677C345.745 523.733 345.923 523.819 346.129 523.934C346.362 524.031 346.744 524.289 347.276 524.707C347.835 525.108 348.303 525.558 348.678 526.057C349.058 526.534 349.353 527.189 349.563 528.021C349.799 528.836 349.815 529.707 349.611 530.633C349.173 532.618 347.916 534.017 345.84 534.831C343.787 535.65 340.808 535.629 336.905 534.767C335.339 534.422 333.737 534.034 332.098 533.603C330.454 533.194 329.209 532.861 328.363 532.605L327.055 532.247L332.164 509.093C335.299 509.554 338.576 510.161 341.994 510.915C345.5 511.689 347.98 512.872 349.432 514.464C350.885 516.057 351.404 517.79 350.99 519.664C350.825 520.414 350.522 521.053 350.082 521.58C349.664 522.112 349.209 522.497 348.717 522.736C348.225 522.974 347.745 523.157 347.278 523.285C346.81 523.413 346.426 523.479 346.124 523.482L345.632 523.512ZM339.523 516.614L338.866 519.591L340.024 519.846C340.575 519.968 341.048 519.922 341.442 519.708C341.836 519.494 342.079 519.178 342.171 518.759C342.264 518.34 342.176 517.951 341.909 517.591C341.641 517.232 341.232 516.991 340.681 516.869L339.523 516.614ZM338.219 528.814C339.542 529.105 340.325 528.7 340.568 527.598C340.812 526.495 340.272 525.798 338.949 525.506L337.625 525.214L336.896 528.522L338.219 528.814ZM367.962 532.115C368.833 531.521 369.395 530.651 369.648 529.504C369.901 528.358 369.757 527.332 369.217 526.426C368.677 525.521 367.9 524.956 366.885 524.732C365.871 524.508 364.928 524.694 364.057 525.288C363.186 525.882 362.624 526.752 362.371 527.899C362.118 529.045 362.262 530.071 362.802 530.977C363.342 531.882 364.119 532.447 365.134 532.671C366.148 532.895 367.091 532.709 367.962 532.115ZM377.168 522.145C379.088 524.973 379.668 528.108 378.909 531.548C378.15 534.988 376.303 537.598 373.366 539.378C370.457 541.141 367.116 541.607 363.346 540.775C359.575 539.943 356.73 538.112 354.81 535.284C352.917 532.438 352.35 529.295 353.109 525.855C353.868 522.415 355.703 519.814 358.612 518.051C361.549 516.271 364.902 515.796 368.673 516.628C372.444 517.46 375.276 519.299 377.168 522.145ZM390.736 522.017L391.591 529.143L395.366 523.038L405.289 525.228L394.213 537.699L392.242 546.63L383.642 544.732L385.613 535.802L380.813 519.827L390.736 522.017ZM406.619 525.521L423.819 529.316L422.213 536.593L413.613 534.695L413.03 537.342L419.976 538.874L418.516 545.49L411.57 543.957L410.11 550.572L401.51 548.675L406.619 525.521ZM444.167 558.086L434.244 555.897L431.953 547.414L431.622 547.341L429.944 554.948L421.344 553.051L426.452 529.897C429.588 530.358 432.81 530.953 436.118 531.683C439.646 532.461 442.131 533.773 443.574 535.617C445.017 537.462 445.464 539.63 444.914 542.122C444.715 543.026 444.419 543.84 444.029 544.563C443.66 545.291 443.281 545.855 442.892 546.254C442.503 546.654 442.129 546.988 441.77 547.255C441.41 547.523 441.116 547.701 440.889 547.79L440.514 547.915L444.167 558.086ZM432.936 541.387L433.928 541.606C434.501 541.732 435.014 541.66 435.467 541.39C435.92 541.12 436.202 540.732 436.314 540.224C436.426 539.717 436.333 539.246 436.036 538.81C435.739 538.375 435.304 538.094 434.731 537.967L433.739 537.748L432.936 541.387ZM459.214 537.125L454.105 560.279L445.505 558.382L450.614 535.228L459.214 537.125ZM468.495 554.782L468.13 556.436L478.053 558.626L476.594 565.241L458.071 561.154L463.179 538L481.041 541.941L479.581 548.557L470.32 546.513L469.955 548.167L478.555 550.065L477.095 556.68L468.495 554.782ZM493.807 569.039L490.446 557.544L488.184 567.798L479.584 565.901L484.692 542.747L494.284 544.863L497.645 556.358L499.908 546.104L508.508 548.001L503.399 571.155L493.807 569.039ZM517.496 566.981L518.819 567.273C520.076 567.551 521.131 567.379 521.985 566.758C522.861 566.142 523.469 565.062 523.81 563.518C524.15 561.975 524.053 560.739 523.517 559.812C523.004 558.889 522.119 558.289 520.862 558.012L519.539 557.72L517.496 566.981ZM531.584 556.111C533.383 558.751 533.879 561.901 533.071 565.562C532.263 569.222 530.488 571.871 527.745 573.509C525.024 575.152 521.513 575.499 517.213 574.55C515.647 574.205 514.045 573.816 512.406 573.385C510.762 572.976 509.517 572.644 508.671 572.388L507.363 572.03L512.472 548.876C515.607 549.337 518.939 549.956 522.468 550.735C526.768 551.683 529.806 553.475 531.584 556.111Z" fill="white"/>
<path d="M183.193 522.493C183.491 522.29 183.683 521.993 183.77 521.601C183.856 521.209 183.807 520.858 183.622 520.549C183.438 520.239 183.172 520.046 182.825 519.97C182.479 519.893 182.156 519.956 181.859 520.159C181.561 520.362 181.369 520.66 181.282 521.052C181.196 521.444 181.245 521.794 181.43 522.104C181.614 522.413 181.88 522.606 182.227 522.683C182.573 522.759 182.896 522.696 183.193 522.493ZM186.34 519.085C186.996 520.052 187.195 521.123 186.935 522.299C186.676 523.475 186.044 524.367 185.04 524.975C184.046 525.578 182.904 525.737 181.615 525.453C180.327 525.168 179.354 524.543 178.698 523.576C178.051 522.603 177.857 521.529 178.117 520.353C178.376 519.178 179.003 518.288 179.998 517.686C181.001 517.077 182.148 516.915 183.436 517.2C184.725 517.484 185.693 518.113 186.34 519.085ZM194.998 528.228L191.606 527.479L190.823 524.58L190.71 524.555L190.136 527.155L187.197 526.506L188.943 518.592C190.015 518.75 191.116 518.953 192.246 519.203C193.452 519.469 194.302 519.917 194.795 520.548C195.288 521.178 195.441 521.919 195.253 522.771C195.185 523.08 195.084 523.358 194.95 523.605C194.824 523.854 194.695 524.047 194.562 524.183C194.429 524.32 194.301 524.434 194.178 524.526C194.055 524.617 193.955 524.678 193.877 524.708L193.749 524.751L194.998 528.228ZM191.159 522.52L191.498 522.594C191.694 522.638 191.869 522.613 192.024 522.521C192.179 522.428 192.275 522.296 192.314 522.122C192.352 521.949 192.32 521.788 192.219 521.639C192.117 521.49 191.968 521.394 191.772 521.351L191.433 521.276L191.159 522.52ZM200.141 521.063L198.394 528.977L195.455 528.328L197.201 520.415L200.141 521.063ZM204.62 527.624L204.846 527.674L205.145 526.317L207.858 526.916L207.247 529.685C207.209 529.716 207.157 529.756 207.091 529.805C207.024 529.854 206.872 529.935 206.634 530.048C206.405 530.156 206.16 530.244 205.9 530.313C205.647 530.384 205.318 530.425 204.912 530.439C204.506 530.452 204.091 530.412 203.669 530.319C202.486 530.058 201.578 529.442 200.947 528.473C200.324 527.498 200.141 526.43 200.397 525.269C200.653 524.109 201.268 523.221 202.241 522.605C203.224 521.984 204.307 521.805 205.49 522.066C205.89 522.154 206.26 522.283 206.602 522.453C206.953 522.618 207.232 522.786 207.439 522.958C207.646 523.13 207.823 523.296 207.97 523.455C208.124 523.615 208.233 523.75 208.296 523.858L208.382 524.008L206.551 525.856C206.508 525.8 206.449 525.727 206.374 525.639C206.298 525.552 206.145 525.423 205.913 525.253C205.684 525.076 205.452 524.962 205.218 524.91C204.826 524.824 204.474 524.88 204.161 525.08C203.848 525.28 203.649 525.576 203.562 525.968C203.476 526.36 203.533 526.712 203.732 527.025C203.932 527.338 204.228 527.537 204.62 527.624ZM212.804 523.857L211.058 531.771L208.119 531.123L209.865 523.209L212.804 523.857ZM217.275 533.143L216.126 529.214L215.353 532.719L212.413 532.07L214.16 524.156L217.438 524.88L218.587 528.808L219.36 525.304L222.3 525.952L220.554 533.866L217.275 533.143ZM229.251 527.486L229.822 535.911L226.544 535.188L226.567 534.007L225.097 533.683L224.622 534.764L221.343 534.04L225.407 526.638L229.251 527.486ZM225.836 531.949L226.627 532.124L226.68 530.001L225.836 531.949ZM235.294 528.819L234.122 534.133L237.174 534.806L236.6 537.407L230.608 536.085L232.355 528.171L235.294 528.819ZM242.988 530.517L245.701 531.116L243.955 539.029L241.016 538.381L242.163 533.18L240.343 533.371L240.891 530.884L242.988 530.517ZM249.631 536.962C249.591 537.001 249.53 537.043 249.449 537.088C249.368 537.133 249.199 537.183 248.942 537.237C248.685 537.291 248.421 537.288 248.149 537.228C247.358 537.053 246.776 536.68 246.405 536.108C246.042 535.53 245.948 534.845 246.123 534.054C246.307 533.217 246.75 532.592 247.45 532.177C248.15 531.762 248.975 531.66 249.925 531.869C251.017 532.111 251.812 532.665 252.308 533.534C252.812 534.403 252.92 535.49 252.632 536.794C252.367 537.993 251.788 538.9 250.893 539.517C249.998 540.134 249.031 540.327 247.991 540.098C247.523 539.995 247.084 539.834 246.674 539.617C246.272 539.395 245.983 539.2 245.806 539.035L245.552 538.789L246.743 537.155C247.07 537.464 247.459 537.669 247.912 537.768C248.349 537.865 248.728 537.83 249.049 537.664C249.37 537.497 249.564 537.264 249.631 536.962ZM249.02 534.089C248.875 534.207 248.776 534.387 248.723 534.628C248.67 534.869 248.684 535.074 248.766 535.242C248.847 535.41 248.963 535.511 249.114 535.544C249.265 535.577 249.412 535.535 249.557 535.416C249.702 535.298 249.8 535.118 249.854 534.877C249.907 534.636 249.893 534.431 249.811 534.263C249.73 534.095 249.614 533.994 249.463 533.961C249.312 533.928 249.165 533.97 249.02 534.089ZM260.18 534.31L259.656 536.684L255.72 541.625L252.668 540.952L256.522 536.111L253.639 535.475L254.188 532.988L260.18 534.31ZM263.681 538.046C264.465 538.219 265.058 538.611 265.461 539.222C265.863 539.832 265.983 540.507 265.82 541.245C265.659 541.977 265.223 542.536 264.513 542.925C263.803 543.314 262.969 543.403 262.012 543.191C261.613 543.103 261.238 542.973 260.889 542.801C260.545 542.639 260.27 542.471 260.063 542.299C259.856 542.127 259.675 541.96 259.521 541.8C259.374 541.641 259.27 541.507 259.207 541.399L259.121 541.249L260.569 539.79C260.612 539.847 260.671 539.92 260.747 540.007C260.822 540.095 260.975 540.228 261.204 540.405C261.436 540.574 261.668 540.685 261.902 540.736C262.15 540.791 262.356 540.773 262.518 540.683C262.69 540.586 262.798 540.436 262.843 540.233C262.888 540.029 262.852 539.851 262.735 539.699C262.628 539.541 262.45 539.435 262.201 539.38C262.065 539.35 261.918 539.337 261.759 539.342C261.6 539.346 261.475 539.358 261.384 539.377L261.247 539.406L260.09 538.203L261.478 534.596L266.566 535.719L266.042 538.093L263.102 537.445L262.864 537.985C263.107 537.959 263.379 537.98 263.681 538.046ZM272.018 542.732L272.471 542.831C272.9 542.926 273.261 542.867 273.553 542.655C273.852 542.445 274.06 542.075 274.177 541.548C274.293 541.02 274.26 540.598 274.077 540.281C273.901 539.966 273.599 539.761 273.169 539.666L272.717 539.566L272.018 542.732ZM276.834 539.016C277.449 539.918 277.618 540.995 277.342 542.246C277.066 543.497 276.459 544.403 275.522 544.963C274.592 545.524 273.392 545.643 271.922 545.319C271.387 545.2 270.839 545.068 270.279 544.92C269.717 544.781 269.291 544.667 269.002 544.58L268.555 544.457L270.301 536.543C271.373 536.701 272.512 536.912 273.718 537.178C275.188 537.503 276.226 538.115 276.834 539.016ZM281.16 544.274L281.036 544.84L284.427 545.588L283.929 547.849L277.597 546.452L279.344 538.538L285.449 539.885L284.95 542.146L281.784 541.448L281.659 542.013L284.599 542.662L284.1 544.923L281.16 544.274ZM291.621 549.546L289.247 549.022L288.863 544.314L287.89 548.723L284.95 548.075L286.697 540.161L290.88 541.084L291.232 545.667L293.48 541.657L297.663 542.58L295.917 550.494L292.977 549.846L293.95 545.436L291.621 549.546ZM302.995 548.926C303.293 548.723 303.485 548.425 303.572 548.034C303.658 547.642 303.609 547.291 303.424 546.981C303.24 546.672 302.974 546.479 302.627 546.402C302.281 546.326 301.958 546.389 301.661 546.592C301.363 546.795 301.171 547.093 301.084 547.485C300.998 547.877 301.047 548.227 301.232 548.537C301.416 548.846 301.682 549.039 302.029 549.116C302.375 549.192 302.698 549.129 302.995 548.926ZM306.142 545.518C306.798 546.485 306.997 547.556 306.737 548.732C306.478 549.908 305.846 550.8 304.842 551.408C303.848 552.011 302.706 552.17 301.418 551.886C300.129 551.601 299.156 550.976 298.5 550.009C297.853 549.036 297.659 547.962 297.919 546.786C298.178 545.61 298.805 544.721 299.8 544.119C300.803 543.51 301.95 543.348 303.238 543.633C304.527 543.917 305.495 544.545 306.142 545.518ZM310.443 545.4L313.721 546.123L313.547 550.946L315.417 546.498L318.696 547.221L314.745 554.648L310.901 553.8L310.443 545.4ZM321.304 553.132L321.18 553.697L324.571 554.445L324.072 556.706L317.741 555.309L319.487 547.396L325.592 548.743L325.093 551.004L321.928 550.305L321.803 550.87L324.743 551.519L324.244 553.78L321.304 553.132ZM332.895 558.653L329.503 557.905L328.72 555.005L328.607 554.98L328.034 557.58L325.094 556.932L326.84 549.018C327.912 549.175 329.013 549.379 330.144 549.628C331.35 549.894 332.199 550.343 332.693 550.973C333.186 551.604 333.339 552.345 333.151 553.196C333.082 553.505 332.982 553.783 332.848 554.031C332.722 554.279 332.592 554.472 332.46 554.609C332.327 554.746 332.199 554.86 332.076 554.951C331.953 555.042 331.853 555.103 331.775 555.134L331.647 555.176L332.895 558.653ZM329.056 552.945L329.396 553.02C329.592 553.063 329.767 553.039 329.922 552.946C330.076 552.854 330.173 552.721 330.211 552.548C330.249 552.374 330.218 552.213 330.116 552.064C330.015 551.916 329.866 551.82 329.67 551.776L329.331 551.701L329.056 552.945ZM336.257 557.142C336.393 557.172 336.51 557.162 336.608 557.113C336.706 557.063 336.764 556.993 336.784 556.903C336.803 556.82 336.746 556.72 336.613 556.604C336.481 556.488 336.31 556.367 336.1 556.242C335.891 556.117 335.669 555.957 335.435 555.763C335.203 555.562 334.993 555.35 334.805 555.126C334.617 554.903 334.482 554.62 334.399 554.278C334.317 553.936 334.319 553.569 334.405 553.177C334.555 552.498 334.983 551.972 335.69 551.599C336.406 551.219 337.239 551.134 338.189 551.344C338.566 551.427 338.917 551.552 339.244 551.719C339.58 551.88 339.848 552.046 340.047 552.216C340.247 552.387 340.42 552.552 340.567 552.71C340.713 552.869 340.818 553.003 340.881 553.112L340.967 553.261L339.519 554.72C339.476 554.663 339.417 554.591 339.341 554.503C339.266 554.415 339.112 554.286 338.881 554.117C338.651 553.94 338.42 553.825 338.186 553.774C338.05 553.744 337.934 553.754 337.836 553.803C337.738 553.853 337.679 553.923 337.659 554.013C337.641 554.096 337.698 554.196 337.83 554.312C337.963 554.428 338.134 554.549 338.343 554.674C338.553 554.799 338.774 554.963 339.006 555.164C339.24 555.358 339.45 555.566 339.638 555.79C339.826 556.013 339.961 556.296 340.044 556.638C340.126 556.98 340.125 557.347 340.038 557.739C339.888 558.418 339.456 558.946 338.739 559.326C338.033 559.7 337.204 559.782 336.255 559.572C335.787 559.469 335.357 559.323 334.964 559.133C334.577 558.953 334.27 558.771 334.042 558.586C333.815 558.394 333.622 558.213 333.462 558.043C333.304 557.866 333.193 557.723 333.13 557.614L333.049 557.442L334.498 555.983C334.546 556.049 334.614 556.135 334.701 556.242C334.796 556.349 334.994 556.508 335.296 556.717C335.605 556.927 335.926 557.069 336.257 557.142ZM345.104 553.048L343.358 560.962L340.419 560.313L342.165 552.399L345.104 553.048ZM350.437 559.393C350.735 559.19 350.927 558.893 351.013 558.501C351.1 558.109 351.051 557.758 350.866 557.449C350.681 557.139 350.416 556.946 350.069 556.87C349.722 556.793 349.4 556.857 349.102 557.06C348.805 557.263 348.612 557.56 348.526 557.952C348.44 558.344 348.489 558.695 348.673 559.004C348.858 559.314 349.124 559.507 349.47 559.583C349.817 559.66 350.139 559.596 350.437 559.393ZM353.584 555.986C354.24 556.952 354.438 558.024 354.179 559.199C353.919 560.375 353.288 561.267 352.284 561.876C351.29 562.478 350.148 562.637 348.859 562.353C347.57 562.069 346.598 561.443 345.942 560.476C345.295 559.504 345.101 558.429 345.36 557.254C345.62 556.078 346.247 555.189 347.241 554.586C348.245 553.978 349.391 553.816 350.68 554.1C351.969 554.384 352.937 555.013 353.584 555.986ZM359.302 564.479L358.153 560.55L357.38 564.055L354.44 563.407L356.186 555.493L359.465 556.216L360.614 560.145L361.387 556.64L364.326 557.289L362.58 565.203L359.302 564.479Z" fill="white"/>
<rect x="107.721" y="119.369" width="499.234" height="309.349" transform="rotate(12.4423 107.721 119.369)" fill="white"/>
<path d="M78.3439 440.337C66.6257 437.751 56.6582 433.445 48.4415 427.417C40.2839 421.352 34.3998 414.189 30.7891 405.927C27.1784 397.666 26.3692 388.906 28.3614 379.646L69.0363 388.621C68.4544 391.488 68.7598 394.247 69.9524 396.897C71.2042 399.509 73.1923 401.776 75.9167 403.697C78.6411 405.618 81.9402 407.006 85.814 407.861C89.5426 408.684 92.9795 408.757 96.1249 408.079C99.281 407.354 101.92 405.981 104.041 403.961C106.163 401.941 107.536 399.4 108.16 396.339C108.871 393.347 108.539 390.481 107.163 387.74C105.836 385.01 103.646 382.622 100.593 380.578C97.5406 378.533 93.8352 377.03 89.4772 376.069L74.3693 372.735L80.5232 344.844L95.6311 348.177C99.6502 349.064 103.329 349.19 106.668 348.556C110.056 347.932 112.853 346.645 115.061 344.695C117.317 342.755 118.752 340.279 119.366 337.266C120.055 334.371 119.92 331.65 118.958 329.102C117.997 326.554 116.348 324.362 114.011 322.526C111.722 320.701 108.883 319.415 105.494 318.667C101.814 317.855 98.3766 317.782 95.1828 318.448C92.0374 319.125 89.3851 320.444 87.2259 322.405C85.0667 324.366 83.6317 326.843 82.9209 329.834L44.2797 321.309C46.3367 312.216 50.6039 304.728 57.0815 298.845C63.6075 292.972 71.6424 289.007 81.1861 286.949C90.7298 284.891 101.119 285.101 112.353 287.579C123.345 290.005 132.642 294.011 140.245 299.599C147.896 305.197 153.373 311.788 156.677 319.372C160.039 326.918 160.771 334.875 158.875 343.241C157.134 351.591 152.771 357.788 145.785 361.833C138.847 365.888 130.841 367.422 121.766 366.435L121.509 367.598C133.23 371.555 141.449 377.227 146.166 384.616C150.894 391.955 152.205 400.166 150.1 409.248C148.225 417.975 143.906 425.122 137.143 430.688C130.429 436.265 121.976 439.935 111.787 441.698C101.646 443.472 90.498 443.019 78.3439 440.337Z" fill="black"/>
<path d="M127.87 449.597L130.799 436.321L160.783 420.94C162.772 419.917 164.498 418.929 165.962 417.976C167.452 417.006 168.662 415.938 169.592 414.774C170.543 413.616 171.195 412.239 171.546 410.646C171.932 408.898 171.885 407.322 171.407 405.917C170.95 404.517 170.142 403.341 168.983 402.389C167.829 401.415 166.4 400.74 164.696 400.364C162.993 399.988 161.412 399.999 159.956 400.397C158.521 400.8 157.303 401.587 156.302 402.758C155.301 403.93 154.591 405.467 154.171 407.37L136.648 403.503C137.702 398.724 139.683 394.845 142.591 391.867C145.499 388.889 149.116 386.903 153.442 385.909C157.768 384.914 162.565 384.998 167.83 386.16C173.273 387.361 177.793 389.274 181.39 391.901C185.014 394.51 187.564 397.625 189.039 401.246C190.536 404.871 190.819 408.796 189.886 413.022C189.31 415.633 188.194 418.113 186.539 420.463C184.889 422.79 182.314 425.204 178.816 427.703C175.318 430.203 170.504 433.039 164.374 436.211L156.831 440.116L156.743 440.514L183.294 446.372L180.042 461.108L127.87 449.597Z" fill="black"/>
<path d="M179.373 394.332C171.544 392.604 164.898 389.694 159.435 385.602C154.012 381.483 150.097 376.601 147.69 370.956C145.316 365.318 144.795 359.324 146.126 352.974L172.997 358.902C172.32 362.44 173.062 365.544 175.222 368.212C177.414 370.887 180.335 372.628 183.984 373.433C186.804 374.055 189.424 374.007 191.843 373.288C194.27 372.537 196.343 371.185 198.061 369.233C199.778 367.281 200.946 364.825 201.565 361.866C202.257 358.887 202.23 356.168 201.486 353.708C200.749 351.215 199.434 349.133 197.541 347.463C195.656 345.76 193.303 344.597 190.484 343.975C187.564 343.331 184.703 343.448 181.901 344.325C179.139 345.177 176.902 346.718 175.192 348.95L151.964 338.816L168.329 283.565L236.798 298.672L231.923 320.765L186.144 310.665L179.192 332.717L179.789 332.849C182.062 330.115 185.379 328.168 189.74 327.008C194.108 325.815 198.879 325.789 204.054 326.931C210.125 328.271 215.221 330.874 219.343 334.74C223.498 338.614 226.403 343.342 228.058 348.926C229.754 354.483 229.872 360.493 228.412 366.954C226.878 374.061 223.796 379.99 219.164 384.743C214.573 389.47 208.865 392.716 202.04 394.48C195.222 396.211 187.666 396.162 179.373 394.332Z" fill="black"/>
<path d="M278.922 485.113C271.365 483.418 265.218 480.228 260.481 475.544C255.744 470.86 252.605 464.923 251.065 457.733C249.524 450.542 249.775 442.382 251.818 433.253C253.867 424.097 257.074 416.646 261.44 410.901C265.833 405.162 271.136 401.229 277.347 399.103C283.585 396.983 290.486 396.757 298.048 398.426C305.611 400.094 311.773 403.216 316.534 407.792C321.301 412.34 324.47 418.142 326.04 425.197C327.611 432.252 327.374 440.344 325.332 449.473C323.304 458.662 320.079 466.194 315.656 472.069C311.233 477.944 305.887 482.009 299.619 484.265C293.384 486.499 286.485 486.782 278.922 485.113ZM282.977 466.735C286.88 467.596 290.527 466.269 293.918 462.753C297.342 459.216 300.007 453.067 301.911 444.306C303.173 438.586 303.636 433.784 303.299 429.901C302.962 426.017 301.982 422.987 300.358 420.81C298.741 418.605 296.632 417.216 294.029 416.642C290.126 415.78 286.504 417.056 283.164 420.47C279.824 423.883 277.182 429.867 275.238 438.42C273.925 444.242 273.422 449.163 273.73 453.182C274.043 457.174 275.005 460.286 276.616 462.517C278.254 464.755 280.375 466.161 282.977 466.735Z" fill="black"/>
<path d="M221.533 221.188L205.125 295.552L184.937 291.097L197.242 235.325L196.807 235.229L178.392 241.371L182.174 224.232L202.942 217.086L221.533 221.188Z" fill="black"/>
<path d="M189.101 470.359L259.725 383.88L259.887 383.147L202.178 370.414L208.166 343.271L301.088 363.773L295.099 390.916L224.069 478.074L189.101 470.359Z" fill="black"/>
<path d="M308.1 477.501L311.339 462.819L349.062 424.953L362.384 427.892L358.065 447.468L350.452 445.788L330.084 466.385L329.964 466.928L371.29 476.047L368.051 490.728L308.1 477.501ZM339.55 495.845L342.94 480.483L344.757 474.184L355.315 426.332L372.988 430.232L357.631 499.834L339.55 495.845Z" fill="black"/>
<path d="M247.443 364.246C243.387 363.351 239.675 361.867 236.307 359.793C232.967 357.702 230.197 354.964 227.998 351.58C225.798 348.196 224.384 344.106 223.755 339.31C223.149 334.52 223.555 328.966 224.972 322.65C226.239 317.013 228.084 312.098 230.506 307.904C232.951 303.715 235.849 300.327 239.2 297.74C242.573 295.158 246.303 293.439 250.388 292.582C254.479 291.702 258.801 291.765 263.356 292.77C268.476 293.9 272.767 295.88 276.229 298.711C279.692 301.542 282.213 304.866 283.794 308.684C285.403 312.484 285.963 316.409 285.473 320.459L266.849 316.35C266.853 314.284 266.174 312.625 264.811 311.374C263.475 310.105 261.81 309.251 259.816 308.811C255.851 307.936 252.56 309.016 249.942 312.05C247.347 315.089 245.407 319.413 244.122 325.022L244.53 325.112C245.883 323.177 247.622 321.648 249.747 320.525C251.872 319.402 254.214 318.695 256.773 318.404C259.332 318.113 261.937 318.26 264.588 318.845C268.802 319.775 272.274 321.539 275.003 324.137C277.755 326.74 279.65 329.89 280.687 333.588C281.725 337.286 281.762 341.262 280.8 345.517C279.723 350.506 277.582 354.608 274.378 357.822C271.197 361.04 267.283 363.218 262.637 364.355C257.99 365.492 252.926 365.455 247.443 364.246ZM250.456 349.942C252.337 350.357 254.097 350.293 255.737 349.752C257.4 349.216 258.804 348.291 259.949 346.975C261.118 345.665 261.9 344.056 262.298 342.147C262.745 340.227 262.712 338.437 262.199 336.78C261.713 335.104 260.829 333.674 259.546 332.488C258.286 331.307 256.716 330.509 254.835 330.094C253.453 329.789 252.118 329.756 250.83 329.994C249.569 330.215 248.409 330.684 247.348 331.4C246.292 332.094 245.38 332.997 244.611 334.111C243.871 335.207 243.331 336.466 242.994 337.888C242.597 339.796 242.652 341.591 243.16 343.271C243.669 344.951 244.553 346.382 245.813 347.563C247.073 348.744 248.621 349.537 250.456 349.942Z" fill="black"/>
<path d="M208.321 440.517C203.901 439.541 200.104 437.984 196.931 435.845C193.776 433.709 191.46 431.245 189.983 428.452C188.524 425.662 188.12 422.788 188.773 419.83C189.273 417.566 190.29 415.622 191.826 413.999C193.38 412.379 195.255 411.166 197.451 410.361C199.651 409.538 201.976 409.21 204.425 409.377L204.52 408.949C201.519 407.726 199.257 405.778 197.734 403.106C196.233 400.419 195.819 397.552 196.492 394.505C197.125 391.635 198.596 389.287 200.906 387.46C203.22 385.615 206.095 384.399 209.533 383.812C212.971 383.225 216.704 383.375 220.733 384.264C224.761 385.153 228.209 386.596 231.077 388.593C233.948 390.573 236.045 392.886 237.368 395.533C238.694 398.162 239.043 400.902 238.414 403.754C237.737 406.82 236.137 409.243 233.614 411.022C231.09 412.802 228.237 413.621 225.053 413.479L224.959 413.907C227.233 414.783 229.195 416.057 230.844 417.729C232.498 419.384 233.689 421.272 234.417 423.396C235.144 425.519 235.259 427.712 234.759 429.976C234.106 432.935 232.522 435.37 230.007 437.283C227.509 439.199 224.371 440.46 220.593 441.065C216.832 441.675 212.742 441.492 208.321 440.517ZM210.586 430.25C211.994 430.561 213.305 430.551 214.518 430.22C215.731 429.89 216.76 429.294 217.604 428.434C218.47 427.559 219.042 426.489 219.322 425.224C219.601 423.958 219.528 422.765 219.102 421.643C218.695 420.525 218.008 419.57 217.043 418.777C216.082 417.967 214.897 417.407 213.489 417.096C212.098 416.789 210.788 416.799 209.557 417.126C208.348 417.438 207.314 418.014 206.456 418.853C205.616 419.695 205.056 420.749 204.777 422.015C204.498 423.28 204.56 424.481 204.964 425.617C205.385 426.757 206.075 427.74 207.032 428.569C208.011 429.383 209.196 429.943 210.586 430.25ZM215.754 406.829C217.002 407.105 218.164 407.09 219.24 406.785C220.317 406.481 221.232 405.935 221.985 405.148C222.738 404.361 223.24 403.397 223.492 402.256C223.744 401.115 223.69 400.047 223.33 399.052C222.974 398.039 222.37 397.177 221.517 396.465C220.669 395.736 219.621 395.234 218.373 394.958C217.143 394.687 215.981 394.702 214.887 395.002C213.814 395.289 212.903 395.817 212.154 396.586C211.409 397.338 210.91 398.284 210.659 399.425C210.407 400.565 210.457 401.651 210.809 402.682C211.165 403.695 211.765 404.575 212.61 405.322C213.476 406.056 214.524 406.558 215.754 406.829Z" fill="black"/>
<path d="M441.851 402.639L448.975 370.35L531.935 287.072L561.234 293.537L551.735 336.589L534.993 332.895L490.197 378.191L489.933 379.387L580.82 399.44L573.696 431.729L441.851 402.639ZM511.017 442.981L518.471 409.198L522.468 395.344L545.687 290.107L584.553 298.682L550.78 451.755L511.017 442.981Z" fill="black"/>
<path d="M495.099 406.643L473.569 504.227L447.076 498.381L463.224 425.194L462.652 425.067L438.489 433.127L443.451 410.637L470.703 401.26L495.099 406.643Z" fill="black"/>
<path d="M490.516 328.196C486.672 327.348 483.403 325.935 480.708 323.958C478.032 321.969 476.102 319.619 474.918 316.909C473.734 314.2 473.468 311.326 474.122 308.289L487.463 311.233C487.272 312.173 487.372 313.078 487.764 313.947C488.174 314.804 488.826 315.547 489.72 316.178C490.614 316.808 491.696 317.263 492.966 317.544C494.189 317.813 495.317 317.837 496.348 317.615C497.384 317.377 498.249 316.927 498.945 316.264C499.641 315.602 500.091 314.768 500.296 313.764C500.529 312.783 500.42 311.843 499.969 310.944C499.534 310.048 498.815 309.265 497.814 308.595C496.813 307.924 495.597 307.431 494.168 307.116L489.212 306.022L491.231 296.874L496.186 297.967C497.505 298.258 498.711 298.299 499.807 298.091C500.918 297.887 501.835 297.465 502.559 296.825C503.299 296.189 503.77 295.376 503.971 294.388C504.198 293.439 504.153 292.546 503.838 291.71C503.522 290.875 502.982 290.156 502.215 289.554C501.464 288.955 500.533 288.533 499.421 288.288C498.214 288.021 497.087 287.997 496.039 288.216C495.008 288.438 494.138 288.871 493.429 289.514C492.721 290.157 492.251 290.969 492.017 291.951L479.343 289.154C480.018 286.172 481.417 283.716 483.542 281.786C485.683 279.86 488.318 278.559 491.448 277.884C494.579 277.209 497.986 277.278 501.671 278.091C505.276 278.886 508.326 280.2 510.82 282.033C513.329 283.869 515.126 286.031 516.209 288.519C517.312 290.994 517.553 293.604 516.93 296.348C516.359 299.087 514.928 301.12 512.637 302.446C510.361 303.776 507.735 304.279 504.759 303.956L504.675 304.337C508.519 305.635 511.215 307.496 512.762 309.919C514.313 312.326 514.743 315.02 514.052 317.999C513.437 320.861 512.021 323.205 509.802 325.031C507.6 326.86 504.828 328.064 501.485 328.642C498.159 329.224 494.503 329.075 490.516 328.196Z" fill="black"/>
<path d="M392.938 510.495C384.972 508.738 378.21 505.777 372.651 501.613C367.134 497.422 363.151 492.455 360.701 486.711C358.286 480.975 357.756 474.877 359.111 468.415L386.45 474.447C385.762 478.047 386.516 481.205 388.714 483.919C390.945 486.641 393.917 488.412 397.629 489.231C400.498 489.864 403.164 489.815 405.626 489.084C408.095 488.319 410.204 486.944 411.952 484.958C413.699 482.972 414.888 480.474 415.517 477.462C416.221 474.432 416.194 471.665 415.437 469.162C414.687 466.625 413.349 464.507 411.423 462.808C409.505 461.075 407.111 459.892 404.242 459.259C401.272 458.604 398.361 458.723 395.509 459.615C392.699 460.482 390.424 462.051 388.684 464.321L365.05 454.01L381.7 397.795L451.365 413.165L446.405 435.644L399.827 425.367L392.753 447.805L393.361 447.939C395.673 445.157 399.048 443.176 403.485 441.996C407.93 440.782 412.785 440.756 418.05 441.918C424.227 443.281 429.412 445.929 433.605 449.863C437.833 453.804 440.788 458.615 442.473 464.296C444.198 469.951 444.318 476.065 442.832 482.64C441.272 489.87 438.136 495.903 433.423 500.739C428.752 505.549 422.944 508.851 416 510.646C409.063 512.407 401.376 512.357 392.938 510.495Z" fill="black"/>
<path d="M368.411 320.145L370.306 314.184L364.482 316.596L362.785 311.147L368.879 309.81L363.913 306.033L367.746 301.804L372.014 306.443L372.803 300.238L378.332 301.458L376.437 307.419L382.261 305.007L383.958 310.455L377.864 311.793L382.829 315.57L378.997 319.798L374.729 315.16L373.94 321.365L368.411 320.145Z" fill="black"/>
<path d="M153.042 204.113C158.719 205.366 163.896 207.456 168.571 210.383C173.254 213.279 177.122 217.076 180.177 221.774C183.263 226.48 185.233 232.169 186.089 238.844C186.983 245.493 186.481 253.198 184.581 261.959C182.849 269.958 180.265 276.921 176.829 282.848C173.431 288.75 169.368 293.525 164.639 297.171C159.941 300.824 154.714 303.263 148.956 304.487C143.237 305.686 137.174 305.579 130.768 304.165C123.568 302.577 117.545 299.801 112.699 295.838C107.853 291.876 104.326 287.206 102.12 281.83C99.9138 276.454 99.1709 270.853 99.8913 265.025L125.961 270.777C125.945 273.866 126.868 276.315 128.731 278.123C130.601 279.899 132.931 281.095 135.722 281.711C141.304 282.942 145.911 281.431 149.544 277.177C153.215 272.899 155.959 266.719 157.775 258.639L157.204 258.513C155.309 261.221 152.875 263.361 149.9 264.933C146.926 266.506 143.648 267.495 140.066 267.902C136.484 268.309 132.837 268.103 129.127 267.285C123.259 265.99 118.412 263.54 114.584 259.935C110.763 256.298 108.124 251.908 106.664 246.763C105.212 241.587 105.121 236.046 106.391 230.14C107.885 223.219 110.855 217.521 115.301 213.048C119.747 208.574 125.222 205.542 131.726 203.95C138.23 202.359 145.335 202.413 153.042 204.113ZM148.824 224.136C146.192 223.555 143.712 223.64 141.384 224.39C139.089 225.148 137.127 226.428 135.498 228.23C133.902 230.04 132.832 232.249 132.29 234.856C131.748 237.464 131.821 239.924 132.508 242.238C133.226 244.558 134.452 246.542 136.184 248.188C137.948 249.841 140.146 250.957 142.778 251.538C144.713 251.965 146.578 252.028 148.374 251.725C150.177 251.391 151.818 250.739 153.296 249.768C154.813 248.772 156.086 247.523 157.116 246.021C158.185 244.494 158.917 242.76 159.312 240.818C159.854 238.211 159.766 235.747 159.047 233.426C158.328 231.106 157.087 229.119 155.323 227.466C153.559 225.813 151.393 224.703 148.824 224.136Z" fill="black"/>
<path d="M488.174 527.025C480.15 525.254 473.258 522.428 467.499 518.544C461.772 514.668 457.568 510.195 454.886 505.125C452.237 500.061 451.505 494.844 452.69 489.474C453.597 485.365 455.444 481.836 458.232 478.889C461.052 475.948 464.456 473.748 468.443 472.286C472.437 470.792 476.657 470.196 481.102 470.499L481.274 469.722C475.826 467.502 471.72 463.967 468.956 459.116C466.232 454.24 465.48 449.035 466.701 443.503C467.85 438.294 470.521 434.031 474.714 430.715C478.913 427.367 484.134 425.159 490.374 424.093C496.615 423.027 503.391 423.301 510.703 424.914C518.016 426.528 524.274 429.147 529.48 432.772C534.693 436.365 538.499 440.564 540.9 445.369C543.308 450.142 543.941 455.116 542.799 460.293C541.571 465.858 538.666 470.256 534.086 473.486C529.505 476.717 524.325 478.203 518.546 477.946L518.375 478.722C522.503 480.312 526.064 482.624 529.059 485.66C532.06 488.664 534.222 492.092 535.543 495.946C536.864 499.801 537.071 503.782 536.165 507.891C534.98 513.262 532.104 517.683 527.538 521.154C523.004 524.633 517.308 526.921 510.449 528.021C503.623 529.127 496.198 528.795 488.174 527.025ZM492.286 508.389C494.842 508.953 497.221 508.935 499.423 508.335C501.625 507.735 503.492 506.654 505.024 505.092C506.596 503.505 507.635 501.563 508.142 499.265C508.649 496.968 508.516 494.801 507.744 492.765C507.004 490.736 505.758 489.002 504.006 487.563C502.261 486.092 500.11 485.075 497.554 484.511C495.031 483.954 492.651 483.972 490.417 484.565C488.222 485.133 486.346 486.178 484.789 487.7C483.264 489.23 482.248 491.143 481.741 493.44C481.234 495.737 481.347 497.917 482.08 499.979C482.845 502.047 484.096 503.833 485.834 505.337C487.612 506.814 489.762 507.832 492.286 508.389ZM501.666 465.875C503.931 466.375 506.04 466.348 507.994 465.795C509.949 465.243 511.609 464.252 512.976 462.823C514.343 461.394 515.255 459.644 515.712 457.574C516.169 455.503 516.071 453.564 515.418 451.758C514.772 449.919 513.675 448.354 512.128 447.062C510.588 445.738 508.685 444.827 506.42 444.327C504.188 443.834 502.078 443.861 500.092 444.407C498.145 444.927 496.491 445.885 495.131 447.282C493.779 448.646 492.874 450.363 492.417 452.434C491.96 454.505 492.051 456.476 492.69 458.347C493.336 460.186 494.426 461.784 495.959 463.14C497.531 464.471 499.434 465.382 501.666 465.875Z" fill="black"/>
<path d="M62.9511 273.86L65.8622 260.666L99.7612 226.637L111.733 229.279L107.852 246.87L101.011 245.361L82.7066 263.87L82.5987 264.359L119.737 272.553L116.826 285.747L62.9511 273.86ZM91.2138 290.345L94.2596 276.54L95.8929 270.879L105.381 227.877L121.262 231.381L107.462 293.929L91.2138 290.345Z" fill="black"/>
</g>
<rect x="112.4" y="1.13051" width="532.74" height="516.435" transform="rotate(12.4423 112.4 1.13051)" stroke="white" stroke-width="1.89687"/>
<defs>
<clipPath id="clip0_318_62">
<rect x="111.678" width="534.637" height="518.331" transform="rotate(12.4423 111.678 0)" fill="white"/>
</clipPath>
</defs>
</svg>
