<svg width="750" height="736" viewBox="0 0 750 736" fill="none" xmlns="http://www.w3.org/2000/svg">
<g clip-path="url(#clip0_318_205)">
<rect y="149.345" width="623" height="604" transform="rotate(-13.87 0 149.345)" fill="black"/>
<path d="M248.561 121.18L241.151 129.018C241.455 128.987 241.853 128.978 242.345 128.99C242.88 128.991 243.828 129.136 245.189 129.422C246.551 129.709 247.796 130.158 248.926 130.769C250.088 131.328 251.243 132.311 252.392 133.719C253.572 135.074 254.4 136.717 254.877 138.646C255.778 142.296 254.897 145.94 252.236 149.579C249.605 153.166 245.648 155.612 240.362 156.917C238.139 157.466 235.938 157.742 233.758 157.746C231.631 157.782 229.834 157.625 228.368 157.275C226.902 156.925 225.582 156.538 224.41 156.116C223.279 155.683 222.421 155.272 221.836 154.882L221.035 154.345L224.682 143.431C225.038 143.611 225.514 143.827 226.111 144.08C226.708 144.333 227.886 144.599 229.645 144.876C231.395 145.112 233.067 145.033 234.661 144.639C235.709 144.38 236.481 143.901 236.975 143.2C237.47 142.499 237.619 141.75 237.422 140.953C237.225 140.156 236.745 139.563 235.981 139.173C235.217 138.783 234.311 138.717 233.262 138.976L227.914 140.297L225.894 132.117L232.202 125.219L217.73 128.793L214.467 115.579L245.299 107.966L248.561 121.18ZM261.643 103.931L276.744 100.202L287.62 144.246L271.26 148.286L264.114 119.342L255.452 124.819L252.034 110.976L261.643 103.931ZM290.819 130.105L304.033 126.842L307.14 139.427L293.927 142.689L290.819 130.105ZM309.069 125.599L322.282 122.336L325.39 134.92L312.176 138.183L309.069 125.599ZM348.273 98.8954C346.946 97.6655 345.59 97.2215 344.206 97.5633C342.822 97.9051 341.807 98.9343 341.163 100.651C340.561 102.357 340.622 104.679 341.347 107.615C342.072 110.551 343.099 112.635 344.426 113.864C345.795 115.084 347.172 115.523 348.556 115.181C349.94 114.839 350.934 113.815 351.536 112.109C352.18 110.392 352.14 108.066 351.415 105.129C350.69 102.193 349.642 100.115 348.273 98.8954ZM365.678 119.098C362.634 124.433 358.092 127.847 352.052 129.338C346.011 130.83 340.402 129.923 335.225 126.617C330.047 123.312 326.635 118.324 324.988 111.655C323.341 104.985 324.04 98.9823 327.084 93.6467C330.128 88.3111 334.67 84.8975 340.71 83.4061C346.751 81.9146 352.36 82.8216 357.537 86.1271C362.715 89.4326 366.127 94.4202 367.774 101.09C369.421 107.759 368.722 113.762 365.678 119.098ZM402.422 83.1885L395.012 91.0264C395.316 90.9959 395.714 90.9865 396.207 90.9985C396.741 91 397.689 91.1442 399.05 91.4311C400.412 91.718 401.658 92.167 402.788 92.7781C403.949 93.3368 405.104 94.32 406.253 95.7276C407.433 97.0828 408.262 98.7252 408.738 100.655C409.639 104.304 408.759 107.948 406.097 111.588C403.467 115.174 399.509 117.62 394.224 118.925C392 119.474 389.799 119.751 387.619 119.755C385.492 119.791 383.695 119.634 382.229 119.283C380.763 118.933 379.444 118.547 378.271 118.124C377.141 117.692 376.282 117.28 375.697 116.891L374.897 116.354L378.544 105.44C378.899 105.619 379.376 105.835 379.972 106.089C380.569 106.342 381.747 106.607 383.507 106.885C385.256 107.121 386.928 107.042 388.522 106.648C389.57 106.389 390.342 105.909 390.837 105.209C391.331 104.508 391.48 103.759 391.283 102.962C391.086 102.165 390.606 101.572 389.842 101.182C389.078 100.792 388.172 100.726 387.123 100.985L381.775 102.306L379.755 94.1259L386.063 87.2279L371.591 90.8013L368.329 77.5879L399.16 69.9751L402.422 83.1885ZM413.835 99.7301L427.048 96.4675L430.155 109.052L416.942 112.314L413.835 99.7301ZM432.084 95.224L445.297 91.9613L448.405 104.546L435.191 107.808L432.084 95.224ZM452.004 56.9269L467.105 53.1982L477.98 97.2428L461.621 101.282L454.474 72.3387L445.813 77.8152L442.395 63.9726L452.004 56.9269ZM501.33 72.7853C501.224 73.0784 501.024 73.4394 500.729 73.8682C500.435 74.297 499.71 74.9655 498.554 75.8739C497.399 76.7822 496.066 77.4229 494.556 77.7957C490.152 78.8833 486.307 78.4529 483.022 76.5047C479.769 74.5042 477.598 71.3018 476.511 66.8973C475.361 62.2411 476.028 58.0042 478.513 54.1865C480.997 50.3687 484.882 47.8073 490.167 46.5023C496.249 45.0004 501.612 45.8124 506.256 48.9382C510.942 52.0537 514.181 57.2399 515.972 64.4968C517.619 71.1664 516.963 77.1586 514.003 82.4735C511.042 87.7884 506.668 91.1605 500.879 92.5899C498.279 93.2321 495.679 93.5179 493.08 93.4475C490.513 93.3248 488.58 93.0677 487.282 92.6762L485.398 92.0734L487.316 80.9185C489.724 81.659 492.187 81.7186 494.704 81.0971C497.137 80.4964 498.953 79.3804 500.152 77.7491C501.352 76.1178 501.744 74.4632 501.33 72.7853ZM491.134 59.8819C490.702 60.8343 490.651 61.9816 490.983 63.3239C491.314 64.6662 491.893 65.6582 492.719 66.2998C493.545 66.9415 494.377 67.1587 495.216 66.9516C496.055 66.7444 496.691 66.1647 497.123 65.2123C497.556 64.2599 497.606 63.1126 497.275 61.7703C496.943 60.428 496.365 59.436 495.539 58.7944C494.713 58.1527 493.88 57.9355 493.041 58.1426C492.202 58.3498 491.567 58.9295 491.134 59.8819ZM543.482 62.3771C543.376 62.6703 543.176 63.0312 542.881 63.46C542.587 63.8888 541.862 64.5574 540.706 65.4657C539.551 66.3741 538.218 67.0147 536.708 67.3876C532.304 68.4751 528.459 68.0448 525.174 66.0966C521.921 64.0961 519.751 60.8936 518.663 56.4891C517.513 51.833 518.181 47.596 520.665 43.7783C523.149 39.9606 527.034 37.3992 532.319 36.0941C538.401 34.5923 543.764 35.4042 548.408 38.5301C553.094 41.6455 556.333 46.8317 558.125 54.0886C559.771 60.7582 559.115 66.7505 556.155 72.0654C553.195 77.3803 548.82 80.7524 543.031 82.1817C540.431 82.8239 537.831 83.1098 535.232 83.0394C532.665 82.9166 530.733 82.6595 529.434 82.268L527.55 81.6652L529.468 70.5103C531.876 71.2509 534.339 71.3104 536.856 70.689C539.289 70.0882 541.105 68.9722 542.304 67.3409C543.504 65.7096 543.896 64.055 543.482 62.3771ZM533.286 49.4737C532.854 50.4261 532.803 51.5734 533.135 52.9158C533.466 54.2581 534.045 55.25 534.871 55.8917C535.697 56.5333 536.529 56.7506 537.368 56.5434C538.207 56.3362 538.843 55.7565 539.275 54.8041C539.708 53.8518 539.758 52.7044 539.427 51.3621C539.095 50.0198 538.517 49.0278 537.691 48.3862C536.865 47.7446 536.032 47.5273 535.193 47.7345C534.354 47.9416 533.719 48.5214 533.286 49.4737ZM586.439 40.0878C585.111 38.8579 583.756 38.4138 582.371 38.7556C580.987 39.0974 579.973 40.1267 579.329 41.8434C578.726 43.5498 578.788 45.8711 579.513 48.8074C580.238 51.7437 581.264 53.8269 582.591 55.0568C583.96 56.2764 585.337 56.7153 586.721 56.3735C588.106 56.0317 589.099 55.0076 589.701 53.3012C590.345 51.5844 590.305 49.2579 589.58 46.3216C588.855 43.3853 587.808 41.3074 586.439 40.0878ZM603.844 60.29C600.8 65.6256 596.258 69.0392 590.217 70.5307C584.177 72.0221 578.568 71.1151 573.39 67.8096C568.212 64.5041 564.8 59.5165 563.153 52.8469C561.506 46.1773 562.205 40.1747 565.249 34.8391C568.293 29.5034 572.835 26.0899 578.876 24.5984C584.916 23.1069 590.525 24.0139 595.703 27.3194C600.88 30.625 604.293 35.6125 605.939 42.2822C607.586 48.9518 606.888 54.9544 603.844 60.29Z" fill="white"/>
<path d="M441.135 129.738L441.607 134.431L445.168 133.551L444.696 128.859L441.135 129.738ZM440.664 125.046L444.225 124.167L443.753 119.474L448.933 118.195L449.405 122.888L453.29 121.928L453.761 126.621L449.876 127.58L450.348 132.272L454.233 131.313L454.705 136.005L450.82 136.965L451.291 141.657L446.111 142.936L445.64 138.244L442.079 139.123L442.55 143.815L437.37 145.094L436.899 140.402L433.014 141.361L432.542 136.669L436.427 135.71L435.955 131.017L432.07 131.977L431.599 127.284L435.484 126.325L435.012 121.633L440.192 120.354L440.664 125.046ZM472.836 130.841C473.236 132.46 472.9 133.974 471.828 135.384C470.778 136.788 469.044 137.788 466.627 138.385C465.634 138.63 464.647 138.76 463.666 138.773C462.684 138.786 461.857 138.727 461.183 138.596C460.504 138.443 459.89 138.274 459.341 138.089C458.813 137.899 458.425 137.72 458.178 137.552L457.774 137.308L459.243 132.824C459.404 132.921 459.614 133.03 459.873 133.149C460.131 133.268 460.654 133.391 461.441 133.518C462.228 133.644 462.977 133.619 463.689 133.443C463.927 133.385 464.105 133.272 464.224 133.105C464.343 132.938 464.381 132.769 464.339 132.596C464.291 132.402 463.898 132.247 463.159 132.132C462.443 132.011 461.642 131.876 460.758 131.728C459.896 131.575 459.027 131.16 458.15 130.483C457.294 129.801 456.72 128.867 456.427 127.68C456.027 126.061 456.353 124.55 457.403 123.145C458.474 121.736 460.219 120.733 462.636 120.136C463.931 119.816 465.231 119.747 466.535 119.929C467.834 120.089 468.809 120.329 469.461 120.649L470.438 121.129L468.969 125.613C467.893 124.963 466.761 124.785 465.574 125.078C465.336 125.137 465.158 125.249 465.039 125.416C464.92 125.583 464.882 125.753 464.924 125.925C464.972 126.119 465.355 126.277 466.071 126.398C466.81 126.513 467.61 126.647 468.472 126.801C469.356 126.949 470.226 127.364 471.081 128.046C471.958 128.722 472.543 129.654 472.836 130.841ZM474.676 119.98C476.009 117.773 477.927 116.36 480.431 115.742C482.934 115.124 485.289 115.481 487.496 116.814C489.703 118.147 491.115 120.065 491.734 122.569L492.133 124.187L481.774 126.745C481.784 126.788 481.811 126.851 481.854 126.932C481.918 127.007 482.042 127.137 482.225 127.321C482.402 127.483 482.596 127.618 482.806 127.727C483.037 127.83 483.363 127.898 483.784 127.932C484.204 127.966 484.652 127.924 485.127 127.806C485.602 127.689 486.05 127.464 486.471 127.131C486.915 126.793 487.228 126.486 487.412 126.212L487.721 125.792L491.552 129.483C491.503 129.564 491.43 129.685 491.332 129.846C491.23 129.986 491 130.261 490.643 130.669C490.285 131.078 489.888 131.462 489.45 131.822C489.029 132.156 488.451 132.504 487.716 132.869C486.987 133.255 486.213 133.549 485.393 133.752C482.673 134.423 480.18 134.111 477.914 132.816C475.664 131.494 474.228 129.57 473.604 127.045C472.986 124.542 473.343 122.186 474.676 119.98ZM480.852 123.71L483.766 122.99C483.611 122.364 483.354 121.924 482.993 121.67C482.649 121.388 482.261 121.301 481.829 121.408C481.398 121.514 481.084 121.775 480.889 122.189C480.71 122.577 480.698 123.084 480.852 123.71ZM499.381 111.063C502.1 110.391 504.585 110.717 506.835 112.039C509.101 113.334 510.546 115.244 511.17 117.769L513.288 126.349L505.842 128.187L504.715 126.405C504.688 126.48 504.655 126.58 504.617 126.704C504.579 126.828 504.465 127.062 504.275 127.406C504.085 127.751 503.866 128.068 503.617 128.359C503.39 128.644 503.049 128.934 502.596 129.229C502.142 129.524 501.645 129.739 501.106 129.872C499.357 130.304 497.821 130.156 496.497 129.43C495.189 128.677 494.343 127.523 493.959 125.969C493.56 124.35 493.876 122.898 494.91 121.613C495.944 120.327 497.777 119.359 500.41 118.709L503 118.069C502.989 118.026 502.952 117.967 502.887 117.891C502.844 117.81 502.734 117.688 502.557 117.526C502.374 117.342 502.167 117.199 501.935 117.096C501.725 116.987 501.41 116.916 500.99 116.883C500.569 116.849 500.121 116.891 499.647 117.008C499.172 117.125 498.713 117.353 498.27 117.692C497.848 118.025 497.545 118.328 497.361 118.603L497.053 119.023L493.222 115.332C493.271 115.251 493.346 115.14 493.449 115.001C493.547 114.839 493.774 114.554 494.131 114.145C494.488 113.736 494.877 113.366 495.299 113.033C495.737 112.673 496.323 112.31 497.057 111.946C497.786 111.56 498.561 111.265 499.381 111.063ZM502.74 123.973C503.193 123.861 503.515 123.541 503.705 123.013C503.912 122.458 503.903 121.728 503.679 120.821C502.838 121.029 502.233 121.361 501.865 121.819C501.513 122.249 501.401 122.723 501.529 123.241C501.588 123.479 501.741 123.681 501.988 123.849C502.252 123.99 502.503 124.031 502.74 123.973ZM529.333 116.891C529.733 118.51 529.397 120.024 528.325 121.434C527.275 122.838 525.541 123.838 523.124 124.435C522.131 124.68 521.144 124.81 520.163 124.823C519.181 124.836 518.354 124.777 517.68 124.646C517.001 124.493 516.387 124.324 515.838 124.139C515.31 123.949 514.922 123.77 514.675 123.602L514.271 123.358L515.74 118.874C515.901 118.971 516.111 119.08 516.37 119.199C516.628 119.318 517.151 119.441 517.938 119.567C518.724 119.694 519.474 119.669 520.186 119.493C520.424 119.434 520.602 119.322 520.721 119.155C520.84 118.988 520.878 118.818 520.836 118.646C520.788 118.452 520.395 118.297 519.656 118.181C518.939 118.061 518.139 117.926 517.255 117.778C516.393 117.625 515.523 117.21 514.647 116.533C513.791 115.851 513.217 114.917 512.924 113.73C512.524 112.111 512.849 110.6 513.9 109.195C514.971 107.786 516.716 106.783 519.133 106.186C520.428 105.866 521.728 105.797 523.032 105.979C524.331 106.139 525.306 106.379 525.958 106.699L526.935 107.179L525.466 111.663C524.389 111.013 523.258 110.835 522.071 111.128C521.833 111.186 521.655 111.299 521.536 111.466C521.417 111.633 521.379 111.802 521.421 111.975C521.469 112.169 521.851 112.327 522.568 112.447C523.307 112.563 524.107 112.697 524.969 112.851C525.853 112.999 526.723 113.414 527.578 114.096C528.455 114.772 529.04 115.704 529.333 116.891ZM534.476 118.85C532.188 117.56 530.73 115.642 530.101 113.095C529.472 110.548 529.87 108.172 531.294 105.965C532.719 103.758 534.866 102.301 537.737 101.592C540.607 100.883 543.186 101.174 545.474 102.464C547.762 103.754 549.22 105.672 549.849 108.219C550.478 110.765 550.08 113.142 548.656 115.349C547.231 117.555 545.084 119.013 542.213 119.722C539.343 120.43 536.764 120.14 534.476 118.85ZM541.896 112.037C542.194 111.483 542.255 110.849 542.079 110.137C541.903 109.425 541.555 108.893 541.033 108.541C540.511 108.189 539.958 108.085 539.375 108.229C538.793 108.373 538.352 108.722 538.054 109.276C537.756 109.831 537.695 110.464 537.871 111.176C538.047 111.889 538.395 112.421 538.917 112.773C539.439 113.125 539.992 113.229 540.575 113.085C541.157 112.941 541.598 112.592 541.896 112.037ZM562.5 95.4774C564.227 95.0511 565.809 95.4277 567.245 96.6073C568.676 97.7653 569.743 99.7688 570.446 102.618L572.684 111.682L564.915 113.601L562.676 104.536C562.527 103.932 562.28 103.489 561.936 103.208C561.592 102.926 561.247 102.828 560.902 102.914C560.556 102.999 560.297 103.246 560.123 103.655C559.949 104.065 559.937 104.571 560.086 105.176L562.325 114.24L554.555 116.159L550.318 99.0007L557.764 97.1621L558.891 98.9447C558.919 98.8693 558.951 98.7696 558.989 98.6457C559.027 98.5218 559.141 98.2876 559.331 97.9431C559.521 97.5985 559.729 97.2837 559.956 96.9986C560.205 96.7082 560.557 96.4153 561.01 96.1201C561.464 95.8249 561.961 95.6106 562.5 95.4774ZM588.738 102.223C589.138 103.841 588.802 105.356 587.73 106.765C586.68 108.169 584.947 109.17 582.529 109.767C581.536 110.012 580.549 110.141 579.568 110.155C578.587 110.168 577.759 110.109 577.086 109.977C576.407 109.825 575.793 109.656 575.243 109.471C574.715 109.28 574.328 109.101 574.08 108.934L573.676 108.69L575.145 104.205C575.307 104.303 575.517 104.411 575.775 104.531C576.033 104.65 576.556 104.773 577.343 104.899C578.13 105.025 578.879 105.001 579.592 104.825C579.829 104.766 580.007 104.653 580.126 104.487C580.245 104.32 580.284 104.15 580.241 103.977C580.193 103.783 579.8 103.628 579.062 103.513C578.345 103.392 577.545 103.258 576.661 103.11C575.798 102.956 574.929 102.541 574.052 101.865C573.197 101.183 572.622 100.248 572.329 99.0614C571.93 97.4427 572.255 95.9312 573.305 94.527C574.377 93.1174 576.121 92.1142 578.538 91.5173C579.833 91.1976 581.133 91.1286 582.437 91.3103C583.736 91.4704 584.711 91.7105 585.363 92.0305L586.34 92.5105L584.871 96.995C583.795 96.3448 582.663 96.1663 581.476 96.4594C581.239 96.518 581.06 96.6307 580.941 96.7975C580.822 96.9643 580.784 97.1341 580.827 97.3067C580.875 97.501 581.257 97.6584 581.974 97.7791C582.712 97.8945 583.512 98.0289 584.375 98.1824C585.258 98.3306 586.128 98.7456 586.983 99.4274C587.86 100.104 588.445 101.036 588.738 102.223ZM598.225 89.9193C600.47 89.3651 602.502 89.619 604.321 90.6811C606.141 91.7432 607.311 93.3318 607.834 95.4469C608.351 97.5404 607.94 99.5423 606.603 101.453C605.266 103.363 603.227 104.656 600.486 105.333C599.342 105.616 598.209 105.758 597.087 105.76C595.993 105.778 595.068 105.697 594.314 105.517C593.56 105.337 592.881 105.138 592.278 104.921C591.696 104.698 591.255 104.487 590.953 104.286L590.541 104.01L592.418 98.3946C592.601 98.4868 592.846 98.598 593.153 98.7283C593.46 98.8586 594.023 99.0059 594.842 99.17C595.656 99.3125 596.397 99.3012 597.066 99.136C597.779 98.9601 598.286 98.6516 598.589 98.2103C598.909 97.7422 598.997 97.2167 598.853 96.634C598.709 96.0512 598.389 95.6378 597.894 95.3938C597.415 95.1228 596.819 95.0752 596.107 95.2511C595.719 95.347 595.322 95.5022 594.917 95.7167C594.512 95.9312 594.204 96.1217 593.993 96.2883L593.677 96.5381L589.153 94.9074L588.133 83.8242L602.702 80.227L604.38 87.0256L595.963 89.104L596.039 90.8026C596.633 90.4269 597.362 90.1325 598.225 89.9193Z" fill="white"/>
<path d="M555.017 136.494L555.489 141.186L559.05 140.307L558.578 135.615L555.017 136.494ZM554.545 131.802L558.107 130.922L557.635 126.23L562.815 124.951L563.286 129.643L567.171 128.684L567.643 133.376L563.758 134.336L564.23 139.028L568.115 138.069L568.586 142.761L564.701 143.72L565.173 148.412L559.993 149.691L559.522 144.999L555.96 145.878L556.432 150.571L551.252 151.85L550.781 147.158L546.896 148.117L546.424 143.424L550.309 142.465L549.837 137.773L545.952 138.732L545.481 134.04L549.366 133.081L548.894 128.388L554.074 127.109L554.545 131.802ZM582.45 128.518C581.767 127.885 581.069 127.657 580.357 127.833C579.645 128.009 579.123 128.538 578.791 129.421C578.481 130.299 578.513 131.494 578.886 133.005C579.259 134.515 579.787 135.587 580.47 136.22C581.175 136.848 581.883 137.073 582.595 136.897C583.307 136.722 583.818 136.195 584.128 135.317C584.46 134.433 584.439 133.236 584.066 131.726C583.693 130.215 583.154 129.146 582.45 128.518ZM591.405 138.913C589.839 141.658 587.502 143.414 584.394 144.182C581.286 144.949 578.4 144.482 575.736 142.782C573.072 141.081 571.316 138.515 570.469 135.083C569.621 131.651 569.981 128.563 571.547 125.818C573.113 123.072 575.45 121.316 578.558 120.548C581.666 119.781 584.552 120.248 587.216 121.949C589.88 123.649 591.636 126.216 592.483 129.647C593.331 133.079 592.971 136.167 591.405 138.913ZM604.417 120.003C604.056 119.748 603.671 119.672 603.261 119.773C602.851 119.874 602.546 120.121 602.345 120.514C602.144 120.907 602.111 121.374 602.244 121.913C602.377 122.453 602.624 122.85 602.984 123.104C603.345 123.359 603.73 123.435 604.14 123.334C604.55 123.233 604.856 122.986 605.056 122.593C605.257 122.2 605.291 121.733 605.158 121.194C605.024 120.654 604.777 120.257 604.417 120.003ZM606.898 129.076C606.462 128.795 605.996 128.715 605.499 128.838C605.003 128.96 604.627 129.248 604.373 129.7C604.118 130.152 604.06 130.659 604.198 131.22C604.337 131.781 604.624 132.202 605.06 132.484C605.496 132.766 605.962 132.845 606.459 132.723C606.955 132.6 607.331 132.313 607.585 131.86C607.84 131.408 607.898 130.902 607.76 130.34C607.621 129.779 607.334 129.358 606.898 129.076ZM596.027 118.296C597.326 116.601 599.324 115.421 602.022 114.755C604.72 114.089 607.038 114.203 608.976 115.099C610.915 115.994 612.097 117.305 612.524 119.031C612.689 119.7 612.722 120.345 612.623 120.965C612.546 121.579 612.388 122.099 612.15 122.524C611.927 122.923 611.684 123.28 611.419 123.598C611.175 123.91 610.948 124.149 610.737 124.316L610.445 124.525L610.485 124.687C610.62 124.677 610.795 124.691 611.011 124.729C611.243 124.74 611.655 124.833 612.248 125.007C612.835 125.16 613.371 125.383 613.855 125.675C614.361 125.963 614.864 126.422 615.363 127.055C615.858 127.665 616.209 128.392 616.417 129.233C616.87 131.068 616.371 132.851 614.921 134.583C613.493 136.31 611.138 137.578 607.858 138.388C604.577 139.198 601.892 139.174 599.802 138.316C597.734 137.453 596.474 136.104 596.021 134.269C595.813 133.428 595.775 132.624 595.907 131.859C596.054 131.067 596.296 130.423 596.632 129.928C596.984 129.406 597.344 128.962 597.712 128.597C598.095 128.204 598.439 127.925 598.741 127.759L599.154 127.485L599.114 127.323C599.023 127.323 598.893 127.309 598.726 127.281C598.559 127.254 598.26 127.156 597.829 126.988C597.399 126.819 597.003 126.608 596.642 126.353C596.282 126.099 595.914 125.72 595.538 125.218C595.156 124.694 594.883 124.097 594.718 123.428C594.292 121.701 594.728 119.991 596.027 118.296Z" fill="white"/>
<path d="M113.219 347.392L112.514 344.534L109.655 345.239L110.361 348.098L113.219 347.392ZM114.807 353.821L111.948 354.526L112.654 357.385L115.513 356.679L114.807 353.821ZM153.378 344.297L156.237 343.591L155.531 340.732L152.672 341.438L153.378 344.297ZM159.728 370.011L160.434 372.869L163.292 372.164L162.586 369.305L159.728 370.011ZM87.7274 387.789L84.8689 388.495L85.5747 391.354L88.4332 390.648L87.7274 387.789ZM65.5046 297.789L64.7988 294.93L61.9403 295.636L62.6461 298.495L65.5046 297.789ZM134.933 280.646L137.792 279.94L137.086 277.081L134.228 277.787L134.933 280.646ZM141.283 306.36L141.989 309.218L144.847 308.513L144.141 305.654L141.283 306.36ZM105.283 315.249L104.577 312.391L101.718 313.096L102.424 315.955L105.283 315.249ZM106.87 321.678L104.012 322.383L104.717 325.242L107.576 324.536L106.87 321.678ZM140.299 313.423L143.157 312.718L142.451 309.859L139.593 310.565L140.299 313.423ZM146.648 339.138L147.354 341.996L150.212 341.291L149.507 338.432L146.648 339.138ZM110.361 348.098L111.948 354.526L117.665 353.115L116.078 346.686L110.361 348.098ZM115.513 356.679L154.084 347.155L152.672 341.438L114.101 350.962L115.513 356.679ZM150.52 345.002L156.869 370.717L162.586 369.305L156.237 343.591L150.52 345.002ZM159.022 367.152L87.0216 384.931L88.4332 390.648L160.434 372.869L159.022 367.152ZM90.5859 387.083L68.3631 297.083L62.6461 298.495L84.8689 388.495L90.5859 387.083ZM66.2104 300.647L135.639 283.504L134.228 277.787L64.7988 294.93L66.2104 300.647ZM132.075 281.351L138.424 307.066L144.141 305.654L137.792 279.94L132.075 281.351ZM140.577 303.501L104.577 312.391L105.988 318.108L141.989 309.218L140.577 303.501ZM102.424 315.955L104.012 322.383L109.729 320.972L108.141 314.543L102.424 315.955ZM107.576 324.536L141.005 316.282L139.593 310.565L106.164 318.819L107.576 324.536ZM137.44 314.129L143.79 339.844L149.507 338.432L143.157 312.718L137.44 314.129ZM145.942 336.279L112.514 344.534L113.925 350.251L147.354 341.996L145.942 336.279ZM196.403 333.809L194.047 332.044L194.047 332.044L196.403 333.809ZM177.54 325.917L176.796 328.766L176.828 328.775L176.86 328.782L177.54 325.917ZM167.849 322.581L166.67 325.279L166.67 325.279L167.849 322.581ZM159.389 315.94L161.648 314.052L161.648 314.052L159.389 315.94ZM159.038 281.923L161.425 283.647L161.427 283.644L159.038 281.923ZM196.089 265.136L196.05 268.08L196.087 268.08L196.124 268.08L196.089 265.136ZM206.846 266.163L207.568 263.308L207.568 263.308L206.846 266.163ZM214.676 268.595L215.729 265.845L215.729 265.845L214.676 268.595ZM219.936 271.115L221.577 268.67L221.567 268.663L219.936 271.115ZM221.571 272.212L224.364 273.145L225.075 271.017L223.212 269.767L221.571 272.212ZM214.119 294.514L212.795 297.143L215.833 298.674L216.912 295.447L214.119 294.514ZM211.2 293.188L210.05 295.899L211.2 293.188ZM204.524 291.563L203.945 294.45L203.98 294.457L204.016 294.463L204.524 291.563ZM192.216 293.647L189.859 291.882L189.859 291.882L192.216 293.647ZM194.738 298.89L195.497 296.045L195.497 296.045L194.738 298.89ZM201.833 300.003L201.599 302.938L201.599 302.938L201.833 300.003ZM211.111 301.668L210.368 304.517L210.399 304.525L210.431 304.533L211.111 301.668ZM220.77 304.876L221.949 302.178L221.949 302.178L220.77 304.876ZM229.23 311.517L231.49 309.629L231.49 309.629L229.23 311.517ZM229.484 345.693L231.872 347.417L231.874 347.414L229.484 345.693ZM189.799 362.859L189.769 359.914L189.75 359.915L189.73 359.915L189.799 362.859ZM177.564 361.924L176.85 364.78L176.883 364.789L176.917 364.796L177.564 361.924ZM168.867 359.297L167.769 362.029L167.806 362.044L167.843 362.058L168.867 359.297ZM163.286 356.583L161.45 358.885L161.55 358.964L161.656 359.034L163.286 356.583ZM161.587 355.229L158.795 354.295L158.142 356.248L159.752 357.531L161.587 355.229ZM169.04 332.927L170.391 330.311L167.337 328.733L166.247 331.994L169.04 332.927ZM172.44 334.543L171.229 337.226L171.273 337.247L171.318 337.265L172.44 334.543ZM180.946 336.398L180.517 339.311L180.528 339.313L180.54 339.314L180.946 336.398ZM193.666 338.746C195.689 338.246 197.501 337.255 198.76 335.575L194.047 332.044C193.801 332.372 193.317 332.766 192.255 333.029L193.666 338.746ZM198.76 335.575C199.933 334.008 200.515 332.102 200.009 330.054L194.292 331.466C194.307 331.524 194.305 331.553 194.295 331.593C194.281 331.647 194.232 331.797 194.047 332.044L198.76 335.575ZM200.009 330.054C199.664 328.654 198.736 327.688 197.799 327.059C196.881 326.443 195.778 326.025 194.64 325.722L193.122 331.411C193.931 331.627 194.347 331.835 194.518 331.95C194.672 332.052 194.405 331.924 194.292 331.466L200.009 330.054ZM194.64 325.722C192.47 325.142 189.918 324.75 187.02 324.519L186.551 330.389C189.22 330.602 191.398 330.951 193.122 331.411L194.64 325.722ZM187.02 324.519C184.418 324.311 181.488 323.828 178.219 323.052L176.86 328.782C180.354 329.611 183.587 330.152 186.551 330.389L187.02 324.519ZM178.283 323.068C175.022 322.217 171.938 321.154 169.028 319.883L166.67 325.279C169.877 326.68 173.253 327.842 176.796 328.766L178.283 323.068ZM169.028 319.883C166.466 318.763 163.998 316.864 161.648 314.052L157.129 317.827C159.944 321.197 163.116 323.726 166.67 325.279L169.028 319.883ZM161.648 314.052C159.391 311.349 157.732 307.995 156.723 303.911L151.006 305.323C152.199 310.154 154.222 314.348 157.129 317.827L161.648 314.052ZM156.723 303.911C155.058 297.168 156.493 290.479 161.425 283.647L156.651 280.2C150.876 288.198 148.862 296.637 151.006 305.323L156.723 303.911ZM161.427 283.644C166.359 276.798 173.807 272.033 184.071 269.499L182.659 263.782C171.322 266.581 162.553 272.006 156.649 280.203L161.427 283.644ZM184.071 269.499C188.125 268.498 192.117 268.028 196.05 268.08L196.127 262.192C191.667 262.133 187.176 262.667 182.659 263.782L184.071 269.499ZM196.124 268.08C200.228 268.03 203.541 268.364 206.123 269.017L207.568 263.308C204.331 262.489 200.472 262.138 196.053 262.192L196.124 268.08ZM206.123 269.017C208.944 269.731 211.441 270.508 213.623 271.344L215.729 265.845C213.291 264.911 210.568 264.068 207.568 263.308L206.123 269.017ZM213.623 271.344C215.853 272.198 217.374 272.947 218.306 273.567L221.567 268.663C220.105 267.692 218.119 266.76 215.729 265.845L213.623 271.344ZM218.296 273.56L219.931 274.657L223.212 269.767L221.577 268.67L218.296 273.56ZM218.779 271.279L211.326 293.581L216.912 295.447L224.364 273.145L218.779 271.279ZM215.443 291.884C214.635 291.477 213.597 291.007 212.35 290.478L210.05 295.899C211.241 296.404 212.149 296.818 212.795 297.143L215.443 291.884ZM212.35 290.478C210.786 289.814 208.255 289.227 205.032 288.663L204.016 294.463C207.256 295.031 209.176 295.528 210.05 295.899L212.35 290.478ZM205.102 288.676C201.513 287.957 198.11 287.931 194.953 288.711L196.364 294.428C198.521 293.895 201.029 293.865 203.945 294.45L205.102 288.676ZM194.953 288.711C192.93 289.21 191.118 290.202 189.859 291.882L194.572 295.413C194.818 295.084 195.302 294.69 196.364 294.428L194.953 288.711ZM189.859 291.882C188.686 293.448 188.104 295.355 188.61 297.402L194.327 295.991C194.312 295.932 194.314 295.904 194.324 295.864C194.338 295.809 194.387 295.659 194.572 295.413L189.859 291.882ZM188.61 297.402C188.955 298.803 189.883 299.769 190.82 300.397C191.738 301.013 192.841 301.431 193.979 301.735L195.497 296.045C194.688 295.829 194.272 295.622 194.101 295.507C193.947 295.404 194.214 295.533 194.327 295.991L188.61 297.402ZM193.979 301.735C196.149 302.314 198.701 302.706 201.599 302.938L202.068 297.068C199.4 296.855 197.221 296.505 195.497 296.045L193.979 301.735ZM201.599 302.938C204.173 303.143 207.092 303.662 210.368 304.517L211.855 298.819C208.326 297.898 205.06 297.307 202.068 297.068L201.599 302.938ZM210.431 304.533C213.648 305.296 216.7 306.31 219.591 307.574L221.949 302.178C218.723 300.768 215.336 299.644 211.791 298.803L210.431 304.533ZM219.591 307.574C222.153 308.693 224.621 310.592 226.971 313.404L231.49 309.629C228.675 306.26 225.503 303.731 221.949 302.178L219.591 307.574ZM226.971 313.404C229.228 316.107 230.887 319.461 231.896 323.545L237.613 322.133C236.42 317.303 234.397 313.109 231.49 309.629L226.971 313.404ZM231.896 323.545C233.558 330.277 232.102 337.022 227.095 343.972L231.874 347.414C237.703 339.321 239.76 330.83 237.613 322.133L231.896 323.545ZM227.097 343.97C222.236 350.704 214.824 355.42 204.548 357.957L205.96 363.674C217.285 360.878 226.027 355.513 231.872 347.417L227.097 343.97ZM204.548 357.957C199.434 359.22 194.51 359.867 189.769 359.914L189.828 365.803C195.066 365.751 200.446 365.036 205.96 363.674L204.548 357.957ZM189.73 359.915C184.989 360.026 181.17 359.718 178.211 359.051L176.917 364.796C180.505 365.605 184.843 365.92 189.868 365.802L189.73 359.915ZM178.277 359.067C175.06 358.264 172.269 357.418 169.89 356.536L167.843 362.058C170.47 363.032 173.476 363.938 176.85 364.78L178.277 359.067ZM169.964 356.565C167.493 355.572 165.857 354.756 164.916 354.131L161.656 359.034C163.108 360 165.193 360.994 167.769 362.029L169.964 356.565ZM165.121 354.28L163.423 352.926L159.752 357.531L161.45 358.885L165.121 354.28ZM164.38 356.162L171.832 333.86L166.247 331.994L158.795 354.295L164.38 356.162ZM167.688 335.543C168.589 336.008 169.775 336.571 171.229 337.226L173.651 331.859C172.238 331.222 171.158 330.707 170.391 330.311L167.688 335.543ZM171.318 337.265C173.212 338.045 176.383 338.702 180.517 339.311L181.375 333.485C177.204 332.871 174.704 332.291 173.561 331.82L171.318 337.265ZM180.54 339.314C185.111 339.951 189.496 339.775 193.666 338.746L192.255 333.029C188.882 333.861 185.257 334.026 181.352 333.482L180.54 339.314ZM221.83 259.189L221.124 256.331L218.266 257.036L218.971 259.895L221.83 259.189ZM304.116 238.871L306.974 238.165L306.269 235.307L303.41 236.013L304.116 238.871ZM311.418 268.443L312.124 271.301L314.982 270.595L314.276 267.737L311.418 268.443ZM286.989 274.475L286.283 271.616L283.425 272.322L284.131 275.18L286.989 274.475ZM301.91 334.903L302.616 337.762L305.474 337.056L304.769 334.198L301.91 334.903ZM268.481 343.158L265.623 343.863L266.329 346.722L269.187 346.016L268.481 343.158ZM253.56 282.729L256.419 282.023L255.713 279.164L252.855 279.87L253.56 282.729ZM229.132 288.761L226.273 289.466L226.979 292.325L229.838 291.619L229.132 288.761ZM222.536 262.048L304.822 241.73L303.41 236.013L221.124 256.331L222.536 262.048ZM301.257 239.577L308.559 269.148L314.276 267.737L306.974 238.165L301.257 239.577ZM310.712 265.584L286.283 271.616L287.695 277.333L312.124 271.301L310.712 265.584ZM284.131 275.18L299.052 335.609L304.769 334.198L289.848 273.769L284.131 275.18ZM301.204 332.045L267.776 340.299L269.187 346.016L302.616 337.762L301.204 332.045ZM271.34 342.452L256.419 282.023L250.702 283.435L265.623 343.863L271.34 342.452ZM252.855 279.87L228.426 285.902L229.838 291.619L254.266 285.587L252.855 279.87ZM231.99 288.055L224.688 258.483L218.971 259.895L226.273 289.466L231.99 288.055ZM347.79 228.087L350.649 227.381L349.943 224.523L347.084 225.229L347.79 228.087ZM355.41 258.944L352.551 259.65L353.257 262.509L356.115 261.803L355.41 258.944ZM375.981 253.865L376.687 256.723L379.545 256.017L378.84 253.159L375.981 253.865ZM368.362 223.008L367.656 220.149L364.797 220.855L365.503 223.713L368.362 223.008ZM401.79 214.753L404.649 214.048L403.943 211.189L401.085 211.895L401.79 214.753ZM424.013 304.754L424.719 307.612L427.578 306.906L426.872 304.048L424.013 304.754ZM390.585 313.008L387.726 313.714L388.432 316.572L391.29 315.866L390.585 313.008ZM382.965 282.151L385.824 281.445L385.118 278.586L382.26 279.292L382.965 282.151ZM362.394 287.23L361.688 284.372L358.83 285.077L359.535 287.936L362.394 287.23ZM370.013 318.087L370.719 320.946L373.577 320.24L372.872 317.382L370.013 318.087ZM336.584 326.342L333.726 327.047L334.432 329.906L337.29 329.2L336.584 326.342ZM314.362 236.341L313.656 233.483L310.797 234.189L311.503 237.047L314.362 236.341ZM344.932 228.793L352.551 259.65L358.268 258.238L350.649 227.381L344.932 228.793ZM356.115 261.803L376.687 256.723L375.275 251.006L354.704 256.086L356.115 261.803ZM378.84 253.159L371.22 222.302L365.503 223.713L373.123 254.571L378.84 253.159ZM369.068 225.866L402.496 217.612L401.085 211.895L367.656 220.149L369.068 225.866ZM398.932 215.459L421.155 305.46L426.872 304.048L404.649 214.048L398.932 215.459ZM423.307 301.895L389.879 310.149L391.29 315.866L424.719 307.612L423.307 301.895ZM393.443 312.302L385.824 281.445L380.107 282.856L387.726 313.714L393.443 312.302ZM382.26 279.292L361.688 284.372L363.1 290.089L383.671 285.009L382.26 279.292ZM359.535 287.936L367.155 318.793L372.872 317.382L365.252 286.524L359.535 287.936ZM369.307 315.229L335.879 323.483L337.29 329.2L370.719 320.946L369.307 315.229ZM339.443 325.636L317.22 235.635L311.503 237.047L333.726 327.047L339.443 325.636ZM315.067 239.2L348.496 230.946L347.084 225.229L313.656 233.483L315.067 239.2ZM464.909 260.553L464.203 257.695L461.344 258.4L462.05 261.259L464.909 260.553ZM466.496 266.982L463.638 267.688L464.343 270.546L467.202 269.84L466.496 266.982ZM505.068 257.458L507.926 256.752L507.22 253.893L504.362 254.599L505.068 257.458ZM511.417 283.172L512.123 286.031L514.981 285.325L514.276 282.466L511.417 283.172ZM439.417 300.95L436.558 301.656L437.264 304.515L440.123 303.809L439.417 300.95ZM417.194 210.95L416.488 208.091L413.63 208.797L414.335 211.656L417.194 210.95ZM486.623 193.807L489.481 193.101L488.776 190.242L485.917 190.948L486.623 193.807ZM492.972 219.521L493.678 222.379L496.537 221.674L495.831 218.815L492.972 219.521ZM456.972 228.41L456.266 225.552L453.408 226.257L454.114 229.116L456.972 228.41ZM458.559 234.839L455.701 235.545L456.407 238.403L459.265 237.697L458.559 234.839ZM491.988 226.585L494.847 225.879L494.141 223.02L491.282 223.726L491.988 226.585ZM498.337 252.299L499.043 255.157L501.902 254.452L501.196 251.593L498.337 252.299ZM462.05 261.259L463.638 267.688L469.355 266.276L467.767 259.847L462.05 261.259ZM467.202 269.84L505.774 260.316L504.362 254.599L465.79 264.123L467.202 269.84ZM502.209 258.163L508.559 283.878L514.276 282.466L507.926 256.752L502.209 258.163ZM510.711 280.313L438.711 298.092L440.123 303.809L512.123 286.031L510.711 280.313ZM442.275 300.244L420.052 210.244L414.335 211.656L436.558 301.656L442.275 300.244ZM417.9 213.808L487.329 196.665L485.917 190.948L416.488 208.091L417.9 213.808ZM483.764 194.512L490.114 220.227L495.831 218.815L489.481 193.101L483.764 194.512ZM492.266 216.662L456.266 225.552L457.678 231.269L493.678 222.379L492.266 216.662ZM454.114 229.116L455.701 235.545L461.418 234.133L459.831 227.704L454.114 229.116ZM459.265 237.697L492.694 229.443L491.282 223.726L457.854 231.98L459.265 237.697ZM489.13 227.29L495.479 253.005L501.196 251.593L494.847 225.879L489.13 227.29ZM497.632 249.44L464.203 257.695L465.615 263.412L499.043 255.157L497.632 249.44ZM611.753 258.397L612.459 261.256L617.637 259.977L613.796 256.277L611.753 258.397ZM573.182 267.921L570.974 269.869L572.155 271.207L573.888 270.78L573.182 267.921ZM550.451 242.159L552.659 240.211L551.478 238.873L549.746 239.301L550.451 242.159ZM549.166 242.477L548.46 239.618L545.601 240.324L546.307 243.182L549.166 242.477ZM556.467 272.048L557.173 274.907L560.032 274.201L559.326 271.342L556.467 272.048ZM523.039 280.302L520.18 281.008L520.886 283.867L523.745 283.161L523.039 280.302ZM500.816 190.302L499.908 187.501L497.3 188.346L497.957 191.008L500.816 190.302ZM570.737 180.676L572.012 178.022L572.012 178.022L570.737 180.676ZM587.832 211.24L584.89 211.133L584.889 211.172L584.888 211.211L587.832 211.24ZM584.582 224.592L587.204 225.931L587.204 225.931L584.582 224.592ZM582.42 227.991L584.496 230.079L584.545 230.029L584.593 229.978L582.42 227.991ZM581.325 229.08L579.249 226.992L577.115 229.113L579.282 231.2L581.325 229.08ZM543.451 219.334L540.593 220.04L541.299 222.898L544.157 222.192L543.451 219.334ZM552.329 214.959L549.856 213.361L549.856 213.361L552.329 214.959ZM549.853 204.93L548.408 207.496L548.408 207.496L549.853 204.93ZM539.959 205.191L539.253 202.332L536.395 203.038L537.101 205.897L539.959 205.191ZM611.048 255.539L572.476 265.063L573.888 270.78L612.459 261.256L611.048 255.539ZM575.39 265.973L552.659 240.211L548.244 244.107L570.974 269.869L575.39 265.973ZM549.746 239.301L548.46 239.618L549.871 245.335L551.157 245.018L549.746 239.301ZM546.307 243.182L553.609 272.754L559.326 271.342L552.024 241.771L546.307 243.182ZM555.762 269.19L522.333 277.444L523.745 283.161L557.173 274.907L555.762 269.19ZM525.897 279.597L503.674 189.596L497.957 191.008L520.18 281.008L525.897 279.597ZM501.724 193.103C513.441 189.306 525.696 185.827 538.49 182.668L537.079 176.951C524.158 180.142 511.768 183.658 499.908 187.501L501.724 193.103ZM538.49 182.668C551.883 179.361 562.081 179.786 569.462 183.33L572.012 178.022C562.884 173.639 551.114 173.486 537.079 176.951L538.49 182.668ZM569.462 183.33C576.847 186.877 581.644 192.937 583.847 201.857L589.564 200.445C586.983 189.993 581.135 182.404 572.012 178.022L569.462 183.33ZM583.847 201.857C584.657 205.138 584.995 208.227 584.89 211.133L590.775 211.346C590.902 207.829 590.489 204.192 589.564 200.445L583.847 201.857ZM584.888 211.211C584.859 214.229 584.526 216.54 583.98 218.234L589.584 220.043C590.377 217.586 590.744 214.632 590.777 211.268L584.888 211.211ZM583.98 218.234C583.347 220.194 582.67 221.861 581.959 223.253L587.204 225.931C588.087 224.201 588.877 222.233 589.584 220.043L583.98 218.234ZM581.959 223.253C581.2 224.74 580.622 225.593 580.247 226.004L584.593 229.978C585.506 228.979 586.369 227.566 587.204 225.931L581.959 223.253ZM580.344 225.903L579.249 226.992L583.4 231.168L584.496 230.079L580.344 225.903ZM579.282 231.2L609.711 260.517L613.796 256.277L583.367 226.959L579.282 231.2ZM544.157 222.192L548.014 221.24L546.603 215.523L542.745 216.475L544.157 222.192ZM548.014 221.24C550.881 220.532 553.229 218.992 554.802 216.557L549.856 213.361C549.192 214.389 548.193 215.13 546.603 215.523L548.014 221.24ZM554.802 216.557C556.354 214.155 556.82 211.472 556.135 208.699L550.418 210.111C550.707 211.281 550.541 212.3 549.856 213.361L554.802 216.557ZM556.135 208.699C555.45 205.926 553.789 203.768 551.298 202.365L548.408 207.496C549.508 208.116 550.129 208.941 550.418 210.111L556.135 208.699ZM551.298 202.365C548.772 200.942 545.977 200.672 543.11 201.38L544.522 207.097C546.112 206.704 547.342 206.895 548.408 207.496L551.298 202.365ZM543.11 201.38L539.253 202.332L540.665 208.049L544.522 207.097L543.11 201.38ZM537.101 205.897L540.593 220.04L546.31 218.628L542.818 204.485L537.101 205.897ZM140.619 458.357L137.76 459.063L138.466 461.921L141.325 461.215L140.619 458.357ZM155.965 449.793L153.379 448.385L153.368 448.406L153.357 448.426L155.965 449.793ZM149.298 422.793L147.626 425.217L147.645 425.23L147.665 425.243L149.298 422.793ZM131.73 422.357L131.024 419.498L128.165 420.204L128.871 423.062L131.73 422.357ZM171.153 395.843L169.695 398.401L169.701 398.405L169.708 398.408L171.153 395.843ZM187.852 463.472L185.379 461.875L185.375 461.881L185.371 461.887L187.852 463.472ZM133.879 489.622L133.288 486.738L133.269 486.741L133.25 486.746L133.879 489.622ZM119.063 492.598L118.579 489.694L118.54 489.701L118.501 489.708L119.063 492.598ZM113.857 493.611L110.998 494.317L111.67 497.036L114.419 496.501L113.857 493.611ZM91.634 403.611L90.7263 400.81L88.1183 401.655L88.7755 404.316L91.634 403.611ZM141.325 461.215L146.467 459.945L145.056 454.228L139.913 455.498L141.325 461.215ZM146.467 459.945C151.977 458.585 156.181 455.724 158.573 451.16L153.357 448.426C151.916 451.175 149.318 453.176 145.056 454.228L146.467 459.945ZM158.551 451.201C161.04 446.629 161.18 440.952 159.604 434.571L153.887 435.983C155.275 441.603 154.894 445.603 153.379 448.385L158.551 451.201ZM159.604 434.571C158.029 428.191 155.263 423.231 150.931 420.343L147.665 425.243C150.301 427 152.5 430.363 153.887 435.983L159.604 434.571ZM150.97 420.369C146.728 417.444 141.676 416.868 136.167 418.228L137.578 423.945C141.841 422.893 145.072 423.454 147.626 425.217L150.97 420.369ZM136.167 418.228L131.024 419.498L132.435 425.215L137.578 423.945L136.167 418.228ZM128.871 423.062L137.76 459.063L143.477 457.651L134.588 421.651L128.871 423.062ZM169.708 398.408C179.759 404.075 186.532 413.504 189.887 427.094L195.604 425.682C191.933 410.814 184.311 399.881 172.599 393.279L169.708 398.408ZM189.887 427.094C193.243 440.683 191.638 452.181 185.379 461.875L190.326 465.069C197.618 453.775 199.275 440.55 195.604 425.682L189.887 427.094ZM185.371 461.887C179.222 471.513 168.307 478.498 152.04 482.514L153.452 488.231C170.614 483.994 183.102 476.378 190.334 465.057L185.371 461.887ZM152.04 482.514C145.995 484.007 139.744 485.415 133.288 486.738L134.47 492.506C140.999 491.169 147.326 489.744 153.452 488.231L152.04 482.514ZM133.25 486.746C126.792 488.159 121.911 489.138 118.579 489.694L119.548 495.502C123.028 494.922 128.025 493.917 134.509 492.498L133.25 486.746ZM118.501 489.708L113.295 490.721L114.419 496.501L119.625 495.488L118.501 489.708ZM116.715 492.905L94.4925 402.905L88.7755 404.316L110.998 494.317L116.715 492.905ZM92.5417 406.412C104.255 402.616 116.938 399.031 130.594 395.659L129.182 389.942C115.409 393.343 102.59 396.965 90.7263 400.81L92.5417 406.412ZM130.594 395.659C146.861 391.643 159.773 392.744 169.695 398.401L172.612 393.286C160.942 386.632 146.344 385.705 129.182 389.942L130.594 395.659ZM244.821 425.807L246.447 423.352L244.821 425.807ZM259.478 422.187L256.897 420.772L259.478 422.187ZM248.467 364.886L247.761 362.027L244.902 362.733L245.608 365.591L248.467 364.886ZM281.895 356.631L284.754 355.926L284.048 353.067L281.19 353.773L281.895 356.631ZM289.364 439.362L291.884 440.884L291.884 440.884L289.364 439.362ZM194.466 378.219L193.761 375.361L190.902 376.067L191.608 378.925L194.466 378.219ZM227.895 369.965L230.754 369.259L230.048 366.401L227.189 367.107L227.895 369.965ZM243.195 428.261C246.383 430.373 249.936 430.987 253.649 430.07L252.237 424.353C250.122 424.875 248.26 424.553 246.447 423.352L243.195 428.261ZM253.649 430.07C257.362 429.153 260.221 426.956 262.06 423.603L256.897 420.772C255.851 422.678 254.353 423.83 252.237 424.353L253.649 430.07ZM262.06 423.603C263.919 420.214 264.22 416.405 263.23 412.394L257.513 413.806C258.216 416.653 257.922 418.902 256.897 420.772L262.06 423.603ZM263.23 412.394L251.325 364.18L245.608 365.591L257.513 413.806L263.23 412.394ZM249.172 367.744L282.601 359.49L281.19 353.773L247.761 362.027L249.172 367.744ZM279.037 357.337L290.942 405.552L296.659 404.14L284.754 355.926L279.037 357.337ZM290.942 405.552C293.953 417.747 292.524 428.435 286.844 437.84L291.884 440.884C298.469 429.982 299.997 417.659 296.659 404.14L290.942 405.552ZM286.844 437.84C281.164 447.244 272.37 453.484 260.174 456.496L261.586 462.213C275.104 458.875 285.3 451.787 291.884 440.884L286.844 437.84ZM260.174 456.496C247.978 459.507 237.291 458.077 227.886 452.398L224.842 457.438C235.744 464.023 248.067 465.551 261.586 462.213L260.174 456.496ZM227.886 452.398C218.482 446.718 212.241 437.924 209.23 425.728L203.513 427.14C206.851 440.658 213.939 450.854 224.842 457.438L227.886 452.398ZM209.23 425.728L197.325 377.513L191.608 378.925L203.513 427.14L209.23 425.728ZM195.172 381.078L228.601 372.824L227.189 367.107L193.761 375.361L195.172 381.078ZM225.037 370.671L236.942 418.885L242.659 417.474L230.754 369.259L225.037 370.671ZM236.942 418.885C237.932 422.896 239.972 426.127 243.195 428.261L246.447 423.352C244.669 422.174 243.362 420.321 242.659 417.474L236.942 418.885ZM330.728 344.574L333.586 343.868L332.88 341.009L330.022 341.715L330.728 344.574ZM352.95 434.574L353.656 437.433L356.515 436.727L355.809 433.868L352.95 434.574ZM319.522 442.828L316.663 443.534L317.369 446.393L320.228 445.687L319.522 442.828ZM297.299 352.828L296.593 349.969L293.735 350.675L294.44 353.534L297.299 352.828ZM327.869 345.28L350.092 435.28L355.809 433.868L333.586 343.868L327.869 345.28ZM352.245 431.716L318.816 439.97L320.228 445.687L353.656 437.433L352.245 431.716ZM322.38 442.123L300.157 352.122L294.44 353.534L316.663 443.534L322.38 442.123ZM298.005 355.687L331.433 347.432L330.022 341.715L296.593 349.969L298.005 355.687ZM366.713 335.688L366.007 332.83L363.148 333.536L363.854 336.394L366.713 335.688ZM400.141 327.434L403 326.728L402.294 323.87L399.436 324.576L400.141 327.434ZM409.821 411.938L407.203 410.591L407.202 410.593L409.821 411.938ZM372.954 431.681L373.1 428.74L373.1 428.74L372.954 431.681ZM359.697 428.816L356.762 428.582L356.589 430.749L358.61 431.552L359.697 428.816ZM362.03 399.594L363.029 396.824L359.402 395.517L359.095 399.359L362.03 399.594ZM378.2 394.919L380.782 396.335L380.782 396.335L378.2 394.919ZM381.952 385.126L369.571 334.983L363.854 336.394L376.235 386.537L381.952 385.126ZM367.418 338.547L400.847 330.293L399.436 324.576L366.007 332.83L367.418 338.547ZM397.283 328.14L409.664 378.283L415.381 376.871L403 326.728L397.283 328.14ZM409.664 378.283C412.772 390.87 411.847 401.566 407.203 410.591L412.439 413.285C417.873 402.725 418.75 390.514 415.381 376.871L409.664 378.283ZM407.202 410.593C402.593 419.568 395.763 425.062 386.611 427.322L388.022 433.039C398.927 430.347 407.101 423.679 412.44 413.283L407.202 410.593ZM386.611 427.322C381.887 428.489 377.387 428.952 373.1 428.74L372.809 434.622C377.728 434.865 382.803 434.328 388.022 433.039L386.611 427.322ZM373.1 428.74C368.559 428.516 365.605 427.995 363.961 427.341L361.786 432.814C364.377 433.843 368.143 434.391 372.809 434.622L373.1 428.74ZM363.961 427.341L360.784 426.08L358.61 431.552L361.786 432.814L363.961 427.341ZM362.632 429.05L364.965 399.828L359.095 399.359L356.762 428.582L362.632 429.05ZM361.032 402.363C364.633 403.661 368.442 403.771 372.371 402.801L370.96 397.084C368.031 397.807 365.418 397.685 363.029 396.824L361.032 402.363ZM372.371 402.801C376.084 401.884 378.943 399.687 380.782 396.335L375.619 393.503C374.573 395.41 373.075 396.562 370.96 397.084L372.371 402.801ZM380.782 396.335C382.641 392.945 382.943 389.136 381.952 385.126L376.235 386.537C376.938 389.384 376.644 391.633 375.619 393.503L380.782 396.335ZM493.084 399.973L490.917 401.966L492.097 403.249L493.79 402.831L493.084 399.973ZM461.385 365.512L463.552 363.519L458.526 366.218L461.385 365.512ZM471.227 405.369L471.932 408.228L474.791 407.522L474.085 404.664L471.227 405.369ZM437.798 413.624L434.939 414.329L435.645 417.188L438.504 416.482L437.798 413.624ZM415.575 323.623L414.869 320.765L412.011 321.471L412.716 324.329L415.575 323.623ZM452.861 314.417L455.028 312.423L453.848 311.14L452.155 311.558L452.861 314.417ZM484.56 348.877L482.393 350.87L487.418 348.171L484.56 348.877ZM474.718 309.02L474.012 306.161L471.154 306.867L471.86 309.726L474.718 309.02ZM508.147 300.766L511.005 300.06L510.299 297.201L507.441 297.907L508.147 300.766ZM530.37 390.766L531.075 393.624L533.934 392.919L533.228 390.06L530.37 390.766ZM495.251 397.979L463.552 363.519L459.218 367.506L490.917 401.966L495.251 397.979ZM458.526 366.218L468.368 406.075L474.085 404.664L464.243 364.806L458.526 366.218ZM470.521 402.511L437.092 410.765L438.504 416.482L471.932 408.228L470.521 402.511ZM440.656 412.918L418.434 322.918L412.716 324.329L434.939 414.329L440.656 412.918ZM416.281 326.482L453.567 317.275L452.155 311.558L414.869 320.765L416.281 326.482ZM450.694 316.41L482.393 350.87L486.727 346.884L455.028 312.423L450.694 316.41ZM487.418 348.171L477.577 308.314L471.86 309.726L481.701 349.583L487.418 348.171ZM475.424 311.878L508.853 303.624L507.441 297.907L474.012 306.161L475.424 311.878ZM505.288 301.471L527.511 391.472L533.228 390.06L511.005 300.06L505.288 301.471ZM529.664 387.907L492.378 397.114L493.79 402.831L531.075 393.624L529.664 387.907Z" fill="white"/>
<path d="M187.333 505.138L240.825 597.073L199.769 607.211L193.442 593.753L175.037 598.297L175.701 613.154L134.645 623.291L139.198 517.024L187.333 505.138ZM173.691 574.597L183.601 572.15L172.354 547.89L173.691 574.597ZM263.008 486.452L279.438 552.992L317.663 543.553L325.703 576.115L250.669 594.643L226.199 495.541L263.008 486.452ZM392.1 504.145L392.275 504.853C392.959 504.784 393.807 504.775 394.821 504.825C395.906 504.757 397.874 505.022 400.725 505.62C403.648 506.1 406.31 506.945 408.711 508.154C411.089 509.269 413.477 511.233 415.874 514.046C418.342 516.741 420.065 520.071 421.044 524.035C423.141 532.529 420.961 540.328 414.504 547.43C408.14 554.508 396.606 560.11 379.9 564.235C373.199 565.89 366.274 567.449 359.126 568.914C352 570.473 346.562 571.566 342.812 572.191L337.079 573.307L312.609 474.205C325.589 469.999 339.394 466.089 354.023 462.477C369.03 458.771 380.855 458.605 389.499 461.979C398.142 465.352 403.455 471.05 405.436 479.072C406.228 482.281 406.278 485.323 405.586 488.198C404.988 491.049 403.967 493.404 402.524 495.262C401.08 497.121 399.578 498.743 398.018 500.13C396.458 501.517 395.099 502.503 393.942 503.089L392.1 504.145ZM355.36 489.184L358.507 501.925L363.462 500.702C365.821 500.119 367.557 499.04 368.67 497.463C369.783 495.886 370.118 494.202 369.675 492.408C369.232 490.615 368.152 489.28 366.433 488.402C364.714 487.525 362.675 487.378 360.316 487.96L355.36 489.184ZM373.608 538.752C379.271 537.354 381.52 534.295 380.355 529.576C379.189 524.857 375.775 523.196 370.112 524.595L364.449 525.993L367.945 540.15L373.608 538.752ZM468.564 503.289L470.311 510.368L512.784 499.881L519.775 528.195L440.494 547.771L416.024 448.67L492.473 429.793L499.465 458.108L459.824 467.896L461.572 474.974L498.381 465.885L505.373 494.2L468.564 503.289ZM630.258 500.915L587.786 511.402L562.757 483.035L561.341 483.385L569.381 515.947L532.572 525.035L508.102 425.934C521.082 421.727 534.651 417.876 548.809 414.381C563.91 410.652 576.005 410.97 585.093 415.335C594.182 419.7 600.043 427.215 602.677 437.88C603.632 441.75 604.046 445.453 603.918 448.989C603.884 452.502 603.498 455.401 602.761 457.686C602.023 459.971 601.216 461.973 600.338 463.692C599.461 465.41 598.667 466.658 597.958 467.434L596.752 468.633L630.258 500.915ZM555.049 457.901L559.296 456.853C561.75 456.247 563.592 454.991 564.824 453.084C566.056 451.178 566.404 449.14 565.868 446.969C565.332 444.798 564.075 443.156 562.097 442.042C560.12 440.928 557.904 440.674 555.45 441.28L551.203 442.328L555.049 457.901ZM603.089 402.48L693.696 380.107L701.736 412.669L674.837 419.311L691.267 485.851L654.458 494.939L638.028 428.4L611.129 435.042L603.089 402.48Z" fill="white"/>
<path d="M169.361 718.003L163.276 711.388L165.165 719.039L158.748 720.624L154.482 703.347L161.64 701.58L167.725 708.195L165.836 700.544L172.253 698.959L176.519 716.236L169.361 718.003ZM184.37 707.751L184.675 708.985L192.079 707.157L193.298 712.093L179.477 715.506L175.211 698.229L188.538 694.938L189.757 699.874L182.847 701.581L183.151 702.815L189.568 701.23L190.787 706.166L184.37 707.751ZM205.578 690.731L209.775 699.776L208.787 689.938L215.451 688.293L216.014 706.484L208.857 708.251L204.842 699.946L205.155 709.165L197.997 710.933L190.029 694.57L196.693 692.924L200.397 702.092L199.901 692.132L205.578 690.731ZM240.942 700.329L235.759 701.608L230.421 692.714L232.797 702.34L226.38 703.924L222.114 686.647L231.246 684.393L236.401 693.071L236.923 682.991L246.055 680.736L250.321 698.013L243.904 699.597L241.527 689.972L240.942 700.329ZM258.172 689.528L258.477 690.762L265.882 688.933L267.1 693.87L253.279 697.282L249.013 680.006L262.341 676.715L263.56 681.651L256.649 683.357L256.954 684.591L263.371 683.007L264.59 687.943L258.172 689.528ZM264.078 676.286L279.874 672.385L281.276 678.062L276.586 679.22L279.451 690.82L273.033 692.405L270.169 680.805L265.48 681.962L264.078 676.286ZM292.588 669.246L301.913 685.274L294.756 687.041L293.653 684.695L290.444 685.487L290.56 688.077L283.402 689.844L284.196 671.318L292.588 669.246ZM290.21 681.355L291.937 680.929L289.976 676.699L290.21 681.355ZM305.781 665.989L308.645 677.589L315.309 675.943L316.71 681.62L303.629 684.85L299.363 667.573L305.781 665.989Z" fill="white"/>
<path d="M380.891 665.772L374.806 659.157L376.695 666.808L370.278 668.393L366.012 651.116L373.169 649.349L379.254 655.964L377.365 648.313L383.782 646.728L388.048 664.005L380.891 665.772ZM395.899 655.52L396.204 656.754L403.609 654.926L404.827 659.862L391.006 663.275L386.74 645.998L400.068 642.707L401.287 647.643L394.376 649.35L394.681 650.584L401.098 648.999L402.317 653.935L395.899 655.52ZM417.107 638.5L421.305 647.545L420.316 637.707L426.98 636.062L427.544 654.253L420.386 656.02L416.372 647.715L416.684 656.934L409.526 658.702L401.558 642.339L408.222 640.694L411.926 649.861L411.431 639.901L417.107 638.5ZM452.472 648.098L447.289 649.377L441.95 640.483L444.327 650.109L437.91 651.693L433.644 634.416L442.776 632.162L447.93 640.84L448.452 630.76L457.584 628.505L461.85 645.782L455.433 647.366L453.057 637.741L452.472 648.098ZM469.702 637.297L470.006 638.531L477.411 636.702L478.63 641.639L464.808 645.051L460.542 627.775L473.87 624.484L475.089 629.42L468.178 631.126L468.483 632.36L474.9 630.776L476.119 635.712L469.702 637.297ZM475.607 624.055L491.403 620.154L492.805 625.831L488.116 626.989L490.98 638.589L484.563 640.174L481.698 628.574L477.009 629.731L475.607 624.055ZM504.117 617.015L513.443 633.043L506.285 634.81L505.182 632.464L501.973 633.256L502.089 635.846L494.932 637.613L495.725 619.087L504.117 617.015ZM501.739 629.124L503.466 628.698L501.506 624.468L501.739 629.124ZM517.31 613.758L520.174 625.358L526.838 623.712L528.24 629.389L515.159 632.619L510.893 615.342L517.31 613.758Z" fill="white"/>
<path d="M583.844 615.658L577.759 609.043L579.648 616.694L573.231 618.279L568.965 601.002L576.123 599.235L582.208 605.85L580.319 598.199L586.736 596.614L591.002 613.891L583.844 615.658ZM598.853 605.406L599.158 606.64L606.562 604.812L607.781 609.748L593.96 613.161L589.694 595.884L603.021 592.593L604.24 597.529L597.33 599.236L597.634 600.47L604.051 598.885L605.27 603.821L598.853 605.406ZM620.061 588.386L624.258 597.431L623.27 587.593L629.933 585.948L630.497 604.139L623.34 605.906L619.325 597.601L619.638 606.82L612.48 608.588L604.512 592.225L611.176 590.58L614.88 599.747L614.384 589.787L620.061 588.386ZM655.425 597.984L650.242 599.263L644.904 590.369L647.28 599.995L640.863 601.579L636.597 584.302L645.729 582.048L650.883 590.726L651.406 580.646L660.538 578.391L664.804 595.668L658.387 597.252L656.01 587.627L655.425 597.984ZM672.655 587.183L672.96 588.417L680.364 586.588L681.583 591.525L667.762 594.937L663.496 577.661L676.824 574.37L678.043 579.306L671.132 581.012L671.437 582.246L677.854 580.662L679.072 585.598L672.655 587.183ZM678.561 573.941L694.357 570.04L695.759 575.717L691.069 576.875L693.933 588.475L687.516 590.06L684.652 578.46L679.963 579.617L678.561 573.941ZM707.071 566.901L716.396 582.929L709.239 584.696L708.136 582.35L704.927 583.142L705.043 585.732L697.885 587.499L698.679 568.973L707.071 566.901ZM704.692 579.01L706.42 578.584L704.459 574.354L704.692 579.01ZM720.263 563.644L723.128 575.244L729.792 573.598L731.193 579.275L718.112 582.505L713.846 565.228L720.263 563.644Z" fill="white"/>
<path d="M62.4258 274.039L63.2819 277.506L65.5933 276.935L64.7372 273.468L68.4933 272.54L70.9902 282.653L67.2342 283.58L66.3781 280.113L64.0667 280.684L64.9228 284.151L61.1668 285.078L58.6698 274.966L62.4258 274.039ZM69.6462 272.256L78.8918 269.973L79.7122 273.295L76.9674 273.973L78.6439 280.763L74.8879 281.69L73.2114 274.901L70.4666 275.578L69.6462 272.256ZM89.8664 267.263L88.3701 272.997L92.6523 277.304L88.3184 278.374L85.2972 274.829L86.296 278.874L82.5399 279.801L80.043 269.689L83.799 268.761L84.7978 272.806L85.5326 268.333L89.8664 267.263ZM90.2998 267.156L99.5455 264.873L100.366 268.196L97.6211 268.873L99.2976 275.663L95.5416 276.591L93.8651 269.801L91.1203 270.479L90.2998 267.156ZM103.833 273.164C102.56 272.395 101.74 271.269 101.374 269.786C101.008 268.303 101.21 266.93 101.981 265.666C102.76 264.391 103.905 263.567 105.417 263.193C105.928 263.067 106.428 263.005 106.919 263.006C107.417 262.996 107.834 263.031 108.171 263.111C108.508 263.191 108.806 263.281 109.065 263.381C109.335 263.478 109.536 263.571 109.671 263.66L109.855 263.784L108.799 266.956C108.717 266.915 108.608 266.866 108.471 266.808C108.334 266.749 108.084 266.688 107.721 266.625C107.355 266.552 107.023 266.552 106.725 266.626C106.224 266.749 105.85 267.015 105.603 267.424C105.357 267.832 105.295 268.286 105.419 268.787C105.543 269.288 105.809 269.662 106.217 269.908C106.625 270.155 107.08 270.216 107.581 270.093C107.879 270.019 108.166 269.877 108.441 269.666C108.725 269.452 108.933 269.258 109.063 269.083L109.262 268.834L111.674 271.151C111.645 271.199 111.606 271.27 111.558 271.364C111.507 271.448 111.379 271.612 111.174 271.857C110.968 272.102 110.739 272.332 110.486 272.548C110.24 272.752 109.895 272.97 109.452 273.202C109.008 273.434 108.532 273.613 108.021 273.739C106.509 274.112 105.113 273.921 103.833 273.164ZM119.38 270.705L115.818 266.833L116.924 271.311L113.168 272.238L110.671 262.126L114.86 261.092L118.422 264.963L117.316 260.485L121.072 259.558L123.569 269.67L119.38 270.705ZM122.226 259.273L131.471 256.99L132.292 260.313L129.547 260.99L131.223 267.78L127.467 268.708L125.791 261.918L123.046 262.596L122.226 259.273ZM135.801 255.921L137.525 258.56L137.823 255.422L142.157 254.351L140.224 261.419L141.187 265.32L137.431 266.247L136.468 262.347L131.467 256.991L135.801 255.921Z" fill="white"/>
<path d="M159.615 250.042L160.471 253.509L162.783 252.938L161.927 249.471L165.683 248.543L168.18 258.656L164.424 259.583L163.568 256.116L161.256 256.687L162.112 260.154L158.356 261.081L155.859 250.969L159.615 250.042ZM166.836 248.259L176.081 245.976L176.902 249.298L174.157 249.976L175.833 256.766L172.077 257.693L170.401 250.904L167.656 251.581L166.836 248.259ZM187.056 243.266L185.56 249L189.842 253.307L185.508 254.377L182.487 250.831L183.485 254.876L179.729 255.804L177.232 245.691L180.988 244.764L181.987 248.809L182.722 244.336L187.056 243.266ZM187.489 243.159L196.735 240.876L197.555 244.199L194.811 244.876L196.487 251.666L192.731 252.594L191.055 245.804L188.31 246.482L187.489 243.159ZM201.022 249.167C199.749 248.398 198.93 247.272 198.563 245.789C198.197 244.306 198.4 242.933 199.171 241.669C199.949 240.394 201.095 239.57 202.607 239.196C203.117 239.07 203.618 239.008 204.109 239.009C204.607 238.999 205.024 239.034 205.361 239.114C205.697 239.194 205.995 239.284 206.255 239.384C206.524 239.481 206.726 239.574 206.86 239.663L207.044 239.787L205.988 242.959C205.906 242.918 205.797 242.869 205.66 242.81C205.523 242.752 205.273 242.691 204.91 242.628C204.545 242.555 204.213 242.555 203.914 242.629C203.413 242.752 203.039 243.018 202.793 243.426C202.546 243.835 202.485 244.289 202.608 244.79C202.732 245.291 202.998 245.665 203.406 245.911C203.815 246.158 204.269 246.219 204.77 246.096C205.069 246.022 205.355 245.88 205.63 245.669C205.915 245.455 206.122 245.261 206.253 245.086L206.452 244.837L208.863 247.154C208.834 247.202 208.795 247.273 208.747 247.367C208.696 247.451 208.568 247.615 208.363 247.86C208.158 248.105 207.929 248.335 207.675 248.551C207.429 248.755 207.085 248.973 206.641 249.205C206.198 249.437 205.721 249.616 205.211 249.742C203.699 250.115 202.302 249.924 201.022 249.167ZM216.569 246.707L213.007 242.836L214.113 247.314L210.357 248.241L207.86 238.129L212.05 237.094L215.611 240.966L214.506 236.488L218.262 235.561L220.759 245.673L216.569 246.707ZM219.415 235.276L228.661 232.993L229.481 236.316L226.736 236.993L228.413 243.783L224.657 244.71L222.98 237.921L220.235 238.598L219.415 235.276ZM232.99 231.924L234.715 234.563L235.012 231.424L239.346 230.354L237.413 237.422L238.376 241.323L234.62 242.25L233.657 238.35L228.656 232.994L232.99 231.924Z" fill="white"/>
<path d="M256.805 226.042L257.661 229.51L259.972 228.939L259.116 225.472L262.872 224.544L265.369 234.657L261.613 235.584L260.757 232.117L258.446 232.688L259.302 236.155L255.546 237.082L253.049 226.97L256.805 226.042ZM264.025 224.26L273.271 221.977L274.091 225.299L271.346 225.977L273.023 232.767L269.267 233.694L267.59 226.905L264.845 227.582L264.025 224.26ZM284.245 219.267L282.749 225.001L287.031 229.308L282.697 230.378L279.676 226.832L280.675 230.877L276.919 231.805L274.422 221.692L278.178 220.765L279.177 224.81L279.911 220.337L284.245 219.267ZM284.679 219.16L293.924 216.877L294.745 220.2L292 220.877L293.677 227.667L289.92 228.595L288.244 221.805L285.499 222.482L284.679 219.16ZM298.212 225.168C296.939 224.399 296.119 223.273 295.753 221.79C295.387 220.307 295.589 218.934 296.36 217.67C297.139 216.395 298.284 215.571 299.796 215.197C300.307 215.071 300.807 215.009 301.298 215.01C301.796 215 302.213 215.035 302.55 215.115C302.887 215.195 303.185 215.285 303.444 215.385C303.713 215.482 303.915 215.575 304.05 215.664L304.233 215.787L303.178 218.96C303.096 218.919 302.987 218.87 302.85 218.811C302.713 218.753 302.463 218.692 302.099 218.629C301.734 218.556 301.402 218.556 301.103 218.63C300.603 218.753 300.229 219.019 299.982 219.427C299.736 219.836 299.674 220.29 299.798 220.791C299.922 221.292 300.188 221.666 300.596 221.912C301.004 222.159 301.459 222.22 301.96 222.097C302.258 222.023 302.545 221.881 302.82 221.67C303.104 221.456 303.312 221.262 303.442 221.087L303.641 220.838L306.053 223.155C306.024 223.203 305.985 223.274 305.937 223.368C305.886 223.452 305.758 223.616 305.553 223.861C305.347 224.106 305.118 224.336 304.865 224.552C304.619 224.756 304.274 224.974 303.831 225.206C303.387 225.438 302.91 225.617 302.4 225.743C300.888 226.116 299.492 225.925 298.212 225.168ZM313.759 222.708L310.197 218.836L311.303 223.315L307.547 224.242L305.05 214.13L309.239 213.095L312.801 216.967L311.695 212.489L315.451 211.562L317.948 221.674L313.759 222.708ZM316.604 211.277L325.85 208.994L326.671 212.316L323.926 212.994L325.602 219.784L321.846 220.711L320.17 213.922L317.425 214.599L316.604 211.277ZM330.179 207.925L331.904 210.564L332.202 207.425L336.536 206.355L334.603 213.423L335.566 217.324L331.81 218.251L330.847 214.351L325.846 208.995L330.179 207.925Z" fill="white"/>
<path d="M680.023 372.39C680.579 374.642 679.551 377.406 676.654 380.698C673.779 383.964 669.197 387.592 663.036 391.508C650.722 399.334 632.26 408.214 609.003 417.59C562.499 436.339 496.942 457.023 423.357 475.192C349.773 493.362 282.123 505.569 232.237 510.621C207.289 513.148 186.815 513.881 172.274 512.686C164.998 512.088 159.254 511.01 155.189 509.458C151.093 507.893 148.897 505.925 148.341 503.673C147.785 501.421 148.812 498.657 151.709 495.365C154.584 492.099 159.167 488.471 165.328 484.556C177.641 476.729 196.104 467.849 219.361 458.473C265.864 439.724 331.422 419.04 405.006 400.871C478.591 382.702 546.241 370.494 596.126 365.442C621.075 362.915 641.548 362.182 656.09 363.377C663.365 363.975 669.11 365.053 673.175 366.605C677.271 368.17 679.467 370.139 680.023 372.39Z" fill="white" stroke="black" stroke-width="1.47218"/>
<path d="M678.665 348.464C679.221 350.716 678.194 353.48 675.297 356.772C672.422 360.038 667.839 363.665 661.678 367.581C649.365 375.408 630.902 384.288 607.645 393.664C561.142 412.412 495.584 433.096 422 451.266C348.415 469.435 280.765 481.643 230.88 486.695C205.931 489.222 185.458 489.955 170.916 488.76C163.641 488.162 157.896 487.084 153.832 485.531C149.735 483.967 147.539 481.998 146.983 479.747C146.427 477.495 147.455 474.73 150.352 471.439C153.227 468.173 157.809 464.545 163.97 460.629C176.284 452.803 194.746 443.923 218.003 434.546C264.507 415.798 330.064 395.114 403.649 376.945C477.233 358.775 544.883 346.568 594.769 341.516C619.717 338.989 640.191 338.255 654.732 339.451C662.008 340.049 667.752 341.127 671.817 342.679C675.913 344.244 678.109 346.212 678.665 348.464Z" fill="white" stroke="black" stroke-width="1.47218"/>
<path d="M674.782 332.741C675.338 334.993 674.311 337.757 671.413 341.049C668.539 344.315 663.956 347.943 657.795 351.859C645.481 359.685 627.019 368.565 603.762 377.942C557.258 396.69 491.701 417.374 418.117 435.543C344.532 453.713 276.882 465.92 226.996 470.972C202.048 473.499 181.574 474.233 167.033 473.037C159.757 472.439 154.013 471.361 149.948 469.809C145.852 468.244 143.656 466.276 143.1 464.024C142.544 461.772 143.571 459.008 146.469 455.716C149.343 452.45 153.926 448.822 160.087 444.907C172.401 437.08 190.863 428.2 214.12 418.824C260.624 400.076 326.181 379.391 399.765 361.222C473.35 343.053 541 330.845 590.886 325.793C615.834 323.266 636.308 322.533 650.849 323.728C658.125 324.326 663.869 325.404 667.934 326.957C672.03 328.521 674.226 330.49 674.782 332.741Z" fill="white" stroke="black" stroke-width="1.47218"/>
<path d="M664.143 308.073C664.699 310.325 663.671 313.089 660.774 316.381C657.899 319.647 653.317 323.275 647.156 327.19C634.842 335.017 616.38 343.897 593.123 353.273C546.619 372.022 481.062 392.706 407.478 410.875C333.893 429.044 266.243 441.252 216.357 446.304C191.409 448.831 170.935 449.564 156.394 448.369C149.118 447.771 143.374 446.693 139.309 445.141C135.213 443.576 133.017 441.607 132.461 439.356C131.905 437.104 132.932 434.34 135.829 431.048C138.704 427.782 143.287 424.154 149.448 420.238C161.762 412.412 180.224 403.532 203.481 394.155C249.984 375.407 315.542 354.723 389.126 336.554C462.711 318.384 530.361 306.177 580.246 301.125C605.195 298.598 625.669 297.864 640.21 299.06C647.485 299.658 653.23 300.736 657.295 302.288C661.391 303.853 663.587 305.821 664.143 308.073Z" fill="white" stroke="black" stroke-width="1.47218"/>
<path d="M660.966 295.21C661.522 297.461 660.495 300.226 657.598 303.517C654.723 306.783 650.14 310.411 643.979 314.327C631.665 322.153 613.203 331.034 589.946 340.41C543.442 359.158 477.885 379.842 404.301 398.011C330.716 416.181 263.066 428.388 213.181 433.441C188.232 435.967 167.758 436.701 153.217 435.506C145.942 434.907 140.197 433.83 136.132 432.277C132.036 430.712 129.84 428.744 129.284 426.492C128.728 424.24 129.755 421.476 132.653 418.185C135.528 414.918 140.11 411.291 146.271 407.375C158.585 399.549 177.047 390.668 200.304 381.292C246.808 362.544 312.365 341.86 385.949 323.69C459.534 305.521 527.184 293.313 577.07 288.261C602.018 285.735 622.492 285.001 637.033 286.196C644.309 286.794 650.053 287.872 654.118 289.425C658.214 290.989 660.41 292.958 660.966 295.21Z" fill="white" stroke="black" stroke-width="1.47218"/>
<path fill-rule="evenodd" clip-rule="evenodd" d="M134.853 422.723L142.33 453.006L144.614 452.442C148.854 451.395 151.53 449.405 152.956 446.707C154.417 443.944 154.853 439.897 153.446 434.197C152.038 428.496 149.768 425.118 147.189 423.352C144.672 421.628 141.376 421.112 137.137 422.159L134.853 422.723ZM229.607 364.614L242.217 415.687C242.939 418.611 244.397 420.553 246.041 421.642C247.675 422.724 249.675 423.09 251.796 422.566C253.917 422.043 255.517 420.788 256.459 419.069C257.407 417.34 257.794 414.943 257.072 412.019L244.461 360.946L283.607 351.281L296.218 402.354C299.561 415.896 297.694 428.748 291.443 439.098C285.192 449.447 274.686 457.083 261.144 460.426C247.603 463.77 234.75 461.903 224.4 455.652C214.051 449.401 206.415 438.895 203.072 425.353L190.461 374.28L229.607 364.614ZM248.025 363.099L281.454 354.845L293.359 403.059C299.709 428.774 286.153 451.218 260.439 457.568C234.724 463.917 212.28 450.362 205.93 424.647L194.025 376.433L227.454 368.179L239.359 416.393C241.105 423.465 246.716 426.853 252.502 425.425C258.288 423.996 261.677 418.385 259.93 411.314L248.025 363.099ZM332.439 339.223L356.073 434.94L316.928 444.606L293.293 348.889L332.439 339.223ZM296.858 351.042L330.286 342.787L352.509 432.788L319.08 441.042L296.858 351.042ZM362.582 395.035L362.584 395.036C362.595 395.04 362.616 395.046 362.645 395.056L362.676 395.065C362.767 395.094 362.918 395.139 363.121 395.193C363.527 395.3 364.134 395.437 364.884 395.542C366.4 395.753 368.413 395.818 370.518 395.298C372.64 394.774 374.239 393.519 375.181 391.801C376.13 390.072 376.516 387.674 375.794 384.751L362.707 331.749L401.853 322.083L414.94 375.085C421.903 403.285 408.8 426.014 387.581 431.253C378.773 433.428 371.448 433.078 366.282 432.158C363.702 431.699 361.663 431.098 360.246 430.601C359.538 430.353 358.984 430.13 358.595 429.963C358.401 429.879 358.247 429.81 358.136 429.758C358.081 429.732 358.036 429.71 358.002 429.694L357.959 429.673L357.934 429.66C357.934 429.66 357.932 429.659 359.256 427.029C359.256 427.029 370.161 432.522 386.875 428.394C406.161 423.632 418.748 402.791 412.081 375.791L399.7 325.648L366.271 333.902L378.653 384.045C380.399 391.116 377.01 396.728 371.224 398.156C368.659 398.79 366.255 398.704 364.491 398.46C362.718 398.214 361.589 397.807 361.589 397.807L359.256 427.029L357.932 429.659L356.163 428.769L358.961 393.73L362.573 395.032L362.577 395.034L362.582 395.035ZM491.656 401.463L466.557 374.177L474.35 405.736L435.204 415.402L411.569 319.684L453.406 309.354L478.505 336.639L470.712 305.081L509.858 295.415L533.493 391.132L491.656 401.463ZM484.118 347.091L452.42 312.63L415.134 321.837L437.357 411.837L470.785 403.583L460.944 363.726L492.642 398.186L529.928 388.979L507.705 298.979L474.277 307.233L484.118 347.091ZM140.177 456.57L145.32 455.3C154.963 452.919 159.32 445.705 156.304 433.491C153.288 421.276 146.074 416.919 136.431 419.3L131.288 420.57L140.177 456.57Z" fill="black"/>
<path d="M153.01 486.445C170.615 482.098 183.071 473.925 190.166 462.885C197.275 451.825 198.724 438.319 195.163 423.896C191.861 410.525 185.116 399.857 175.035 393.208L172.296 394.956C182.25 401.05 189.017 411.289 192.304 424.602C199.13 452.245 186.505 475.142 152.305 483.586L147.162 484.856L147.868 487.715L153.01 486.445Z" fill="black"/>
</g>
<rect x="1.24392" y="150.097" width="620.945" height="601.945" transform="rotate(-13.87 1.24392 150.097)" stroke="white" stroke-width="2.05511"/>
<defs>
<clipPath id="clip0_318_205">
<rect y="149.345" width="623" height="604" transform="rotate(-13.87 0 149.345)" fill="white"/>
</clipPath>
</defs>
</svg>
