<svg width="560" height="866" viewBox="0 0 560 866" fill="none" xmlns="http://www.w3.org/2000/svg">
<g clip-path="url(#clip0_185_1211)">
<rect x="220.291" y="0.0791016" width="705.237" height="671.655" transform="rotate(19.1289 220.291 0.0791016)" fill="white"/>
<path fill-rule="evenodd" clip-rule="evenodd" d="M616.87 248.319C615.908 251.094 614.05 247.368 613.474 248.051C612.897 248.735 613.159 250.963 614.054 253.003C614.95 255.044 615.851 256.227 616.056 255.634C616.272 255.012 618.474 255.328 621.256 256.381C625.786 258.093 625.85 258.168 622.283 257.599C616.697 256.706 615.552 260.81 619.971 265.887C621.57 267.724 621.551 267.755 619.295 267.006C618.019 266.582 617.136 265.775 617.332 265.211C617.528 264.647 617.112 263.984 616.406 263.739C615.701 263.494 614.183 261.674 613.032 259.696C610.606 255.523 608.625 254.519 606.887 256.581C606.053 257.57 606.452 259.402 608.119 262.243L610.583 266.444L607.235 264.5C605.393 263.432 603.685 261.906 603.439 261.109C603.115 260.058 602.728 259.964 602.027 260.764C601.497 261.37 600.177 261.559 599.096 261.184C598.015 260.809 596.889 261.195 596.596 262.041C595.643 264.788 594.162 263.017 594.565 259.613C594.78 257.791 594.338 256.086 593.582 255.824C592.827 255.562 591.577 254.815 590.803 254.163C589.784 253.303 589.181 253.597 588.617 255.224C587.576 258.224 585.798 256.691 585.182 252.263C584.912 250.313 583.716 247.113 582.526 245.153L580.363 241.588L579.59 245.858C579.165 248.207 578.763 249.449 578.697 248.618C578.615 247.589 577.392 246.931 574.854 246.551C572.433 246.189 571.27 245.596 571.527 244.854C571.744 244.227 571.461 243.554 570.896 243.359C569.446 242.856 568.431 246.348 569.405 248.487C570.07 249.948 569.841 250.003 568.159 248.784C566.484 247.57 566.111 247.655 566.163 249.245C566.216 250.872 565.861 250.92 564.044 249.534C559.788 246.291 558.146 246.289 554.703 249.522C551.052 252.951 550.718 252.98 547.367 250.174C545.513 248.621 544.787 248.563 543.392 249.851C542.454 250.717 541.477 252.948 541.221 254.807C540.606 259.29 538.675 258.57 537.57 253.446L536.722 249.514L535.087 252.01C533.344 254.671 531.266 254.901 532.157 252.332C532.453 251.48 531.78 250.478 530.65 250.086C529.065 249.536 528.433 250.021 527.813 252.262C526.854 255.735 528.415 259.297 531.054 259.655C533.075 259.931 534.368 258.271 532.608 257.66C532.043 257.465 531.776 256.744 532.014 256.059C532.295 255.249 532.823 255.589 533.522 257.033C534.326 258.69 534.076 260.192 532.537 262.971C530.8 266.107 529.734 266.766 525.744 267.173C522.098 267.547 521 268.139 520.957 269.754C520.895 272.068 517.517 273.113 514.019 271.899C511.063 270.874 503.507 272.627 501.963 274.698C501.24 275.666 499.646 276.617 498.42 276.812C495.875 277.217 495.443 275.362 497.016 270.792C497.535 269.286 498.085 266.077 498.238 263.663L498.515 259.272L495.107 261.427C491.26 263.859 491.052 265.353 494.466 266.035C496.296 266.399 496.651 267.117 496.139 269.414C495.554 272.04 494.817 272.386 488.757 272.888C485.055 273.194 481.95 273.418 481.857 273.386C481.763 273.353 482.131 272.109 482.672 270.621C483.213 269.132 483.16 267.524 482.554 267.047C481.295 266.057 475.24 270.669 474.313 273.327C473.973 274.3 472.427 276.138 470.88 277.413C467.826 279.927 459.147 285.046 458.387 284.783C457.357 284.425 457.032 277.198 457.995 276.056C459.081 274.767 456.762 271.577 454.055 270.638C451.872 269.881 451.395 271.719 453.422 273.075C454.977 274.114 454.967 274.143 453.218 273.662C451.997 273.327 451.087 274.009 450.5 275.7C449.948 277.292 448.419 278.542 446.408 279.048C443.474 279.785 441.101 283.693 443.334 284.111C443.81 284.201 445.102 285.443 446.204 286.873C447.306 288.302 448.934 289.447 449.82 289.419C450.707 289.39 451.552 289.903 451.699 290.558C451.845 291.213 451.316 291.524 450.524 291.249C449.732 290.975 447.928 291.383 446.516 292.158C443.887 293.598 441.3 293.568 443.082 292.116C444.761 290.749 443.724 288.609 441.742 289.353C440.613 289.776 439.899 289.572 439.72 288.774C439.544 287.986 438.11 287.626 435.747 287.777C432.959 287.957 431.782 288.692 430.958 290.771C430.356 292.286 428.874 293.83 427.663 294.201C424.519 295.166 423.769 298.003 426.598 298.224C429.92 298.484 428.607 300.459 424.196 301.836C419.881 303.184 418.824 304.992 419.979 309.051C420.697 311.576 420.573 311.789 418.413 311.732C416.471 311.681 416.196 312.012 416.813 313.659C417.438 315.323 417.254 315.478 415.682 314.606C412.704 312.955 409.564 321.521 409.457 331.595C409.409 336.003 409.664 339.884 410.022 340.218C410.379 340.553 410.128 342.277 409.465 344.047L408.257 347.268L408.225 343.809C408.193 340.147 407.157 338.057 405.552 338.415C404.496 338.651 402.332 345.651 402.7 347.639C402.993 349.22 401.3 353.356 399.344 355.839C398.195 357.298 396.755 357.52 393.535 356.737C388.626 355.542 388.035 354.528 390.773 351.999C392.29 350.6 392.482 349.917 391.648 348.894C390.809 347.863 391.008 347.567 392.582 347.517C395.047 347.436 396.224 344.446 394.748 342.008C393.391 339.766 395.004 334.824 397.875 332.422C400.598 330.144 404.682 319.856 404.163 316.586C403.328 311.328 399.468 312.8 395.772 319.787C394.105 322.938 394.076 323.721 395.586 324.731C397.2 325.812 397.15 326.156 395.076 328.169C393.543 329.656 392.171 332.69 390.975 337.235C389.352 343.403 389.064 343.879 388.011 342.14C387.007 340.479 386.667 340.522 385.548 342.451C381.314 349.758 375.559 368.68 377.379 369.312C378.033 369.539 379.074 369.124 379.692 368.39C380.31 367.656 381.422 367.266 382.162 367.523C383.813 368.096 380.484 377.357 377.269 381.128C376.099 382.501 375.099 383.748 375.047 383.898C374.995 384.048 376.515 386.385 378.423 389.093C380.903 392.609 382.163 393.677 382.833 392.828C383.349 392.175 385.521 387.334 387.659 382.071C394.544 365.127 397.683 359.443 400.957 357.997C405.167 356.136 405.685 356.644 405.278 362.239C404.958 366.646 404.477 367.669 400.972 371.376C398.801 373.672 396.796 376.135 396.515 376.849C396.234 377.563 395.244 378.318 394.314 378.528C391.677 379.121 383.219 403.213 384.81 405.597C385.486 406.61 385.434 408.85 384.687 410.921C383.703 413.647 383.815 414.606 385.156 414.961C386.244 415.25 386.522 415.893 385.883 416.65C385.317 417.323 385.405 418.066 386.08 418.3C387.862 418.918 389.667 424.333 388.896 426.746C388.532 427.884 388.411 429.571 388.629 430.495C388.923 431.746 389.369 431.607 390.375 429.951C391.119 428.729 392.386 426.993 393.192 426.093C394.427 424.711 394.273 424.447 392.205 424.391C388.39 424.29 390.146 421.365 394.557 420.472C397.992 419.778 401.828 415.955 403.302 411.759C403.577 410.975 405.968 408.565 408.615 406.401C411.261 404.237 413.594 401.986 413.797 401.399C414.001 400.811 415.904 399.539 418.026 398.573C420.149 397.606 423.161 394.931 424.721 392.628C429.898 384.983 437.027 378.314 438.774 379.483C441.223 381.121 446.305 376.034 445.744 372.505C445.444 370.614 445.954 368.938 447.462 366.862C457.376 353.209 460.055 347.825 457.858 345.974C457.131 345.362 457.13 344.171 457.856 343.087C458.535 342.072 459.459 338.303 459.909 334.709C460.646 328.84 461.018 327.95 463.561 325.968C465.119 324.754 467.499 323.308 468.849 322.754C471.278 321.758 473.189 318.648 471.691 318.128C471.264 317.98 469.823 319.032 468.486 320.464C467.15 321.897 465.403 322.843 464.604 322.566C462.768 321.929 462.706 322.058 467.163 317.278C469.773 314.477 471.515 313.47 472.912 313.955C474.014 314.337 475.156 313.957 475.45 313.111C475.779 312.161 476.947 311.906 478.5 312.445C480.133 313.012 483.226 312.227 487.306 310.213C494.408 306.706 502.741 303.614 503.954 304.035C504.4 304.19 504.695 305.197 504.611 306.274C504.518 307.465 504.891 307.13 505.566 305.42C506.246 303.696 507.443 302.634 508.662 302.676C509.756 302.712 511.495 302.616 512.528 302.462C515.081 302.082 517.388 305.565 515.817 307.429C514.838 308.591 515.286 309.115 518.093 310.088C520.015 310.755 521.95 312.047 522.392 312.959C523.017 314.248 523.361 314.142 523.937 312.48C524.722 310.216 528.945 309.767 529.421 311.898C529.728 313.274 533.68 317.057 535.629 317.842C536.345 318.13 537.121 319.204 537.352 320.227C537.699 321.758 538.217 321.987 540.287 321.522C541.67 321.211 543.489 321.195 544.329 321.487C545.169 321.778 547.658 321.628 549.859 321.153C552.134 320.662 554.199 320.815 554.647 321.51C555.08 322.18 557.327 323.668 559.64 324.815C561.953 325.962 564.353 327.739 564.974 328.765C565.595 329.79 566.974 331.005 568.041 331.465C569.107 331.926 570.836 333.978 571.884 336.026C573.915 339.993 578.555 342.637 578.462 339.773C578.394 337.693 584.402 338.406 586.55 340.734C587.399 341.652 588.917 342.377 589.924 342.344C590.932 342.311 593.514 344 595.661 346.096C603.19 353.445 607.649 356.408 610.739 356.118C612.303 355.971 614.639 356.217 615.929 356.664C617.219 357.112 618.706 357.269 619.232 357.014C620.541 356.378 634.608 361.192 634.273 362.159C634.125 362.585 635.4 363.418 637.107 364.01C639.747 364.925 640.141 365.586 639.75 368.438C639.497 370.285 639.876 371.755 640.596 371.714C641.315 371.673 642.804 371.597 643.907 371.542C645.336 371.474 646.558 372.938 648.165 376.644C649.405 379.504 650.319 382.141 650.195 382.504C650.073 382.866 650.919 383.789 652.076 384.553C653.234 385.318 656.087 389.596 658.419 394.06C662.446 401.775 662.64 402.757 662.325 413.842C662.005 425.102 662.096 425.543 664.962 426.537C669.31 428.045 671.11 430.759 669.554 433.46C668.837 434.704 668.695 435.876 669.237 436.064C670.528 436.512 674.811 434.148 675.309 432.712C675.809 431.269 681.382 431.924 684.277 433.767C687.382 435.744 693.084 435.926 694.15 434.083C695.24 432.198 693.404 427.208 691.36 426.499C690.36 426.152 691.204 425.287 693.872 423.922C697.175 422.233 697.564 421.755 696.061 421.234C695.057 420.885 694.313 419.593 694.41 418.363C694.516 417.015 693.717 415.818 692.401 415.351C688.567 413.994 686.015 411.785 686.538 410.277C686.825 409.451 686.217 408.672 685.146 408.491C683.887 408.278 683.476 407.506 683.925 406.201C684.297 405.117 684.094 403.84 683.473 403.363C681.859 402.121 682.691 400.507 684.602 401.17C685.657 401.536 686.239 401.044 686.291 399.744C686.357 398.092 691.404 386.5 695.311 379.026C696.037 377.639 695.699 376.758 694.134 375.953C692.926 375.332 691.768 375.317 691.559 375.92C691.35 376.525 690.667 376.841 690.043 376.624C689.418 376.407 689.372 375.679 689.94 375.005C690.508 374.331 690.622 373.056 690.193 372.171C689.601 370.95 689.861 370.46 691.279 370.128C692.306 369.887 692.663 369.516 692.075 369.301C691.486 369.088 690.981 367.176 690.953 365.053C690.894 360.522 688.4 357.764 683.525 356.836C679.971 356.161 679.446 354.89 682.173 353.568C683.207 353.067 683.413 352.518 682.835 351.807C682.372 351.238 682.462 350.217 683.036 349.537C684.317 348.016 681.941 342.816 679.526 341.858C678.555 341.473 679.798 341.24 682.291 341.342C685.276 341.463 686.476 341.098 685.805 340.271C684.441 338.591 686.138 337.345 688.619 338.205C691.282 339.129 691.479 337.91 689.198 334.632C687.441 332.107 687.111 331.982 684.15 332.726C682.221 333.211 681.137 333.075 681.378 332.378C681.596 331.749 682.267 331.405 682.869 331.614C684.279 332.103 684.433 327.666 683.102 324.922C682.555 323.793 682.104 321.444 682.102 319.702C682.097 316.855 681.807 316.564 679.219 316.806C677.637 316.955 676.127 317.696 675.865 318.452C675.603 319.207 674.414 319.487 673.223 319.074C671.276 318.399 671.264 317.959 673.11 314.725C674.24 312.747 675.813 310.732 676.608 310.25C677.702 309.584 677.147 309.213 674.324 308.72C668.831 307.759 666.931 302.733 668.445 293.168C669.453 286.804 669.345 285.943 667.641 286.769C664.756 288.168 663.481 287.327 664.608 284.769C666.462 280.557 666.312 279.861 663.38 279.069C659.604 278.048 654.96 273.047 654.896 269.932C654.846 267.479 654.843 267.479 653.422 269.602C652.604 270.825 651.494 271.33 650.813 270.789C649.996 270.14 650.276 268.257 651.711 264.743C654.251 258.52 653.172 256.633 648.694 259.464C645.422 261.532 643.047 260.654 644.055 257.748C644.968 255.114 642.824 255.564 639.8 258.638C638.179 260.288 636.595 261.549 636.281 261.44C635.967 261.331 636.904 258.165 638.364 254.405C639.824 250.644 641.317 246.235 641.317 246.235C641.536 245.255 635.681 267.648 627.005 264.639L623.281 250.543L616.87 248.319ZM636.749 263.901C636.902 264.586 636.538 264.977 635.941 264.77C635.344 264.563 635.014 263.931 635.21 263.367C635.406 262.803 635.769 262.412 636.018 262.498C636.268 262.585 636.596 263.216 636.749 263.901ZM603.086 264.867C602.825 265.619 601.968 266.227 601.181 266.217C600.329 266.207 600.062 265.299 600.521 263.977C600.98 262.655 601.751 262.107 602.426 262.627C603.05 263.106 603.346 264.115 603.086 264.867ZM544.692 265.86C545.259 267.372 545.06 268.175 543.991 268.694C542.198 269.563 538.387 262.623 539.957 261.346C541.113 260.405 543.499 262.68 544.692 265.86ZM484.892 247.926C484.384 248.339 484.339 249.129 484.789 249.683C485.24 250.235 485.858 249.968 486.163 249.089C486.788 247.287 486.264 246.808 484.892 247.926ZM502.069 259.559C501.58 260.968 503.711 263.959 504.654 263.191C505.117 262.815 504.795 261.639 503.939 260.579C503.084 259.518 502.242 259.06 502.069 259.559ZM524.151 275.414C523.706 276.699 522.617 276.322 521.074 274.346C520.109 273.11 520.323 272.969 522.194 273.603C523.467 274.035 524.347 274.85 524.151 275.414ZM516.48 278.361C515.804 278.519 514.701 279.491 514.027 280.522C513.101 281.939 513.016 281.688 513.677 279.49C514.692 276.115 518.213 273.521 517.895 276.38C517.793 277.312 517.156 278.204 516.48 278.361ZM673.212 329.414C673.017 329.978 672.653 330.369 672.404 330.282C672.155 330.196 671.827 329.565 671.674 328.88C671.52 328.195 671.885 327.804 672.482 328.011C673.079 328.218 673.408 328.849 673.212 329.414ZM487.337 267.242C487.49 267.927 488.28 268.718 489.093 269C489.907 269.282 490.732 269.051 490.927 268.487C491.123 267.923 490.332 267.131 489.171 266.729C488.01 266.326 487.184 266.557 487.337 267.242ZM467.66 266.093C466.421 267.238 466.17 268.038 466.804 268.816C467.752 269.981 470.156 268.595 470.934 266.437C471.638 264.485 469.631 264.275 467.66 266.093ZM517.946 293.305C517.57 294.388 515.444 294.16 515.187 293.009C515.032 292.313 515.624 291.993 516.503 292.298C517.383 292.603 518.032 293.056 517.946 293.305ZM488.59 287.43C487.979 288.134 487.82 287.806 488.185 286.594C488.516 285.498 488.968 284.976 489.191 285.435C489.413 285.894 489.143 286.792 488.59 287.43ZM431.477 274.219C431.294 274.744 430.037 275.014 428.683 274.818L426.221 274.462L428.432 275.386C429.904 276 430.797 277.709 431.102 280.491C431.624 285.246 433.453 286.445 436.247 283.864C437.768 282.461 437.947 281.652 437.116 279.94C436.169 277.986 435.953 277.923 434.814 279.275C434.123 280.096 433.144 280.624 432.64 280.449C431.039 279.894 432.803 276.796 435.159 276.027C437.221 275.354 437.171 275.196 434.617 274.276C433.071 273.72 431.658 273.695 431.477 274.219ZM545.853 315.56C545.778 315.777 544.486 315.774 542.982 315.555C541.478 315.336 540.386 314.758 540.554 314.272C540.723 313.786 542.015 313.789 543.425 314.278C544.836 314.767 545.928 315.345 545.853 315.56ZM696.626 373.946C697.263 374.499 698.161 374.769 698.62 374.547C699.078 374.324 698.557 373.872 697.46 373.541C696.248 373.176 695.921 373.335 696.626 373.946ZM448.484 299.736C448.637 300.421 448.273 300.812 447.676 300.605C447.079 300.398 446.75 299.766 446.946 299.202C447.141 298.638 447.504 298.247 447.754 298.333C448.003 298.42 448.331 299.051 448.484 299.736ZM537.535 340.558C535.759 342.665 537.374 344.783 540.39 344.303C543.345 343.834 543.419 342.423 540.588 340.529C539.37 339.714 538.238 339.724 537.535 340.558ZM545.108 343.018C544.49 343.752 544.431 344.507 544.977 344.697C545.524 344.886 546.211 344.349 546.505 343.503C546.799 342.656 546.857 341.901 546.636 341.824C546.414 341.747 545.727 342.285 545.108 343.018ZM576.697 359.172C576.551 359.592 577.51 360.557 578.827 361.316C580.144 362.075 581.34 362.352 581.486 361.931C581.632 361.511 580.674 360.546 579.357 359.787C578.04 359.028 576.843 358.751 576.697 359.172ZM416.983 323.537C415.287 325.288 415.071 325.28 414.974 323.452C414.818 320.511 417.138 317.973 418.124 320.005C418.671 321.134 418.353 322.123 416.983 323.537ZM418.241 333.813C418.329 336.511 417.289 336.406 415.041 333.491C412.288 329.922 413.1 327.214 416.072 330.047C417.234 331.155 418.209 332.848 418.241 333.813ZM521.525 374.104C518.711 374.19 512.332 372.825 505.346 370.645C495.355 367.525 493.237 367.198 489.494 368.204C482.524 370.076 464.872 376.741 464.569 377.616C464.415 378.058 461.445 379.968 457.968 381.862C451.277 385.504 450.31 386.654 446.198 395.863C443.601 401.678 443.33 405.978 445.512 406.734C446.153 406.957 447.239 408.163 447.925 409.415C449.071 411.506 449.602 411.678 454.45 411.528C457.352 411.439 460.401 410.956 461.226 410.456C462.321 409.794 466.329 410.9 476.069 414.554L489.411 419.56L494.132 416.939C498.069 414.753 499.094 414.612 500.303 416.086C501.101 417.058 501.488 419.078 501.162 420.574C500.21 424.957 502.587 427.91 509.429 430.84C515.364 433.383 515.608 433.391 515.791 431.052C515.964 428.84 516.253 428.78 518.987 430.387C520.641 431.358 522.793 433.715 523.77 435.624C525.245 438.506 525.896 438.972 527.606 438.371C528.739 437.972 530.401 436.479 531.299 435.053C532.397 433.31 533.593 432.688 534.945 433.157C537.922 434.189 543.205 428.567 546.174 421.206C548.997 414.206 548.645 412.51 543.941 410.453C541.685 409.467 540.308 407.79 539.274 404.775L537.808 400.495L540.695 399.452C542.282 398.878 544.055 398.403 544.634 398.396C545.214 398.389 546.404 397.283 547.278 395.94C549.1 393.14 547.651 388.76 544.933 388.849C544.022 388.878 542.612 387.646 541.8 386.111C537.549 378.082 530.376 373.835 521.525 374.104ZM661.93 434.966C661.707 435.68 661.692 440.598 661.897 445.898L662.271 455.534L665.085 453.148C669.727 449.21 670.237 445.711 667.049 439.682C664.106 434.118 662.623 432.751 661.93 434.966ZM600.012 417.932C598.419 418.006 596.038 418.524 594.722 419.083C592.587 419.989 592.432 420.336 593.301 422.264C593.836 423.455 594.951 426.346 595.78 428.686C596.607 431.027 597.817 433.137 598.469 433.374C599.121 433.612 600.344 435.328 601.187 437.19C602.029 439.052 603.291 440.773 603.991 441.016C604.691 441.258 605.755 442.616 606.357 444.032C607.09 445.759 609.455 447.568 613.536 449.526C616.883 451.131 619.96 452.848 620.372 453.34C621.169 454.29 626.786 456.639 626.973 456.101C627.307 455.137 622.458 443.971 621.566 443.652C620.982 443.443 619.996 441.755 619.375 439.902C616.785 432.175 610.211 421.34 607.552 420.417C606.329 419.991 604.783 419.229 604.118 418.722C603.452 418.214 601.604 417.859 600.012 417.932ZM496.301 390.69C495.703 391.401 495.084 392.354 494.926 392.807C494.611 393.717 488.943 393.174 484.944 391.85C483.541 391.386 480.851 391.458 478.965 392.01C477.08 392.562 475.253 392.916 474.904 392.795C473.144 392.184 464.442 395.307 461.902 397.461C458.678 400.195 456.715 400.197 457.725 397.467C458.773 394.635 464.274 391.924 471.19 390.831C474.701 390.275 477.753 389.305 477.972 388.675C478.5 387.153 487.976 385.694 488.287 387.086C488.42 387.682 489.949 387.963 491.685 387.71C495.345 387.177 497.882 388.815 496.301 390.69ZM500.777 393.335C499.973 393.376 498.819 392.976 498.212 392.446C497.606 391.917 498.263 391.884 499.674 392.374C501.084 392.863 501.581 393.296 500.777 393.335ZM500.416 403.488C500.339 403.711 498.17 403.163 495.598 402.271C493.027 401.379 491.271 400.364 491.697 400.017C492.453 399.402 500.695 402.683 500.416 403.488ZM486.802 398.765C486.344 398.987 485.445 398.717 484.809 398.164C484.104 397.553 484.431 397.394 485.643 397.76C486.74 398.09 487.261 398.543 486.802 398.765ZM593.399 438.526C592.14 438.544 589.68 437.799 587.933 436.871C585.884 435.782 583.939 435.515 582.449 436.117C581.179 436.63 578.213 436.745 575.857 436.375C572.999 435.925 571.927 436.135 572.637 437.006C573.5 438.065 572.997 439.184 569.966 442.939C565.5 448.471 565.621 450.216 570.779 454.647C574.295 457.668 574.332 457.815 572.014 459.572C570.597 460.646 569.873 461.884 570.235 462.615C571.235 464.634 581.187 468.972 583.139 468.24C584.329 467.793 585.368 468.118 586.405 469.259C587.241 470.18 591.064 472.902 594.9 475.308L601.875 479.682L604.47 477.942C607.548 475.877 609.949 477.367 610.069 481.415C610.113 482.927 611.343 485.226 612.802 486.523C614.41 487.952 615.456 490.197 615.459 492.221C615.462 494.058 616.068 495.764 616.806 496.01C617.825 496.35 617.875 496.117 617.017 495.038C616.06 493.838 616.241 493.446 618.182 492.505C621.943 490.681 623.711 481.952 620.158 482.746C619.368 482.922 619.012 482.367 619.328 481.455C619.633 480.576 619.538 479.732 619.116 479.58C618.694 479.429 617.254 477.245 615.915 474.728C614.576 472.211 612.036 468.619 610.271 466.747C607.38 463.679 607.309 463.39 609.561 463.824C610.935 464.089 612.575 464.07 613.204 463.781C614.398 463.233 603.172 451.075 600.67 450.207C599.882 449.934 599.212 448.797 599.182 447.68C599.072 443.637 595.822 438.492 593.399 438.526ZM648.687 462.457C647.662 464.84 646.992 467.71 647.194 468.836C647.449 470.245 646.55 471.953 644.298 474.335C641.443 477.353 640.439 479.74 636.354 493.223C631.687 508.624 628.968 520.262 628.857 525.302C628.724 531.369 631.704 525.154 636.454 509.451C640.309 496.709 641.695 493.168 642.69 493.513C643.394 493.757 643.473 494.544 642.869 495.262C642.264 495.98 642.116 496.994 642.54 497.514C642.964 498.035 642.851 499.785 642.289 501.405C641.727 503.024 641.744 505.329 642.325 506.528C642.939 507.792 642.802 510.07 641.999 511.956C641.239 513.742 639.992 517.223 639.228 519.689C637.974 523.739 638.047 524.073 639.98 523.135C642.239 522.04 643.161 518.791 643.989 509.012C644.391 504.261 644.536 504.047 648.236 502.733C652.779 501.122 654.406 501.494 654.899 504.26C655.176 505.818 655.865 505.116 657.807 501.3C660.973 495.075 660.71 492.984 657.006 494.944C655.508 495.736 653.836 496.23 653.29 496.04C652.281 495.69 652.643 495.245 658.128 490.065C659.676 488.604 660.916 486.63 660.885 485.678C660.855 484.726 661.428 483.813 662.16 483.65C662.891 483.487 663.832 482.369 664.249 481.166C664.956 479.128 664.875 479.071 663.055 480.33C661.234 481.591 661.07 481.479 660.623 478.661C660.211 476.078 660.501 475.382 662.628 473.844C666.782 470.842 666.559 469.104 662.213 470.604C657.197 472.335 650.285 478.988 647.272 484.984C644.671 490.158 643.713 490.807 641.468 488.915C640.362 487.982 640.404 487.052 641.635 485.233C642.54 483.896 643.73 481.901 644.278 480.803C644.827 479.704 646.779 476.872 648.617 474.51C652.236 469.856 655.717 461.255 654.194 460.727C653.676 460.547 652.643 459.887 651.899 459.261C650.84 458.369 650.145 459.06 648.687 462.457ZM401.281 381.05C401.863 381.252 402.1 382.11 401.806 382.956C401.074 385.068 399.756 384.405 398.415 381.248C397.701 379.567 397.792 378.027 398.668 377.025C399.909 375.603 400.052 375.705 400.133 378.066C400.182 379.505 400.699 380.848 401.281 381.05ZM643.863 470.36C643.569 471.206 643.776 472.054 644.323 472.244C644.869 472.433 645.291 471.803 645.26 470.845C645.228 469.886 645.021 469.038 644.8 468.961C644.578 468.884 644.156 469.514 643.863 470.36ZM459.876 415.934C457.656 417.644 457.624 417.831 459.43 418.457C460.502 418.829 461.714 420.025 462.123 421.115C462.532 422.205 463.29 423.244 463.808 423.424C464.326 423.603 465.733 425.186 466.934 426.942C468.185 428.767 469.774 429.988 470.649 429.792C472.107 429.466 475.561 430.374 495.978 436.452C500.898 437.917 506.151 438.919 507.653 438.681C509.909 438.323 510.495 438.609 511.022 440.33C511.61 442.247 511.969 442.371 515.552 441.908C520.234 441.301 520.635 440.533 518.04 437.168C516.151 434.719 516.024 434.695 515.338 436.673C514.468 439.181 513.141 438.85 510.538 435.474C508.102 432.315 500.882 429.815 497.88 431.09C496.482 431.684 492.864 431.259 488.331 429.971C482.039 428.182 480.716 427.434 478.745 424.549C476.465 421.21 471.737 417.942 465.54 415.419C463.111 414.429 461.655 414.562 459.876 415.934ZM615.548 469.159C615.352 469.723 615.682 470.354 616.279 470.561C616.876 470.768 617.24 470.378 617.087 469.692C616.934 469.007 616.606 468.376 616.356 468.29C616.107 468.203 615.744 468.594 615.548 469.159ZM361.565 392.551C356.883 393.505 349.687 406.108 347.53 417.138C346.748 421.137 346.238 424.675 346.396 425.001C346.903 426.047 350.323 423.835 353.115 420.657C356.98 416.257 363.452 410.606 365.035 410.253C365.775 410.088 367.15 412.112 368.091 414.751C369.351 418.288 370.583 419.82 372.778 420.581C376.556 421.892 376.034 423.751 372.031 423.242C370.365 423.031 368.052 423.015 366.888 423.205C365.725 423.395 364.304 423.389 363.733 423.19C361.049 422.26 357.538 425.63 353.743 432.779C349.244 441.251 349.121 443.012 352.569 449.562C355.107 454.382 356.749 453.873 357.402 448.064C357.672 445.665 358.366 443.321 358.944 442.854C359.52 442.387 360.231 440.866 360.52 439.473C360.835 437.963 361.379 437.347 361.868 437.948C362.319 438.502 363.716 438.213 364.972 437.305C367.325 435.605 369.675 436.816 367.963 438.848C367.433 439.476 367.237 441.589 367.527 443.545L368.052 447.099L368.982 444.437C369.494 442.973 371.274 441.005 372.937 440.062C378.833 436.724 380.292 435.15 380.781 431.59C381.314 427.705 379.339 426.232 377.427 429.089C376.741 430.116 375.689 430.785 375.089 430.577C374.49 430.369 374.376 429.684 374.837 429.053C377.171 425.855 379.069 421.571 378.053 421.798C377.425 421.938 376.798 421.541 376.659 420.917C376.519 420.293 377.199 419.756 378.17 419.724C380.181 419.659 381.106 414.904 379.77 411.514C379.336 410.415 379.105 408.137 379.257 406.452C379.437 404.43 378.857 403.152 377.55 402.699C376.459 402.321 374.156 400.551 372.43 398.765C368.289 394.48 364.037 392.048 361.565 392.551ZM572.8 468.982C570.47 468.725 568.86 472.502 570.985 473.239C571.806 473.524 573.771 475.492 575.351 477.611C576.932 479.73 578.859 481.319 579.636 481.144C580.412 480.967 582.114 481.355 583.42 482.006C585.598 483.091 585.577 482.777 583.161 478.145C581.714 475.371 579.873 472.874 579.068 472.595C578.263 472.316 576.96 471.438 576.171 470.642C575.382 469.847 573.865 469.1 572.8 468.982ZM565.033 472.324C564.837 472.888 565.138 473.51 565.703 473.706C566.267 473.901 566.889 473.6 567.084 473.036C567.28 472.471 566.978 471.85 566.414 471.654C565.85 471.458 565.228 471.76 565.033 472.324ZM649.466 503.908C649.27 504.472 649.571 505.094 650.136 505.289C650.7 505.485 651.322 505.184 651.517 504.619C651.713 504.055 651.411 503.433 650.847 503.238C650.283 503.042 649.661 503.344 649.466 503.908ZM487.765 485.967C487.445 486.684 486.978 488.134 486.73 489.193C486.482 490.25 485.496 491.591 484.537 492.17C482.226 493.569 481.584 498.806 483.106 503.847C485.507 511.798 491.532 523.83 493.447 524.494C494.52 524.867 496.73 526.25 498.359 527.571C501.031 529.735 501.655 529.819 504.749 528.436C507.055 527.406 508.556 525.808 509.339 523.553C509.978 521.71 511.061 520.077 511.747 519.924C512.432 519.771 513.278 518.821 513.628 517.814C513.977 516.806 515.477 515.466 516.959 514.836C521.538 512.891 521.378 510.389 516.363 505.469C513.841 502.995 511.27 500.796 510.648 500.58C510.027 500.365 507.726 498.256 505.534 495.895C500.682 490.669 497.027 489.942 491.668 493.134C488.61 494.956 487.8 495.043 487.426 493.589C487.173 492.6 487.627 490.619 488.436 489.186C489.246 487.753 489.557 486.15 489.128 485.623C488.7 485.096 488.086 485.251 487.765 485.967ZM413.296 469.112C413.1 469.677 413.402 470.298 413.966 470.494C414.53 470.69 415.152 470.388 415.348 469.824C415.544 469.26 415.242 468.638 414.678 468.442C414.114 468.247 413.492 468.548 413.296 469.112ZM417.587 473.569C417.222 474.782 417.381 475.109 417.992 474.405C418.545 473.767 418.815 472.869 418.593 472.41C418.37 471.952 417.918 472.473 417.587 473.569ZM365.71 457.204C365.514 457.769 365.816 458.39 366.38 458.586C366.944 458.782 367.566 458.48 367.762 457.916C367.958 457.352 367.656 456.73 367.092 456.534C366.528 456.339 365.906 456.64 365.71 457.204ZM377.166 461.12C377.149 462.596 378.472 463.321 379.025 462.139C379.209 461.744 378.87 461.045 378.271 460.584C377.673 460.124 377.175 460.365 377.166 461.12ZM407.435 472.758C407.032 473.919 407.164 475.03 407.728 475.226C408.292 475.422 408.984 474.917 409.267 474.103C409.549 473.29 409.417 472.18 408.973 471.635C408.53 471.091 407.838 471.597 407.435 472.758ZM410.459 475.009C407.896 478.084 408.21 478.819 412.166 478.997C413.722 479.068 414.405 478.869 413.683 478.556C412.93 478.228 412.835 477.093 413.461 475.885C415.141 472.64 412.963 472.005 410.459 475.009ZM526.784 513.847C523.914 514.657 521.675 518.196 523.606 518.866C524.17 519.061 525.281 520.559 526.073 522.192C528.541 527.282 533.408 524.224 534.029 517.192C534.306 514.043 531.188 512.604 526.784 513.847ZM401.362 477.014C400.416 479.74 400.719 480.046 404.234 479.903C406.236 479.822 406.244 479.593 404.337 477.119C402.285 474.458 402.249 474.456 401.362 477.014ZM365.243 467.429C361.221 468.819 360.007 471.058 362.273 472.913C363.135 473.619 363.996 474.936 364.188 475.84C364.38 476.745 365.497 477.817 366.668 478.223C368.601 478.894 368.877 478.533 369.621 474.363C370.801 467.753 369.638 465.91 365.243 467.429ZM405.043 484.656C405.199 485.353 405.848 485.806 406.486 485.663C408.213 485.278 408.162 484.57 406.36 483.945C405.481 483.64 404.888 483.96 405.043 484.656ZM364.265 483.243C361.529 488.342 359.146 490.554 357.135 489.857C356.268 489.556 354.692 489.731 353.632 490.245C351.984 491.044 352.197 491.461 355.108 493.126C358.685 495.171 364.071 494.738 365.139 492.319C366.738 488.704 367.664 483.565 367.086 481.528C366.497 479.459 366.198 479.64 364.265 483.243ZM469.817 531.47C459.597 531.269 456.771 530.697 438.273 525.081C436.188 524.447 434.512 524.844 432.732 526.393C431.329 527.613 429.075 528.705 427.724 528.819C426.226 528.945 425.14 529.82 424.935 531.066C424.674 532.659 424.176 532.823 422.665 531.813C421.601 531.1 420.602 530.884 420.447 531.331C420.292 531.778 418.284 532.35 415.984 532.602C411.914 533.048 409.911 534.595 412.322 535.431C412.979 535.659 413.157 536.021 412.715 536.235C412.274 536.45 411.088 535.732 410.08 534.64C408.755 533.206 407.831 532.859 406.739 533.388C404.194 534.622 401.466 533.042 402.248 530.788C402.639 529.659 402.687 528.642 402.354 528.526C400.84 528.001 396.176 531.89 395.056 534.614C394.067 537.019 393.887 537.131 394.17 535.169C394.532 532.676 392.504 531.087 390.766 532.501C390.246 532.925 389.185 532.737 388.408 532.082C387.227 531.087 386.821 531.613 385.925 535.293C384.723 540.231 384.09 540.46 382.433 536.557C381.804 535.074 380.667 533.646 379.908 533.382C379.149 533.119 378.849 531.981 379.24 530.852C379.632 529.724 379.298 528.574 378.498 528.296C377.699 528.019 377.005 527.133 376.958 526.326C376.871 524.882 375.622 525.461 368.04 530.466C364.681 532.683 364.601 536.118 367.882 537.256C370.131 538.036 370.044 539.756 367.751 539.831C366.752 539.863 365.898 541.348 365.179 544.298C364.588 546.728 364.416 548.565 364.799 548.379C365.182 548.194 366.607 551.503 367.966 555.734C369.324 559.964 370.805 563.553 371.258 563.71C372.147 564.019 373.204 571.45 372.604 573.18C372.066 574.731 368.248 574.367 365.383 572.491C363.366 571.169 363.154 570.454 364.275 568.744C365.118 567.456 365.234 565.925 364.571 564.83C363.972 563.841 363.697 562.411 363.96 561.654C364.223 560.896 363.737 559.518 362.881 558.59C361.007 556.561 353.496 557.257 350.001 559.783C347.278 561.751 339.226 563.731 335.338 563.388C333.776 563.25 331.949 563.872 331.279 564.77C330.609 565.668 327.853 566.968 325.156 567.66C322.458 568.35 319.747 569.666 319.13 570.583C318.514 571.498 316.665 574.261 315.022 576.721C313.379 579.181 311.081 581.486 309.914 581.845C307.045 582.726 301.772 586.662 299.709 589.461C298.782 590.72 294.604 593.625 290.424 595.917C286.244 598.21 282.696 600.455 282.539 600.906C282.151 602.027 270.64 603.109 265.908 602.47C261.078 601.818 249.777 603.058 246.195 604.633C244.703 605.289 66.3979 651.15 64.6689 651.579C62.9396 652.009 60.6386 652.967 59.5552 653.708C58.4728 654.45 56.9692 654.842 56.2152 654.58C55.4612 654.319 54.3113 654.738 53.6591 655.512C53.0069 656.285 45.842 676.038 37.7366 699.407L22.9997 741.895L404.863 768.44L659.928 906.188L669.842 877.603C679.224 850.553 679.695 848.839 678.608 845.691C677.847 843.489 627.199 775.385 624.478 773.913C622.218 772.692 619.686 770.423 618.851 768.871C617.628 766.602 616.485 765.91 612.986 765.321C607.801 764.45 605.102 761.916 605.762 758.538C606.086 756.874 605.464 755.739 603.777 754.918C602.425 754.259 600.723 753.202 599.995 752.567C599.267 751.933 597.839 751.234 596.822 751.017C594.223 750.46 589.771 743.009 589.765 739.21C589.761 737.408 588.999 735.77 588.001 735.424C585.626 734.6 579.304 727.083 578.851 724.545C578.622 723.255 579.172 721.784 580.348 720.552C581.866 718.958 581.939 717.904 580.751 714.8C579.249 710.877 579.136 705.127 580.42 697.972C580.934 695.105 580.209 691.634 578.026 686.5C576.305 682.451 575.038 678.731 575.211 678.233C575.383 677.735 574.887 676.791 574.108 676.134C573.163 675.338 572.275 675.563 571.441 676.81C569.886 679.134 568.866 678.806 566.186 675.126C565.025 673.533 561.97 670.846 559.396 669.156C556.736 667.411 553.778 664.298 552.544 661.949C551.171 659.335 549.976 658.137 549.297 658.691C547.25 660.358 541.415 657.335 539.063 653.389C536.933 649.813 536.523 649.58 531.619 649.152C523.158 648.412 519.982 649.878 517.079 655.862C514.931 660.287 514.774 661.464 515.969 664.135C516.734 665.849 518.209 667.546 519.247 667.906C521.946 668.842 524.197 671.637 529.516 680.661C537.889 694.865 539.654 701.223 537.193 708.319C535.9 712.047 535.116 720.664 535.951 721.968C537.079 723.73 536.224 730.993 534.201 736.827C532.824 740.795 532.312 744.081 532.824 745.66C533.869 748.878 533.162 750.964 530.02 753.94C528.387 755.488 526.518 759.221 524.708 764.552C523.003 769.572 521.434 772.771 520.679 772.762C520 772.754 519.217 773.401 518.94 774.2C518.366 775.852 516.64 775.588 516.237 773.787C516.09 773.128 516.799 769.656 517.812 766.069C519.062 761.643 519.26 758.98 518.429 757.779C517.061 755.804 517.556 753.387 519.529 752.416C520.34 752.015 520.561 749.522 520.116 745.781C519.724 742.485 519.748 738.781 520.17 737.549C520.591 736.319 520.474 734.361 519.91 733.198C518.659 730.617 521.085 726.37 524.792 724.661C526.19 724.015 527.471 723.097 527.636 722.621C527.801 722.144 528.943 721.833 530.174 721.929C533.206 722.167 534.165 719.05 531.36 718.077C529.428 717.407 529.389 716.919 531.03 713.878C533.21 709.837 532.386 707.428 527.128 702.479C523.94 699.478 518.205 686.435 518.055 681.848C518.025 680.894 517.011 679.768 515.803 679.346C514.594 678.922 512.502 677.406 511.152 675.975C509.737 674.474 508.183 673.623 507.481 673.963C505.354 674.995 496.975 692.319 490.736 708.584C487.42 717.231 483.891 725.574 482.895 727.125C480.325 731.128 474.708 746.715 475.491 747.676C475.851 748.117 475.838 749.364 475.462 750.446C474.584 752.979 477.125 756.09 483.414 760.181C487.195 762.64 488.457 764.122 488.518 766.175C488.635 770.135 486.999 774.105 484.284 776.45C482.979 777.578 481.354 779.082 480.673 779.794C479.991 780.506 477.949 782.125 476.135 783.392C474.32 784.659 472.258 786.401 471.552 787.261C470.359 788.714 467.501 787.868 431.838 775.498L393.408 762.169L392.688 756.628C391.752 749.432 388.639 744.184 384.769 743.28C381.696 742.563 376.196 735.121 377.008 732.78C377.229 732.141 376.946 730.85 376.378 729.912C374.858 727.399 374.189 718.868 375.095 713.537C376.221 706.912 374.546 705.311 361.697 700.714C353.437 697.76 350.822 696.429 350.356 694.943C349.916 693.541 347.741 692.314 342.426 690.471L335.101 687.93L336.641 683.493C337.976 679.643 337.831 678.488 335.544 674.78C332.723 670.206 328.799 657.181 327.179 647.016C326.632 643.591 325.88 639.571 325.506 638.082C325.131 636.592 324.945 633.509 325.092 631.231C325.496 624.978 327.745 626.662 329.566 634.582C332.205 646.052 336.956 657.391 344.638 670.552C347.182 674.91 351.04 681.855 353.212 685.984C357.479 694.099 361.847 697.79 367.177 697.781C370.156 697.777 374.607 694.156 376.118 690.509C377.172 687.964 380.399 686.463 381.969 687.785C382.983 688.641 383.279 688.511 383.015 687.326C382.726 686.035 383.301 686.059 385.654 687.442C389.388 689.636 392.784 693.921 392.177 695.672C391.751 696.901 393.77 700.738 398.987 708.615C400.193 710.434 400.98 713.372 400.737 715.142C400.338 718.048 400.678 718.486 404.216 719.627C406.373 720.322 408.611 720.535 409.188 720.101C409.861 719.593 410.648 719.99 411.388 721.213C412.34 722.787 412.65 722.882 413.183 721.761C413.538 721.018 414.095 719.984 414.422 719.465C414.749 718.946 415.277 717.941 415.597 717.231C415.916 716.521 417.855 715.832 419.907 715.7L423.636 715.461L420.621 713.612C417.453 711.669 418.011 709.792 421.407 710.97C422.992 711.52 423.534 711.029 424.106 708.524C424.501 706.8 424.486 704.489 424.073 703.39C423.341 701.438 424.873 699.01 425.981 700.368C426.288 700.746 427.973 696.901 429.727 691.825C432.35 684.23 432.676 682.254 431.574 680.661C430.836 679.596 430.364 678.352 430.523 677.893C430.681 677.436 430.353 675.982 429.792 674.662C428.85 672.446 429.01 672.111 431.893 670.262C433.609 669.161 435.232 667.63 435.499 666.859C436.202 664.831 441.193 662.669 443.402 663.435C444.515 663.821 446.615 662.873 448.511 661.13C452.01 657.911 456.744 656.282 460.249 657.091C461.471 657.373 464.389 656.673 466.734 655.536C469.079 654.398 471.653 653.696 472.455 653.974C473.257 654.253 474.992 653.889 476.311 653.167C478.612 651.905 478.521 651.765 473.997 649.601C471.407 648.362 468.309 647.504 467.113 647.694C465.23 647.993 465.141 647.729 466.451 645.728C467.294 644.443 467.818 641.666 467.632 639.47C467.45 637.299 467.287 634.483 467.271 633.213C467.251 631.76 466.897 631.318 466.316 632.02C465.039 633.563 462.717 632.577 462.648 630.461C462.569 628.025 460.075 627.418 458.159 629.371C456.631 630.926 456.256 630.715 450.254 624.905C446.789 621.55 442.63 618.346 441.012 617.785C439.393 617.223 437.949 616.222 437.8 615.56C437.652 614.897 436.07 614.154 434.283 613.909C431.773 613.563 431.163 613.092 431.6 611.831C432.222 610.039 429.424 606.402 427.716 606.784C427.126 606.915 425.761 605.65 424.685 603.972C423.198 601.654 421.893 600.822 419.257 600.51C416.374 600.169 415.987 599.863 416.971 598.694C418.32 597.095 417.254 595.103 415.717 596.353C415.039 596.906 414.195 596.62 413.143 595.48C412.283 594.548 410.619 593.452 409.449 593.046C408.277 592.64 406.85 591.11 406.275 589.647C405.7 588.183 404.617 586.773 403.867 586.513C403.117 586.253 402.389 584.19 402.249 581.93C402.017 578.198 399.452 575.295 398.588 577.787C398.392 578.351 398.925 579.053 399.771 579.346C400.625 579.643 400.993 580.792 400.598 581.932C399.595 584.822 398.51 584.061 397.363 579.66C396.821 577.58 396.031 575.755 395.609 575.608C394.324 575.156 395.747 572.436 397.314 572.347C398.202 572.295 397.966 571.67 396.715 570.76C395.579 569.934 394.781 568.882 394.94 568.425C395.413 567.059 399.458 565.447 401.036 565.994C401.842 566.274 402.662 566.041 402.858 565.477C403.053 564.912 404.542 564.912 406.166 565.475C407.789 566.038 409.932 566.005 410.928 565.403C411.924 564.8 413.209 564.47 413.782 564.669C414.357 564.868 415.701 564.429 416.77 563.694C418.601 562.436 418.718 562.494 418.775 564.677C418.839 567.147 421.093 571.801 422.454 572.274C422.904 572.43 423.956 571.95 424.792 571.207C426.021 570.114 427.183 570.313 430.876 572.248C433.413 573.577 435.464 575.378 435.494 576.302C435.524 577.217 436.299 578.248 437.218 578.594C438.137 578.941 440.49 580.569 442.447 582.215C444.405 583.859 448.524 586.079 451.6 587.148C454.677 588.216 457.805 589.75 458.551 590.558C459.504 591.591 460.631 591.605 462.342 590.606C464.521 589.332 465.667 589.558 473.297 592.765C484.284 597.383 487.336 596.929 489.623 590.335C490.47 587.895 490.8 585.452 490.357 584.908C488.879 583.093 490.22 581.88 493.707 581.875C497.658 581.868 498.205 581.109 496.617 577.834C495.34 575.201 488.048 568.25 487.064 568.728C486.382 569.058 474.523 559.982 472.09 557.267C471.299 556.385 469.197 555.158 467.421 554.542C462.571 552.86 451.925 546.607 452.261 545.637C452.423 545.17 453.376 545.074 454.378 545.421C455.381 545.769 457.554 545.67 459.205 545.2C460.856 544.73 464.156 544.865 466.538 545.5C470.986 546.686 483.999 553.961 486.623 556.728C487.432 557.582 492.095 559.881 496.987 561.839C508.885 566.6 512.35 568.696 514.37 572.358C516.837 576.832 524.174 584.207 526.422 584.473C527.485 584.599 528.662 583.812 529.039 582.726C529.416 581.638 529.151 579.793 528.45 578.624C527.749 577.456 525.269 573.007 522.94 568.737C518.36 560.342 515.313 557.039 510.249 554.982C508.407 554.234 506.527 552.484 505.905 550.939C505.301 549.441 501.691 546.016 497.883 543.327C494.075 540.639 489.735 537.269 488.24 535.838C484.481 532.243 482.247 531.714 469.817 531.47ZM448.745 545.834C448.584 546.298 447.864 546.81 447.146 546.969C446.256 547.169 446.066 547.865 446.551 549.157C446.942 550.201 446.829 551.263 446.299 551.52C445.77 551.777 445.156 551.179 444.935 550.191C444.485 548.175 444.299 548.232 441.405 551.265L439.344 553.423L439.459 550.83C439.595 547.755 437.77 547.456 435.042 550.107C432.464 552.611 429.316 554.193 431.066 552.104C431.742 551.297 431.909 550.16 431.435 549.579C430.029 547.851 430.959 546.786 436.016 544.334C439.949 542.427 441.551 542.277 444.925 543.498C447.187 544.319 448.906 545.369 448.745 545.834ZM403.925 562.399C403.451 563.767 402.529 564.214 401.162 563.739C398.903 562.956 398.874 562.803 400.593 560.763C402.292 558.748 404.769 559.965 403.925 562.399ZM439.035 583.771C438.839 584.335 439.371 585.037 440.217 585.33C441.064 585.624 441.916 585.402 442.112 584.838C442.308 584.274 441.775 583.572 440.929 583.279C440.083 582.985 439.23 583.207 439.035 583.771ZM362.694 579.99C359.813 593.118 358.121 598.375 356.209 600.141C354.745 601.492 354.512 602.148 355.289 602.746C356.72 603.846 354.811 608.694 352.282 610.38C350.972 611.255 349.963 613.139 349.556 615.468C349.134 617.881 348.499 619.025 347.73 618.758C346.027 618.168 345.656 623.819 347.165 627.36C348.395 630.249 348.388 630.267 346.028 630.204C344.721 630.169 343.477 630.648 343.262 631.269C343.047 631.889 342.648 631.938 342.377 631.378C342.105 630.818 342.141 629.597 342.456 628.665C342.864 627.458 342.029 626.567 339.542 625.56C332.112 622.55 332.028 612.007 339.399 607.615C341.432 606.403 343.471 604.157 344.048 602.495C344.612 600.867 346.887 597.429 349.102 594.855C353.726 589.483 357.661 583.061 361.899 573.968C362.089 573.559 362.649 573.366 363.143 573.538C363.638 573.709 363.436 576.612 362.694 579.99ZM512.414 668.904C511.229 669.868 512.737 671.753 514.396 671.383C515.79 671.072 515.676 668.965 514.24 668.467C513.742 668.295 512.92 668.491 512.414 668.904ZM354.384 711.857C355.121 713.377 355.492 715.29 355.209 716.106C354.794 717.302 354.181 717.186 352.061 715.508C349.401 713.404 348.558 710.505 350.213 709.158C351.621 708.011 352.929 708.856 354.384 711.857ZM518.781 780.366L520.674 783.317L514.757 785.865C508.522 788.55 507.585 788.657 507.154 786.731C507.008 786.076 508.368 785.169 510.176 784.715C512.984 784.008 513.544 783.355 514.009 780.247C514.647 775.98 515.988 776.013 518.781 780.366ZM491.473 790.436C492.461 791.701 492.31 791.843 490.6 791.265C489.462 790.88 487.636 791.289 486.54 792.173C483.741 794.429 481.289 793.289 482.351 790.226C482.966 788.455 483.931 787.835 485.679 788.088C489.821 788.687 490.238 788.856 491.473 790.436Z" fill="black"/>
<path d="M311.316 180.396C311.316 180.396 320.764 181.765 323.6 173.588C326.082 166.434 322.076 158.175 306.746 152.857C296.184 149.194 286.409 146.567 286.409 146.567L269.866 194.263C269.866 194.263 279.168 198.253 290.07 202.034C307.105 207.942 315.364 203.937 317.964 196.442C321.509 186.221 311.197 180.736 311.197 180.736L311.316 180.396ZM300.107 164.295L302.492 165.122C304.876 165.949 305.766 167.784 305.176 169.488C304.585 171.191 302.749 172.081 300.365 171.254L297.98 170.427L300.107 164.295ZM294.324 189.769C292.962 189.297 291.599 188.824 291.599 188.824L293.962 182.01L296.688 182.956C299.413 183.901 300.303 185.736 299.594 187.78C298.885 189.824 297.05 190.715 294.324 189.769ZM360.615 199.022C358.961 203.791 354.372 206.017 350.284 204.599C346.196 203.181 343.97 198.592 345.625 193.822C347.279 189.053 351.868 186.828 355.956 188.246C360.044 189.664 362.269 194.252 360.615 199.022ZM379.693 205.639C384.538 191.671 377.417 176.988 361.746 171.552C346.074 166.116 331.391 173.237 326.546 187.205C321.702 201.173 328.822 215.856 344.494 221.292C360.165 226.728 374.848 219.607 379.693 205.639ZM419.709 217.992C419.709 217.992 429.158 219.361 431.994 211.184C434.475 204.03 430.47 195.771 415.139 190.453C404.578 186.79 394.802 184.163 394.802 184.163L378.259 231.859C378.259 231.859 387.562 235.849 398.464 239.63C415.498 245.538 423.758 241.533 426.357 234.038C429.902 223.817 419.591 218.332 419.591 218.332L419.709 217.992ZM408.5 201.891L410.885 202.718C413.27 203.545 414.16 205.38 413.569 207.084C412.978 208.787 411.143 209.677 408.758 208.85L406.373 208.023L408.5 201.891ZM402.718 227.365C401.355 226.893 399.992 226.42 399.992 226.42L402.356 219.606L405.081 220.551C407.807 221.497 408.697 223.332 407.988 225.376C407.279 227.42 405.443 228.311 402.718 227.365ZM177.29 214.922L183.907 195.843L186.632 196.789C191.743 198.561 193.745 202.691 191.5 209.164C189.255 215.637 185.125 217.639 180.015 215.867L177.29 214.922ZM210.578 215.781C215.66 201.131 209.956 188.085 191.832 181.798C180.93 178.017 171.154 175.39 171.154 175.39L154.611 223.086C154.611 223.086 163.914 227.076 174.816 230.857C192.94 237.143 205.497 230.43 210.578 215.781ZM239.31 199.029L218.869 191.939L225.059 226.91L218.678 245.307L236.394 251.452L242.775 233.055L269.29 209.428L248.849 202.338L239.353 214.311L239.31 199.029ZM289.744 216.522L272.029 210.378L255.486 258.074L291.598 270.599L297.034 254.928L278.637 248.547L289.744 216.522ZM347.344 236.501L324.177 228.465L293.666 271.317L313.426 278.17L317.152 271.829L326.01 274.901L325.009 282.188L344.769 289.041C344.769 289.041 347.318 236.797 347.344 236.501ZM322.977 261.636L329.616 250.199L327.747 263.291L322.977 261.636ZM378.805 300.847L398.565 307.7L415.108 260.005L397.393 253.86L390.066 274.982L385.809 249.842L366.05 242.989L349.507 290.685L367.222 296.829L374.548 275.707L378.805 300.847Z" fill="black"/>
<path d="M270.935 30.0273L268.102 38.1951L274.849 40.5353L269.06 57.226L278.293 60.4285L284.082 43.7378L290.83 46.0781L293.663 37.9103L270.935 30.0273ZM305.726 42.0943L296.492 38.8919L287.87 63.7503L297.104 66.9527L300.06 58.4299L305.742 60.4006L302.785 68.9235L312.019 72.126L320.641 47.2676L311.408 44.0651L308.451 52.588L302.769 50.6172L305.726 42.0943ZM328.586 67.9261L337.819 71.1286L340.282 64.0262L331.049 60.8237L331.665 59.0481L341.608 62.4969L344.072 55.3945L324.895 48.7432L316.273 73.6016L336.16 80.4993L338.623 73.3969L327.97 69.7017L328.586 67.9261ZM353.681 58.7274L350.848 66.8952L357.595 69.2354L351.806 85.9261L361.039 89.1285L366.828 72.4379L373.575 74.7782L376.408 66.6104L353.681 58.7274ZM388.471 70.7944L379.238 67.5919L370.616 92.4503L379.849 95.6528L388.471 70.7944ZM405.059 104.397L414.124 92.025L409.32 105.875L418.553 109.077L427.175 84.2187L414.036 79.6614L405.271 91.7395L405.868 76.8284L392.729 72.271L384.107 97.1294L393.34 100.332L398.143 86.4822L397.601 101.81L405.059 104.397ZM435.122 104.878L444.355 108.08L446.818 100.978L437.585 97.7754L438.201 95.9998L448.144 99.4486L450.608 92.3462L431.431 85.6949L422.809 110.553L442.696 117.451L445.159 110.349L434.506 106.653L435.122 104.878ZM455.881 114.465C452.33 113.233 450.645 110.063 450.645 110.063L445.423 114.22C445.423 114.22 447.141 119.59 454.954 122.299C461.169 124.455 466.43 121.904 467.846 117.82C470.556 110.007 460.968 106.681 461.584 104.906C461.769 104.373 462.486 104.025 463.374 104.333C465.86 105.195 467.313 107.888 467.313 107.888L472.534 103.731C472.534 103.731 470.693 98.716 464.301 96.4989C458.086 94.3434 452.825 96.8948 451.409 100.979C448.699 108.791 458.287 112.117 457.671 113.893C457.486 114.425 456.769 114.773 455.881 114.465ZM280.185 69.2227L277.352 77.3905L284.099 79.7308L278.31 96.4214L287.543 99.6239L293.332 82.9332L300.08 85.2735L302.913 77.1057L280.185 69.2227ZM314.976 81.2898L305.743 78.0873L297.12 102.946L306.354 106.148L309.31 97.6253L314.992 99.596L312.035 108.119L321.269 111.321L329.891 86.463L320.658 83.2605L317.701 91.7834L312.019 89.8126L314.976 81.2898ZM337.836 107.122L347.069 110.324L349.532 103.222L340.299 100.019L340.915 98.2435L350.858 101.692L353.322 94.5899L334.145 87.9386L325.523 112.797L345.41 119.695L347.873 112.592L337.22 108.897L337.836 107.122ZM365.054 98.6594L354.401 94.9643L357.627 113.191L354.302 122.779L363.535 125.981L366.86 116.393L380.68 104.079L370.026 100.384L365.077 106.624L365.054 98.6594ZM406.795 113.137L394.721 108.949L378.819 131.282L389.117 134.854L391.059 131.55L395.676 133.151L395.154 136.948L405.453 140.52C405.453 140.52 406.781 113.291 406.795 113.137ZM394.095 126.237L397.555 120.276L396.581 127.099L394.095 126.237ZM432.425 149.876L429.714 138.194C429.714 138.194 433.526 137.527 435.312 132.377C437.098 127.228 434.778 122.445 426.966 119.735C421.639 117.888 416.544 116.518 416.544 116.518L407.922 141.377L417.155 144.579L419.988 136.412L420.343 136.535L421.772 146.181L432.425 149.876ZM422.205 130.019L423.56 126.113L424.625 126.483C425.868 126.914 426.448 128.109 426.079 129.175C425.709 130.24 424.513 130.82 423.271 130.389L422.205 130.019ZM446.175 144.699L455.408 147.901L457.871 140.799L448.638 137.596L449.254 135.821L459.198 139.269L461.661 132.167L442.484 125.516L433.862 150.374L453.749 157.272L456.213 150.169L445.559 146.474L446.175 144.699ZM246.912 93.6692L234.838 89.4814L218.936 111.815L229.235 115.387L231.176 112.082L235.793 113.683L235.272 117.481L245.57 121.053C245.57 121.053 246.898 93.8236 246.912 93.6692ZM234.213 106.769L237.673 100.808L236.698 107.632L234.213 106.769ZM249.807 113.372L265.077 118.668L267.417 111.921L252.147 106.625L249.807 113.372ZM269.049 115.272C266.524 122.552 270.235 130.205 277.693 132.791C284.44 135.131 288.991 132.334 288.991 132.334L287.07 124.108C287.07 124.108 284.262 125.322 281.776 124.46C279.29 123.598 278.13 121.207 278.993 118.721C279.855 116.235 282.246 115.075 284.732 115.937C287.218 116.8 288.671 119.492 288.671 119.492L295.273 114.223C295.273 114.223 293.432 109.208 286.684 106.867C279.227 104.281 271.574 107.992 269.049 115.272ZM308.516 115.036L299.283 111.834L290.661 136.692L299.894 139.895L302.85 131.372L308.532 133.343L305.576 141.865L314.809 145.068L323.431 120.209L314.198 117.007L311.242 125.53L305.56 123.559L308.516 115.036ZM345.264 127.782L333.19 123.594L317.288 145.928L327.586 149.5L329.528 146.195L334.145 147.796L333.623 151.594L343.922 155.166C343.922 155.166 345.25 127.937 345.264 127.782ZM332.564 140.882L336.024 134.921L335.05 141.745L332.564 140.882ZM361.661 161.318L371.959 164.89L380.582 140.032L371.348 136.83L367.53 147.838L365.311 134.736L355.013 131.164L346.391 156.022L355.624 159.224L359.442 148.216L361.661 161.318ZM392.543 162.879C390.057 162.017 388.897 159.626 389.759 157.14C390.622 154.654 393.013 153.494 395.499 154.356C397.985 155.219 399.438 157.911 399.438 157.911L406.04 152.642C406.04 152.642 404.199 147.627 397.451 145.287C389.994 142.7 382.341 146.411 379.816 153.691C377.291 160.971 381.002 168.624 388.46 171.21C395.562 173.674 400.236 170.521 400.236 170.521L403.254 161.82L394.731 158.864L393.253 163.126C393.253 163.126 392.898 163.003 392.543 162.879ZM420.358 153.828L411.125 150.626L402.503 175.484L411.736 178.687L420.358 153.828ZM431.263 185.46L441.562 189.032L450.184 164.173L440.951 160.971L437.132 171.98L434.913 158.877L424.615 155.305L415.993 180.163L425.226 183.366L429.044 172.357L431.263 185.46Z" fill="black"/>
</g>
<rect x="221.049" y="1.64252" width="702.78" height="669.197" transform="rotate(19.1289 221.049 1.64252)" stroke="white" stroke-width="2.45727"/>
<defs>
<clipPath id="clip0_185_1211">
<rect x="220.291" y="0.0791016" width="705.237" height="671.655" transform="rotate(19.1289 220.291 0.0791016)" fill="white"/>
</clipPath>
</defs>
</svg>
