<svg width="1320" height="885" viewBox="0 0 1320 885" fill="none" xmlns="http://www.w3.org/2000/svg">
<g clip-path="url(#clip0_352_520)">
<g clip-path="url(#clip1_352_520)">
<g clip-path="url(#clip2_352_520)">
<path d="M862.578 352.134V48.8685H154.959V352.134H487.107L313.812 467.664V655.4H436.562C487.107 655.4 515.989 684.282 515.989 720.385C515.989 756.488 487.107 785.371 436.562 785.371C313.812 785.371 227.165 705.944 227.165 705.944L89.9731 922.562C89.9731 922.562 219.944 1081.42 494.327 1081.42C747.049 1081.42 905.902 922.562 905.902 763.709C905.902 525.429 660.401 482.105 660.401 482.105L862.578 352.134Z" fill="white"/>
</g>
<rect x="2.59162" y="2.59162" width="660" height="879.424" stroke="white" stroke-width="5.18325"/>
<path d="M1336.7 523.701C1336.7 523.701 1524.44 487.598 1524.44 314.304C1524.44 169.892 1380.02 25.4795 1112.86 25.4795C852.919 25.4795 722.948 184.333 722.948 184.333L860.14 400.951C860.14 400.951 961.229 321.524 1083.98 321.524C1127.3 321.524 1148.96 343.186 1148.96 372.069C1148.96 400.951 1127.3 422.613 1083.98 422.613H932.346V668.114H1063.76C1105.64 668.114 1134.52 696.996 1134.52 725.878C1134.52 754.761 1105.64 783.643 1062.32 783.643C917.905 783.643 816.816 689.775 816.816 689.775L679.625 906.394C679.625 906.394 809.596 1079.69 1127.3 1079.69C1394.46 1079.69 1538.88 935.276 1538.88 783.643C1538.88 567.025 1336.7 530.922 1336.7 530.922V523.701Z" fill="white"/>
<path d="M1336.7 523.701L1336.51 522.719L1335.7 522.875V523.701H1336.7ZM722.948 184.333L722.174 183.7L721.717 184.258L722.104 184.868L722.948 184.333ZM860.14 400.951L859.295 401.486L859.887 402.421L860.758 401.737L860.14 400.951ZM932.346 422.613V421.613H931.346V422.613H932.346ZM932.346 668.114H931.346V669.114H932.346V668.114ZM816.816 689.775L817.497 689.043L816.615 688.224L815.972 689.24L816.816 689.775ZM679.625 906.394L678.78 905.859L678.411 906.442L678.825 906.994L679.625 906.394ZM1336.7 530.922H1335.7V531.759L1336.52 531.906L1336.7 530.922ZM1336.7 523.701C1336.89 524.683 1336.89 524.683 1336.89 524.683C1336.89 524.683 1336.9 524.682 1336.9 524.681C1336.91 524.68 1336.91 524.678 1336.93 524.676C1336.95 524.671 1336.99 524.664 1337.03 524.655C1337.12 524.637 1337.26 524.609 1337.44 524.572C1337.8 524.497 1338.33 524.384 1339.03 524.23C1340.41 523.921 1342.44 523.446 1345.02 522.78C1350.17 521.448 1357.53 519.354 1366.36 516.298C1384.02 510.187 1407.56 500.226 1431.12 484.825C1478.24 454.014 1525.44 401.387 1525.44 314.304H1523.44C1523.44 400.515 1476.77 452.587 1430.02 483.151C1406.64 498.438 1383.25 508.334 1365.71 514.408C1356.94 517.444 1349.63 519.524 1344.52 520.843C1341.96 521.503 1339.96 521.973 1338.59 522.278C1337.91 522.43 1337.39 522.541 1337.04 522.613C1336.86 522.65 1336.73 522.676 1336.64 522.694C1336.6 522.703 1336.56 522.709 1336.54 522.713C1336.53 522.716 1336.52 522.717 1336.52 522.718C1336.52 522.719 1336.51 522.719 1336.51 522.719C1336.51 522.719 1336.51 522.719 1336.7 523.701ZM1525.44 314.304C1525.44 169.122 1380.33 24.4795 1112.86 24.4795V26.4795C1379.72 26.4795 1523.44 170.662 1523.44 314.304H1525.44ZM1112.86 24.4795C982.677 24.4795 885.02 64.2603 819.905 104.053C787.35 123.948 762.929 143.845 746.642 158.775C738.499 166.24 732.388 172.463 728.31 176.824C726.272 179.005 724.741 180.72 723.718 181.891C723.207 182.477 722.823 182.927 722.565 183.232C722.437 183.384 722.34 183.5 722.275 183.579C722.242 183.618 722.217 183.647 722.201 183.668C722.192 183.678 722.186 183.686 722.182 183.691C722.179 183.694 722.178 183.696 722.177 183.697C722.175 183.699 722.174 183.7 722.948 184.333C723.722 184.966 723.723 184.966 723.723 184.965C723.724 184.964 723.725 184.962 723.727 184.96C723.731 184.956 723.736 184.949 723.744 184.94C723.759 184.922 723.782 184.894 723.813 184.857C723.874 184.783 723.968 184.671 724.093 184.522C724.344 184.226 724.721 183.784 725.225 183.206C726.233 182.051 727.749 180.353 729.771 178.19C733.817 173.864 739.891 167.677 747.994 160.249C764.2 145.394 788.518 125.578 820.948 105.759C885.804 66.1253 983.104 26.4795 1112.86 26.4795V24.4795ZM722.104 184.868L859.295 401.486L860.985 400.416L723.793 183.798L722.104 184.868ZM860.14 400.951C860.758 401.737 860.758 401.737 860.759 401.737C860.759 401.736 860.76 401.736 860.762 401.734C860.764 401.732 860.769 401.729 860.774 401.724C860.786 401.715 860.804 401.701 860.828 401.683C860.876 401.645 860.948 401.589 861.044 401.515C861.237 401.367 861.525 401.146 861.908 400.857C862.673 400.279 863.813 399.43 865.309 398.349C868.302 396.185 872.717 393.092 878.4 389.378C889.767 381.95 906.203 372.043 926.467 362.136C967.006 342.317 1022.81 322.524 1083.98 322.524V320.524C1022.4 320.524 966.282 340.445 925.589 360.339C905.237 370.289 888.729 380.239 877.306 387.704C871.594 391.436 867.153 394.548 864.137 396.728C862.63 397.818 861.478 398.675 860.703 399.261C860.315 399.554 860.021 399.779 859.823 399.931C859.725 400.007 859.65 400.065 859.6 400.104C859.574 400.124 859.555 400.139 859.542 400.149C859.536 400.154 859.531 400.158 859.528 400.16C859.526 400.162 859.525 400.163 859.524 400.164C859.523 400.164 859.522 400.165 860.14 400.951ZM1083.98 322.524C1105.48 322.524 1121.48 327.901 1132.08 336.734C1142.66 345.551 1147.96 357.894 1147.96 372.069H1149.96C1149.96 357.36 1144.44 344.431 1133.36 335.197C1122.3 325.979 1105.8 320.524 1083.98 320.524V322.524ZM1147.96 372.069C1147.96 386.243 1142.66 398.586 1132.08 407.403C1121.48 416.237 1105.48 421.613 1083.98 421.613V423.613C1105.8 423.613 1122.3 418.158 1133.36 408.94C1144.44 399.706 1149.96 386.777 1149.96 372.069H1147.96ZM1083.98 421.613H932.346V423.613H1083.98V421.613ZM931.346 422.613V668.114H933.346V422.613H931.346ZM932.346 669.114H1063.76V667.114H932.346V669.114ZM1063.76 669.114C1105.22 669.114 1133.52 697.675 1133.52 725.878H1135.52C1135.52 696.317 1106.06 667.114 1063.76 667.114V669.114ZM1133.52 725.878C1133.52 754.069 1105.24 782.643 1062.32 782.643V784.643C1106.04 784.643 1135.52 755.452 1135.52 725.878H1133.52ZM1062.32 782.643C990.327 782.643 929.117 759.245 885.888 735.83C864.277 724.124 847.169 712.418 835.468 703.642C829.617 699.254 825.119 695.6 822.086 693.044C820.57 691.766 819.42 690.763 818.65 690.081C818.265 689.74 817.976 689.479 817.783 689.304C817.686 689.217 817.614 689.151 817.566 689.107C817.543 689.085 817.525 689.068 817.513 689.058C817.507 689.052 817.503 689.048 817.5 689.046C817.499 689.045 817.498 689.044 817.497 689.043C817.497 689.043 817.497 689.043 816.816 689.775C816.136 690.508 816.137 690.509 816.138 690.51C816.138 690.51 816.14 690.512 816.142 690.513C816.145 690.517 816.15 690.521 816.156 690.527C816.169 690.539 816.189 690.557 816.214 690.58C816.264 690.626 816.339 690.695 816.439 690.785C816.637 690.965 816.933 691.231 817.324 691.578C818.105 692.271 819.268 693.285 820.798 694.573C823.857 697.151 828.385 700.83 834.268 705.242C846.033 714.066 863.224 725.828 884.936 737.589C928.355 761.107 989.895 784.643 1062.32 784.643V782.643ZM815.972 689.24L678.78 905.859L680.47 906.929L817.661 690.31L815.972 689.24ZM679.625 906.394C678.825 906.994 678.826 906.995 678.827 906.997C678.828 906.998 678.83 907 678.832 907.003C678.837 907.009 678.843 907.018 678.851 907.029C678.868 907.051 678.893 907.084 678.926 907.127C678.991 907.212 679.089 907.339 679.219 907.506C679.478 907.838 679.866 908.33 680.385 908.97C681.423 910.249 682.983 912.121 685.08 914.501C689.273 919.26 695.611 926.052 704.209 934.197C721.405 950.487 747.637 972.195 783.809 993.898C856.161 1037.31 968.257 1080.69 1127.3 1080.69V1078.69C968.641 1078.69 856.899 1035.42 784.838 992.183C748.804 970.563 722.687 948.947 705.585 932.745C697.033 924.644 690.736 917.896 686.58 913.179C684.502 910.82 682.96 908.969 681.939 907.71C681.428 907.08 681.048 906.599 680.796 906.276C680.67 906.114 680.576 905.993 680.515 905.912C680.484 905.871 680.461 905.841 680.446 905.821C680.438 905.812 680.433 905.804 680.429 905.8C680.428 905.797 680.426 905.796 680.426 905.795C680.425 905.794 680.425 905.794 679.625 906.394ZM1127.3 1080.69C1394.79 1080.69 1539.88 936.033 1539.88 783.643H1537.88C1537.88 934.519 1394.14 1078.69 1127.3 1078.69V1080.69ZM1539.88 783.643C1539.88 674.96 1489.13 611.496 1438.37 575.237C1413 557.119 1387.64 545.798 1368.63 539.006C1359.12 535.61 1351.19 533.344 1345.63 531.927C1342.86 531.219 1340.67 530.722 1339.18 530.403C1338.43 530.243 1337.86 530.127 1337.47 530.051C1337.28 530.013 1337.13 529.985 1337.03 529.966C1336.98 529.957 1336.94 529.95 1336.92 529.945C1336.9 529.943 1336.89 529.941 1336.89 529.94C1336.88 529.939 1336.88 529.938 1336.88 529.938C1336.88 529.938 1336.88 529.938 1336.7 530.922C1336.52 531.906 1336.52 531.906 1336.53 531.907C1336.53 531.907 1336.53 531.907 1336.53 531.908C1336.54 531.909 1336.55 531.91 1336.56 531.912C1336.58 531.917 1336.62 531.923 1336.66 531.932C1336.76 531.95 1336.9 531.977 1337.09 532.014C1337.46 532.087 1338.03 532.201 1338.76 532.358C1340.23 532.673 1342.39 533.164 1345.14 533.865C1350.64 535.269 1358.51 537.517 1367.95 540.89C1386.85 547.636 1412.03 558.88 1437.21 576.865C1487.53 612.812 1537.88 675.708 1537.88 783.643H1539.88ZM1337.7 530.922V523.701H1335.7V530.922H1337.7Z" fill="black"/>
</g>
<rect x="2.59162" y="2.59162" width="1314.82" height="879.424" stroke="white" stroke-width="5.18325"/>
<path d="M688.68 22.76H695.64V18.2H682.44V35C682.44 35 686.04 35.24 690.12 35.24C695.4 35.24 697.8 32.84 697.8 29.72C697.8 26.6 695.4 24.2 691.32 24.2C689.88 24.2 688.68 24.32 688.68 24.32V22.76ZM690.12 28.52C690.96 28.52 691.56 29.12 691.56 29.72C691.56 30.32 690.96 30.92 690.12 30.92H688.68V28.52H690.12ZM702.113 35.96C701.897 36.56 701.393 37.04 700.793 37.04C700.313 37.04 699.953 36.8 699.953 36.8L698.633 41C698.633 41 700.073 41.96 701.753 41.96C704.753 41.96 706.433 40.28 707.873 35.96L712.433 22.28H706.433L705.353 29L704.273 22.28H698.273L702.473 35L702.113 35.96ZM727.67 22.28H721.43L719.39 27.08V22.28H713.63V35H719.39V29.96L721.79 35H728.15L724.31 28.52L727.67 22.28ZM739.058 28.4C739.058 28.4 740.858 27.8 740.858 25.88C740.858 23.96 738.938 22.04 734.858 22.04C731.378 22.04 729.098 22.28 729.098 22.28V35C729.098 35 731.378 35.24 734.978 35.24C739.658 35.24 741.578 33.32 741.578 31.4C741.578 29.12 739.058 28.52 739.058 28.52V28.4ZM734.618 31.64V30.2H734.978C735.458 30.2 735.818 30.56 735.818 30.92C735.818 31.28 735.458 31.64 734.978 31.64H734.618ZM734.618 25.64C735.218 25.64 735.578 26 735.578 26.36C735.578 26.72 735.218 27.08 734.618 27.08V25.64ZM748.895 21.92C745.655 21.92 743.855 23.84 743.855 23.84L745.895 27.08C745.895 27.08 746.855 26.12 748.055 26.12C749.975 26.12 750.215 27.44 750.215 27.44H748.295C744.215 27.44 742.535 29.12 742.535 31.4C742.535 33.68 744.215 35.36 746.855 35.36C749.015 35.36 749.975 33.56 749.975 33.56L750.455 35H755.975C755.975 33.128 755.975 30.704 755.975 28.64C755.975 24.92 752.975 21.92 748.895 21.92ZM749.015 31.52C748.655 31.52 748.295 31.16 748.295 30.8C748.295 30.08 748.895 29.48 750.215 29.48C750.215 30.92 749.615 31.52 749.015 31.52Z" fill="white"/>
<path d="M40.52 29.72V18.2H34.28V29.72H30.68V18.2H24.44V35H36.2V38.12H42.44V29.72H40.52ZM49.8875 35L52.0475 29.48V35H57.8075V22.28H51.8075L49.6475 27.8V22.28H43.8875V35H49.8875ZM76.28 28.64C76.28 29.84 75.68 30.44 74.96 30.44C74.24 30.44 73.64 29.84 73.64 28.64C73.64 27.44 74.24 26.84 74.96 26.84C75.68 26.84 76.28 27.44 76.28 28.64ZM68.12 17.24V23.72C68.12 23.72 67.16 21.92 64.76 21.92C62.12 21.92 59.72 24.32 59.72 28.64C59.72 32.96 62.12 35.36 64.76 35.36C67.16 35.36 68.12 33.56 68.12 33.56V41H73.88V33.56C73.88 33.56 74.84 35.36 77.24 35.36C79.88 35.36 82.28 32.96 82.28 28.64C82.28 24.32 79.88 21.92 77.24 21.92C74.84 21.92 73.88 23.72 73.88 23.72V17.24H68.12ZM65.72 28.64C65.72 27.44 66.32 26.84 67.04 26.84C67.76 26.84 68.36 27.44 68.36 28.64C68.36 29.84 67.76 30.44 67.04 30.44C66.32 30.44 65.72 29.84 65.72 28.64ZM98.36 28.64C98.36 24.32 95.96 21.92 93.32 21.92C90.92 21.92 89.96 23.72 89.96 23.72C89.96 23.72 89.96 23.72 89.48 22.28H84.2V41H89.96V33.56C89.96 33.56 90.92 35.36 93.32 35.36C95.96 35.36 98.36 32.96 98.36 28.64ZM92.36 28.64C92.36 29.84 91.76 30.44 91.04 30.44C90.32 30.44 89.72 29.84 89.72 28.64C89.72 27.44 90.32 26.84 91.04 26.84C91.76 26.84 92.36 27.44 92.36 28.64ZM105.918 21.92C102.678 21.92 100.878 23.84 100.878 23.84L102.918 27.08C102.918 27.08 103.878 26.12 105.078 26.12C106.998 26.12 107.238 27.44 107.238 27.44H105.318C101.238 27.44 99.5581 29.12 99.5581 31.4C99.5581 33.68 101.238 35.36 103.878 35.36C106.038 35.36 106.998 33.56 106.998 33.56L107.478 35H112.998C112.998 33.128 112.998 30.704 112.998 28.64C112.998 24.92 109.998 21.92 105.918 21.92ZM106.038 31.52C105.678 31.52 105.318 31.16 105.318 30.8C105.318 30.08 105.918 29.48 107.238 29.48C107.238 30.92 106.638 31.52 106.038 31.52Z" fill="white"/>
</g>
<defs>
<clipPath id="clip0_352_520">
<rect width="1320" height="885" fill="white"/>
</clipPath>
<clipPath id="clip1_352_520">
<rect width="1320" height="884.607" fill="white"/>
</clipPath>
<clipPath id="clip2_352_520">
<rect width="665.183" height="884.607" fill="white"/>
</clipPath>
</defs>
</svg>
