<svg width="786" height="757" viewBox="0 0 786 757" fill="none" xmlns="http://www.w3.org/2000/svg">
<g clip-path="url(#clip0_368_154)">
<rect y="89.9204" width="705.75" height="672.143" transform="rotate(-7.32 0 89.9204)" fill="white"/>
<path d="M212.001 131.216L213.503 130.559L213.011 129.434L211.792 129.59L212.001 131.216ZM257.843 235.93L258.052 237.556L260.223 237.277L259.345 235.273L257.843 235.93ZM212.766 241.721L211.213 242.244L211.642 243.518L212.975 243.347L212.766 241.721ZM207.661 226.576L209.214 226.053L208.785 224.779L207.452 224.95L207.661 226.576ZM187.454 229.172L187.245 227.546L185.912 227.717L185.818 229.058L187.454 229.172ZM186.342 245.115L186.55 246.741L187.884 246.57L187.977 245.229L186.342 245.115ZM141.264 250.906L139.645 250.649L139.303 252.811L141.473 252.532L141.264 250.906ZM159.152 138.005L158.943 136.379L157.725 136.536L157.533 137.749L159.152 138.005ZM188.922 203.703L187.286 203.597L187.158 205.582L189.131 205.329L188.922 203.703ZM199.803 202.305L200.012 203.931L201.984 203.678L201.359 201.79L199.803 202.305ZM190.768 175.025L192.325 174.51L189.132 174.92L190.768 175.025ZM210.5 131.874L256.342 236.588L259.345 235.273L213.503 130.559L210.5 131.874ZM257.635 234.304L212.557 240.095L212.975 243.347L258.052 237.556L257.635 234.304ZM214.32 241.197L209.214 226.053L206.107 227.1L211.213 242.244L214.32 241.197ZM207.452 224.95L187.245 227.546L187.663 230.798L207.87 228.202L207.452 224.95ZM185.818 229.058L184.706 245.001L187.977 245.229L189.089 229.286L185.818 229.058ZM186.133 243.489L141.056 249.28L141.473 252.532L186.55 246.741L186.133 243.489ZM142.884 251.162L160.771 138.262L157.533 137.749L139.645 250.649L142.884 251.162ZM159.361 139.631L212.21 132.842L211.792 129.59L158.943 136.379L159.361 139.631ZM189.131 205.329L200.012 203.931L199.594 200.679L188.713 202.077L189.131 205.329ZM201.359 201.79L192.325 174.51L189.212 175.54L198.247 202.82L201.359 201.79ZM189.132 174.92L187.286 203.597L190.558 203.808L192.404 175.13L189.132 174.92ZM335.874 167.445L335.226 165.939L334.09 166.428L334.248 167.654L335.874 167.445ZM335.974 168.222L334.348 168.431L334.529 169.842L335.951 169.862L335.974 168.222ZM338.696 168.505L338.429 170.122L338.519 170.137L338.611 170.142L338.696 168.505ZM344.902 170.078L344.385 171.633L344.419 171.645L344.454 171.654L344.902 170.078ZM353.118 173.762L352.218 175.133L352.237 175.145L352.257 175.158L353.118 173.762ZM360.043 180.931L358.682 181.845L358.698 181.869L358.715 181.893L360.043 180.931ZM354.488 216.405L353.408 215.171L353.401 215.177L354.488 216.405ZM292.729 232.555L292.585 230.922L292.574 230.923L292.563 230.924L292.729 232.555ZM274.909 234.054L274.825 232.417L274.803 232.418L274.781 232.42L274.909 234.054ZM268.651 234.542L267.025 234.751L267.224 236.297L268.779 236.176L268.651 234.542ZM254.674 125.735L254.35 124.128L252.854 124.43L253.048 125.944L254.674 125.735ZM352.228 152.072L350.688 151.509L350.68 151.532L350.672 151.555L352.228 152.072ZM348.092 159.24L346.921 158.093L346.921 158.093L348.092 159.24ZM342.685 163.884L341.743 162.543L341.743 162.543L342.685 163.884ZM337.97 166.544L337.401 165.007L337.361 165.021L337.323 165.038L337.97 166.544ZM298.483 146.968L298.274 145.342L296.648 145.551L296.857 147.177L298.483 146.968ZM300.28 160.957L298.654 161.166L298.863 162.792L300.489 162.583L300.28 160.957ZM311.678 157.439L312.901 158.531L312.901 158.531L311.678 157.439ZM310.4 147.491L309.493 148.857L309.493 148.857L310.4 147.491ZM303.674 187.382L303.465 185.756L301.839 185.965L302.048 187.591L303.674 187.382ZM305.671 202.926L304.045 203.135L304.254 204.761L305.88 204.552L305.671 202.926ZM334.248 167.654L334.348 168.431L337.6 168.014L337.5 167.236L334.248 167.654ZM335.951 169.862C336.579 169.871 337.399 169.952 338.429 170.122L338.963 166.887C337.841 166.702 336.846 166.595 335.997 166.583L335.951 169.862ZM338.611 170.142C339.525 170.19 341.395 170.639 344.385 171.633L345.419 168.522C342.467 167.54 340.2 166.942 338.781 166.868L338.611 170.142ZM344.454 171.654C347.371 172.484 349.955 173.647 352.218 175.133L354.017 172.392C351.449 170.706 348.556 169.412 345.351 168.501L344.454 171.654ZM352.257 175.158C354.397 176.477 356.549 178.669 358.682 181.845L361.404 180.017C359.109 176.599 356.644 174.011 353.979 172.367L352.257 175.158ZM358.715 181.893C360.841 184.826 362.184 188.326 362.712 192.438L365.964 192.021C365.374 187.429 363.854 183.396 361.37 179.969L358.715 181.893ZM362.712 192.438C363.833 201.163 360.809 208.699 353.408 215.171L355.567 217.639C363.696 210.53 367.24 201.948 365.964 192.021L362.712 192.438ZM353.401 215.177C346.115 221.623 333.518 226.136 315.274 228.48L315.691 231.732C334.13 229.363 347.537 224.743 355.574 217.633L353.401 215.177ZM315.274 228.48C307.939 229.422 300.376 230.236 292.585 230.922L292.872 234.188C300.705 233.499 308.311 232.68 315.691 231.732L315.274 228.48ZM292.563 230.924C284.772 231.714 278.865 232.211 274.825 232.417L274.992 235.691C279.115 235.481 285.088 234.978 292.894 234.186L292.563 230.924ZM274.781 232.42L268.524 232.907L268.779 236.176L275.036 235.688L274.781 232.42ZM270.277 234.333L256.3 125.526L253.048 125.944L267.025 234.751L270.277 234.333ZM254.998 127.342C269.331 124.45 284.51 121.975 300.538 119.916L300.12 116.664C284.023 118.732 268.766 121.219 254.35 124.128L254.998 127.342ZM300.538 119.916C316.881 117.817 329.124 119.127 337.5 123.556L339.032 120.658C329.778 115.764 316.73 114.53 300.12 116.664L300.538 119.916ZM337.5 123.556C345.911 128.004 350.505 134.311 351.56 142.52L354.812 142.102C353.603 132.694 348.251 125.532 339.032 120.658L337.5 123.556ZM351.56 142.52C351.983 145.814 351.679 148.799 350.688 151.509L353.767 152.635C354.959 149.376 355.294 145.855 354.812 142.102L351.56 142.52ZM350.672 151.555C349.744 154.345 348.479 156.501 346.921 158.093L349.264 160.386C351.244 158.364 352.735 155.742 353.783 152.589L350.672 151.555ZM346.921 158.093C345.213 159.837 343.486 161.318 341.743 162.543L343.627 165.226C345.554 163.872 347.433 162.257 349.264 160.386L346.921 158.093ZM341.743 162.543C339.961 163.794 338.521 164.592 337.401 165.007L338.539 168.081C340.034 167.528 341.737 166.553 343.627 165.226L341.743 162.543ZM337.323 165.038L335.226 165.939L336.521 168.951L338.618 168.05L337.323 165.038ZM296.857 147.177L298.654 161.166L301.906 160.748L300.109 146.759L296.857 147.177ZM300.489 162.583L305.929 161.884L305.511 158.632L300.071 159.331L300.489 162.583ZM305.929 161.884C308.806 161.515 311.194 160.442 312.901 158.531L310.455 156.347C309.399 157.53 307.815 158.336 305.511 158.632L305.929 161.884ZM312.901 158.531C314.583 156.648 315.313 154.421 314.997 151.957L311.745 152.374C311.934 153.848 311.536 155.137 310.455 156.347L312.901 158.531ZM314.997 151.957C314.68 149.493 313.41 147.523 311.307 146.125L309.493 148.857C310.845 149.754 311.555 150.901 311.745 152.374L314.997 151.957ZM311.307 146.125C309.173 144.708 306.591 144.273 303.714 144.643L304.132 147.895C306.436 147.599 308.173 147.979 309.493 148.857L311.307 146.125ZM303.714 144.643L298.274 145.342L298.692 148.594L304.132 147.895L303.714 144.643ZM312.097 203.753C315.392 203.33 318.078 202.293 319.835 200.401C321.643 198.454 322.218 195.875 321.842 192.948L318.59 193.366C318.88 195.62 318.401 197.127 317.432 198.17C316.413 199.268 314.603 200.126 311.68 200.501L312.097 203.753ZM321.842 192.948C321.466 190.021 320.258 187.672 318.017 186.245C315.838 184.858 312.977 184.534 309.683 184.957L310.101 188.209C313.024 187.834 314.992 188.206 316.256 189.011C317.456 189.775 318.301 191.112 318.59 193.366L321.842 192.948ZM309.683 184.957L303.465 185.756L303.883 189.008L310.101 188.209L309.683 184.957ZM302.048 187.591L304.045 203.135L307.297 202.717L305.3 187.173L302.048 187.591ZM305.88 204.552L312.097 203.753L311.68 200.501L305.462 201.3L305.88 204.552ZM449.417 152.86L448.769 151.354L447.633 151.842L447.791 153.069L449.417 152.86ZM449.517 153.637L447.891 153.846L448.072 155.256L449.494 155.276L449.517 153.637ZM452.239 153.919L451.972 155.537L452.062 155.552L452.154 155.556L452.239 153.919ZM458.445 155.492L457.928 157.048L457.962 157.059L457.997 157.069L458.445 155.492ZM466.661 159.177L465.761 160.547L465.781 160.56L465.8 160.572L466.661 159.177ZM473.586 166.345L472.225 167.259L472.241 167.284L472.258 167.307L473.586 166.345ZM468.031 201.82L466.951 200.586L466.944 200.592L468.031 201.82ZM406.272 217.969L406.128 216.336L406.117 216.337L406.106 216.338L406.272 217.969ZM388.452 219.469L388.368 217.831L388.346 217.832L388.324 217.834L388.452 219.469ZM382.194 219.956L380.568 220.165L380.767 221.712L382.322 221.591L382.194 219.956ZM368.217 111.149L367.893 109.542L366.397 109.844L366.591 111.358L368.217 111.149ZM465.771 137.487L464.231 136.924L464.223 136.946L464.215 136.969L465.771 137.487ZM461.635 144.654L460.464 143.507L460.464 143.507L461.635 144.654ZM456.228 149.299L455.286 147.957L455.286 147.957L456.228 149.299ZM451.513 151.958L450.944 150.421L450.905 150.436L450.866 150.452L451.513 151.958ZM412.026 132.382L411.817 130.756L410.191 130.965L410.4 132.591L412.026 132.382ZM413.823 146.372L412.197 146.581L412.406 148.207L414.032 147.998L413.823 146.372ZM425.221 142.854L426.444 143.946L426.444 143.946L425.221 142.854ZM423.943 132.906L423.036 134.271L423.036 134.271L423.943 132.906ZM417.217 172.796L417.008 171.17L415.382 171.379L415.591 173.005L417.217 172.796ZM419.214 188.34L417.588 188.549L417.797 190.175L419.423 189.966L419.214 188.34ZM447.791 153.069L447.891 153.846L451.143 153.428L451.043 152.651L447.791 153.069ZM449.494 155.276C450.122 155.285 450.942 155.367 451.972 155.537L452.506 152.302C451.384 152.116 450.389 152.01 449.54 151.998L449.494 155.276ZM452.154 155.556C453.069 155.604 454.938 156.054 457.928 157.048L458.963 153.936C456.01 152.955 453.743 152.356 452.325 152.282L452.154 155.556ZM457.997 157.069C460.914 157.899 463.498 159.062 465.761 160.547L467.56 157.806C464.992 156.121 462.099 154.827 458.894 153.915L457.997 157.069ZM465.8 160.572C467.94 161.892 470.092 164.083 472.225 167.259L474.947 165.431C472.652 162.014 470.187 159.426 467.522 157.782L465.8 160.572ZM472.258 167.307C474.384 170.24 475.727 173.74 476.255 177.853L479.507 177.435C478.917 172.843 477.397 168.811 474.913 165.383L472.258 167.307ZM476.255 177.853C477.376 186.578 474.352 194.113 466.951 200.586L469.11 203.054C477.239 195.944 480.783 187.363 479.507 177.435L476.255 177.853ZM466.944 200.592C459.658 207.038 447.061 211.551 428.817 213.895L429.235 217.147C447.673 214.778 461.08 210.157 469.117 203.048L466.944 200.592ZM428.817 213.895C421.482 214.837 413.919 215.651 406.128 216.336L406.415 219.603C414.248 218.913 421.854 218.095 429.235 217.147L428.817 213.895ZM406.106 216.338C398.315 217.129 392.408 217.625 388.368 217.831L388.535 221.106C392.659 220.895 398.631 220.392 406.437 219.6L406.106 216.338ZM388.324 217.834L382.067 218.322L382.322 221.591L388.579 221.103L388.324 217.834ZM383.82 219.747L369.843 110.94L366.591 111.358L380.568 220.165L383.82 219.747ZM368.541 112.756C382.874 109.865 398.054 107.389 414.081 105.331L413.663 102.079C397.566 104.146 382.309 106.634 367.893 109.542L368.541 112.756ZM414.081 105.331C430.424 103.231 442.667 104.542 451.043 108.971L452.575 106.072C443.321 101.179 430.273 99.9448 413.663 102.079L414.081 105.331ZM451.043 108.971C459.454 113.418 464.048 119.726 465.103 127.934L468.355 127.517C467.146 118.109 461.794 110.947 452.575 106.072L451.043 108.971ZM465.103 127.934C465.526 131.228 465.222 134.214 464.231 136.924L467.31 138.05C468.502 134.791 468.837 131.269 468.355 127.517L465.103 127.934ZM464.215 136.969C463.288 139.759 462.022 141.915 460.464 143.507L462.807 145.801C464.787 143.778 466.278 141.156 467.326 138.004L464.215 136.969ZM460.464 143.507C458.756 145.252 457.03 146.733 455.286 147.957L457.17 150.64C459.098 149.287 460.976 147.671 462.807 145.801L460.464 143.507ZM455.286 147.957C453.504 149.208 452.064 150.007 450.944 150.421L452.082 153.496C453.577 152.943 455.28 151.968 457.17 150.64L455.286 147.957ZM450.866 150.452L448.769 151.354L450.065 154.366L452.161 153.465L450.866 150.452ZM410.4 132.591L412.197 146.581L415.449 146.163L413.652 132.173L410.4 132.591ZM414.032 147.998L419.472 147.299L419.054 144.047L413.614 144.746L414.032 147.998ZM419.472 147.299C422.349 146.929 424.737 145.857 426.444 143.946L423.998 141.762C422.942 142.944 421.358 143.751 419.054 144.047L419.472 147.299ZM426.444 143.946C428.126 142.062 428.856 139.835 428.54 137.371L425.288 137.789C425.477 139.263 425.079 140.551 423.998 141.762L426.444 143.946ZM428.54 137.371C428.223 134.907 426.954 132.937 424.85 131.54L423.036 134.271C424.388 135.169 425.098 136.315 425.288 137.789L428.54 137.371ZM424.85 131.54C422.716 130.122 420.134 129.688 417.257 130.057L417.675 133.31C419.979 133.014 421.716 133.394 423.036 134.271L424.85 131.54ZM417.257 130.057L411.817 130.756L412.235 134.008L417.675 133.31L417.257 130.057ZM425.64 189.168C428.935 188.744 431.621 187.708 433.378 185.816C435.186 183.869 435.761 181.29 435.385 178.363L432.133 178.781C432.423 181.035 431.944 182.542 430.975 183.585C429.956 184.682 428.146 185.54 425.223 185.916L425.64 189.168ZM435.385 178.363C435.009 175.436 433.801 173.086 431.56 171.659C429.381 170.272 426.52 169.949 423.226 170.372L423.644 173.624C426.567 173.248 428.535 173.621 429.799 174.425C430.999 175.189 431.844 176.526 432.133 178.781L435.385 178.363ZM423.226 170.372L417.008 171.17L417.426 174.422L423.644 173.624L423.226 170.372ZM415.591 173.005L417.588 188.549L420.84 188.131L418.843 172.588L415.591 173.005ZM419.423 189.966L425.64 189.168L425.223 185.916L419.005 186.714L419.423 189.966ZM558.702 86.68L560.204 86.0225L559.712 84.8975L558.494 85.054L558.702 86.68ZM604.545 191.394L604.753 193.02L606.924 192.741L606.046 190.736L604.545 191.394ZM559.467 197.184L557.914 197.708L558.343 198.982L559.676 198.81L559.467 197.184ZM554.362 182.04L555.915 181.516L555.486 180.243L554.153 180.414L554.362 182.04ZM534.155 184.636L533.946 183.009L532.613 183.181L532.519 184.521L534.155 184.636ZM533.043 200.579L533.252 202.205L534.585 202.034L534.678 200.693L533.043 200.579ZM487.966 206.369L486.346 206.113L486.004 208.274L488.174 207.995L487.966 206.369ZM505.853 93.4689L505.644 91.8429L504.426 91.9993L504.234 93.2123L505.853 93.4689ZM535.623 159.166L533.987 159.061L533.859 161.046L535.832 160.792L535.623 159.166ZM546.504 157.769L546.713 159.395L548.685 159.141L548.06 157.253L546.504 157.769ZM537.469 130.488L539.026 129.973L535.833 130.383L537.469 130.488ZM557.201 87.3374L603.043 192.051L606.046 190.736L560.204 86.0225L557.201 87.3374ZM604.336 189.768L559.258 195.558L559.676 198.81L604.753 193.02L604.336 189.768ZM561.021 196.661L555.915 181.516L552.808 182.563L557.914 197.708L561.021 196.661ZM554.153 180.414L533.946 183.009L534.364 186.262L554.571 183.666L554.153 180.414ZM532.519 184.521L531.407 200.465L534.678 200.693L535.79 184.75L532.519 184.521ZM532.834 198.953L487.757 204.743L488.174 207.995L533.252 202.205L532.834 198.953ZM489.585 206.626L507.472 93.7254L504.234 93.2123L486.346 206.113L489.585 206.626ZM506.062 95.0949L558.911 88.306L558.494 85.054L505.644 91.8429L506.062 95.0949ZM535.832 160.792L546.713 159.395L546.295 156.143L535.414 157.54L535.832 160.792ZM548.06 157.253L539.026 129.973L535.913 131.004L544.948 158.284L548.06 157.253ZM535.833 130.383L533.987 159.061L537.259 159.272L539.105 130.594L535.833 130.383Z" fill="black"/>
<path d="M405.083 174.215L437.511 248.289L405.624 252.385L402.013 241.672L387.718 243.508L386.932 254.786L355.044 258.882L367.698 179.018L405.083 174.215ZM388.757 225.491L396.454 224.503L390.063 205.205L388.757 225.491ZM466.542 187.557L467.46 194.704C471.078 193.867 475.086 193.165 479.484 192.6C488.574 191.433 496.101 192.888 502.064 196.965C508.027 201.042 511.48 206.746 512.421 214.077C513.391 221.627 511.209 228.129 505.874 233.583C500.529 238.964 492.066 242.399 480.484 243.886C474.913 244.602 469.181 245.227 463.289 245.76C457.405 246.367 452.91 246.758 449.803 246.934L445.157 247.307L435.27 170.338L495.745 162.569L498.429 183.461L466.542 187.557ZM476.529 213.099L469.932 213.946L471.344 224.942L477.942 224.094C479.774 223.859 481.243 223.111 482.348 221.852C483.517 220.509 484.012 219.142 483.833 217.749C483.654 216.356 482.834 215.195 481.373 214.265C479.976 213.252 478.362 212.863 476.529 213.099ZM545.68 177.391L546.598 184.538C550.216 183.701 554.225 182.999 558.623 182.435C567.713 181.267 575.239 182.722 581.202 186.799C587.166 190.876 590.618 196.58 591.56 203.911C592.53 211.461 590.347 217.963 585.012 223.418C579.668 228.798 571.204 232.233 559.622 233.721C554.051 234.436 548.319 235.061 542.427 235.594C536.544 236.201 532.049 236.592 528.942 236.768L524.295 237.141L514.408 160.172L574.884 152.403L577.567 173.295L545.68 177.391ZM555.667 202.933L549.07 203.78L550.483 214.776L557.08 213.928C558.913 213.693 560.381 212.946 561.486 211.686C562.655 210.344 563.15 208.976 562.971 207.583C562.792 206.19 561.972 205.029 560.512 204.099C559.115 203.086 557.5 202.697 555.667 202.933ZM647.974 143.014L680.403 217.088L648.516 221.184L644.904 210.471L630.61 212.307L629.823 223.585L597.936 227.681L610.589 147.816L647.974 143.014ZM631.648 194.29L639.345 193.301L632.954 174.004L631.648 194.29Z" fill="black"/>
<rect x="34.7773" y="360.652" width="705.75" height="399.187" transform="rotate(-7.32 34.7773 360.652)" fill="black"/>
<path fill-rule="evenodd" clip-rule="evenodd" d="M342.762 322.002C342.456 322.206 342.022 329.587 341.797 338.404C341.351 355.912 340.307 392.944 339.76 410.626C339.501 419.032 339.648 421.835 340.354 421.936C340.871 422.01 342.964 421.778 345.005 421.42L348.715 420.77L348.846 414.025C348.919 410.316 349.092 406.941 349.232 406.526C349.421 405.967 351.331 405.576 356.604 405.018L363.721 404.266L364.607 407.235C365.094 408.869 365.984 412.124 366.585 414.469C367.186 416.813 367.938 418.483 368.259 418.178C368.578 417.873 368.835 414.481 368.829 410.639C368.823 406.797 368.96 403.437 369.135 403.172C369.688 402.331 382.928 400.869 383.44 401.592C383.69 401.946 384.738 405.217 385.77 408.862L387.645 415.489L392.342 414.885L397.04 414.282L395.88 410.366C395.243 408.212 393.239 401.721 391.426 395.941C389.615 390.161 386.044 378.51 383.491 370.05C377.175 349.113 367.872 319.102 367.663 318.989C367.25 318.765 343.262 321.667 342.762 322.002ZM533.271 297.505C528.215 299.372 521.522 303.776 519.032 306.873C513.254 314.06 513.146 318.446 517.937 351.098C521.997 378.766 522.75 381.601 527.393 386.683C530.52 390.106 534.607 392.184 541.31 393.759C545.776 394.808 547.621 394.938 551.306 394.465C563.016 392.961 573.16 383.671 574.287 373.418C574.927 367.605 567.312 314.644 565.287 310.816C561.486 303.633 555.914 299.615 547.166 297.748C540.996 296.431 536.396 296.351 533.271 297.505ZM699.034 276.805C690.972 280.037 684.845 285.648 683.145 291.356C682.648 293.025 682.417 297.035 682.631 300.266C683.447 312.561 688.93 317.915 709.999 326.997C719.713 331.184 725.522 334.313 728.998 337.229C731.97 339.723 732.278 340.283 733.162 344.776C734.107 349.585 734.096 349.647 732 351.607C729.309 354.123 725.599 354.742 722.483 353.195C719.747 351.837 718.228 347.758 716.935 338.289L716.351 334.019L709.776 334.864L703.2 335.709L706.183 337.988C711.508 342.057 712.398 343.385 713.075 348.268C713.627 352.251 713.514 352.948 712.08 354.375C710.017 356.427 707.255 357.299 704.331 356.821C700.291 356.16 699.183 354.246 697.556 345.124L696.089 336.902L691.877 337.444L687.664 337.985L689.119 347.609C690.722 358.216 691.978 361.947 695.095 365.365C699.379 370.061 709.339 373.308 717.999 372.833C723.837 372.513 729.645 370.156 734.299 366.218C741.07 360.488 743.051 354.21 741.629 342.993C740.609 334.955 739.336 331.622 735.621 327.275C731.231 322.136 725.137 318.914 702.156 309.58C695.329 306.807 692.692 305.107 691.201 302.516C689.004 298.695 691.248 295.196 696.314 294.546C702.11 293.801 704.457 296.071 705.397 303.33L705.915 307.328L712.515 306.48L719.115 305.633L716.024 303.758C714.323 302.727 712.523 301.302 712.022 300.591C708.7 295.873 713.201 290.548 719.623 291.598C722.888 292.132 724.486 294.208 725.698 299.49L726.753 304.091L730.555 303.602L734.358 303.114L733.039 295.575C731.961 289.418 731.32 287.478 729.54 284.997C725.826 279.819 717.732 276.032 708.864 275.323C703.642 274.905 703.853 274.873 699.034 276.805ZM168.952 394.192L175.265 443.331L190.937 441.318C209.2 438.972 212.279 438.031 218.252 432.977C226.048 426.38 227.774 418.412 224.983 401.905C222.923 389.724 221.495 386.587 216.967 384.293L214.068 382.825L216.156 380.611C218.888 377.715 219.284 375.572 218.752 366.544C218.211 357.351 216.422 351.474 213.031 347.749C210.171 344.609 207.21 343.16 201.17 341.948C196.931 341.097 196.169 341.136 179.707 343.059L162.64 345.052L168.952 394.192ZM255.514 383.153L261.823 432.265L266.589 431.487L271.355 430.707L268.58 409.106C267.054 397.226 266.026 387.299 266.295 387.047C267.158 386.239 273.903 386.415 275.515 387.288C278.452 388.879 279.176 391.653 281.633 410.746L284.028 429.36L287.858 428.868L291.688 428.376L288.854 406.314L286.02 384.253L289.795 383.768C293.664 383.271 295.133 383.666 297.317 385.789C298.118 386.568 299.233 392.329 301.357 406.67L304.291 426.476L308.75 426.072L313.208 425.668L310.199 404.021C306.787 379.473 306.855 379.657 300.085 377.028C297.273 375.935 296.856 375.586 297.903 375.196C300.202 374.341 303.897 370.615 305.229 367.811C306.419 365.303 306.403 364.132 305.034 353.498C303.631 342.603 303.411 341.738 301.314 338.906C297.123 333.245 290.237 330.487 280.577 330.597C277.857 330.628 269.686 331.416 262.418 332.347L249.205 334.04L255.514 383.153ZM379.088 326.886L380.292 336.262L386.803 335.426C392.55 334.688 393.298 334.474 393.186 333.601C393.049 332.535 389.476 320.829 388.417 317.979L387.771 316.24L382.828 316.875L377.883 317.51L379.088 326.886ZM397.468 324.507L398.67 333.866L407.69 332.865L416.71 331.865L421.993 371.432L427.275 410.999L434.718 409.882L442.16 408.766L437.094 369.331L432.029 329.897L439.093 328.828L446.158 327.759L445.749 324.609C445.525 322.877 444.759 318.696 444.048 315.318L442.754 309.177L419.51 312.163L396.266 315.149L397.468 324.507ZM449.554 317.834L450.759 327.21L456.503 326.472L462.248 325.734L461.044 316.358L459.839 306.982L454.095 307.72L448.35 308.458L449.554 317.834ZM470.879 344.438C473.581 365.472 476.645 387.527 477.688 393.451L479.583 404.22L486.527 403.164L493.47 402.107L491.431 386.284C490.309 377.582 487.396 355.581 484.956 337.394L480.52 304.326L473.243 305.26L465.967 306.195L470.879 344.438ZM600.732 328.829C603.756 350.41 606.789 372.348 607.474 377.579L608.717 387.09L612.93 386.549L617.143 386.008L614.153 362.733C612.508 349.932 611.474 339.658 611.854 339.902C612.54 340.343 617.858 351.287 627.74 372.593L632.893 383.704L635.477 383.554L638.061 383.404L634.601 360.26C632.616 346.983 631.43 337.079 631.817 337.029C632.19 336.982 634.195 340.445 636.273 344.726C639.513 351.398 653.059 380.74 653.121 381.219C653.132 381.309 655.211 381.118 657.741 380.793L662.342 380.202L655.893 331.554L649.445 282.906L645.02 283.307L640.595 283.707L643.444 305.888C645.011 318.087 646.06 327.942 645.774 327.787C645.194 327.473 643.613 324.292 639.565 315.291C638.057 311.938 635.474 306.468 633.826 303.133C632.177 299.799 630.177 295.389 629.379 293.333C628.582 291.277 627.382 288.782 626.714 287.789C625.659 286.221 625.121 286.007 622.631 286.174L619.764 286.365L622.868 308.428C624.575 320.564 625.714 330.525 625.398 330.566C625.081 330.606 624.804 330.492 624.781 330.312C624.758 330.132 620.574 321.146 615.483 310.342C610.394 299.539 605.995 290.163 605.709 289.506C605.235 288.415 604.757 288.366 600.213 288.95L595.235 289.59L600.732 328.829ZM34.856 362.484C34.8802 362.673 35.7246 365.276 36.7328 368.27C37.741 371.263 40.3087 379.039 42.4382 385.549C57.6439 432.024 65.2875 455.052 66.0422 456.661C66.5857 457.819 66.8634 457.817 76.4921 456.58C85.2537 455.454 86.4129 455.193 86.6463 454.294C86.791 453.736 87.198 448.449 87.5506 442.545C87.9024 436.641 88.6664 424.812 89.2478 416.257C89.8291 407.703 90.6843 395.105 91.1483 388.262C91.6123 381.419 92.1591 372.014 92.3643 367.362C92.5687 362.711 92.8319 357.947 92.9477 356.775L93.1584 354.646L88.1124 355.294C85.3373 355.651 83.0925 356.146 83.1243 356.394C83.2109 357.067 82.6672 387.917 82.3748 398.92C82.2345 404.18 82.1663 410.685 82.2223 413.376C82.2783 416.067 82.0548 418.303 81.7262 418.345C81.3976 418.387 80.6602 416.653 80.0881 414.491C71.2869 381.239 64.6201 358.312 63.7829 358.419C63.1472 358.501 63.0012 360.565 62.8604 371.433C62.8027 375.911 62.6319 386.655 62.4806 395.308C62.3301 403.961 62.2457 413.251 62.2936 415.951C62.3415 418.651 62.1006 421.031 61.759 421.238C61.4175 421.447 61.0582 421.044 60.9614 420.345C60.8637 419.645 60.1669 416.882 59.4126 414.203C58.6582 411.525 57.0443 405.804 55.8251 401.489C54.606 397.175 51.6528 386.58 49.2628 377.945C46.8727 369.31 44.7227 361.954 44.4847 361.599C44.0428 360.941 34.7673 361.794 34.856 362.484ZM99.1185 354.301C99.0563 355.12 108.369 424.724 108.554 424.825C108.931 425.029 113.24 354.459 112.976 352.403C112.917 351.939 99.1552 353.823 99.1185 354.301ZM125.368 400.384L131.677 449.491L138.957 448.556L146.238 447.62L139.754 398.697L133.271 349.774L126.166 350.525L119.06 351.277L125.368 400.384ZM142.529 348.821C142.325 349.132 144.475 365.948 147.308 386.191C150.141 406.433 153.125 428.27 153.94 434.718L155.421 446.441L157.273 446.203C161.886 445.61 162.042 449.493 155.312 397.105C151.929 370.771 148.902 348.86 148.585 348.413C147.953 347.523 143.17 347.846 142.529 348.821ZM666.834 287.12C658.145 297.951 660.794 313.684 672.562 321.143L675.136 322.775L673.651 311.753C672.835 305.691 671.474 297.036 670.628 292.519L669.09 284.307L666.834 287.12ZM229.925 344.215C229.702 346.473 234.342 378.505 234.939 378.828C235.13 378.932 236.077 377.952 237.042 376.651C239.607 373.196 239.857 368.851 238.106 358.179C236.51 348.451 235.373 345.762 231.789 343.238L230.136 342.075L229.925 344.215ZM499.274 308.737C496.97 311.08 494.703 315.956 494.18 319.698C493.836 322.155 494.853 331.383 497.804 352.572C501.482 378.98 502.088 382.325 503.664 384.887C505.996 388.675 509.147 392.063 511.304 393.103L513.054 393.946L509.48 366.987C507.515 352.16 504.746 332.651 503.327 323.634L500.748 307.24L499.274 308.737ZM581.472 340.487C584.749 364.077 587.567 383.463 587.734 383.568C588.134 383.821 590.536 381.219 592.058 378.884C592.725 377.859 593.714 375.45 594.255 373.53C595.158 370.324 594.937 367.757 591.537 341.923C589.141 323.711 587.338 312.389 586.42 309.784C584.867 305.374 580.822 300.273 577.581 298.639L575.515 297.597L581.472 340.487ZM321.996 339.266C321.525 342.789 320.919 369.388 321.305 369.629C322.187 370.182 325.028 366.043 325.855 362.998C326.563 360.395 326.483 357.653 325.485 350.311C324.786 345.159 323.774 340.117 323.238 339.106L322.262 337.269L321.996 339.266ZM555.479 314.041C558.096 315.646 558.532 317.664 562.375 345.967C565.506 369.021 565.689 371.189 564.637 372.701C563.297 374.625 559.095 375.984 556.2 375.43C551.754 374.578 551.527 373.847 547.527 347.577C542.925 317.352 542.924 316.011 547.477 313.887C550.343 312.55 553.134 312.604 555.479 314.041ZM534.022 316.255C535.005 316.602 536.309 317.831 536.919 318.986C537.624 320.322 539.331 330.79 541.609 347.747L545.191 374.407L543.518 376.074C541.703 377.881 537.972 378.731 535.026 378.011C531.108 377.051 530.733 375.683 526.766 347.873C522.832 320.296 522.812 319.432 526.059 317.235C528.001 315.921 531.763 315.458 534.022 316.255ZM205.357 359.512C207.798 360.834 208.869 363.318 209.057 368.096C209.243 372.792 207.551 374.577 201.714 375.838C198.693 376.491 197.504 376.536 196.919 376.021C196.02 375.23 193.96 360.573 194.655 359.922C194.91 359.684 196.973 359.251 199.238 358.959C202.56 358.533 203.746 358.64 205.357 359.512ZM185.588 362.573C187.549 363.465 187.923 364.077 188.721 367.7C189.756 372.402 189.07 375.627 186.73 377.057C184.668 378.317 180.59 379.372 178.246 379.252C176.364 379.156 176.364 379.155 175.309 370.943L174.254 362.73L178.806 362.145C182.463 361.675 183.798 361.759 185.588 362.573ZM293.14 349.029C295.919 350.534 297.261 353.569 297.069 357.92C296.881 362.194 294.438 364.11 288.148 364.918L283.611 365.501L282.548 357.228L281.486 348.955L286.14 348.357C290.217 347.833 291.085 347.916 293.14 349.029ZM273.397 352.193C275.201 353.171 275.932 354.069 276.182 355.62C276.97 360.498 276.927 363.351 276.05 364.627C274.905 366.291 270.575 367.887 266.436 368.172L263.349 368.384L262.092 360.276L260.835 352.168L265.893 351.518C270.463 350.931 271.187 350.997 273.397 352.193ZM353.336 363.035C355.202 370.48 357.251 378.597 357.889 381.072C358.527 383.547 358.907 385.706 358.732 385.869C358.557 386.032 356.232 386.446 353.563 386.789C347.799 387.53 348.389 388.927 348.162 374.015C348.075 368.329 347.912 360.156 347.8 355.854C347.687 351.551 347.73 347.383 347.895 346.591C348.16 345.311 348.29 345.392 349.068 347.324C349.549 348.52 351.47 355.589 353.336 363.035ZM372.648 358.049C378.628 380.937 378.946 382.372 378.196 383.073C377.075 384.121 369.433 384.886 368.813 384.013C368.255 383.227 367.267 345.693 367.756 343.858C367.911 343.275 368.202 342.886 368.402 342.995C368.602 343.103 370.513 349.878 372.648 358.049ZM236.443 393.284C237.259 400.194 238.495 410.637 239.187 416.489C239.971 423.112 240.717 427.027 241.163 426.857C242.714 426.267 245.587 420.2 246.208 416.205C247.008 411.049 243.853 388.491 241.886 385.314C240.645 383.31 236.874 380.475 235.656 380.631C235.261 380.682 235.601 386.161 236.443 393.284ZM320.573 383.318C320.434 388.038 320.085 399.121 319.797 407.946C319.51 416.771 319.564 424.155 319.918 424.354C320.272 424.554 323.278 424.294 326.597 423.776L332.63 422.836L330.2 402.124C328.497 387.607 327.42 380.787 326.599 379.321C325.376 377.136 322.482 374.523 321.434 374.658C321.101 374.701 320.713 378.598 320.573 383.318ZM405.652 387.667C407.143 399.501 408.696 410.087 409.103 411.19C409.843 413.194 409.85 413.197 413.628 412.711L417.413 412.225L416.498 409.119C415.995 407.411 413.819 400.311 411.662 393.342C409.507 386.372 406.822 377.635 405.697 373.925C404.571 370.215 403.491 366.948 403.296 366.665C403.1 366.382 404.16 375.833 405.652 387.667ZM209.493 393.84C212.761 394.601 214.168 396.675 215.593 402.831C217.239 409.947 216.715 414.744 214.015 417.269C212.285 418.885 211.196 419.338 207.346 420.038L202.745 420.874L201.036 407.571L199.327 394.268L203.195 393.771C205.322 393.498 208.156 393.529 209.493 393.84ZM191.26 397.483C193.789 399.21 194.856 401.967 195.787 409.177C197.07 419.107 195.549 421.685 187.553 423.138L183.133 423.942L180.948 411.27C179.746 404.301 178.965 398.292 179.212 397.916C179.497 397.482 181.489 397.083 184.675 396.821C188.731 396.489 189.989 396.615 191.26 397.483ZM668.991 351.708C671.037 364.174 671.643 365.606 676.716 369.923C681.889 374.327 681.876 374.402 679.285 356.006L676.941 339.362L672.029 339.824L667.117 340.287L668.991 351.708ZM711.918 375.266C707.354 377.158 701.31 381.404 699.271 384.148C694.386 390.721 694.136 402.654 698.735 409.679C702.622 415.616 706.435 418.042 725.535 426.727C743.074 434.702 745.453 436.713 746.475 444.426C747.054 448.784 746.984 449.103 745.107 450.629C743.012 452.333 739.606 453.096 736.972 452.451C733.601 451.626 732.412 449.305 730.984 440.762L729.632 432.667L723.16 433.498C716.075 434.408 716.173 434.277 720.346 437.255C723.974 439.843 725.949 442.99 726.543 447.132C726.967 450.087 726.789 451.205 725.666 452.608C722.696 456.324 716.603 456.636 713.598 453.227C712.412 451.881 711.803 449.8 711.017 444.41C709.633 434.931 709.836 435.21 704.817 435.855L700.693 436.384L701.691 443.965C702.809 452.456 704.487 458.422 706.79 462.098C708.888 465.446 715.684 469.424 721.561 470.743C725.542 471.637 727.099 471.676 732.274 471.011C741.084 469.88 747.142 466.702 751.33 461.017C754.923 456.139 755.78 452.324 755.169 443.909C753.966 427.327 748.377 421.642 723.173 411.364C706.306 404.487 704.211 403.159 703.677 399.001C703.281 395.915 705.624 393.703 709.868 393.158C712.012 392.883 713.44 393.059 714.607 393.743C716.599 394.911 718.444 398.798 718.977 402.948L719.363 405.954L725.971 405.105L732.58 404.256L729.16 402.228C727.278 401.112 725.198 399.259 724.538 398.111C722.079 393.837 726.883 389.212 732.781 390.177C735.964 390.697 737.29 392.482 738.51 397.888L739.555 402.52L743.699 402.159L747.843 401.799L746.496 394.512C745.455 388.88 744.648 386.462 742.943 383.867C737.584 375.708 721.56 371.265 711.918 375.266ZM355.285 423.149C355.207 424.47 354.951 433.522 354.717 443.265C353.801 481.358 352.982 510.997 352.637 518.545L352.526 520.97L357.344 520.183L362.163 519.396L362.178 512.386C362.186 508.531 362.211 505.311 362.232 505.231C362.254 505.151 365.523 504.668 369.496 504.158C377.819 503.088 377.146 502.707 378.77 509.414C381.141 519.207 382.388 519.747 382.017 510.819C381.621 501.317 381.013 502.118 389.44 501.035L396.598 500.116L397.256 501.853C397.976 503.759 400.632 512.913 400.784 514.014C400.849 514.488 402.312 514.519 405.474 514.112C409.346 513.615 410.048 513.37 409.931 512.559C409.753 511.332 406.849 501.629 402.536 487.86C400.679 481.931 395.242 464.339 390.453 448.766C385.665 433.193 381.464 419.793 381.117 418.99L380.486 417.529L367.956 419.139L355.426 420.749L355.285 423.149ZM424.896 412.256L409.022 414.447L410.189 423.536L411.357 432.625L420.548 431.445L429.739 430.264L431.96 447.547C433.181 457.053 435.704 474.893 437.568 487.192L440.957 509.555L448.109 508.636L455.26 507.717L450.2 468.324L445.14 428.93L451.983 427.657L458.827 426.383L457.667 417.354L456.507 408.325L453.624 408.608C447.748 409.184 440.368 410.121 424.896 412.256ZM463.773 407.305C461.243 408.042 461.274 407.162 463.322 420.204L464.207 425.836L469.951 425.099L475.696 424.361L474.527 415.26C473.431 406.73 473.268 406.171 471.922 406.344C471.132 406.446 469.482 406.556 468.255 406.59C467.028 406.623 465.011 406.945 463.773 407.305ZM480.168 414.676C481.124 420.026 484.183 442.087 486.966 463.699L492.026 502.994L499.302 502.06L506.579 501.125L500.815 456.258C497.645 431.581 494.585 409.521 494.014 407.235L492.977 403.079L485.703 404.014L478.43 404.948L480.168 414.676ZM541.177 398.605C533.329 402.773 529.198 407.825 527.846 414.907C527.273 417.915 527.728 423.11 530.324 443.132C535.046 479.57 536.381 483.65 545.306 488.919C554.294 494.224 564.821 494.851 573.089 490.572C582.096 485.91 586.953 479.192 587.573 470.538C588.068 463.626 580.907 415.58 578.597 410.311C576.301 405.077 573.056 401.716 567.831 399.164C558.08 394.402 549.43 394.221 541.177 398.605ZM608.614 388.692C608.409 389.003 608.896 393.304 609.697 398.249C610.497 403.194 613.458 424.92 616.275 446.528L621.399 485.815L625.986 485.225L630.574 484.636L627.78 461.308L624.987 437.98L630.519 449.323C635.343 459.216 643.06 475.725 645.29 480.924C645.938 482.434 646.335 482.611 648.459 482.339L650.888 482.027L647.675 458.759C645.833 445.418 644.777 435.687 645.202 435.951C646.082 436.496 651.097 446.363 656.299 457.785C662.544 471.5 665.613 478.123 666.166 479.083C666.593 479.823 667.579 479.882 671.362 479.397L676.03 478.797L672.814 457.766C671.044 446.198 667.995 424.263 666.036 409.02L662.475 381.306L657.777 381.909L653.079 382.513L656.265 404.529C658.016 416.638 659.165 426.582 658.817 426.626C658.47 426.671 658.135 426.317 658.074 425.84C658.013 425.363 657.024 423.03 655.877 420.656C654.731 418.282 651.122 410.628 647.859 403.647C644.595 396.665 641.155 389.476 640.214 387.669C638.546 384.467 638.44 384.393 635.937 384.715L633.369 385.045L636.217 407.216C637.898 420.298 638.757 429.209 638.312 428.952C637.898 428.712 636.287 425.652 634.733 422.152C633.179 418.651 629.431 410.555 626.405 404.16C623.377 397.765 620.347 391.343 619.67 389.888L618.439 387.243L613.712 387.685C611.113 387.927 608.818 388.381 608.614 388.692ZM161.459 492.618C164.755 517.711 167.802 539.773 168.228 541.645L169.005 545.049L171.618 544.714L174.23 544.378L167.925 495.292L161.619 446.205L158.543 446.6L155.467 446.996L161.459 492.618ZM180.313 482.633C183.018 503.691 186.088 525.788 187.136 531.737L189.04 542.554L205.17 540.302C221.002 538.093 221.376 538.013 225.413 535.975C227.675 534.832 230.933 532.494 232.654 530.779C239.349 524.104 240.337 519.359 238.338 503.466C236.667 490.186 235.043 486.083 230.515 483.712C227.329 482.043 227.109 481.495 228.985 479.898C232.193 477.167 232.542 474.034 230.987 461.932L229.531 450.596L226.423 447.205C223.145 443.629 220.56 442.173 215.133 440.847C212.039 440.091 210.642 440.178 193.61 442.193L175.395 444.346L180.313 482.633ZM268.427 482.195L274.916 531.164L279.725 530.713L284.533 530.262L281.696 508.175L278.858 486.087L281.886 485.698C283.551 485.484 285.769 485.473 286.815 485.673C291.008 486.477 291.236 487.145 294.603 508.592L297.731 528.514L300.51 528.148C305.664 527.47 305.57 528.772 302.188 504.882L299.12 483.204L302.796 482.769C307.408 482.222 310.34 483.607 311.729 486.987C312.254 488.265 313.74 497.419 315.032 507.329C317.666 527.54 316.906 525.953 323.368 524.738L326.759 524.1L323.688 503.392C321.725 490.153 320.203 481.975 319.467 480.715C318.164 478.485 313.987 475.634 311.696 475.41C309.794 475.226 309.626 474.463 311.346 473.826C315.399 472.324 318.635 467.572 319.31 462.129C319.841 457.862 318.463 447.069 316.81 442.532C314.325 435.711 308.893 431.392 300.914 429.894C297.129 429.183 295.63 429.273 279.392 431.178L261.938 433.227L268.427 482.195ZM391.145 418.473C391.53 419.387 392.287 423.579 392.828 427.787L393.811 435.44L399.893 434.659C403.239 434.229 406.097 433.673 406.245 433.422C406.393 433.172 405.298 429.024 403.811 424.204L401.108 415.441L395.776 416.126L390.445 416.811L391.145 418.473ZM48.1892 462.879C48.9622 464.811 54.4075 481.126 57.5644 490.967C64.2346 511.763 78.9459 555.335 79.6778 556.463C80.0603 557.053 81.8937 556.888 89.8214 555.55C95.1437 554.652 99.6045 553.818 99.7345 553.697C100.006 553.442 100.234 550.369 101.218 533.574C101.611 526.894 102.177 517.866 102.477 513.51C104.239 487.948 106.068 456.207 105.868 454.652C105.803 454.144 104.379 454.119 100.929 454.562L96.0826 455.185L96.0507 462.337C96.0057 472.526 95.7081 489.448 95.4763 495.067C95.3678 497.702 95.2682 503.745 95.2555 508.496C95.2429 513.246 95.1009 517.256 94.9404 517.406C94.5177 517.801 93.5417 515.24 92.4506 510.874C91.9274 508.782 90.8857 504.88 90.1352 502.201C89.3846 499.522 87.4093 492.333 85.7458 486.226C81.3759 470.185 77.7155 458.073 77.1432 457.763C76.8704 457.616 76.5177 457.616 76.3601 457.765C76.0636 458.045 75.3406 495.625 75.33 511.362C75.3264 516.28 75.2002 520.419 75.0501 520.56C74.6587 520.925 74.0967 519.034 66.0859 490.433C62.1256 476.296 58.5394 463.7 58.1172 462.444L57.3481 460.16L52.4752 460.786L47.603 461.412L48.1892 462.879ZM116.56 488.855C119.301 509.869 121.401 523.843 121.665 522.819C121.911 521.862 122.567 513.578 123.121 504.411C123.675 495.243 124.309 485.071 124.53 481.805C125.074 473.746 125.954 453.432 125.809 452.297C125.708 451.511 124.712 451.507 118.797 452.267L111.904 453.152L116.56 488.855ZM136.158 481.853C138.59 499.039 141.603 520.98 142.852 530.609L145.125 548.117L152.514 547.168L159.904 546.218L155.327 514.43C152.809 496.946 149.765 475.01 148.561 465.683L146.371 448.725L139.054 449.665L131.738 450.604L136.158 481.853ZM680.313 385.322C679.115 386.478 677.402 389.031 676.507 390.996C675.14 393.997 674.949 395.602 675.316 401.025C675.932 410.114 678.462 414.844 685.214 419.529L687.864 421.367L685.41 402.264C684.061 391.757 682.851 383.173 682.723 383.19C682.595 383.206 681.51 384.165 680.313 385.322ZM245.101 459.482C246.424 469.891 247.778 478.242 248.109 478.041C248.44 477.839 249.531 476.57 250.533 475.22C252.192 472.985 252.34 472.054 252.182 464.818C251.917 452.612 249.372 445.344 244.02 441.507C242.816 440.643 242.916 442.296 245.101 459.482ZM512.334 407.699C509.728 410.25 507.476 415.417 507.075 419.769C506.677 424.085 510.515 454.397 513.467 470.246C515.141 479.239 515.902 481.848 517.718 484.837C519.675 488.058 524.438 492.663 525.652 492.508C526.063 492.455 515.915 414.446 514.726 408.513L514.197 405.876L512.334 407.699ZM594.709 439.013C597.97 462.616 600.856 482.045 601.123 482.19C601.777 482.544 603.941 479.933 605.744 476.613C609.07 470.493 608.732 463.163 603.681 431.747C600.698 413.204 599.639 408.06 598.278 405.53C596.525 402.27 593.703 399.231 590.586 397.247L588.78 396.098L594.709 439.013ZM334.674 450.173C334.468 457.837 334.247 465.251 334.184 466.646C334.069 469.172 334.075 469.178 335.516 467.977C336.311 467.313 337.604 465.381 338.39 463.683C339.738 460.768 339.736 459.967 338.364 449.29C336.225 432.638 335.14 432.897 334.674 450.173ZM547.322 415.3C550.495 416.752 551.268 419.956 555.103 447.518C558.739 473.656 558.738 474.577 555.079 476.321C551.591 477.983 548.192 477.57 545.642 475.176C544.11 473.737 543.66 471.547 539.922 447.381C536.064 422.44 535.92 421.036 537.011 418.887C538.917 415.128 543.478 413.541 547.322 415.3ZM568.775 413.145C571.285 415.019 572.046 418.628 575.724 446.136C579.391 473.553 579.429 473.266 572.098 474.207C569.206 474.579 566.372 473.204 565.024 470.776C564.535 469.895 562.418 457.81 560.319 443.921C556.255 417.031 556.208 415.486 559.396 413.31C561.887 411.61 566.607 411.527 568.775 413.145ZM199.029 461.651C200.428 462.378 200.852 463.386 201.653 467.899C202.549 472.946 202.504 473.39 200.941 475.081C199.525 476.613 198.569 477.013 194.595 477.735L189.915 478.586L188.848 470.282L187.781 461.977L190.242 461.43C193.953 460.605 197.171 460.686 199.029 461.651ZM219.172 458.737C221.362 460.279 222.999 465.828 222.231 469.108C221.442 472.479 218.977 474.157 213.851 474.816L209.742 475.344L208.679 467.071L207.616 458.798L212.539 458.165C216.899 457.605 217.658 457.671 219.172 458.737ZM306.635 448.039C308.536 449.068 308.861 449.71 309.651 454.007C310.479 458.513 310.424 458.947 308.79 460.753C307.342 462.354 306.317 462.833 302.784 463.556C296.133 464.918 296.418 465.196 295.263 456.209C294.113 447.254 293.905 447.602 300.681 447.144C303.471 446.956 305.081 447.198 306.635 448.039ZM285.073 450.323C290.541 452.253 292.034 462.74 287.211 465.347C286.403 465.784 283.651 466.41 281.096 466.738L276.449 467.335L275.387 459.062L274.324 450.789L278.749 450.221C281.6 449.854 283.85 449.891 285.073 450.323ZM367.066 464.384C369.801 475.134 372.073 484.251 372.117 484.645C372.175 485.176 370.862 485.49 367.051 485.856L361.908 486.351L361.624 482.743C361.468 480.759 361.324 476.489 361.305 473.254C361.285 470.019 361.153 463.602 361.012 458.995C360.659 447.486 360.772 444.02 361.485 444.462C361.821 444.67 364.332 453.635 367.066 464.384ZM387.017 461.541C389.61 471.538 391.799 480.276 391.882 480.959C392.023 482.126 391.713 482.242 386.783 482.875L381.534 483.55L381.482 480.893C381.454 479.432 381.249 471.449 381.027 463.152C380.499 443.425 380.558 441.043 381.534 442.343C381.957 442.905 384.424 451.545 387.017 461.541ZM250.697 503.02L253.753 526.594L255.433 524.697C259.836 519.725 260.686 511.307 258.247 496.864C256.858 488.641 256.249 486.524 254.607 484.218C252.723 481.571 249.616 479.191 248.273 479.364C247.925 479.409 249.016 490.054 250.697 503.02ZM334.024 475.191C333.904 476.222 333.698 481.748 333.563 487.469C333.429 493.191 333.131 503.195 332.901 509.7C332.671 516.204 332.534 521.962 332.596 522.493C332.696 523.343 333.547 523.352 339.651 522.568L346.593 521.676L343.551 500.062C340.302 476.971 340.05 476.119 335.87 474.101C334.286 473.337 334.235 473.367 334.024 475.191ZM419.454 488.63L422.325 511.948L426.598 511.399C430.851 510.853 430.869 510.843 430.261 509.387C429.924 508.582 428.679 504.642 427.495 500.632C426.31 496.621 423.61 487.886 421.494 481.22C419.378 474.554 417.408 468.247 417.115 467.206C416.823 466.164 417.875 475.805 419.454 488.63ZM222.95 492.737C226.165 493.524 227.471 495.951 228.8 503.618C230.399 512.838 229.685 515.498 225.017 517.717C223.35 518.509 220.749 519.322 219.236 519.523L216.484 519.889L215.014 512.42C213.058 502.475 211.982 493.844 212.623 493.232C213.278 492.606 220.923 492.241 222.95 492.737ZM201.411 495.647C206.385 496.228 207.615 498.188 208.801 507.42C209.482 512.72 209.568 516.03 209.056 517.232C208.072 519.542 205.029 521.323 200.337 522.336C196.924 523.074 196.598 523.041 195.993 521.889C195.118 520.223 192.133 496.956 192.723 496.405C193.447 495.727 198.401 495.295 201.411 495.647ZM680.535 439.439C680.331 439.749 681.1 444.897 682.243 450.878C683.949 459.805 684.68 462.265 686.325 464.607C688.405 467.567 693.13 471.555 694.369 471.395C694.795 471.341 694.14 464.629 692.735 454.646L690.389 437.988L685.647 438.432C683.04 438.675 680.739 439.129 680.535 439.439ZM669.553 503.075C671.131 515.364 672.272 525.334 672.087 525.229C671.902 525.124 668.321 517.784 664.129 508.918C659.937 500.052 655.453 490.599 654.165 487.913L651.825 483.027L648.823 483.413L645.821 483.799L649.115 505.801C650.926 517.902 652.167 527.834 651.872 527.872C651.577 527.91 648.284 521.457 644.555 513.534C640.825 505.611 636.294 496.102 634.488 492.403L631.202 485.677L626.247 486.313L621.29 486.95L625.424 515.103C627.696 530.588 630.747 552.523 632.202 563.849L634.847 584.441L639.566 583.835L644.284 583.228L640.779 560.132C638.852 547.429 637.543 537.002 637.872 536.96C638.201 536.918 640.736 541.575 643.506 547.309C648.818 558.305 659.265 580.577 659.323 581.027C659.342 581.173 660.405 581.158 661.686 580.993L664.015 580.694L661.064 558.227C657.649 532.216 657.807 533.582 658.251 533.827C658.79 534.123 665.563 547.764 670.528 558.553C673.008 563.939 676.106 570.605 677.414 573.366L679.791 578.387L684.13 577.998C687.29 577.714 688.45 577.413 688.394 576.889C686.8 561.741 675.786 480.679 675.285 480.407C674.891 480.194 672.794 480.18 670.625 480.375L666.682 480.73L669.553 503.075ZM722.787 474.787C720.586 475.853 717.489 477.733 715.905 478.965C706.618 486.185 705.903 501.526 714.392 511.432C716.488 513.877 728.808 520.858 737.726 524.654C745.779 528.081 752.265 531.561 755.195 534.025C758.186 536.541 760.444 541.139 760.263 544.344C759.93 550.228 752.799 553.237 747.865 549.574C745.957 548.157 745.693 547.419 744.339 539.726C743.534 535.151 742.64 531.282 742.352 531.127C742.064 530.972 739.005 531.282 735.555 531.816L729.281 532.785L732.011 534.677C736.856 538.036 738.408 540.213 739.409 545.054C740.319 549.459 740.299 549.567 738.217 551.514C736.756 552.88 735.354 553.59 733.693 553.803C727.381 554.614 725.677 552.593 723.796 542.077L722.344 533.957L718.243 534.483L714.141 535.01L715.21 543.142C716.559 553.41 718.207 558.647 721.123 561.943C725.908 567.348 737.546 570.996 746.252 569.818C756.637 568.413 766.123 560.582 768.081 551.796C769.243 546.584 768.443 536.968 766.421 531.831C762.861 522.789 756.294 517.868 737.87 510.435C722.277 504.145 718.533 502.139 717.295 499.409C715.991 496.536 716.392 494.634 718.661 492.934C722.127 490.336 727.122 490.875 729.603 494.116C730.32 495.052 731.129 497.55 731.401 499.665C731.675 501.798 732.281 503.626 732.761 503.769C733.236 503.912 735.583 503.768 737.975 503.451C745.819 502.407 745.502 502.631 742.083 500.557C738.504 498.387 737.269 496.86 736.925 494.178C736.58 491.49 739.142 489.185 743.001 488.713C748.409 488.051 750.295 489.739 751.811 496.595L752.893 501.493L756.777 500.827L760.662 500.162L760.518 497.097C760.439 495.411 759.708 491.786 758.893 489.042C756.214 480.018 750.623 475.262 740.069 473.029C733.051 471.543 728.533 472.003 722.787 474.787ZM375.262 518.995L368.305 520.048L368.1 528.605C367.863 538.482 367.417 557.196 367.052 572.589C366.912 578.465 366.649 588.969 366.467 595.93C365.952 615.659 365.921 619.104 366.257 619.286C367.169 619.78 374.666 618.597 375.133 617.885C375.42 617.45 375.533 614.318 375.384 610.925C375.237 607.532 375.271 604.518 375.462 604.228C375.653 603.938 379.023 603.287 382.95 602.783L390.089 601.866L391.852 608.227C393.835 615.379 394.152 616.115 395.028 615.583C395.367 615.376 395.494 612.151 395.309 608.416C395.124 604.681 395.126 601.392 395.313 601.108C395.89 600.23 410.101 598.621 410.207 599.422C410.33 600.358 412.982 609.419 413.765 611.579L414.396 613.32L419.024 612.725L423.653 612.131L422.927 610.122C422.528 609.017 420.996 604.105 419.523 599.206C414.263 581.721 394.329 517.772 393.913 517.049C393.62 516.542 386.658 517.268 375.262 518.995ZM493.682 515.879C494.544 522.595 497.607 544.626 500.488 564.838L505.725 601.588L512.876 600.67L520.026 599.751L516.89 576.187C515.166 563.226 512.077 541.233 510.028 527.312L506.302 502.001L499.207 502.835L492.112 503.669L493.682 515.879ZM553.972 497.314C548.341 500.213 543.476 505.007 541.955 509.155C539.845 514.91 540.148 520.584 543.946 546.367C545.918 559.755 548.081 572.551 548.751 574.802C551.844 585.183 560.037 590.872 573.96 592.307L577.116 592.633L573.986 593.45C566.25 595.468 557.802 602.234 555.327 608.395L553.903 611.938L557.844 642.547C561.963 674.55 562.397 676.535 566.351 681.434C570.158 686.151 577.873 689.605 586.655 690.525C591.139 690.995 592.046 690.927 595.11 689.889C596.997 689.249 600.389 687.559 602.647 686.132C610.708 681.041 613.977 675.732 614.429 666.999C614.774 660.343 607.803 614.379 605.556 608.489C602.215 599.733 594.575 594.452 583.048 592.93L578.746 592.362L581.668 591.282C589.123 588.528 595.54 583.619 598.183 578.647C601.558 572.299 601.547 571.398 597.779 543.511C593.204 509.652 592.129 505.939 585.336 500.527C576.541 493.52 563.865 492.221 553.972 497.314ZM194.643 587.527C197.836 612.05 200.943 634.194 201.549 636.737L202.65 641.361L218.328 639.162C233.593 637.02 234.124 636.906 238.457 634.831C245.677 631.374 250.505 625.876 252.221 619.156C252.902 616.493 252.74 613.215 251.417 602.86C249.518 587.999 248.428 585.223 243.331 582.276L240.405 580.583L242.395 578.473C245.402 575.285 245.671 571.794 243.828 559.825C242.264 549.663 242.151 549.302 239.653 546.49C236.397 542.824 232.933 540.952 227.376 539.855C223.156 539.022 222.287 539.067 205.908 540.964L188.839 542.941L194.643 587.527ZM275.296 532.311C275.133 532.599 277.97 554.718 281.601 581.463L288.202 630.091L293.08 629.465L297.956 628.838L295.341 606.889L292.725 584.94L295.256 584.7C299.58 584.29 301.565 584.607 303.162 585.965C304.54 587.135 305.015 589.378 307.64 607.105L310.577 626.937L314.236 626.638L317.896 626.338L315.058 604.247L312.221 582.155L315.284 581.762C317.514 581.475 318.377 581.596 318.456 582.206C318.535 582.825 319.053 582.889 320.438 582.45C324.043 581.309 324.737 583.322 328.168 604.875L331.257 624.28L335.035 623.969C337.461 623.77 338.993 623.384 339.317 622.89C339.84 622.096 334.647 585.25 333.459 581.326C332.632 578.595 329.074 575.436 325.778 574.508L323.311 573.814L325.068 572.702C331.714 568.493 333.208 563.703 331.652 551.596C330.047 539.097 328.013 535.213 321.004 531.265C315.036 527.903 311.505 527.738 292.182 529.915C283.057 530.944 275.459 532.022 275.296 532.311ZM405.279 524.718L406.475 534.023L412.997 533.28C416.584 532.87 419.493 532.332 419.461 532.084C419.373 531.398 415.439 518.452 414.623 516.161L413.906 514.151L408.995 514.781L404.084 515.412L405.279 524.718ZM423.301 521.774C424.14 526.523 425.002 530.705 425.216 531.069C425.509 531.564 427.783 531.413 434.224 530.473L442.84 529.215L448.228 567.487C451.191 588.537 453.746 606.38 453.905 607.139C454.193 608.511 454.235 608.514 461.278 607.594L468.361 606.668L463.025 567.128L457.69 527.588L462.913 526.855C465.785 526.451 468.884 526.069 469.797 526.003C470.712 525.939 471.663 525.578 471.909 525.202C472.157 524.825 471.602 520.593 470.676 515.796L468.993 507.074L445.385 510.107L421.777 513.14L423.301 521.774ZM475.72 515.461L476.889 524.561L482.633 523.823L488.378 523.085L487.209 513.985L486.04 504.884L480.295 505.622L474.551 506.36L475.72 515.461ZM61.3763 560.886C61.2373 561.253 62.6172 566.001 64.4429 571.437C66.2679 576.873 69.4043 586.282 71.4125 592.345C73.4208 598.408 79.0404 615.093 83.8997 629.423C88.7597 643.752 92.7443 655.539 92.7542 655.616C92.7641 655.693 97.3901 655.163 103.034 654.438L113.294 653.12L113.567 648.46C114.11 639.181 115.628 614.026 116.729 596.055C118.328 569.955 119.055 553.158 118.597 552.91C118.381 552.793 116.208 552.953 113.77 553.266C108.45 553.949 108.995 551.811 108.893 572.394C108.852 580.57 108.723 591.687 108.606 597.098C108.489 602.509 108.419 609.015 108.451 611.555C108.482 614.095 108.243 616.206 107.918 616.248C107.594 616.29 106.865 614.554 106.298 612.392C98.5237 582.741 90.8235 556.774 89.8423 556.9C89.1146 556.994 88.0054 613.321 88.6436 617.743C88.7638 618.576 88.5535 619.296 88.1759 619.345C87.7983 619.393 86.9754 617.418 86.3459 614.955C85.7173 612.491 81.9353 599.039 77.9416 585.059L70.6809 559.642L66.1547 559.931C63.16 560.122 61.5431 560.445 61.3763 560.886ZM125.025 552.401C124.642 552.983 134.567 623.681 134.978 623.294C135.191 623.091 135.371 620.382 136.835 595.154C137.439 584.747 138.091 572.059 138.284 566.958C138.476 561.857 138.732 556.148 138.851 554.271C138.97 552.394 138.914 550.712 138.726 550.533C138.154 549.991 125.473 551.719 125.025 552.401ZM145.276 549.639C145.341 552.61 156.52 635.682 157.515 640.592L158.875 647.305L165.743 646.263L172.61 645.22L166.445 598.358C163.054 572.584 159.959 550.592 159.568 549.485L158.857 547.474L152.062 548.347C148.324 548.827 145.27 549.409 145.276 549.639ZM171.596 570.317C173.577 583.527 176.628 605.47 178.376 619.08C181.835 646.004 181.511 644.935 185.807 643.575L187.676 642.983L183.438 609.992C181.107 591.846 178.058 569.915 176.663 561.257L174.125 545.513L171.06 545.907L167.995 546.3L171.596 570.317ZM693.394 483.674C684.271 492.644 686.879 510.676 698.326 517.792L701.194 519.574L699.463 506.622C698.511 499.498 697.173 491.011 696.489 487.761L695.245 481.853L693.394 483.674ZM525.461 506.081C523.031 508.637 521.985 510.618 520.784 514.93C519.639 519.047 519.678 519.48 523.802 548.683C527.307 573.5 528.251 578.799 529.663 581.571C531.56 585.3 533.855 587.936 537 590.002L539.142 591.409L535.418 563.014C533.37 547.398 530.611 527.863 529.286 519.605L526.878 504.59L525.461 506.081ZM607.371 536.218C610.464 558.888 613.281 578.244 613.63 579.231C614.226 580.918 614.341 580.962 615.521 579.957C617.618 578.171 620.068 573.272 620.812 569.376C621.379 566.403 620.959 561.367 618.641 543.354C615.567 519.464 613.196 507.225 610.895 503.356C608.9 500.001 606.231 497.243 603.806 496.029L601.746 494.998L607.371 536.218ZM257.741 557.91C259.029 567.696 260.405 575.992 260.797 576.346C261.718 577.176 264.016 574.566 265.066 571.499C266.118 568.423 263.469 548.054 261.647 545.202C260.183 542.912 256.915 539.933 255.991 540.046C255.665 540.086 256.453 548.125 257.741 557.91ZM348.18 536.89C348.02 537.835 347.806 543.413 347.704 549.285C347.602 555.157 347.451 561.673 347.369 563.764C347.286 565.856 347.497 567.532 347.837 567.488C348.911 567.351 351.635 562.897 352.302 560.187C353.061 557.107 350.842 539.123 349.408 536.732L348.471 535.17L348.18 536.89ZM582.214 511.771C583.822 512.967 584.147 514.207 586.396 527.742C590.636 553.253 592.228 566.719 591.274 568.987C589.169 573.993 580.361 574.289 578.109 569.43C577.076 567.201 569.831 519.955 570.081 517.075C570.371 513.717 571.673 511.89 574.415 510.99C577.509 509.974 580.155 510.239 582.214 511.771ZM559.978 513.665C561.071 514.018 562.432 515.168 563.002 516.22C563.588 517.301 565.721 529.491 567.909 544.264C572.254 573.593 572.262 573.252 567.15 575.182C563.539 576.546 560.369 575.732 558.288 572.908C556.92 571.051 556.199 567.3 552.93 545.034C548.839 517.172 548.833 516.615 552.596 514.555C555.119 513.175 557.556 512.881 559.978 513.665ZM231.557 557.414C234.007 558.741 235.069 561.221 235.26 566.059C235.384 569.194 235.128 569.974 233.552 571.255C231.3 573.085 224.236 574.913 223.162 573.945C222.354 573.216 220.199 558.865 220.769 557.999C220.981 557.676 223.045 557.169 225.356 556.872C228.765 556.434 229.936 556.537 231.557 557.414ZM211.255 560.225C214.438 561.572 216.522 568.603 214.89 572.486C213.801 575.074 212.088 575.956 206.843 576.63L202.58 577.178L201.564 569.273C201.006 564.924 200.757 561.172 201.012 560.934C202.021 559.99 209.48 559.475 211.255 560.225ZM299.357 549.81C301.423 550.928 301.679 551.441 302.536 556.193C303.417 561.076 303.375 561.447 301.758 562.959C300.537 564.1 298.831 564.826 295.794 565.497C289.031 566.992 289.282 567.233 288.112 558.126C287.362 552.283 287.333 550.042 288.006 549.726C288.512 549.489 290.766 549.138 293.017 548.945C296.24 548.669 297.588 548.853 299.357 549.81ZM319.646 546.997C322.071 548.585 323.733 552.846 323.356 556.504C323.006 559.902 320.793 561.497 314.889 562.605L309.96 563.53L308.791 556.459C307.125 546.385 306.907 546.957 312.686 546.215C317.099 545.648 317.688 545.714 319.646 546.997ZM400.058 560.22C402.202 568.424 404.315 576.381 404.751 577.902L405.545 580.667L400.853 581.663C398.273 582.21 395.848 582.488 395.465 582.28C394.87 581.958 394.204 572.002 394.133 562.382C394.122 560.842 393.984 555.436 393.825 550.368C393.365 535.651 393.827 536.381 400.058 560.22ZM378.119 555.539C379.792 562.069 381.776 569.604 382.527 572.283C383.278 574.961 384.302 578.678 384.803 580.54L385.712 583.927L380.313 584.621C377.343 585.002 374.886 585.129 374.852 584.902C374.605 583.211 373.762 544.647 373.959 544.01C374.51 542.232 375.196 544.136 378.119 555.539ZM261.15 579.294C261.081 580.014 262.488 590.632 264.276 602.89L267.529 625.178L269.631 622.185C273.615 616.512 274.023 604.756 270.704 591.29C268.874 583.866 267.057 580.827 263.36 579.01L261.275 577.986L261.15 579.294ZM346.911 581.763C346.813 586.787 346.648 592.674 346.546 594.845C345.96 607.282 345.901 621.073 346.43 621.818C346.954 622.555 347.874 622.528 352.822 621.63C356.002 621.053 358.917 620.287 359.301 619.928C359.755 619.504 358.96 612.067 357.034 598.728L354.07 578.181L351.634 575.27C347.699 570.566 347.116 571.367 346.911 581.763ZM432.586 586.965C434.325 599.489 435.93 610.028 436.154 610.385C436.537 610.994 442.832 610.563 443.566 609.877C443.986 609.484 432.142 570.661 430.172 565.971C429.762 564.993 430.848 574.441 432.586 586.965ZM235.575 591.593C239.59 592.475 241.086 595.226 242.191 603.765C243.297 612.32 242.751 614.449 238.934 616.456C236.668 617.647 231.31 618.764 229.893 618.34C229.232 618.142 228.446 614.258 227.219 605.118L225.48 592.176L229.526 591.665C231.752 591.384 234.473 591.351 235.575 591.593ZM215.85 594.852C219.753 595.761 221.022 598.109 222.21 606.612C223.08 612.839 223.061 614.417 222.088 616.323C220.613 619.216 217.727 620.752 213.052 621.133L209.432 621.429L207.42 608.793C206.313 601.843 205.49 595.957 205.591 595.712C205.926 594.902 213.38 594.277 215.85 594.852ZM695.038 547.976C696.836 558.142 698.137 561.796 701.202 565.289C702.962 567.295 707.679 570.294 708.244 569.766C708.454 569.57 707.413 561.984 705.931 552.91L703.236 536.411L698.229 537.054L693.221 537.698L695.038 547.976ZM736.945 573.123C734.227 574.298 731.475 576.189 728.61 578.85C724.983 582.216 724.151 583.438 723.148 586.866C720.822 594.816 722.701 604.164 727.792 609.974C730.21 612.733 740.285 618.616 748.276 621.935C751.442 623.25 757.277 626.007 761.243 628.061C770.271 632.738 772.478 635.176 773.324 641.402C773.892 645.589 773.842 645.773 771.615 647.648C769.059 649.8 767.266 650.227 763.993 649.465C760.341 648.615 759.388 646.843 757.766 637.889L756.277 629.671L749.937 630.323C746.45 630.681 743.626 631.198 743.661 631.472C743.697 631.746 744.928 632.796 746.397 633.806C749.645 636.039 751.341 638.142 752.803 641.746C754.943 647.024 752.552 651.734 747.396 652.396C741.035 653.213 739.518 651.43 737.381 640.619L735.792 632.583L731.571 633.125L727.35 633.667L729.174 644.225C731.397 657.094 732.955 660.259 738.903 663.983C744.389 667.419 753.225 669.32 759.66 668.449C771.223 666.883 780.881 658.115 782.032 648.138C782.712 642.242 781.697 634.46 779.62 629.652C775.807 620.823 769.745 616.61 747.85 607.573C733.738 601.749 731.039 599.978 730.598 596.258C730.268 593.472 731.169 591.988 733.876 590.86C736.419 589.799 739.45 589.941 741.657 591.223C743.176 592.105 743.806 593.333 745 597.744L746.47 603.179L752.492 602.406C758.585 601.623 759.51 601.146 757.013 600.071C754.392 598.944 750.673 595.139 750.443 593.352C749.949 589.501 754.896 586.485 760.077 587.477C762.862 588.011 764.152 589.878 765.375 595.144L766.45 599.772L770.493 599.422L774.536 599.072L773.906 594.218C772.223 581.243 766.358 574.519 754.334 571.784C747.948 570.331 742.416 570.757 736.945 573.123ZM509.314 602.13L505.773 602.76L511.857 647.502C515.204 672.109 518.364 694.018 518.88 696.187L519.818 700.131L526.646 699.254L533.474 698.377L529.384 667.367C527.134 650.311 524.046 628.317 522.522 618.492L519.75 600.627L516.302 601.063C514.406 601.303 511.261 601.782 509.314 602.13ZM639.96 620.926C642.676 640.388 645.873 662.305 647.065 669.629L649.233 682.946L653.463 682.403L657.693 681.86L654.362 658.741C652.529 646.026 651.284 635.59 651.594 635.55C652.214 635.47 656.324 643.751 666.241 665.06C669.829 672.768 673.081 679.247 673.468 679.456C673.856 679.666 674.977 679.65 675.961 679.42L677.748 679.003L674.463 655.598C672.656 642.725 671.415 632.316 671.705 632.466C672.855 633.061 676.375 640.163 687.089 663.507C690.096 670.058 692.795 675.842 693.088 676.358C693.532 677.145 694.321 677.181 697.938 676.576L702.258 675.854L700.431 662.073C699.426 654.494 696.526 632.602 693.987 613.425L689.371 578.558L684.691 579.159L680.011 579.76L683.119 601.76C684.829 613.86 685.99 623.613 685.699 623.434C685.158 623.1 682.283 617.247 673.727 599.068C671.06 593.398 668.079 587.158 667.103 585.203L665.331 581.646L662.414 582.021L659.497 582.396L662.782 604.539C664.916 618.927 665.769 626.427 665.218 625.951C664.75 625.548 661.177 618.439 657.276 610.152C653.375 601.865 649.02 592.764 647.597 589.928C646.175 587.092 644.996 584.658 644.979 584.518C644.961 584.379 642.713 584.551 639.985 584.902L635.024 585.539L639.96 620.926ZM288.712 631.074C288.638 631.278 291.555 653.263 295.195 679.93L301.812 728.416L306.62 727.966L311.429 727.514L308.627 705.703L305.825 683.891L309.612 683.404C312.438 683.041 313.949 683.168 315.567 683.904C318.653 685.307 319.685 689.187 322.278 709.139L324.451 725.85L328.067 725.214L331.684 724.579L328.588 702.691L325.492 680.804L329.486 680.291C332.923 679.849 333.804 679.967 335.805 681.137C337.085 681.886 338.469 683.411 338.88 684.527C339.292 685.643 340.676 694.679 341.957 704.608L344.284 722.659L346.135 722.753C347.153 722.805 349.143 722.618 350.558 722.336L353.13 721.824L350.497 701.419C348.52 686.094 347.528 680.41 346.515 678.589C345.138 676.114 342.28 674.03 338.686 672.882L336.675 672.239L338.991 671.021C344.708 668.014 346.724 663.031 346.081 653.491C344.911 636.132 338.109 628.105 323.842 627.255C320.408 627.05 288.931 630.472 288.712 631.074ZM382.108 619.57C381.946 620.13 381.634 630.073 381.414 641.664C381.194 653.255 380.909 665.906 380.779 669.777C380.65 673.648 380.532 679.844 380.518 683.546C380.504 687.248 380.302 695.348 380.069 701.544C379.836 707.741 379.606 714.015 379.556 715.486L379.467 718.16L384.39 717.528L389.312 716.896L389.091 711.178C388.97 708.032 388.965 704.754 389.08 703.891L389.289 702.322L396.443 701.403L403.598 700.484L404.19 701.95C404.516 702.756 405.514 705.907 406.407 708.953C407.301 711.999 408.3 714.457 408.628 714.415C408.956 714.372 409.14 711.511 409.038 708.055C408.935 704.599 408.892 701.577 408.942 701.339C408.991 701.102 409.027 700.53 409.021 700.068C409.012 699.386 410.363 699.054 416.204 698.304C424.597 697.226 423.577 696.464 426.283 705.839L428.039 711.921L432.613 711.333L437.187 710.746L436.268 707.36C435.762 705.498 434.451 701.197 433.353 697.803C432.255 694.408 431.042 690.528 430.656 689.179C430.27 687.83 429.392 685.033 428.704 682.963C428.017 680.893 424.473 669.617 420.83 657.905C412.327 630.576 409.162 620.458 408.23 617.616L407.48 615.33L394.941 616.94C383.669 618.388 382.372 618.654 382.108 619.57ZM417.957 614.584C417.519 615.25 419.763 631.01 420.44 632.026C420.736 632.468 422.772 632.427 426.916 631.895C434.022 630.982 433.671 631.902 430.623 622.144C427.493 612.121 428.206 612.921 422.909 613.494C420.402 613.766 418.173 614.256 417.957 614.584ZM437.119 621.053L438.323 630.429L447.515 629.248L456.706 628.068L459.474 648.316C460.996 659.452 462.441 669.547 462.685 670.749C462.929 671.951 464.131 680.533 465.357 689.82L467.586 706.706L472.153 706.36C474.665 706.169 477.964 705.746 479.484 705.42L482.248 704.826L477.034 665.616L471.821 626.407L478.814 625.347L485.806 624.288L484.717 615.804C484.117 611.139 483.368 606.956 483.05 606.509C482.541 605.792 479.715 606.051 459.194 608.687L435.915 611.677L437.119 621.053ZM489.168 614.087L490.337 623.187L496.081 622.449L501.826 621.711L500.657 612.611L499.488 603.511L493.743 604.248L487.999 604.986L489.168 614.087ZM161.17 647.948L158.622 648.499L163.615 683.838C166.361 703.275 169.391 725.195 170.349 732.549L172.091 745.921L179.448 744.976L186.805 744.031L180 695.429C176.257 668.698 173.045 646.684 172.861 646.51C172.502 646.168 165.321 647.051 161.17 647.948ZM182.503 645.738C182.717 649.771 192.605 722.896 194.133 731.737L196.051 742.843L198.636 742.511L201.221 742.179L194.729 693.256L188.238 644.334L185.344 644.532C182.999 644.692 182.46 644.92 182.503 645.738ZM208.855 690.759C212.539 717.431 215.794 739.47 216.089 739.737C216.433 740.046 222.18 739.376 232.036 737.877C249.849 735.167 253.055 734.157 258.513 729.535C262.32 726.309 265.523 720.7 266.269 715.949C267.057 710.932 266.318 702.108 264.436 694.06C262.954 687.726 262.292 686.094 260.276 683.816C258.956 682.326 257.013 680.754 255.957 680.323L254.036 679.539L256.02 677.424C259.185 674.049 259.463 671.594 257.987 660.042C256.351 647.247 255.334 645.305 248.19 641.309C241.552 637.597 239.209 637.506 218.594 640.154L202.158 642.266L208.855 690.759ZM75.0568 659.614C74.8744 659.892 75.2564 661.671 75.9051 663.57C76.5547 665.469 79.3558 673.794 82.1311 682.071C84.9065 690.349 88.5931 701.228 90.324 706.248C92.0549 711.267 93.9379 716.828 94.5087 718.605C95.0795 720.381 98.0337 729.154 101.075 738.099L106.603 754.363L116.905 752.885L127.206 751.406L127.58 743.79C128.036 734.491 129.457 710.321 130.47 694.643C131.367 680.753 131.818 672.553 132.224 662.742C132.392 658.712 132.615 654.584 132.72 653.568L132.914 651.721L127.959 652.358L123.004 652.994L122.937 656.507C122.9 658.439 122.815 666.333 122.749 674.051C122.604 690.838 122.352 708.808 122.201 713.085C122.101 715.941 122.026 716.06 121.257 714.608C120.797 713.742 118.697 706.569 116.591 698.669C112.191 682.17 104.466 655.768 103.958 655.487C103.768 655.383 103.449 655.452 103.248 655.64C102.85 656.012 102.487 673.669 102.394 697.129C102.362 705.304 102.321 713.607 102.303 715.58C102.258 720.567 101.303 719.029 99.1145 710.444C96.7129 701.022 84.7548 659.529 84.1957 658.68C83.7168 657.952 75.6038 658.781 75.0568 659.614ZM139.481 659.708C140.37 664.45 142.69 680.718 144.636 695.86C146.583 711.002 148.316 723.259 148.487 723.099C148.945 722.67 152.997 652.085 152.706 649.599C152.679 649.371 149.329 649.612 145.261 650.135L137.865 651.085L139.481 659.708ZM706.328 582.967C702.715 587.043 701.679 590.992 702.242 598.543C702.634 603.811 703.114 605.927 704.466 608.349C706.54 612.067 710.02 615.751 712.76 617.133L714.77 618.147L712.236 599.289C710.843 588.917 709.417 580.468 709.067 580.513C708.718 580.558 707.485 581.662 706.328 582.967ZM537.847 606.189C533.364 611.893 533.23 613.485 535.511 633.923C536.631 643.954 538.656 658.075 540.012 665.301C542.869 680.525 544.587 684.428 549.93 687.842L553.014 689.813L547.411 648.289C544.329 625.45 541.461 605.942 541.036 604.938L540.264 603.114L537.847 606.189ZM616.603 603.183C618.176 612.122 623.7 650.063 626.391 670.41L627.623 679.729L629.1 678.472C631.391 676.521 633.52 672.677 634.418 668.871C635.122 665.889 634.765 661.812 631.871 639.799C628.473 613.947 626.905 606.13 624.145 601.282C622.601 598.568 616.936 593.469 615.65 593.634C615.221 593.689 615.601 597.493 616.603 603.183ZM269.974 645.134C270.664 648.331 271.94 656.485 272.809 663.253C274.535 676.693 274.851 677.242 277.919 672.172C279.425 669.685 279.424 669.293 277.907 657.483C276.283 644.835 275.826 643.512 272.025 640.439C269.021 638.009 268.629 638.905 269.974 645.134ZM361.667 642.011C361.547 646.777 361.348 654.172 361.223 658.445C361.098 662.718 361.199 666.324 361.445 666.457C362.385 666.967 365.269 661.802 366.045 658.219C366.7 655.19 366.554 652.692 365.278 645.142C363.055 631.99 361.942 631.025 361.667 642.011ZM572.505 612.044C573.597 612.198 574.97 612.82 575.555 613.428C577.245 615.182 579.188 624.98 582.428 648.079C585.717 671.526 585.718 671.501 581.523 673.383C576.486 675.643 572.628 673.976 570.964 668.823C570.355 666.935 568.263 654.748 566.316 641.739C563 619.587 562.848 617.953 563.914 615.986C564.982 614.018 567.545 612.175 569.613 611.891C570.112 611.822 571.413 611.891 572.505 612.044ZM594.28 609.575C595.263 609.923 596.51 611.087 597.049 612.163C598.324 614.708 601.043 630.314 603.743 650.585C605.778 665.867 605.824 666.857 604.576 668.419C601.891 671.778 596.859 672.393 593.367 669.789C591.795 668.616 591.382 667.343 589.786 658.756C588.792 653.416 586.957 641.282 585.707 631.792C583.308 613.579 583.365 612.174 586.589 610.307C588.471 609.217 592.247 608.857 594.28 609.575ZM243.301 655.457C246.355 655.886 248.138 658.295 248.749 662.816C249.042 664.989 248.994 667.509 248.642 668.418C247.878 670.386 244.209 672.184 239.796 672.751L236.708 673.147L235.61 664.598L234.512 656.05L237.909 655.613C239.777 655.373 242.204 655.303 243.301 655.457ZM223.458 658.567C226.554 659.002 228.176 661.275 228.787 666.036C229.621 672.522 227.482 674.893 219.923 675.864L217.083 676.229L216.155 672.902C214.982 668.696 214.016 661.295 214.479 660.071C214.886 658.997 220.192 658.108 223.458 658.567ZM333.412 645.741C335.273 646.748 335.782 647.551 336.428 650.5C338.06 657.937 336.114 660.372 327.664 661.461L323.26 662.029L322.189 653.692L321.118 645.355L326.146 644.942C330.329 644.598 331.55 644.733 333.412 645.741ZM312.944 648.667C317.168 650.954 318.398 659.03 314.982 662.042C313.67 663.199 312.158 663.737 308.357 664.404L303.432 665.267L302.887 662.328C301.868 656.837 300.903 649.485 301.142 649.032C301.274 648.784 303.455 648.315 305.99 647.989C310.018 647.472 310.895 647.557 312.944 648.667ZM413.221 656.64C415.343 664.539 417.415 672.964 417.826 675.364L418.574 679.727L413.703 680.553L408.832 681.379L408.452 675.087C407.719 662.975 407.009 640.331 407.335 639.456C407.907 637.915 409.223 641.755 413.221 656.64ZM393.599 660.663C396.339 670.739 398.693 679.789 398.832 680.773L399.084 682.563L393.989 683.218L388.894 683.872L388.495 677.056C387.994 668.513 387.428 647.589 387.609 644.321C387.684 642.972 387.941 641.975 388.181 642.106C388.421 642.236 390.858 650.586 393.599 660.663ZM277.653 700.825C280.689 724.331 280.702 724.396 282.02 722.829C286.541 717.455 287.526 711.378 285.918 698.782C284.614 688.571 283.11 683.295 280.769 680.728C279.153 678.956 276.186 677.046 275.24 677.168C274.892 677.212 275.978 687.858 277.653 700.825ZM360.797 671.867C360.678 672.607 360.416 681.686 360.215 692.041C360.014 702.397 359.775 712.979 359.686 715.557C359.597 718.134 359.759 720.457 360.048 720.717C360.339 720.979 363.366 720.76 366.81 720.228L373.045 719.266L370.274 697.757C367.297 674.645 367.244 674.463 362.745 671.616L361.013 670.521L360.797 671.867ZM248.624 690.354C253.189 691.112 254.376 693.009 255.789 701.811C256.842 708.372 256.857 709.806 255.889 711.57C254.305 714.46 251.804 715.979 247.369 716.742L243.56 717.398L241.297 704.923C240.051 698.062 239.182 692.056 239.363 691.576C239.793 690.44 245.002 689.752 248.624 690.354ZM446.43 686.713L449.221 709.2L453.501 708.65L457.781 708.1L457.07 706.089C456.68 704.983 454.244 697.286 451.659 688.984C442.951 661.024 443.259 661.158 446.43 686.713ZM230.627 693.927C233.805 695.143 235.083 697.865 236.158 705.698C237.547 715.822 235.727 718.685 227.203 719.78L223.52 720.253L222.554 716.593C222.022 714.58 221.031 708.622 220.351 703.353L219.115 693.774L223.751 693.422C226.804 693.19 229.153 693.363 230.627 693.927ZM707.531 636.634C707.402 636.882 708.177 642.017 709.252 648.046C711.491 660.597 712.864 663.353 718.618 666.839L721.926 668.843L720.959 661.068C720.428 656.791 719.235 649.187 718.309 644.169L716.625 635.045L712.195 635.614C709.759 635.927 707.659 636.385 707.531 636.634Z" fill="white"/>
</g>
<rect x="1.37616" y="90.9833" width="703.291" height="669.684" transform="rotate(-7.32 1.37616 90.9833)" stroke="white" stroke-width="2.45906"/>
<defs>
<clipPath id="clip0_368_154">
<rect y="89.9204" width="705.75" height="672.143" transform="rotate(-7.32 0 89.9204)" fill="white"/>
</clipPath>
</defs>
</svg>
