<svg width="642" height="888" viewBox="0 0 642 888" fill="none" xmlns="http://www.w3.org/2000/svg">
<g clip-path="url(#clip0_364_147)">
<circle cx="321.126" cy="308.127" r="303.094" transform="rotate(133.598 321.126 308.127)" fill="black" stroke="white" stroke-width="2.28498"/>
<path d="M133.314 506.397C23.7986 402.113 19.5576 228.794 123.842 119.278M510.961 109.806C620.477 214.09 624.718 387.409 520.434 496.925" stroke="white" stroke-width="7.61659"/>
<path d="M484.997 136.177C580.865 227.465 585.275 378.452 494.848 473.415" stroke="white" stroke-width="6.85493"/>
<path d="M157.941 480.46C62.0728 389.171 57.6621 238.184 148.089 143.221" stroke="white" stroke-width="6.85493"/>
<path d="M462.363 160.289C544.005 238.031 547.166 367.237 469.425 448.879" stroke="white" stroke-width="6.14422"/>
<path d="M180.573 456.347C98.9308 378.605 95.7692 249.399 173.511 167.757" stroke="white" stroke-width="6.14422"/>
<path d="M440.303 183.457C509.15 249.015 511.816 357.972 446.258 426.82" stroke="white" stroke-width="5.18132"/>
<path d="M202.632 433.18C133.785 367.622 131.119 258.664 196.678 189.817" stroke="white" stroke-width="5.18132"/>
<path d="M417.359 207.207C476.938 263.939 482.386 354.928 429.53 410.437" stroke="white" stroke-width="4.65402"/>
<path d="M225.577 409.429C165.999 352.697 160.55 261.708 213.407 206.2" stroke="white" stroke-width="4.65402"/>
<path d="M403.539 222.54C451.247 267.969 453.444 343.104 408.445 390.36" stroke="white" stroke-width="3.71404"/>
<path d="M239.397 394.097C191.69 348.668 189.493 273.532 234.491 226.276" stroke="white" stroke-width="3.71404"/>
<path d="M258.781 374.085C222.348 339.392 221.053 281.608 255.892 245.021C290.732 208.434 348.51 206.901 384.943 241.594C421.376 276.287 422.671 334.071 387.832 370.658C352.992 407.245 295.214 408.778 258.781 374.085Z" fill="white" stroke="black" stroke-width="0.609542"/>
<g clip-path="url(#clip1_364_147)">
<rect y="267" width="642" height="621" fill="black"/>
<path d="M222.035 323.897H209.033V358.904H235.538V347.401H222.035V323.897ZM252.559 346.401H265.562V336.399H252.559V333.899H266.562V323.897H239.557V358.904H267.562V348.902H252.559V346.401ZM270.082 323.897V335.399H279.584V358.904H292.587V335.399H302.089V323.897H270.082ZM329.088 323.897H316.086V358.904H329.088V323.897ZM333.083 323.897V335.399H342.585V358.904H355.588V335.399H365.09V323.897H333.083ZM403.091 340.4C403.091 340.4 409.593 339.15 409.593 333.149C409.593 327.898 405.092 323.397 393.839 323.397C386.088 323.397 379.087 323.897 379.087 323.897V358.904C379.087 358.904 386.088 359.404 394.09 359.404C406.592 359.404 411.093 354.903 411.093 349.402C411.093 341.9 403.091 340.65 403.091 340.65V340.4ZM392.089 332.398H393.839C395.59 332.398 396.59 333.399 396.59 334.649C396.59 335.899 395.59 336.899 393.839 336.899H392.089V332.398ZM394.09 350.402C393.089 350.402 392.089 350.402 392.089 350.402V345.401H394.09C396.09 345.401 397.09 346.401 397.09 347.902C397.09 349.402 396.09 350.402 394.09 350.402ZM428.62 346.401H441.623V336.399H428.62V333.899H442.623V323.897H415.617V358.904H443.623V348.902H428.62V346.401Z" fill="white"/>
<rect x="47.7207" y="377.591" width="272.689" height="227.241" fill="black"/>
<rect x="47.7207" y="614.679" width="272.689" height="227.241" fill="black"/>
<rect x="331.015" y="377.591" width="272.689" height="227.241" fill="black"/>
<rect x="331.015" y="614.679" width="272.689" height="227.241" fill="black"/>
<rect x="434.788" y="614.679" width="78.7769" height="224.969" fill="white"/>
<rect x="530.229" y="614.679" width="62.1126" height="224.969" fill="white"/>
<rect x="342.376" y="614.679" width="68.9298" height="224.969" fill="white"/>
<rect x="153.767" y="377.591" width="78.7769" height="224.969" fill="white"/>
<rect x="249.208" y="377.591" width="62.1126" height="224.969" fill="white"/>
<rect x="61.3545" y="377.591" width="68.9298" height="224.969" fill="white"/>
<rect x="199.972" y="614.679" width="75.747" height="227.241" fill="white"/>
<path d="M187.196 733.048V769.046H216.934V842.609H257.628V769.046H287.366V733.048H187.196Z" fill="black"/>
<path d="M381.1 732.048H340.406V841.609H423.359V805.61H381.1V732.048Z" fill="black"/>
<rect x="503.718" y="377.591" width="52.2654" height="224.969" fill="white"/>
<rect x="381.008" y="377.591" width="73.4746" height="207.547" fill="white"/>
<path d="M455.678 544.338C455.678 544.338 476.025 540.425 476.025 521.643C476.025 505.209 461.939 491.123 426.723 491.123C402.463 491.123 380.551 492.688 380.551 492.688V602.249C380.551 602.249 402.463 603.814 427.505 603.814C466.634 603.814 480.72 589.727 480.72 572.511C480.72 549.034 455.678 545.121 455.678 545.121V544.338ZM421.245 519.296H426.723C432.201 519.296 435.331 522.426 435.331 526.339C435.331 530.252 432.201 533.382 426.723 533.382H421.245V519.296ZM427.505 575.641C424.375 575.641 421.245 575.641 421.245 575.641V559.99H427.505C433.766 559.99 436.896 563.12 436.896 567.815C436.896 572.511 433.766 575.641 427.505 575.641Z" fill="black"/>
<path d="M525.085 564.871H565.779V533.568H525.085V525.743H568.909V494.44H484.391V604H572.039V572.697H525.085V564.871Z" fill="black"/>
<path d="M50.0932 493.688V529.687H79.831V603.249H120.525V529.687H150.263V493.688H50.0932Z" fill="black"/>
<path d="M187.186 494.961H146.492V604.521H187.186V566.957H212.229V604.521H252.922V494.961H212.229V532.524H187.186V494.961Z" fill="black"/>
<path d="M275.085 564.871H315.779V533.568H275.085V525.743H318.909V494.44H234.391V604H322.039V572.697H275.085V564.871Z" fill="black"/>
<path d="M474.268 802.48H514.962V771.177H474.268V763.351H518.092V732.048H433.574V841.609H521.223V810.306H474.268V802.48Z" fill="black"/>
<path d="M549.032 811.871C533.381 811.871 522.424 801.697 522.424 801.697L507.555 825.175C507.555 825.175 521.642 843.957 556.075 843.957C583.466 843.957 600.682 826.74 600.682 808.741C600.682 774.307 558.423 774.307 558.423 766.481C558.423 764.133 560.771 761.786 564.684 761.786C575.64 761.786 585.031 770.394 585.031 770.394L599.9 746.917C599.9 746.917 585.813 729.7 557.641 729.7C530.25 729.7 513.033 746.917 513.033 764.916C513.033 799.35 555.293 799.35 555.293 807.175C555.293 809.523 552.945 811.871 549.032 811.871Z" fill="black"/>
<rect x="100.743" y="617.709" width="48.4781" height="224.969" fill="white"/>
<path d="M152.009 733.805H98.7935L66.7077 843.366H112.097L115.228 827.715H135.575L138.705 843.366H184.095C184.095 843.366 152.166 734.431 152.009 733.805ZM119.923 802.672L125.401 774.499L130.879 802.672H119.923Z" fill="black"/>
</g>
<rect x="1.13621" y="268.136" width="639.728" height="618.728" stroke="white" stroke-width="2.27241"/>
</g>
<defs>
<clipPath id="clip0_364_147">
<rect width="642" height="888" fill="white"/>
</clipPath>
<clipPath id="clip1_364_147">
<rect y="267" width="642" height="621" fill="white"/>
</clipPath>
</defs>
</svg>
