<svg width="1440" height="854" viewBox="0 0 1440 854" fill="none" xmlns="http://www.w3.org/2000/svg">
<g clip-path="url(#clip0_331_425)">
<path d="M165.617 234.483H97.8517L56.9931 374H114.793L118.779 354.069H144.69L148.676 374H206.476C206.476 374 165.817 235.28 165.617 234.483ZM124.759 322.179L131.734 286.303L138.71 322.179H124.759ZM105.824 198.607C105.824 213.555 116.786 224.517 131.734 224.517C146.683 224.517 157.645 213.555 157.645 198.607C157.645 183.659 146.683 172.697 131.734 172.697C116.786 172.697 105.824 183.659 105.824 198.607ZM123.762 198.607C123.762 194.621 127.748 190.635 131.734 190.635C135.721 190.635 139.707 194.621 139.707 198.607C139.707 202.593 135.721 206.579 131.734 206.579C127.748 206.579 123.762 202.593 123.762 198.607Z" fill="white"/>
<path d="M316.671 24.1381C295.391 24.1381 285.933 41.8713 285.933 41.8713L281.204 27.6847H226.822V153H283.569V86.7957C283.569 77.3379 288.298 72.6091 293.026 72.6091C297.755 72.6091 302.484 77.3379 302.484 86.7957V153H359.231V86.7957C359.231 43.0536 340.315 24.1381 316.671 24.1381ZM315.489 171.916H270.564V214.475H289.48L280.022 242.849H298.938L315.489 207.382V171.916Z" fill="white"/>
<path d="M374.379 207.107L350.51 217.956V253.76L372.209 243.995V315.602H411.267V207.107H374.379ZM482.874 207.107H459.005L415.607 359H439.476L482.874 207.107ZM574.01 311.262H563.161V250.505H508.913L472.024 311.262V341.641H524.102V359H563.161V341.641H574.01V311.262ZM524.102 311.262H508.913L524.102 283.053V311.262Z" fill="white"/>
<path d="M492.89 79.4675H518.152L550.304 31.2392H513.559L492.89 79.4675ZM541.118 79.4675H566.38L598.533 31.2392H561.787L541.118 79.4675Z" fill="white"/>
<path d="M614.249 350.249H651.244V398.805H697.488V350.249H734.483V306.317H697.488V262.385H734.483V218.453H697.488V169.897H651.244V218.453H614.249V262.385H651.244V306.317H614.249V350.249Z" fill="white"/>
<path d="M905.713 154.052L882.366 134.392L905.713 106.131L872.536 77.8691L849.19 106.131L836.902 95.0717C836.902 95.0717 860.249 75.4116 860.249 55.7514C860.249 31.1762 838.131 9.0585 807.412 9.0585C774.235 9.0585 752.118 31.1762 752.118 58.2089C752.118 79.0978 766.863 92.6142 766.863 92.6142C766.863 92.6142 737.373 109.817 737.373 139.307C737.373 167.569 759.49 189.686 798.811 189.686C833.216 189.686 852.876 167.569 852.876 167.569L876.222 188.458L905.713 154.052ZM796.353 60.6664C796.353 53.2939 801.268 48.3788 807.412 48.3788C813.556 48.3788 818.471 53.2939 818.471 60.6664C818.471 68.039 807.412 75.4116 807.412 75.4116C807.412 75.4116 796.353 68.039 796.353 60.6664ZM788.981 133.163C788.981 125.791 796.353 119.647 796.353 119.647L819.7 139.307C819.7 139.307 813.556 146.68 802.497 146.68C795.124 146.68 788.981 140.536 788.981 133.163Z" fill="white"/>
<path d="M952.37 161.705C962.74 161.964 967.926 167.149 967.926 177.519V216.407C967.926 239.74 983.481 255.296 1006.81 255.296H1037.92V213.815H1024.96C1019.78 213.815 1017.18 211.222 1017.18 206.037V177.519C1017.18 151.594 996.444 146.409 996.444 146.409C996.444 146.409 1017.18 141.223 1017.18 115.298V86.7798C1017.18 81.5947 1019.78 79.0022 1024.96 79.0022H1037.92V37.5213H1006.81C983.481 37.5213 967.926 53.0766 967.926 76.4096V115.298C967.926 125.668 962.74 130.853 952.37 131.112V161.705Z" fill="white"/>
<path d="M1059.78 212.815V254.296H1137.55V36.5213H1059.78V78.0022H1088.3V212.815H1059.78Z" fill="white"/>
<path d="M195.236 481.909C195.236 492.927 190.228 497.936 185.219 497.936C180.211 497.936 175.203 492.927 175.203 483.912V445.848H147.155L145.152 451.858C145.152 451.858 141.145 443.845 130.127 443.845C115.101 443.845 101.078 457.868 101.078 481.909C101.078 505.949 115.101 519.973 130.127 519.973C151.162 519.973 157.172 505.949 157.172 505.949C157.172 505.949 163.182 519.973 181.213 519.973C199.243 519.973 215.27 503.946 215.27 481.909C215.27 441.841 181.213 407.784 139.142 407.784C97.0709 407.784 63.0135 441.841 63.0135 481.909C63.0135 521.976 97.0709 556.034 139.142 556.034C163.182 556.034 179.209 546.017 179.209 546.017L171.196 527.986C171.196 527.986 157.172 536 139.142 536C107.088 536 83.0473 511.959 83.0473 481.909C83.0473 451.858 107.088 427.818 139.142 427.818C171.196 427.818 195.236 451.858 195.236 481.909ZM145.152 494.931C145.152 494.931 143.149 495.932 141.145 495.932C136.137 495.932 132.13 491.926 132.13 481.909C132.13 471.892 136.137 467.885 141.145 467.885C143.149 467.885 145.152 468.887 145.152 468.887V494.931Z" fill="white"/>
<path d="M366.306 585H408.883V614.272H472.75V585H515.328V443.961H451.461V531.778H430.172V443.961H366.306V585Z" fill="white"/>
<path d="M660.683 575.982L680.173 553.709V559.277C680.173 569.022 673.212 575.982 664.86 575.982H660.683ZM664.86 610.088C696.878 610.088 719.151 587.815 719.151 559.138C719.151 537.004 705.926 525.171 705.926 525.171L714.279 515.426L702.446 504.986L693.397 515.426C693.397 515.426 682.957 508.466 664.86 508.466C632.842 508.466 610.568 530.739 610.568 559.416C610.568 581.55 623.793 593.383 623.793 593.383L615.441 603.128L627.273 613.568L636.322 603.128C636.322 603.128 646.763 610.088 664.86 610.088ZM669.036 542.572L649.547 564.845V559.277C649.547 549.532 656.507 542.572 664.86 542.572H669.036Z" fill="white"/>
<path d="M797.074 503.645L777 589.678H822.884L857.297 503.645H797.074Z" fill="white"/>
<path d="M872.644 410.146L862.41 388.216C862.41 388.216 869.72 383.83 869.72 375.058C869.72 364.824 860.948 356.052 843.404 356.052C831.708 356.052 820.012 357.514 820.012 357.514V410.146H841.942V394.064H842.673L847.79 410.146H872.644ZM841.942 370.672H843.404C845.597 370.672 847.79 372.865 847.79 375.058C847.79 377.251 845.451 379.444 843.404 379.444H841.942V370.672ZM787.848 383.83C787.848 413.07 812.702 437.924 843.404 437.924C874.106 437.924 898.96 413.07 898.96 383.83C898.96 354.59 874.106 329.736 843.404 329.736C812.702 329.736 787.848 354.59 787.848 383.83ZM884.34 383.83C884.34 405.76 866.796 423.304 843.404 423.304C820.012 423.304 802.468 405.76 802.468 383.83C802.468 361.9 820.012 344.356 843.404 344.356C866.796 344.356 884.34 361.9 884.34 383.83Z" fill="white"/>
<path d="M719.915 777.133L732.893 796.1L755.853 779.13L741.877 761.161L762.841 755.171L753.856 729.216L732.893 736.204L733.891 714.242H705.939L706.938 736.204L685.974 729.216L676.99 755.171L697.953 761.161L683.977 779.13L706.938 796.1L719.915 777.133Z" fill="white"/>
<path d="M951.986 419.121C951.986 460.05 978.74 489 1031.85 489H1149.64V449.069H1089.75V439.087H1141.66V399.156H1089.75V389.173H1145.65V349.242H1031.85C978.74 349.242 951.986 378.192 951.986 419.121ZM1031.85 447.073C1016.87 447.073 1007.89 438.088 1007.89 419.121C1007.89 400.154 1016.87 391.17 1031.85 391.17H1037.84V447.073H1031.85Z" fill="white"/>
<path d="M1379.62 375.461C1379.62 336.745 1344.42 301.549 1284.59 301.549C1200.12 301.549 1186.04 368.422 1186.04 368.422L1252.91 393.059C1252.91 393.059 1256.43 371.941 1274.03 371.941C1281.07 371.941 1288.11 378.981 1288.11 386.02C1288.11 410.657 1245.87 417.696 1245.87 470.49H1319.78C1319.78 435.294 1379.62 421.216 1379.62 375.461ZM1245.87 491.608V562H1319.78V491.608H1245.87Z" fill="white"/>
<path d="M60.9896 672.177C60.9896 692.142 78.9584 710.111 96.9273 710.111V823.913H136.858V678.166H146.841V823.913H186.771V678.166H202.744V634.242H96.9273C78.9584 634.242 60.9896 652.211 60.9896 672.177Z" fill="white"/>
<path d="M325.851 457.211C325.851 447.229 317.865 439.242 307.882 439.242C297.9 439.242 289.913 447.229 289.913 457.211C289.913 467.194 297.9 475.18 307.882 475.18C317.865 475.18 325.851 467.194 325.851 457.211ZM281.927 457.211C281.927 447.229 273.941 439.242 263.958 439.242C253.976 439.242 245.99 447.229 245.99 457.211C245.99 467.194 253.976 475.18 263.958 475.18C273.941 475.18 281.927 467.194 281.927 457.211Z" fill="white"/>
<path d="M313.909 776.321C313.909 786.439 306.55 793.798 295.512 793.798C286.313 793.798 278.954 786.439 278.954 786.439L260.557 815.874C260.557 815.874 275.275 831.512 301.951 831.512C333.226 831.512 358.062 806.676 358.062 776.321V682.495H317.588L313.909 693.534C313.909 693.534 306.55 679.736 288.153 679.736C267.916 679.736 249.519 698.133 249.519 729.408C249.519 760.683 267.916 779.08 288.153 779.08C306.55 779.08 313.909 765.282 313.909 765.282V776.321ZM295.512 729.408C295.512 722.049 300.111 717.45 305.63 717.45C311.149 717.45 315.749 722.049 315.749 729.408C315.749 736.767 311.149 741.366 305.63 741.366C300.111 741.366 295.512 736.767 295.512 729.408ZM306.55 642.022C301.951 642.022 299.191 639.262 299.191 634.663H271.596C271.596 655.82 285.393 669.617 306.55 669.617C327.707 669.617 341.505 655.82 341.505 634.663H313.909C313.909 639.262 311.149 642.022 306.55 642.022Z" fill="white"/>
<path d="M405.986 726.121V760.062L509.806 796V762.059L447.913 743.092L509.806 724.125V690.184L405.986 726.121ZM525.7 690.184V724.125L587.593 743.092L525.7 762.059V796L629.52 760.062V726.121L525.7 690.184Z" fill="white"/>
<path d="M956.931 626.173C956.931 618.187 962.92 612.197 968.91 612.197C974.9 612.197 980.889 618.187 980.889 626.173C980.889 634.159 974.9 640.149 968.91 640.149C962.92 640.149 956.931 634.159 956.931 626.173ZM924.986 626.173C924.986 650.132 942.955 668.1 968.91 668.1C994.865 668.1 1012.83 650.132 1012.83 626.173C1012.83 602.215 994.865 584.246 968.91 584.246C942.955 584.246 924.986 602.215 924.986 626.173ZM1060.66 626.173C1060.66 618.187 1066.65 612.197 1072.64 612.197C1078.63 612.197 1084.62 618.187 1084.62 626.173C1084.62 634.159 1078.63 640.149 1072.64 640.149C1066.65 640.149 1060.66 634.159 1060.66 626.173ZM1028.71 626.173C1028.71 650.132 1046.68 668.1 1072.64 668.1C1098.59 668.1 1116.56 650.132 1116.56 626.173C1116.56 602.215 1098.59 584.246 1072.64 584.246C1046.68 584.246 1028.71 602.215 1028.71 626.173Z" fill="white"/>
<path d="M1376.75 759.774C1376.75 722.113 1358.49 703.853 1331.1 703.853C1308.28 703.853 1296.86 722.113 1296.86 722.113V694.723H1333.38V642.226H1201V694.723H1237.52V802H1296.86V760.915C1296.86 754.068 1301.43 749.503 1307.14 749.503C1312.84 749.503 1317.41 754.068 1317.41 759.774C1317.41 766.393 1312.84 771.186 1305.99 771.186H1303.71V811.13C1303.71 811.13 1312.84 813.412 1321.97 813.412C1356.21 813.412 1376.75 792.87 1376.75 759.774Z" fill="white"/>
<path d="M1233.47 195L1315.65 72.593H1280.68L1198.49 195H1233.47ZM1219.48 90.0797C1222.97 90.0797 1226.47 93.577 1226.47 98.8231C1226.47 104.069 1222.97 107.566 1219.48 107.566C1215.98 107.566 1212.48 104.069 1212.48 98.8231C1212.48 93.577 1215.98 90.0797 1219.48 90.0797ZM1219.48 126.802C1235.21 126.802 1247.45 114.561 1247.45 98.8231C1247.45 83.085 1235.21 70.8443 1219.48 70.8443C1203.74 70.8443 1191.5 83.085 1191.5 98.8231C1191.5 114.561 1203.74 126.802 1219.48 126.802ZM1292.92 160.027C1296.42 160.027 1299.91 163.524 1299.91 168.77C1299.91 174.016 1296.42 177.513 1292.92 177.513C1289.42 177.513 1285.93 174.016 1285.93 168.77C1285.93 163.524 1289.42 160.027 1292.92 160.027ZM1292.92 196.749C1308.66 196.749 1320.9 184.508 1320.9 168.77C1320.9 153.032 1308.66 140.791 1292.92 140.791C1277.18 140.791 1264.94 153.032 1264.94 168.77C1264.94 184.508 1277.18 196.749 1292.92 196.749ZM1352.38 160.027C1355.87 160.027 1359.37 163.524 1359.37 168.77C1359.37 174.016 1355.87 177.513 1352.38 177.513C1348.88 177.513 1345.38 174.016 1345.38 168.77C1345.38 163.524 1348.88 160.027 1352.38 160.027ZM1352.38 196.749C1368.11 196.749 1380.35 184.508 1380.35 168.77C1380.35 153.032 1368.11 140.791 1352.38 140.791C1336.64 140.791 1324.4 153.032 1324.4 168.77C1324.4 184.508 1336.64 196.749 1352.38 196.749Z" fill="white"/>
<path d="M908.187 733.326H875.054V744.796H840.646V834H873.779V774.106H908.187V733.326Z" fill="white"/>
<path d="M1086.85 763.481C1075.51 763.481 1064.18 746.478 1044.34 746.478C1021.67 746.478 1007.5 760.647 1007.5 786.151V814.49H1038.67C1038.67 805.988 1044.34 800.321 1052.84 800.321C1064.18 800.321 1075.51 817.324 1095.35 817.324C1118.02 817.324 1132.19 803.154 1132.19 777.65V749.312H1101.02C1101.02 757.813 1095.35 763.481 1086.85 763.481Z" fill="white"/>
<path d="M86.1753 138.492C82.0871 133.613 77.8672 129.393 73.5153 125.832C69.1634 122.272 64.6797 119.37 60.0641 117.129V113.568C69.1634 108.952 77.8672 101.831 86.1753 92.2043H93.0987C90.9887 96.688 88.8787 100.644 86.7687 104.073C84.6587 107.37 82.6146 110.139 80.6365 112.381V118.315C82.6146 120.425 84.6587 123.195 86.7687 126.624C88.8787 129.92 90.9887 133.877 93.0987 138.492H86.1753ZM79.6475 119.502V111.194H196.95V119.502H79.6475Z" fill="white"/>
<path d="M1097.23 700.469L1097.06 701.667H1092.89V713H1091.5V701.667H1087.19V700.469H1097.23ZM1110.21 713H1108.84V705.237C1108.84 704.231 1108.89 703.176 1108.99 702.074L1102.73 713H1101.1V700.469H1102.49V707.825C1102.49 708.639 1102.45 709.813 1102.35 711.347L1108.58 700.469H1110.21V713ZM1125.01 700.469V713H1123.62V701.643H1118.78L1118.4 706.291C1118.25 708.128 1118.1 709.462 1117.94 710.293C1117.78 711.123 1117.52 711.754 1117.15 712.185C1116.78 712.617 1116.2 712.96 1115.4 713.216L1115.02 712.09C1115.55 711.898 1115.92 711.642 1116.15 711.323C1116.38 710.987 1116.56 710.468 1116.67 709.765C1116.78 709.063 1116.9 707.857 1117.03 706.147L1117.51 700.469H1125.01ZM1134.89 704.686C1138.23 704.686 1139.9 706.044 1139.9 708.759C1139.9 710.165 1139.46 711.227 1138.58 711.946C1137.7 712.649 1136.56 713 1135.15 713H1131.3V700.469H1132.69V704.686H1134.89ZM1135.03 711.85C1136.12 711.85 1136.95 711.61 1137.53 711.131C1138.12 710.636 1138.41 709.845 1138.41 708.759C1138.41 707.785 1138.14 707.05 1137.6 706.555C1137.07 706.06 1136.18 705.812 1134.91 705.812H1132.69V711.85H1135.03ZM1153.84 711.826V716.474H1152.74L1152.45 713H1143.52L1143.23 716.474H1142.13V711.826H1142.92C1143.35 711.522 1143.68 711.195 1143.92 710.844C1144.16 710.476 1144.38 709.869 1144.57 709.023C1144.76 708.16 1144.91 706.914 1145.02 705.285L1145.36 700.469H1152.64V711.826H1153.84ZM1151.23 701.619H1146.65L1146.39 705.117C1146.29 706.683 1146.16 707.905 1145.98 708.783C1145.81 709.646 1145.58 710.293 1145.31 710.724C1145.04 711.155 1144.68 711.522 1144.23 711.826H1151.23V701.619ZM1166.7 710.221C1166.7 710.876 1166.78 711.347 1166.94 711.634C1167.12 711.922 1167.39 712.137 1167.76 712.281L1167.45 713.264C1166.87 713.152 1166.42 712.936 1166.1 712.617C1165.8 712.297 1165.6 711.81 1165.51 711.155C1164.64 712.561 1163.34 713.264 1161.6 713.264C1160.4 713.264 1159.45 712.928 1158.75 712.257C1158.06 711.57 1157.72 710.66 1157.72 709.526C1157.72 708.232 1158.17 707.234 1159.08 706.531C1160.01 705.828 1161.29 705.477 1162.92 705.477H1165.31V704.255C1165.31 703.248 1165.09 702.521 1164.64 702.074C1164.2 701.611 1163.45 701.379 1162.41 701.379C1161.46 701.379 1160.32 701.619 1159.01 702.098L1158.65 701.044C1160.06 700.485 1161.38 700.205 1162.61 700.205C1165.34 700.205 1166.7 701.531 1166.7 704.183V710.221ZM1161.84 712.137C1163.34 712.137 1164.5 711.403 1165.31 709.933V706.483H1163.13C1161.86 706.483 1160.88 706.73 1160.21 707.226C1159.54 707.721 1159.2 708.464 1159.2 709.454C1159.2 710.316 1159.44 710.979 1159.9 711.443C1160.36 711.906 1161.01 712.137 1161.84 712.137Z" fill="white" fill-opacity="0.85"/>
<path d="M787.327 255.221C787.327 255.876 787.407 256.347 787.566 256.634C787.742 256.922 788.014 257.137 788.381 257.281L788.07 258.264C787.494 258.152 787.047 257.936 786.728 257.617C786.424 257.297 786.225 256.81 786.129 256.155C785.266 257.561 783.964 258.264 782.223 258.264C781.025 258.264 780.075 257.928 779.372 257.257C778.685 256.57 778.342 255.66 778.342 254.526C778.342 253.232 778.797 252.234 779.707 251.531C780.634 250.828 781.912 250.477 783.541 250.477H785.937V249.255C785.937 248.248 785.713 247.521 785.266 247.074C784.819 246.611 784.076 246.379 783.038 246.379C782.08 246.379 780.945 246.619 779.636 247.098L779.276 246.044C780.682 245.485 782 245.205 783.23 245.205C785.961 245.205 787.327 246.531 787.327 249.183V255.221ZM782.463 257.137C783.964 257.137 785.122 256.403 785.937 254.933V251.483H783.757C782.479 251.483 781.504 251.73 780.834 252.226C780.163 252.721 779.827 253.464 779.827 254.454C779.827 255.316 780.059 255.979 780.522 256.443C780.985 256.906 781.632 257.137 782.463 257.137ZM805.204 258H803.838L803.191 250.692C803.096 249.51 803.032 248.24 803 246.883L799.502 256.443H798.184L794.782 246.883C794.75 248.24 794.694 249.51 794.614 250.692L794.015 258H792.673L793.775 245.469H795.548L798.855 255.029L802.281 245.469H804.078L805.204 258ZM818.123 258V246.643H811.965V258H810.575V245.469H819.513V258H818.123ZM834.678 251.267C834.678 251.619 834.662 251.954 834.63 252.274H826.268C826.348 253.903 826.732 255.117 827.418 255.915C828.121 256.698 829.04 257.09 830.174 257.09C830.829 257.09 831.404 256.994 831.899 256.802C832.41 256.594 832.961 256.275 833.552 255.844L834.199 256.73C833.576 257.241 832.937 257.625 832.282 257.88C831.627 258.136 830.901 258.264 830.102 258.264C828.441 258.264 827.139 257.697 826.196 256.562C825.254 255.428 824.783 253.855 824.783 251.842C824.783 250.516 824.982 249.358 825.382 248.368C825.797 247.362 826.38 246.587 827.131 246.044C827.898 245.485 828.784 245.205 829.79 245.205C831.388 245.205 832.602 245.748 833.432 246.835C834.263 247.905 834.678 249.382 834.678 251.267ZM833.313 250.836C833.313 249.43 833.017 248.336 832.426 247.553C831.851 246.755 830.988 246.355 829.838 246.355C828.8 246.355 827.961 246.755 827.323 247.553C826.684 248.352 826.332 249.566 826.268 251.195H833.313V250.836ZM845.008 245.205C846.526 245.205 847.66 245.772 848.411 246.907C849.177 248.025 849.561 249.614 849.561 251.675C849.561 253.687 849.145 255.293 848.315 256.491C847.5 257.673 846.326 258.264 844.793 258.264C844.042 258.264 843.363 258.112 842.756 257.808C842.149 257.489 841.638 257.066 841.223 256.538V262.72L839.833 262.912V245.469H841.031L841.151 247.29C841.614 246.635 842.173 246.124 842.828 245.756C843.499 245.389 844.226 245.205 845.008 245.205ZM844.529 257.09C845.679 257.09 846.558 256.634 847.165 255.724C847.772 254.813 848.075 253.464 848.075 251.675C848.075 248.128 846.965 246.355 844.745 246.355C843.994 246.355 843.339 246.547 842.78 246.93C842.237 247.314 841.718 247.841 841.223 248.512V255.173C842.053 256.451 843.155 257.09 844.529 257.09ZM859.242 245.205C859.961 245.205 860.599 245.309 861.159 245.517C861.718 245.709 862.261 246.028 862.788 246.475L862.093 247.386C861.678 247.05 861.246 246.803 860.799 246.643C860.368 246.483 859.873 246.403 859.314 246.403C858.132 246.403 857.189 246.867 856.486 247.793C855.784 248.704 855.432 250.037 855.432 251.794C855.432 253.535 855.776 254.845 856.462 255.724C857.165 256.602 858.108 257.042 859.29 257.042C859.849 257.042 860.352 256.954 860.799 256.778C861.262 256.602 861.726 256.339 862.189 255.987L862.86 256.922C861.805 257.816 860.607 258.264 859.266 258.264C858.196 258.264 857.261 258.008 856.462 257.497C855.664 256.986 855.041 256.251 854.594 255.293C854.162 254.318 853.947 253.16 853.947 251.818C853.947 250.493 854.162 249.334 854.594 248.344C855.041 247.338 855.664 246.563 856.462 246.02C857.261 245.477 858.188 245.205 859.242 245.205ZM874.935 255.221C874.935 255.876 875.015 256.347 875.175 256.634C875.35 256.922 875.622 257.137 875.989 257.281L875.678 258.264C875.103 258.152 874.656 257.936 874.336 257.617C874.033 257.297 873.833 256.81 873.737 256.155C872.875 257.561 871.573 258.264 869.832 258.264C868.634 258.264 867.683 257.928 866.98 257.257C866.294 256.57 865.95 255.66 865.95 254.526C865.95 253.232 866.405 252.234 867.316 251.531C868.242 250.828 869.52 250.477 871.15 250.477H873.546V249.255C873.546 248.248 873.322 247.521 872.875 247.074C872.427 246.611 871.685 246.379 870.646 246.379C869.688 246.379 868.554 246.619 867.244 247.098L866.885 246.044C868.29 245.485 869.608 245.205 870.838 245.205C873.569 245.205 874.935 246.531 874.935 249.183V255.221ZM870.071 257.137C871.573 257.137 872.731 256.403 873.546 254.933V251.483H871.365C870.087 251.483 869.113 251.73 868.442 252.226C867.771 252.721 867.436 253.464 867.436 254.454C867.436 255.316 867.667 255.979 868.131 256.443C868.594 256.906 869.241 257.137 870.071 257.137ZM888.811 258V252.106H882.582V258H881.192V245.469H882.582V250.932H888.811V245.469H890.201V258H888.811ZM905.796 256.826V261.474H904.694L904.407 258H895.469L895.182 261.474H894.08V256.826H894.87C895.302 256.522 895.637 256.195 895.877 255.844C896.116 255.476 896.332 254.869 896.524 254.023C896.715 253.16 896.867 251.914 896.979 250.285L897.314 245.469H904.598V256.826H905.796ZM903.185 246.619H898.608L898.345 250.117C898.249 251.683 898.113 252.905 897.937 253.783C897.762 254.646 897.538 255.293 897.266 255.724C896.995 256.155 896.636 256.522 896.188 256.826H903.185V246.619Z" fill="white" fill-opacity="0.85"/>
<path d="M1183.44 245.205C1184.88 245.205 1185.91 245.764 1186.53 246.883C1187.16 248.001 1187.47 249.598 1187.47 251.675C1187.47 253.703 1187.11 255.308 1186.39 256.491C1185.69 257.673 1184.68 258.264 1183.37 258.264C1182.14 258.264 1181.09 257.681 1180.23 256.514V262.72L1178.89 262.912V256.538C1178.06 257.689 1177 258.264 1175.7 258.264C1174.42 258.264 1173.43 257.673 1172.71 256.491C1172 255.293 1171.65 253.687 1171.65 251.675C1171.65 249.63 1171.99 248.041 1172.66 246.907C1173.33 245.772 1174.36 245.205 1175.75 245.205C1177.04 245.205 1178.09 245.772 1178.89 246.907V240.198L1180.23 240.365V246.954C1181.05 245.788 1182.12 245.205 1183.44 245.205ZM1175.97 257.113C1177.1 257.113 1178.07 256.483 1178.89 255.221V248.272C1178.07 246.994 1177.1 246.355 1175.97 246.355C1175.07 246.355 1174.38 246.811 1173.88 247.721C1173.39 248.616 1173.14 249.933 1173.14 251.675C1173.14 253.432 1173.38 254.781 1173.86 255.724C1174.35 256.65 1175.06 257.113 1175.97 257.113ZM1183.2 257.113C1184.1 257.113 1184.78 256.65 1185.26 255.724C1185.74 254.781 1185.98 253.432 1185.98 251.675C1185.98 249.902 1185.76 248.576 1185.31 247.697C1184.86 246.803 1184.18 246.355 1183.25 246.355C1182.04 246.355 1181.03 246.994 1180.23 248.272V255.221C1180.66 255.844 1181.12 256.315 1181.6 256.634C1182.08 256.954 1182.61 257.113 1183.2 257.113ZM1201.96 258H1200.59V250.237C1200.59 249.231 1200.64 248.176 1200.74 247.074L1194.48 258H1192.85V245.469H1194.24V252.825C1194.24 253.639 1194.2 254.813 1194.1 256.347L1200.33 245.469H1201.96V258ZM1209.62 258H1208.23V245.469H1215.64L1215.47 246.667H1209.62V258ZM1223.56 258.048C1223.23 259.022 1222.86 259.821 1222.46 260.444C1222.06 261.067 1221.54 261.578 1220.9 261.977C1220.26 262.393 1219.44 262.696 1218.44 262.888L1218.29 261.81C1219.12 261.602 1219.77 261.346 1220.23 261.043C1220.71 260.739 1221.09 260.356 1221.36 259.893C1221.65 259.446 1221.93 258.815 1222.22 258H1221.74L1217.38 245.469H1218.89L1222.68 256.97L1226.39 245.469H1227.85L1223.56 258.048ZM1237.14 245.205C1238.66 245.205 1239.79 245.772 1240.54 246.907C1241.31 248.025 1241.69 249.614 1241.69 251.675C1241.69 253.687 1241.28 255.293 1240.45 256.491C1239.63 257.673 1238.46 258.264 1236.93 258.264C1236.18 258.264 1235.5 258.112 1234.89 257.808C1234.28 257.489 1233.77 257.066 1233.36 256.538V262.72L1231.97 262.912V245.469H1233.17L1233.28 247.29C1233.75 246.635 1234.31 246.124 1234.96 245.756C1235.63 245.389 1236.36 245.205 1237.14 245.205ZM1236.66 257.09C1237.81 257.09 1238.69 256.634 1239.3 255.724C1239.91 254.813 1240.21 253.464 1240.21 251.675C1240.21 248.128 1239.1 246.355 1236.88 246.355C1236.13 246.355 1235.47 246.547 1234.91 246.93C1234.37 247.314 1233.85 247.841 1233.36 248.512V255.173C1234.19 256.451 1235.29 257.09 1236.66 257.09ZM1254.71 258V252.106H1248.48V258H1247.09V245.469H1248.48V250.932H1254.71V245.469H1256.1V258H1254.71ZM1270.16 255.221C1270.16 255.876 1270.24 256.347 1270.4 256.634C1270.57 256.922 1270.84 257.137 1271.21 257.281L1270.9 258.264C1270.33 258.152 1269.88 257.936 1269.56 257.617C1269.26 257.297 1269.06 256.81 1268.96 256.155C1268.1 257.561 1266.8 258.264 1265.05 258.264C1263.86 258.264 1262.91 257.928 1262.2 257.257C1261.52 256.57 1261.17 255.66 1261.17 254.526C1261.17 253.232 1261.63 252.234 1262.54 251.531C1263.47 250.828 1264.74 250.477 1266.37 250.477H1268.77V249.255C1268.77 248.248 1268.54 247.521 1268.1 247.074C1267.65 246.611 1266.91 246.379 1265.87 246.379C1264.91 246.379 1263.78 246.619 1262.47 247.098L1262.11 246.044C1263.51 245.485 1264.83 245.205 1266.06 245.205C1268.79 245.205 1270.16 246.531 1270.16 249.183V255.221ZM1265.29 257.137C1266.8 257.137 1267.95 256.403 1268.77 254.933V251.483H1266.59C1265.31 251.483 1264.34 251.73 1263.66 252.226C1262.99 252.721 1262.66 253.464 1262.66 254.454C1262.66 255.316 1262.89 255.979 1263.35 256.443C1263.82 256.906 1264.46 257.137 1265.29 257.137ZM1284.3 245.469V258H1282.91V252.825H1279.55L1276.65 258H1275.1L1278.21 252.537C1277.37 252.266 1276.73 251.842 1276.29 251.267C1275.88 250.692 1275.67 249.989 1275.67 249.159C1275.67 247.961 1276.08 247.05 1276.89 246.427C1277.71 245.788 1278.86 245.469 1280.34 245.469H1284.3ZM1282.91 251.722V246.595H1280.32C1279.3 246.579 1278.51 246.787 1277.95 247.218C1277.41 247.633 1277.13 248.272 1277.13 249.135C1277.13 250.86 1278.13 251.722 1280.13 251.722H1282.91ZM1302.75 245.205C1303.47 245.205 1304.11 245.309 1304.67 245.517C1305.23 245.709 1305.77 246.028 1306.3 246.475L1305.61 247.386C1305.19 247.05 1304.76 246.803 1304.31 246.643C1303.88 246.483 1303.39 246.403 1302.83 246.403C1301.64 246.403 1300.7 246.867 1300 247.793C1299.3 248.704 1298.94 250.037 1298.94 251.794C1298.94 253.535 1299.29 254.845 1299.97 255.724C1300.68 256.602 1301.62 257.042 1302.8 257.042C1303.36 257.042 1303.86 256.954 1304.31 256.778C1304.77 256.602 1305.24 256.339 1305.7 255.987L1306.37 256.922C1305.32 257.816 1304.12 258.264 1302.78 258.264C1301.71 258.264 1300.77 258.008 1299.97 257.497C1299.18 256.986 1298.55 256.251 1298.11 255.293C1297.67 254.318 1297.46 253.16 1297.46 251.818C1297.46 250.493 1297.67 249.334 1298.11 248.344C1298.55 247.338 1299.18 246.563 1299.97 246.02C1300.77 245.477 1301.7 245.205 1302.75 245.205ZM1319.26 245.469L1315.33 251.267L1319.86 258H1318.23L1314.15 251.89H1312.28V258H1310.89V245.469H1312.28V250.788H1314.18L1317.72 245.469H1319.26ZM1328.2 245.205C1329.86 245.205 1331.15 245.78 1332.08 246.93C1333.02 248.065 1333.49 249.654 1333.49 251.699C1333.49 253.727 1333.01 255.332 1332.06 256.514C1331.11 257.681 1329.82 258.264 1328.17 258.264C1326.51 258.264 1325.21 257.689 1324.27 256.538C1323.34 255.372 1322.88 253.775 1322.88 251.746C1322.88 250.421 1323.09 249.263 1323.53 248.272C1323.96 247.282 1324.57 246.523 1325.37 245.996C1326.17 245.469 1327.11 245.205 1328.2 245.205ZM1328.2 246.379C1326.98 246.379 1326.04 246.835 1325.37 247.745C1324.7 248.656 1324.36 249.989 1324.36 251.746C1324.36 253.488 1324.69 254.813 1325.35 255.724C1326.02 256.634 1326.96 257.09 1328.17 257.09C1329.39 257.09 1330.33 256.634 1331 255.724C1331.69 254.813 1332.03 253.472 1332.03 251.699C1332.03 249.957 1331.7 248.64 1331.03 247.745C1330.37 246.835 1329.43 246.379 1328.2 246.379ZM1343.64 246.236C1345.07 246.236 1346.2 246.747 1347.01 247.769C1347.83 248.775 1348.24 250.173 1348.24 251.962C1348.24 254.007 1347.77 255.572 1346.85 256.658C1345.92 257.728 1344.66 258.264 1343.06 258.264C1341.43 258.264 1340.14 257.673 1339.18 256.491C1338.24 255.293 1337.77 253.504 1337.77 251.123C1337.77 249.287 1337.89 247.793 1338.12 246.643C1338.38 245.493 1338.84 244.55 1339.49 243.816C1340.16 243.065 1341.11 242.466 1342.34 242.019C1343.27 241.683 1344.01 241.388 1344.57 241.132C1345.14 240.877 1345.7 240.573 1346.22 240.222L1346.85 241.252C1345.94 241.875 1344.65 242.474 1342.99 243.049C1342.16 243.352 1341.5 243.704 1341 244.103C1340.5 244.503 1340.11 245.086 1339.8 245.852C1339.5 246.603 1339.29 247.633 1339.18 248.943C1339.64 248.144 1340.25 247.498 1341 247.002C1341.75 246.491 1342.63 246.236 1343.64 246.236ZM1343.08 257.09C1345.53 257.09 1346.75 255.412 1346.75 252.058C1346.75 250.477 1346.46 249.303 1345.89 248.536C1345.33 247.769 1344.51 247.386 1343.44 247.386C1342.53 247.386 1341.71 247.641 1340.98 248.152C1340.26 248.664 1339.68 249.382 1339.25 250.309V251.531C1339.23 253.32 1339.55 254.694 1340.21 255.652C1340.88 256.61 1341.84 257.09 1343.08 257.09ZM1361.88 245.469L1357.95 251.267L1362.48 258H1360.85L1356.78 251.89H1354.91V258H1353.52V245.469H1354.91V250.788H1356.8L1360.35 245.469H1361.88ZM1374.11 255.221C1374.11 255.876 1374.19 256.347 1374.35 256.634C1374.52 256.922 1374.79 257.137 1375.16 257.281L1374.85 258.264C1374.28 258.152 1373.83 257.936 1373.51 257.617C1373.21 257.297 1373.01 256.81 1372.91 256.155C1372.05 257.561 1370.75 258.264 1369 258.264C1367.81 258.264 1366.86 257.928 1366.15 257.257C1365.47 256.57 1365.12 255.66 1365.12 254.526C1365.12 253.232 1365.58 252.234 1366.49 251.531C1367.42 250.828 1368.69 250.477 1370.32 250.477H1372.72V249.255C1372.72 248.248 1372.49 247.521 1372.05 247.074C1371.6 246.611 1370.86 246.379 1369.82 246.379C1368.86 246.379 1367.73 246.619 1366.42 247.098L1366.06 246.044C1367.46 245.485 1368.78 245.205 1370.01 245.205C1372.74 245.205 1374.11 246.531 1374.11 249.183V255.221ZM1369.24 257.137C1370.75 257.137 1371.9 256.403 1372.72 254.933V251.483H1370.54C1369.26 251.483 1368.29 251.73 1367.61 252.226C1366.94 252.721 1366.61 253.464 1366.61 254.454C1366.61 255.316 1366.84 255.979 1367.3 256.443C1367.77 256.906 1368.41 257.137 1369.24 257.137Z" fill="white" fill-opacity="0.85"/>
<path d="M686.327 649.221C686.327 649.876 686.407 650.347 686.566 650.634C686.742 650.922 687.014 651.137 687.381 651.281L687.07 652.264C686.494 652.152 686.047 651.936 685.728 651.617C685.424 651.297 685.225 650.81 685.129 650.155C684.266 651.561 682.964 652.264 681.223 652.264C680.025 652.264 679.075 651.928 678.372 651.257C677.685 650.57 677.342 649.66 677.342 648.526C677.342 647.232 677.797 646.234 678.707 645.531C679.634 644.828 680.912 644.477 682.541 644.477H684.937V643.255C684.937 642.248 684.713 641.521 684.266 641.074C683.819 640.611 683.076 640.379 682.038 640.379C681.08 640.379 679.945 640.619 678.636 641.098L678.276 640.044C679.682 639.485 681 639.205 682.23 639.205C684.961 639.205 686.327 640.531 686.327 643.183V649.221ZM681.463 651.137C682.964 651.137 684.122 650.403 684.937 648.933V645.483H682.757C681.479 645.483 680.504 645.73 679.834 646.226C679.163 646.721 678.827 647.464 678.827 648.454C678.827 649.316 679.059 649.979 679.522 650.443C679.985 650.906 680.632 651.137 681.463 651.137ZM696.872 639.205C697.591 639.205 698.23 639.309 698.789 639.517C699.348 639.709 699.891 640.028 700.418 640.475L699.724 641.386C699.308 641.05 698.877 640.803 698.43 640.643C697.998 640.483 697.503 640.403 696.944 640.403C695.762 640.403 694.82 640.867 694.117 641.793C693.414 642.704 693.063 644.037 693.063 645.794C693.063 647.535 693.406 648.845 694.093 649.724C694.796 650.602 695.738 651.042 696.92 651.042C697.479 651.042 697.982 650.954 698.43 650.778C698.893 650.602 699.356 650.339 699.819 649.987L700.49 650.922C699.436 651.816 698.238 652.264 696.896 652.264C695.826 652.264 694.892 652.008 694.093 651.497C693.294 650.986 692.671 650.251 692.224 649.293C691.793 648.318 691.577 647.16 691.577 645.818C691.577 644.493 691.793 643.334 692.224 642.344C692.671 641.338 693.294 640.563 694.093 640.02C694.892 639.477 695.818 639.205 696.872 639.205ZM712.704 639.469L712.536 640.667H708.367V652H706.977V640.667H702.665V639.469H712.704ZM724.857 645.267C724.857 645.619 724.841 645.954 724.809 646.274H716.447C716.527 647.903 716.91 649.117 717.597 649.915C718.3 650.698 719.218 651.09 720.353 651.09C721.007 651.09 721.583 650.994 722.078 650.802C722.589 650.594 723.14 650.275 723.731 649.844L724.378 650.73C723.755 651.241 723.116 651.625 722.461 651.88C721.806 652.136 721.079 652.264 720.281 652.264C718.619 652.264 717.318 651.697 716.375 650.562C715.433 649.428 714.962 647.855 714.962 645.842C714.962 644.516 715.161 643.358 715.561 642.368C715.976 641.362 716.559 640.587 717.31 640.044C718.076 639.485 718.963 639.205 719.969 639.205C721.567 639.205 722.781 639.748 723.611 640.835C724.442 641.905 724.857 643.382 724.857 645.267ZM723.491 644.836C723.491 643.43 723.196 642.336 722.605 641.553C722.03 640.755 721.167 640.355 720.017 640.355C718.979 640.355 718.14 640.755 717.501 641.553C716.862 642.352 716.511 643.566 716.447 645.195H723.491V644.836ZM735.187 639.205C736.704 639.205 737.839 639.772 738.589 640.907C739.356 642.025 739.739 643.614 739.739 645.675C739.739 647.687 739.324 649.293 738.493 650.491C737.679 651.673 736.505 652.264 734.971 652.264C734.221 652.264 733.542 652.112 732.935 651.808C732.328 651.489 731.817 651.066 731.401 650.538V656.72L730.012 656.912V639.469H731.21L731.329 641.29C731.793 640.635 732.352 640.124 733.007 639.756C733.678 639.389 734.404 639.205 735.187 639.205ZM734.708 651.09C735.858 651.09 736.736 650.634 737.343 649.724C737.95 648.813 738.254 647.464 738.254 645.675C738.254 642.128 737.144 640.355 734.923 640.355C734.173 640.355 733.518 640.547 732.959 640.93C732.416 641.314 731.896 641.841 731.401 642.512V649.173C732.232 650.451 733.334 651.09 734.708 651.09ZM754.237 652H752.871V644.237C752.871 643.231 752.919 642.176 753.015 641.074L746.761 652H745.132V639.469H746.521V646.825C746.521 647.639 746.473 648.813 746.378 650.347L752.607 639.469H754.237V652ZM764.798 639.205C765.517 639.205 766.156 639.309 766.715 639.517C767.274 639.709 767.817 640.028 768.344 640.475L767.649 641.386C767.234 641.05 766.803 640.803 766.355 640.643C765.924 640.483 765.429 640.403 764.87 640.403C763.688 640.403 762.745 640.867 762.043 641.793C761.34 642.704 760.988 644.037 760.988 645.794C760.988 647.535 761.332 648.845 762.019 649.724C762.721 650.602 763.664 651.042 764.846 651.042C765.405 651.042 765.908 650.954 766.355 650.778C766.819 650.602 767.282 650.339 767.745 649.987L768.416 650.922C767.362 651.816 766.164 652.264 764.822 652.264C763.752 652.264 762.817 652.008 762.019 651.497C761.22 650.986 760.597 650.251 760.15 649.293C759.718 648.318 759.503 647.16 759.503 645.818C759.503 644.493 759.718 643.334 760.15 642.344C760.597 641.338 761.22 640.563 762.019 640.02C762.817 639.477 763.744 639.205 764.798 639.205ZM781.3 639.469L777.371 645.267L781.899 652H780.27L776.197 645.89H774.328V652H772.938V639.469H774.328V644.788H776.221L779.767 639.469H781.3Z" fill="white" fill-opacity="0.85"/>
<path d="M441.86 136.826V141.474H440.758L440.471 138H431.533L431.246 141.474H430.144V136.826H430.934C431.366 136.522 431.701 136.195 431.941 135.844C432.18 135.476 432.396 134.869 432.588 134.023C432.779 133.16 432.931 131.914 433.043 130.285L433.378 125.469H440.662V136.826H441.86ZM439.249 126.619H434.672L434.409 130.117C434.313 131.683 434.177 132.905 434.001 133.783C433.826 134.646 433.602 135.293 433.33 135.724C433.059 136.155 432.699 136.522 432.252 136.826H439.249V126.619ZM452.924 131.195C453.931 131.291 454.698 131.595 455.225 132.106C455.768 132.617 456.039 133.328 456.039 134.238C456.039 135.468 455.576 136.403 454.65 137.042C453.739 137.681 452.501 138 450.936 138H446.934V125.613C448.26 125.341 449.53 125.205 450.744 125.205C452.198 125.205 453.324 125.509 454.122 126.116C454.937 126.707 455.344 127.514 455.344 128.536C455.344 129.255 455.129 129.846 454.698 130.309C454.282 130.772 453.691 131.068 452.924 131.195ZM450.768 126.331C449.953 126.331 449.139 126.395 448.324 126.523V130.764H451.295C452.126 130.764 452.773 130.58 453.236 130.213C453.699 129.846 453.931 129.295 453.931 128.56C453.931 127.074 452.877 126.331 450.768 126.331ZM450.936 136.874C452.054 136.874 452.94 136.666 453.595 136.251C454.25 135.836 454.578 135.165 454.578 134.238C454.578 133.424 454.314 132.825 453.787 132.441C453.276 132.042 452.477 131.842 451.391 131.842H448.324V136.874H450.936ZM465.572 125.205C467.233 125.205 468.527 125.78 469.453 126.93C470.396 128.065 470.867 129.654 470.867 131.699C470.867 133.727 470.388 135.332 469.429 136.514C468.487 137.681 467.193 138.264 465.548 138.264C463.887 138.264 462.585 137.689 461.642 136.538C460.716 135.372 460.253 133.775 460.253 131.746C460.253 130.421 460.468 129.263 460.9 128.272C461.331 127.282 461.946 126.523 462.745 125.996C463.543 125.469 464.486 125.205 465.572 125.205ZM465.572 126.379C464.358 126.379 463.415 126.835 462.745 127.745C462.074 128.656 461.738 129.989 461.738 131.746C461.738 133.488 462.066 134.813 462.721 135.724C463.391 136.634 464.334 137.09 465.548 137.09C466.762 137.09 467.704 136.634 468.375 135.724C469.062 134.813 469.405 133.472 469.405 131.699C469.405 129.957 469.07 128.64 468.399 127.745C467.744 126.835 466.802 126.379 465.572 126.379ZM485.25 138H483.884V130.237C483.884 129.231 483.932 128.176 484.028 127.074L477.774 138H476.145V125.469H477.535V132.825C477.535 133.639 477.487 134.813 477.391 136.347L483.621 125.469H485.25V138ZM480.674 122.354C479.843 122.354 479.14 122.154 478.565 121.755C478.006 121.356 477.671 120.813 477.559 120.126L478.517 119.934C478.821 120.797 479.539 121.228 480.674 121.228C481.824 121.228 482.55 120.797 482.854 119.934L483.812 120.126C483.7 120.813 483.357 121.356 482.782 121.755C482.207 122.154 481.504 122.354 480.674 122.354ZM499.142 138V132.106H492.912V138H491.523V125.469H492.912V130.932H499.142V125.469H500.532V138H499.142ZM514.593 135.221C514.593 135.876 514.673 136.347 514.833 136.634C515.009 136.922 515.28 137.137 515.648 137.281L515.336 138.264C514.761 138.152 514.314 137.936 513.994 137.617C513.691 137.297 513.491 136.81 513.395 136.155C512.533 137.561 511.231 138.264 509.49 138.264C508.292 138.264 507.342 137.928 506.639 137.257C505.952 136.57 505.608 135.66 505.608 134.526C505.608 133.232 506.064 132.234 506.974 131.531C507.901 130.828 509.178 130.477 510.808 130.477H513.204V129.255C513.204 128.248 512.98 127.521 512.533 127.074C512.086 126.611 511.343 126.379 510.305 126.379C509.346 126.379 508.212 126.619 506.902 127.098L506.543 126.044C507.948 125.485 509.266 125.205 510.496 125.205C513.228 125.205 514.593 126.531 514.593 129.183V135.221ZM509.73 137.137C511.231 137.137 512.389 136.403 513.204 134.933V131.483H511.023C509.745 131.483 508.771 131.73 508.1 132.226C507.429 132.721 507.094 133.464 507.094 134.454C507.094 135.316 507.326 135.979 507.789 136.443C508.252 136.906 508.899 137.137 509.73 137.137ZM528.733 125.469V138H527.343V132.825H523.989L521.09 138H519.532L522.647 132.537C521.801 132.266 521.162 131.842 520.73 131.267C520.315 130.692 520.107 129.989 520.107 129.159C520.107 127.961 520.515 127.05 521.329 126.427C522.144 125.788 523.294 125.469 524.78 125.469H528.733ZM527.343 131.722V126.595H524.756C523.733 126.579 522.943 126.787 522.384 127.218C521.84 127.633 521.569 128.272 521.569 129.135C521.569 130.86 522.567 131.722 524.564 131.722H527.343ZM551.263 125.469L547.333 131.267L551.862 138H550.233L546.159 131.89H544.291V138H542.901V125.469H544.291V130.788H546.183L549.729 125.469H551.263ZM563.491 135.221C563.491 135.876 563.571 136.347 563.731 136.634C563.907 136.922 564.178 137.137 564.546 137.281L564.234 138.264C563.659 138.152 563.212 137.936 562.892 137.617C562.589 137.297 562.389 136.81 562.293 136.155C561.431 137.561 560.129 138.264 558.388 138.264C557.19 138.264 556.24 137.928 555.537 137.257C554.85 136.57 554.506 135.66 554.506 134.526C554.506 133.232 554.962 132.234 555.872 131.531C556.799 130.828 558.076 130.477 559.706 130.477H562.102V129.255C562.102 128.248 561.878 127.521 561.431 127.074C560.984 126.611 560.241 126.379 559.203 126.379C558.244 126.379 557.11 126.619 555.8 127.098L555.441 126.044C556.847 125.485 558.164 125.205 559.394 125.205C562.126 125.205 563.491 126.531 563.491 129.183V135.221ZM558.628 137.137C560.129 137.137 561.287 136.403 562.102 134.933V131.483H559.921C558.644 131.483 557.669 131.73 556.998 132.226C556.327 132.721 555.992 133.464 555.992 134.454C555.992 135.316 556.224 135.979 556.687 136.443C557.15 136.906 557.797 137.137 558.628 137.137ZM575.738 131.195C576.745 131.291 577.511 131.595 578.038 132.106C578.581 132.617 578.853 133.328 578.853 134.238C578.853 135.468 578.39 136.403 577.463 137.042C576.553 137.681 575.315 138 573.75 138H569.748V125.613C571.074 125.341 572.344 125.205 573.558 125.205C575.011 125.205 576.138 125.509 576.936 126.116C577.751 126.707 578.158 127.514 578.158 128.536C578.158 129.255 577.943 129.846 577.511 130.309C577.096 130.772 576.505 131.068 575.738 131.195ZM573.582 126.331C572.767 126.331 571.953 126.395 571.138 126.523V130.764H574.109C574.94 130.764 575.586 130.58 576.05 130.213C576.513 129.846 576.745 129.295 576.745 128.56C576.745 127.074 575.69 126.331 573.582 126.331ZM573.75 136.874C574.868 136.874 575.754 136.666 576.409 136.251C577.064 135.836 577.391 135.165 577.391 134.238C577.391 133.424 577.128 132.825 576.601 132.441C576.09 132.042 575.291 131.842 574.205 131.842H571.138V136.874H573.75ZM587.474 129.686C590.812 129.686 592.482 131.044 592.482 133.759C592.482 135.165 592.042 136.227 591.164 136.946C590.285 137.649 589.143 138 587.737 138H584.12V125.469H585.509V129.686H587.474ZM594.758 125.469H596.147V138H594.758V125.469ZM587.618 136.85C588.704 136.85 589.534 136.61 590.11 136.131C590.701 135.636 590.996 134.845 590.996 133.759C590.996 132.785 590.724 132.05 590.181 131.555C589.654 131.06 588.76 130.812 587.498 130.812H585.509V136.85H587.618ZM610.305 125.469V138H608.915V132.202C608.452 132.697 607.869 133.096 607.166 133.4C606.479 133.687 605.736 133.831 604.938 133.831C603.835 133.831 602.957 133.535 602.302 132.944C601.647 132.337 601.32 131.475 601.32 130.357V125.469H602.709V130.189C602.709 131.866 603.564 132.705 605.273 132.705C605.976 132.705 606.663 132.545 607.334 132.226C608.004 131.89 608.532 131.467 608.915 130.956V125.469H610.305ZM624.921 125.469L620.992 131.267L625.52 138H623.891L619.818 131.89H617.949V138H616.559V125.469H617.949V130.788H619.842L623.388 125.469H624.921ZM637.15 135.221C637.15 135.876 637.23 136.347 637.389 136.634C637.565 136.922 637.837 137.137 638.204 137.281L637.892 138.264C637.317 138.152 636.87 137.936 636.551 137.617C636.247 137.297 636.048 136.81 635.952 136.155C635.089 137.561 633.787 138.264 632.046 138.264C630.848 138.264 629.898 137.928 629.195 137.257C628.508 136.57 628.165 135.66 628.165 134.526C628.165 133.232 628.62 132.234 629.53 131.531C630.457 130.828 631.735 130.477 633.364 130.477H635.76V129.255C635.76 128.248 635.536 127.521 635.089 127.074C634.642 126.611 633.899 126.379 632.861 126.379C631.902 126.379 630.768 126.619 629.459 127.098L629.099 126.044C630.505 125.485 631.823 125.205 633.053 125.205C635.784 125.205 637.15 126.531 637.15 129.183V135.221ZM632.286 137.137C633.787 137.137 634.945 136.403 635.76 134.933V131.483H633.58C632.302 131.483 631.327 131.73 630.657 132.226C629.986 132.721 629.65 133.464 629.65 134.454C629.65 135.316 629.882 135.979 630.345 136.443C630.808 136.906 631.455 137.137 632.286 137.137Z" fill="white" fill-opacity="0.85"/>
<path d="M392.86 658.826V663.474H391.758L391.471 660H382.533L382.246 663.474H381.144V658.826H381.934C382.366 658.522 382.701 658.195 382.941 657.844C383.18 657.476 383.396 656.869 383.588 656.023C383.779 655.16 383.931 653.914 384.043 652.285L384.378 647.469H391.662V658.826H392.86ZM390.249 648.619H385.672L385.409 652.117C385.313 653.683 385.177 654.905 385.001 655.783C384.826 656.646 384.602 657.293 384.33 657.724C384.059 658.155 383.699 658.522 383.252 658.826H390.249V648.619ZM403.924 653.195C404.931 653.291 405.698 653.595 406.225 654.106C406.768 654.617 407.039 655.328 407.039 656.238C407.039 657.468 406.576 658.403 405.65 659.042C404.739 659.681 403.501 660 401.936 660H397.934V647.613C399.26 647.341 400.53 647.205 401.744 647.205C403.198 647.205 404.324 647.509 405.122 648.116C405.937 648.707 406.344 649.514 406.344 650.536C406.344 651.255 406.129 651.846 405.698 652.309C405.282 652.772 404.691 653.068 403.924 653.195ZM401.768 648.331C400.953 648.331 400.139 648.395 399.324 648.523V652.764H402.295C403.126 652.764 403.773 652.58 404.236 652.213C404.699 651.846 404.931 651.295 404.931 650.56C404.931 649.074 403.877 648.331 401.768 648.331ZM401.936 658.874C403.054 658.874 403.94 658.666 404.595 658.251C405.25 657.836 405.578 657.165 405.578 656.238C405.578 655.424 405.314 654.825 404.787 654.441C404.276 654.042 403.477 653.842 402.391 653.842H399.324V658.874H401.936ZM416.572 647.205C418.233 647.205 419.527 647.78 420.453 648.93C421.396 650.065 421.867 651.654 421.867 653.699C421.867 655.727 421.388 657.332 420.429 658.514C419.487 659.681 418.193 660.264 416.548 660.264C414.887 660.264 413.585 659.689 412.642 658.538C411.716 657.372 411.253 655.775 411.253 653.746C411.253 652.421 411.468 651.263 411.9 650.272C412.331 649.282 412.946 648.523 413.745 647.996C414.543 647.469 415.486 647.205 416.572 647.205ZM416.572 648.379C415.358 648.379 414.415 648.835 413.745 649.745C413.074 650.656 412.738 651.989 412.738 653.746C412.738 655.488 413.066 656.813 413.721 657.724C414.391 658.634 415.334 659.09 416.548 659.09C417.762 659.09 418.704 658.634 419.375 657.724C420.062 656.813 420.405 655.472 420.405 653.699C420.405 651.957 420.07 650.64 419.399 649.745C418.744 648.835 417.802 648.379 416.572 648.379ZM436.034 653.267C436.034 653.619 436.018 653.954 435.986 654.274H427.624C427.704 655.903 428.088 657.117 428.774 657.915C429.477 658.698 430.396 659.09 431.53 659.09C432.185 659.09 432.76 658.994 433.255 658.802C433.766 658.594 434.317 658.275 434.908 657.844L435.555 658.73C434.932 659.241 434.293 659.625 433.638 659.88C432.983 660.136 432.257 660.264 431.458 660.264C429.797 660.264 428.495 659.697 427.552 658.562C426.61 657.428 426.139 655.855 426.139 653.842C426.139 652.516 426.338 651.358 426.738 650.368C427.153 649.362 427.736 648.587 428.487 648.044C429.254 647.485 430.14 647.205 431.146 647.205C432.744 647.205 433.958 647.748 434.788 648.835C435.619 649.905 436.034 651.382 436.034 653.267ZM434.669 652.836C434.669 651.43 434.373 650.336 433.782 649.553C433.207 648.755 432.344 648.355 431.194 648.355C430.156 648.355 429.317 648.755 428.679 649.553C428.04 650.352 427.688 651.566 427.624 653.195H434.669V652.836ZM448.272 647.469L448.104 648.667H443.935V660H442.545V648.667H438.232V647.469H448.272ZM455.848 647.205C457.51 647.205 458.803 647.78 459.73 648.93C460.672 650.065 461.144 651.654 461.144 653.699C461.144 655.727 460.664 657.332 459.706 658.514C458.764 659.681 457.47 660.264 455.824 660.264C454.163 660.264 452.861 659.689 451.919 658.538C450.993 657.372 450.529 655.775 450.529 653.746C450.529 652.421 450.745 651.263 451.176 650.272C451.607 649.282 452.222 648.523 453.021 647.996C453.82 647.469 454.762 647.205 455.848 647.205ZM455.848 648.379C454.634 648.379 453.692 648.835 453.021 649.745C452.35 650.656 452.015 651.989 452.015 653.746C452.015 655.488 452.342 656.813 452.997 657.724C453.668 658.634 454.61 659.09 455.824 659.09C457.038 659.09 457.981 658.634 458.652 657.724C459.339 656.813 459.682 655.472 459.682 653.699C459.682 651.957 459.347 650.64 458.676 649.745C458.021 648.835 457.078 648.379 455.848 648.379ZM474.305 647.469V660H472.915V654.202C472.452 654.697 471.869 655.096 471.166 655.4C470.479 655.687 469.736 655.831 468.938 655.831C467.835 655.831 466.957 655.535 466.302 654.944C465.647 654.337 465.32 653.475 465.32 652.357V647.469H466.709V652.189C466.709 653.866 467.564 654.705 469.273 654.705C469.976 654.705 470.663 654.545 471.334 654.226C472.004 653.89 472.532 653.467 472.915 652.956V647.469H474.305ZM489.664 660H488.298V652.237C488.298 651.231 488.346 650.176 488.442 649.074L482.188 660H480.559V647.469H481.949V654.825C481.949 655.639 481.901 656.813 481.805 658.347L488.035 647.469H489.664V660ZM504.826 653.267C504.826 653.619 504.81 653.954 504.778 654.274H496.416C496.496 655.903 496.879 657.117 497.566 657.915C498.269 658.698 499.187 659.09 500.321 659.09C500.976 659.09 501.551 658.994 502.046 658.802C502.557 658.594 503.109 658.275 503.7 657.844L504.346 658.73C503.723 659.241 503.085 659.625 502.43 659.88C501.775 660.136 501.048 660.264 500.249 660.264C498.588 660.264 497.286 659.697 496.344 658.562C495.401 657.428 494.93 655.855 494.93 653.842C494.93 652.516 495.13 651.358 495.529 650.368C495.944 649.362 496.528 648.587 497.278 648.044C498.045 647.485 498.931 647.205 499.938 647.205C501.535 647.205 502.749 647.748 503.58 648.835C504.41 649.905 504.826 651.382 504.826 653.267ZM503.46 652.836C503.46 651.43 503.164 650.336 502.573 649.553C501.998 648.755 501.136 648.355 499.986 648.355C498.947 648.355 498.109 648.755 497.47 649.553C496.831 650.352 496.48 651.566 496.416 653.195H503.46V652.836Z" fill="white" fill-opacity="0.85"/>
<path d="M558.231 446.469L558.063 447.667H553.894V459H552.504V447.667H548.192V446.469H558.231ZM565.808 446.205C567.469 446.205 568.763 446.78 569.689 447.93C570.632 449.065 571.103 450.654 571.103 452.699C571.103 454.727 570.624 456.332 569.665 457.514C568.723 458.681 567.429 459.264 565.784 459.264C564.123 459.264 562.821 458.689 561.878 457.538C560.952 456.372 560.489 454.775 560.489 452.746C560.489 451.421 560.704 450.263 561.136 449.272C561.567 448.282 562.182 447.523 562.98 446.996C563.779 446.469 564.722 446.205 565.808 446.205ZM565.808 447.379C564.594 447.379 563.651 447.835 562.98 448.745C562.31 449.656 561.974 450.989 561.974 452.746C561.974 454.488 562.302 455.813 562.956 456.724C563.627 457.634 564.57 458.09 565.784 458.09C566.998 458.09 567.94 457.634 568.611 456.724C569.298 455.813 569.641 454.472 569.641 452.699C569.641 450.957 569.306 449.64 568.635 448.745C567.98 447.835 567.038 447.379 565.808 447.379ZM582.371 452.195C583.377 452.291 584.144 452.595 584.671 453.106C585.214 453.617 585.486 454.328 585.486 455.238C585.486 456.468 585.023 457.403 584.096 458.042C583.186 458.681 581.948 459 580.382 459H576.381V446.613C577.707 446.341 578.977 446.205 580.191 446.205C581.644 446.205 582.77 446.509 583.569 447.116C584.384 447.707 584.791 448.514 584.791 449.536C584.791 450.255 584.575 450.846 584.144 451.309C583.729 451.772 583.138 452.068 582.371 452.195ZM580.215 447.331C579.4 447.331 578.585 447.395 577.771 447.523V451.764H580.742C581.572 451.764 582.219 451.58 582.682 451.213C583.146 450.846 583.377 450.295 583.377 449.56C583.377 448.074 582.323 447.331 580.215 447.331ZM580.382 457.874C581.5 457.874 582.387 457.666 583.042 457.251C583.697 456.836 584.024 456.165 584.024 455.238C584.024 454.424 583.761 453.825 583.234 453.441C582.722 453.042 581.924 452.842 580.838 452.842H577.771V457.874H580.382ZM598.305 456.221C598.305 456.876 598.385 457.347 598.545 457.634C598.721 457.922 598.992 458.137 599.36 458.281L599.048 459.264C598.473 459.152 598.026 458.936 597.706 458.617C597.403 458.297 597.203 457.81 597.107 457.155C596.245 458.561 594.943 459.264 593.202 459.264C592.004 459.264 591.053 458.928 590.351 458.257C589.664 457.57 589.32 456.66 589.32 455.526C589.32 454.232 589.776 453.234 590.686 452.531C591.613 451.828 592.89 451.477 594.52 451.477H596.916V450.255C596.916 449.248 596.692 448.521 596.245 448.074C595.798 447.611 595.055 447.379 594.016 447.379C593.058 447.379 591.924 447.619 590.614 448.098L590.255 447.044C591.66 446.485 592.978 446.205 594.208 446.205C596.94 446.205 598.305 447.531 598.305 450.183V456.221ZM593.441 458.137C594.943 458.137 596.101 457.403 596.916 455.933V452.483H594.735C593.457 452.483 592.483 452.73 591.812 453.226C591.141 453.721 590.806 454.464 590.806 455.454C590.806 456.316 591.037 456.979 591.501 457.443C591.964 457.906 592.611 458.137 593.441 458.137ZM609.737 446.205C611.255 446.205 612.389 446.772 613.14 447.907C613.906 449.025 614.29 450.614 614.29 452.675C614.29 454.687 613.875 456.293 613.044 457.491C612.229 458.673 611.055 459.264 609.522 459.264C608.771 459.264 608.092 459.112 607.485 458.808C606.878 458.489 606.367 458.066 605.952 457.538V463.72L604.562 463.912V446.469H605.76L605.88 448.29C606.343 447.635 606.902 447.124 607.557 446.756C608.228 446.389 608.955 446.205 609.737 446.205ZM609.258 458.09C610.408 458.09 611.287 457.634 611.894 456.724C612.501 455.813 612.804 454.464 612.804 452.675C612.804 449.128 611.694 447.355 609.474 447.355C608.723 447.355 608.068 447.547 607.509 447.93C606.966 448.314 606.447 448.841 605.952 449.512V456.173C606.782 457.451 607.885 458.09 609.258 458.09ZM627.301 459V453.106H621.072V459H619.682V446.469H621.072V451.932H627.301V446.469H628.691V459H627.301ZM638.32 450.686C641.659 450.686 643.328 452.044 643.328 454.759C643.328 456.165 642.889 457.227 642.01 457.946C641.132 458.649 639.99 459 638.584 459H634.966V446.469H636.356V450.686H638.32ZM645.604 446.469H646.994V459H645.604V446.469ZM638.464 457.85C639.55 457.85 640.381 457.61 640.956 457.131C641.547 456.636 641.843 455.845 641.843 454.759C641.843 453.785 641.571 453.05 641.028 452.555C640.501 452.06 639.606 451.812 638.344 451.812H636.356V457.85H638.464ZM662.373 459H661.007V451.237C661.007 450.231 661.055 449.176 661.151 448.074L654.898 459H653.268V446.469H654.658V453.825C654.658 454.639 654.61 455.813 654.514 457.347L660.744 446.469H662.373V459ZM657.797 443.354C656.966 443.354 656.263 443.154 655.688 442.755C655.129 442.356 654.794 441.813 654.682 441.126L655.64 440.934C655.944 441.797 656.663 442.228 657.797 442.228C658.947 442.228 659.674 441.797 659.977 440.934L660.935 441.126C660.824 441.813 660.48 442.356 659.905 442.755C659.33 443.154 658.627 443.354 657.797 443.354ZM679.291 446.205C680.457 446.205 681.424 446.501 682.19 447.092C682.973 447.683 683.364 448.49 683.364 449.512C683.364 451.013 682.494 451.948 680.753 452.315C681.823 452.427 682.629 452.73 683.173 453.226C683.732 453.705 684.011 454.424 684.011 455.382C684.011 456.628 683.564 457.586 682.669 458.257C681.791 458.928 680.641 459.264 679.219 459.264C678.229 459.264 677.358 459.12 676.608 458.832C675.857 458.545 675.17 458.145 674.547 457.634L675.314 456.772C675.873 457.203 676.448 457.53 677.039 457.754C677.646 457.978 678.357 458.09 679.171 458.09C680.194 458.09 681.008 457.874 681.615 457.443C682.238 457.011 682.55 456.316 682.55 455.358C682.55 454.511 682.23 453.905 681.591 453.537C680.952 453.17 680.042 452.986 678.86 452.986H677.374L677.47 451.86H678.668C679.706 451.86 680.513 451.66 681.088 451.261C681.663 450.862 681.951 450.287 681.951 449.536C681.951 448.833 681.695 448.298 681.184 447.93C680.689 447.547 680.018 447.355 679.171 447.355C678.452 447.355 677.83 447.443 677.302 447.619C676.791 447.779 676.24 448.042 675.649 448.41L674.978 447.547C675.617 447.1 676.28 446.764 676.967 446.541C677.654 446.317 678.429 446.205 679.291 446.205ZM696.912 459V453.106H690.682V459H689.292V446.469H690.682V451.932H696.912V446.469H698.301V459H696.912ZM712.363 456.221C712.363 456.876 712.443 457.347 712.603 457.634C712.779 457.922 713.05 458.137 713.418 458.281L713.106 459.264C712.531 459.152 712.084 458.936 711.764 458.617C711.461 458.297 711.261 457.81 711.165 457.155C710.303 458.561 709.001 459.264 707.26 459.264C706.062 459.264 705.111 458.928 704.409 458.257C703.722 457.57 703.378 456.66 703.378 455.526C703.378 454.232 703.834 453.234 704.744 452.531C705.671 451.828 706.948 451.477 708.578 451.477H710.974V450.255C710.974 449.248 710.75 448.521 710.303 448.074C709.856 447.611 709.113 447.379 708.075 447.379C707.116 447.379 705.982 447.619 704.672 448.098L704.313 447.044C705.718 446.485 707.036 446.205 708.266 446.205C710.998 446.205 712.363 447.531 712.363 450.183V456.221ZM707.499 458.137C709.001 458.137 710.159 457.403 710.974 455.933V452.483H708.793C707.515 452.483 706.541 452.73 705.87 453.226C705.199 453.721 704.864 454.464 704.864 455.454C704.864 456.316 705.095 456.979 705.559 457.443C706.022 457.906 706.669 458.137 707.499 458.137ZM726.982 446.469L723.053 452.267L727.581 459H725.952L721.879 452.89H720.01V459H718.62V446.469H720.01V451.788H721.903L725.449 446.469H726.982Z" fill="white" fill-opacity="0.85"/>
<path d="M818.929 713H817.54V700.469H824.943L824.776 701.667H818.929V713ZM834.045 700.205C835.562 700.205 836.696 700.772 837.447 701.907C838.214 703.025 838.597 704.614 838.597 706.675C838.597 708.687 838.182 710.293 837.351 711.491C836.536 712.673 835.362 713.264 833.829 713.264C833.078 713.264 832.399 713.112 831.792 712.808C831.185 712.489 830.674 712.066 830.259 711.538V717.72L828.869 717.912V700.469H830.067L830.187 702.29C830.65 701.635 831.209 701.124 831.864 700.756C832.535 700.389 833.262 700.205 834.045 700.205ZM833.565 712.09C834.716 712.09 835.594 711.634 836.201 710.724C836.808 709.813 837.112 708.464 837.112 706.675C837.112 703.128 836.001 701.355 833.781 701.355C833.03 701.355 832.375 701.547 831.816 701.93C831.273 702.314 830.754 702.841 830.259 703.512V710.173C831.09 711.451 832.192 712.09 833.565 712.09ZM851.542 710.221C851.542 710.876 851.622 711.347 851.782 711.634C851.958 711.922 852.229 712.137 852.597 712.281L852.285 713.264C851.71 713.152 851.263 712.936 850.943 712.617C850.64 712.297 850.44 711.81 850.344 711.155C849.482 712.561 848.18 713.264 846.439 713.264C845.241 713.264 844.29 712.928 843.588 712.257C842.901 711.57 842.557 710.66 842.557 709.526C842.557 708.232 843.013 707.234 843.923 706.531C844.85 705.828 846.127 705.477 847.757 705.477H850.153V704.255C850.153 703.248 849.929 702.521 849.482 702.074C849.035 701.611 848.292 701.379 847.254 701.379C846.295 701.379 845.161 701.619 843.851 702.098L843.492 701.044C844.897 700.485 846.215 700.205 847.445 700.205C850.177 700.205 851.542 701.531 851.542 704.183V710.221ZM846.678 712.137C848.18 712.137 849.338 711.403 850.153 709.933V706.483H847.972C846.694 706.483 845.72 706.73 845.049 707.226C844.378 707.721 844.043 708.464 844.043 709.454C844.043 710.316 844.275 710.979 844.738 711.443C845.201 711.906 845.848 712.137 846.678 712.137ZM863.789 706.195C864.795 706.291 865.562 706.595 866.089 707.106C866.632 707.617 866.904 708.328 866.904 709.238C866.904 710.468 866.441 711.403 865.514 712.042C864.604 712.681 863.366 713 861.8 713H857.799V700.613C859.125 700.341 860.395 700.205 861.609 700.205C863.062 700.205 864.188 700.509 864.987 701.116C865.802 701.707 866.209 702.514 866.209 703.536C866.209 704.255 865.993 704.846 865.562 705.309C865.147 705.772 864.556 706.068 863.789 706.195ZM861.633 701.331C860.818 701.331 860.003 701.395 859.189 701.523V705.764H862.16C862.99 705.764 863.637 705.58 864.101 705.213C864.564 704.846 864.795 704.295 864.795 703.56C864.795 702.074 863.741 701.331 861.633 701.331ZM861.8 711.874C862.919 711.874 863.805 711.666 864.46 711.251C865.115 710.836 865.442 710.165 865.442 709.238C865.442 708.424 865.179 707.825 864.652 707.441C864.141 707.042 863.342 706.842 862.256 706.842H859.189V711.874H861.8ZM881.275 713H879.91V705.237C879.91 704.231 879.957 703.176 880.053 702.074L873.8 713H872.17V700.469H873.56V707.825C873.56 708.639 873.512 709.813 873.416 711.347L879.646 700.469H881.275V713ZM891.837 700.205C892.556 700.205 893.194 700.309 893.754 700.517C894.313 700.709 894.856 701.028 895.383 701.475L894.688 702.386C894.273 702.05 893.841 701.803 893.394 701.643C892.963 701.483 892.468 701.403 891.909 701.403C890.727 701.403 889.784 701.867 889.081 702.793C888.378 703.704 888.027 705.037 888.027 706.794C888.027 708.535 888.371 709.845 889.057 710.724C889.76 711.602 890.703 712.042 891.885 712.042C892.444 712.042 892.947 711.954 893.394 711.778C893.857 711.602 894.321 711.339 894.784 710.987L895.455 711.922C894.4 712.816 893.202 713.264 891.861 713.264C890.79 713.264 889.856 713.008 889.057 712.497C888.259 711.986 887.636 711.251 887.188 710.293C886.757 709.318 886.542 708.16 886.542 706.818C886.542 705.493 886.757 704.334 887.188 703.344C887.636 702.338 888.259 701.563 889.057 701.02C889.856 700.477 890.782 700.205 891.837 700.205Z" fill="white" fill-opacity="0.85"/>
<path d="M224.829 550.205C225.547 550.205 226.186 550.309 226.745 550.517C227.304 550.709 227.848 551.028 228.375 551.475L227.68 552.386C227.265 552.05 226.833 551.803 226.386 551.643C225.955 551.483 225.46 551.403 224.9 551.403C223.718 551.403 222.776 551.867 222.073 552.793C221.37 553.704 221.019 555.037 221.019 556.794C221.019 558.535 221.362 559.845 222.049 560.724C222.752 561.602 223.694 562.042 224.877 562.042C225.436 562.042 225.939 561.954 226.386 561.778C226.849 561.602 227.312 561.339 227.776 560.987L228.447 561.922C227.392 562.816 226.194 563.264 224.853 563.264C223.782 563.264 222.848 563.008 222.049 562.497C221.251 561.986 220.628 561.251 220.18 560.293C219.749 559.318 219.533 558.16 219.533 556.818C219.533 555.493 219.749 554.334 220.18 553.344C220.628 552.338 221.251 551.563 222.049 551.02C222.848 550.477 223.774 550.205 224.829 550.205ZM236.884 550.205C238.545 550.205 239.839 550.78 240.766 551.93C241.708 553.065 242.179 554.654 242.179 556.699C242.179 558.727 241.7 560.332 240.742 561.514C239.799 562.681 238.505 563.264 236.86 563.264C235.199 563.264 233.897 562.689 232.955 561.538C232.028 560.372 231.565 558.775 231.565 556.746C231.565 555.421 231.781 554.263 232.212 553.272C232.643 552.282 233.258 551.523 234.057 550.996C234.855 550.469 235.798 550.205 236.884 550.205ZM236.884 551.379C235.67 551.379 234.728 551.835 234.057 552.745C233.386 553.656 233.05 554.989 233.05 556.746C233.05 558.488 233.378 559.813 234.033 560.724C234.704 561.634 235.646 562.09 236.86 562.09C238.074 562.09 239.016 561.634 239.687 560.724C240.374 559.813 240.718 558.472 240.718 556.699C240.718 554.957 240.382 553.64 239.711 552.745C239.056 551.835 238.114 551.379 236.884 551.379ZM252.321 551.236C253.759 551.236 254.885 551.747 255.7 552.769C256.514 553.775 256.922 555.173 256.922 556.962C256.922 559.007 256.458 560.572 255.532 561.658C254.605 562.728 253.343 563.264 251.746 563.264C250.117 563.264 248.823 562.673 247.865 561.491C246.922 560.293 246.451 558.504 246.451 556.123C246.451 554.287 246.571 552.793 246.81 551.643C247.066 550.493 247.521 549.55 248.176 548.816C248.847 548.065 249.797 547.466 251.027 547.019C251.954 546.683 252.697 546.388 253.256 546.132C253.831 545.877 254.382 545.573 254.909 545.222L255.532 546.252C254.621 546.875 253.336 547.474 251.674 548.049C250.844 548.352 250.181 548.704 249.686 549.103C249.19 549.503 248.791 550.086 248.488 550.852C248.184 551.603 247.976 552.633 247.865 553.943C248.328 553.144 248.935 552.498 249.686 552.002C250.436 551.491 251.315 551.236 252.321 551.236ZM251.77 562.09C254.214 562.09 255.436 560.412 255.436 557.058C255.436 555.477 255.148 554.303 254.573 553.536C254.014 552.769 253.2 552.386 252.13 552.386C251.219 552.386 250.396 552.641 249.662 553.152C248.943 553.664 248.368 554.382 247.937 555.309V556.531C247.921 558.32 248.24 559.694 248.895 560.652C249.566 561.61 250.524 562.09 251.77 562.09ZM269.756 560.221C269.756 560.876 269.836 561.347 269.996 561.634C270.171 561.922 270.443 562.137 270.81 562.281L270.499 563.264C269.924 563.152 269.476 562.936 269.157 562.617C268.854 562.297 268.654 561.81 268.558 561.155C267.695 562.561 266.394 563.264 264.653 563.264C263.455 563.264 262.504 562.928 261.801 562.257C261.114 561.57 260.771 560.66 260.771 559.526C260.771 558.232 261.226 557.234 262.137 556.531C263.063 555.828 264.341 555.477 265.97 555.477H268.366V554.255C268.366 553.248 268.143 552.521 267.695 552.074C267.248 551.611 266.505 551.379 265.467 551.379C264.509 551.379 263.375 551.619 262.065 552.098L261.705 551.044C263.111 550.485 264.429 550.205 265.659 550.205C268.39 550.205 269.756 551.531 269.756 554.183V560.221ZM264.892 562.137C266.394 562.137 267.552 561.403 268.366 559.933V556.483H266.186C264.908 556.483 263.934 556.73 263.263 557.226C262.592 557.721 262.257 558.464 262.257 559.454C262.257 560.316 262.488 560.979 262.951 561.443C263.415 561.906 264.062 562.137 264.892 562.137ZM284.375 550.469L280.445 556.267L284.974 563H283.345L279.271 556.89H277.402V563H276.013V550.469H277.402V555.788H279.295L282.841 550.469H284.375ZM296.603 560.221C296.603 560.876 296.683 561.347 296.843 561.634C297.019 561.922 297.29 562.137 297.658 562.281L297.346 563.264C296.771 563.152 296.324 562.936 296.004 562.617C295.701 562.297 295.501 561.81 295.405 561.155C294.543 562.561 293.241 563.264 291.5 563.264C290.302 563.264 289.352 562.928 288.649 562.257C287.962 561.57 287.618 560.66 287.618 559.526C287.618 558.232 288.074 557.234 288.984 556.531C289.911 555.828 291.188 555.477 292.818 555.477H295.214V554.255C295.214 553.248 294.99 552.521 294.543 552.074C294.096 551.611 293.353 551.379 292.315 551.379C291.356 551.379 290.222 551.619 288.912 552.098L288.553 551.044C289.958 550.485 291.276 550.205 292.506 550.205C295.238 550.205 296.603 551.531 296.603 554.183V560.221ZM291.74 562.137C293.241 562.137 294.399 561.403 295.214 559.933V556.483H293.033C291.755 556.483 290.781 556.73 290.11 557.226C289.439 557.721 289.104 558.464 289.104 559.454C289.104 560.316 289.336 560.979 289.799 561.443C290.262 561.906 290.909 562.137 291.74 562.137Z" fill="white" fill-opacity="0.85"/>
<path d="M1141.53 596.195C1142.54 596.291 1143.3 596.595 1143.83 597.106C1144.37 597.617 1144.64 598.328 1144.64 599.238C1144.64 600.468 1144.18 601.403 1143.25 602.042C1142.34 602.681 1141.11 603 1139.54 603H1135.54V590.613C1136.87 590.341 1138.14 590.205 1139.35 590.205C1140.8 590.205 1141.93 590.509 1142.73 591.116C1143.54 591.707 1143.95 592.514 1143.95 593.536C1143.95 594.255 1143.73 594.846 1143.3 595.309C1142.89 595.772 1142.3 596.068 1141.53 596.195ZM1139.37 591.331C1138.56 591.331 1137.74 591.395 1136.93 591.523V595.764H1139.9C1140.73 595.764 1141.38 595.58 1141.84 595.213C1142.3 594.846 1142.54 594.295 1142.54 593.56C1142.54 592.074 1141.48 591.331 1139.37 591.331ZM1139.54 601.874C1140.66 601.874 1141.55 601.666 1142.2 601.251C1142.86 600.836 1143.18 600.165 1143.18 599.238C1143.18 598.424 1142.92 597.825 1142.39 597.441C1141.88 597.042 1141.08 596.842 1140 596.842H1136.93V601.874H1139.54ZM1154.18 590.205C1155.84 590.205 1157.13 590.78 1158.06 591.93C1159 593.065 1159.47 594.654 1159.47 596.699C1159.47 598.727 1158.99 600.332 1158.03 601.514C1157.09 602.681 1155.8 603.264 1154.15 603.264C1152.49 603.264 1151.19 602.689 1150.25 601.538C1149.32 600.372 1148.86 598.775 1148.86 596.746C1148.86 595.421 1149.07 594.263 1149.5 593.272C1149.94 592.282 1150.55 591.523 1151.35 590.996C1152.15 590.469 1153.09 590.205 1154.18 590.205ZM1154.18 591.379C1152.96 591.379 1152.02 591.835 1151.35 592.745C1150.68 593.656 1150.34 594.989 1150.34 596.746C1150.34 598.488 1150.67 599.813 1151.33 600.724C1152 601.634 1152.94 602.09 1154.15 602.09C1155.37 602.09 1156.31 601.634 1156.98 600.724C1157.67 599.813 1158.01 598.472 1158.01 596.699C1158.01 594.957 1157.68 593.64 1157 592.745C1156.35 591.835 1155.41 591.379 1154.18 591.379ZM1172.3 603V591.643H1166.14V603H1164.75V590.469H1173.69V603H1172.3ZM1185.14 590.205C1186.66 590.205 1187.79 590.772 1188.54 591.907C1189.31 593.025 1189.69 594.614 1189.69 596.675C1189.69 598.687 1189.28 600.293 1188.45 601.491C1187.63 602.673 1186.46 603.264 1184.92 603.264C1184.17 603.264 1183.49 603.112 1182.89 602.808C1182.28 602.489 1181.77 602.066 1181.35 601.538V607.72L1179.96 607.912V590.469H1181.16L1181.28 592.29C1181.75 591.635 1182.3 591.124 1182.96 590.756C1183.63 590.389 1184.36 590.205 1185.14 590.205ZM1184.66 602.09C1185.81 602.09 1186.69 601.634 1187.3 600.724C1187.9 599.813 1188.21 598.464 1188.21 596.675C1188.21 593.128 1187.1 591.355 1184.88 591.355C1184.13 591.355 1183.47 591.547 1182.91 591.93C1182.37 592.314 1181.85 592.841 1181.35 593.512V600.173C1182.18 601.451 1183.29 602.09 1184.66 602.09ZM1199.4 590.205C1201.06 590.205 1202.35 590.78 1203.28 591.93C1204.22 593.065 1204.69 594.654 1204.69 596.699C1204.69 598.727 1204.21 600.332 1203.25 601.514C1202.31 602.681 1201.02 603.264 1199.37 603.264C1197.71 603.264 1196.41 602.689 1195.47 601.538C1194.54 600.372 1194.08 598.775 1194.08 596.746C1194.08 595.421 1194.29 594.263 1194.72 593.272C1195.16 592.282 1195.77 591.523 1196.57 590.996C1197.37 590.469 1198.31 590.205 1199.4 590.205ZM1199.4 591.379C1198.18 591.379 1197.24 591.835 1196.57 592.745C1195.9 593.656 1195.56 594.989 1195.56 596.746C1195.56 598.488 1195.89 599.813 1196.55 600.724C1197.22 601.634 1198.16 602.09 1199.37 602.09C1200.59 602.09 1201.53 601.634 1202.2 600.724C1202.89 599.813 1203.23 598.472 1203.23 596.699C1203.23 594.957 1202.9 593.64 1202.22 592.745C1201.57 591.835 1200.63 591.379 1199.4 591.379ZM1214.26 590.205C1214.98 590.205 1215.62 590.309 1216.18 590.517C1216.73 590.709 1217.28 591.028 1217.81 591.475L1217.11 592.386C1216.69 592.05 1216.26 591.803 1215.82 591.643C1215.39 591.483 1214.89 591.403 1214.33 591.403C1213.15 591.403 1212.21 591.867 1211.5 592.793C1210.8 593.704 1210.45 595.037 1210.45 596.794C1210.45 598.535 1210.79 599.845 1211.48 600.724C1212.18 601.602 1213.12 602.042 1214.31 602.042C1214.87 602.042 1215.37 601.954 1215.82 601.778C1216.28 601.602 1216.74 601.339 1217.21 600.987L1217.88 601.922C1216.82 602.816 1215.62 603.264 1214.28 603.264C1213.21 603.264 1212.28 603.008 1211.48 602.497C1210.68 601.986 1210.06 601.251 1209.61 600.293C1209.18 599.318 1208.96 598.16 1208.96 596.818C1208.96 595.493 1209.18 594.334 1209.61 593.344C1210.06 592.338 1210.68 591.563 1211.48 591.02C1212.28 590.477 1213.2 590.205 1214.26 590.205ZM1231.5 603H1230.14V595.237C1230.14 594.231 1230.19 593.176 1230.28 592.074L1224.03 603H1222.4V590.469H1223.79V597.825C1223.79 598.639 1223.74 599.813 1223.65 601.347L1229.87 590.469H1231.5V603ZM1245.47 590.469L1245.3 591.667H1241.13V603H1239.74V591.667H1235.43V590.469H1245.47ZM1257.62 596.267C1257.62 596.619 1257.61 596.954 1257.57 597.274H1249.21C1249.29 598.903 1249.67 600.117 1250.36 600.915C1251.06 601.698 1251.98 602.09 1253.12 602.09C1253.77 602.09 1254.35 601.994 1254.84 601.802C1255.35 601.594 1255.9 601.275 1256.5 600.844L1257.14 601.73C1256.52 602.241 1255.88 602.625 1255.23 602.88C1254.57 603.136 1253.84 603.264 1253.04 603.264C1251.38 603.264 1250.08 602.697 1249.14 601.562C1248.2 600.428 1247.73 598.855 1247.73 596.842C1247.73 595.516 1247.93 594.358 1248.32 593.368C1248.74 592.362 1249.32 591.587 1250.07 591.044C1250.84 590.485 1251.73 590.205 1252.73 590.205C1254.33 590.205 1255.54 590.748 1256.38 591.835C1257.21 592.905 1257.62 594.382 1257.62 596.267ZM1256.26 595.836C1256.26 594.43 1255.96 593.336 1255.37 592.553C1254.79 591.755 1253.93 591.355 1252.78 591.355C1251.74 591.355 1250.9 591.755 1250.27 592.553C1249.63 593.352 1249.28 594.566 1249.21 596.195H1256.26V595.836ZM1271.07 590.469V603H1269.68V591.643H1264.84L1264.46 596.291C1264.31 598.128 1264.16 599.462 1264 600.293C1263.84 601.123 1263.58 601.754 1263.21 602.185C1262.85 602.617 1262.26 602.96 1261.46 603.216L1261.08 602.09C1261.61 601.898 1261.98 601.642 1262.21 601.323C1262.45 600.987 1262.62 600.468 1262.73 599.765C1262.85 599.063 1262.97 597.857 1263.09 596.147L1263.57 590.469H1271.07ZM1280.95 594.686C1284.29 594.686 1285.96 596.044 1285.96 598.759C1285.96 600.165 1285.52 601.227 1284.64 601.946C1283.76 602.649 1282.62 603 1281.22 603H1277.36V590.469H1278.75V594.686H1280.95ZM1281.1 601.85C1282.18 601.85 1283.01 601.61 1283.59 601.131C1284.18 600.636 1284.47 599.845 1284.47 598.759C1284.47 597.785 1284.2 597.05 1283.66 596.555C1283.13 596.06 1282.24 595.812 1280.98 595.812H1278.75V601.85H1281.1ZM1298.2 603V597.106H1291.97V603H1290.58V590.469H1291.97V595.932H1298.2V590.469H1299.59V603H1298.2ZM1309.22 594.686C1312.56 594.686 1314.23 596.044 1314.23 598.759C1314.23 600.165 1313.79 601.227 1312.91 601.946C1312.03 602.649 1310.89 603 1309.48 603H1305.87V590.469H1307.26V594.686H1309.22ZM1316.5 590.469H1317.89V603H1316.5V590.469ZM1309.36 601.85C1310.45 601.85 1311.28 601.61 1311.86 601.131C1312.45 600.636 1312.74 599.845 1312.74 598.759C1312.74 597.785 1312.47 597.05 1311.93 596.555C1311.4 596.06 1310.51 595.812 1309.24 595.812H1307.26V601.85H1309.36ZM1333.27 603H1331.91V595.237C1331.91 594.231 1331.96 593.176 1332.05 592.074L1325.8 603H1324.17V590.469H1325.56V597.825C1325.56 598.639 1325.51 599.813 1325.41 601.347L1331.64 590.469H1333.27V603ZM1328.7 587.354C1327.87 587.354 1327.16 587.154 1326.59 586.755C1326.03 586.356 1325.69 585.813 1325.58 585.126L1326.54 584.934C1326.84 585.797 1327.56 586.228 1328.7 586.228C1329.85 586.228 1330.57 585.797 1330.88 584.934L1331.84 585.126C1331.72 585.813 1331.38 586.356 1330.81 586.755C1330.23 587.154 1329.53 587.354 1328.7 587.354ZM1350.19 590.205C1351.36 590.205 1352.32 590.501 1353.09 591.092C1353.87 591.683 1354.26 592.49 1354.26 593.512C1354.26 595.013 1353.39 595.948 1351.65 596.315C1352.72 596.427 1353.53 596.73 1354.07 597.226C1354.63 597.705 1354.91 598.424 1354.91 599.382C1354.91 600.628 1354.46 601.586 1353.57 602.257C1352.69 602.928 1351.54 603.264 1350.12 603.264C1349.13 603.264 1348.26 603.12 1347.51 602.832C1346.76 602.545 1346.07 602.145 1345.45 601.634L1346.21 600.772C1346.77 601.203 1347.35 601.53 1347.94 601.754C1348.55 601.978 1349.26 602.09 1350.07 602.09C1351.09 602.09 1351.91 601.874 1352.52 601.443C1353.14 601.011 1353.45 600.316 1353.45 599.358C1353.45 598.511 1353.13 597.905 1352.49 597.537C1351.85 597.17 1350.94 596.986 1349.76 596.986H1348.27L1348.37 595.86H1349.57C1350.61 595.86 1351.41 595.66 1351.99 595.261C1352.56 594.862 1352.85 594.287 1352.85 593.536C1352.85 592.833 1352.6 592.298 1352.08 591.93C1351.59 591.547 1350.92 591.355 1350.07 591.355C1349.35 591.355 1348.73 591.443 1348.2 591.619C1347.69 591.779 1347.14 592.042 1346.55 592.41L1345.88 591.547C1346.52 591.1 1347.18 590.764 1347.87 590.541C1348.55 590.317 1349.33 590.205 1350.19 590.205ZM1367.81 603V597.106H1361.58V603H1360.19V590.469H1361.58V595.932H1367.81V590.469H1369.2V603H1367.81ZM1383.26 600.221C1383.26 600.876 1383.34 601.347 1383.5 601.634C1383.68 601.922 1383.95 602.137 1384.32 602.281L1384.01 603.264C1383.43 603.152 1382.98 602.936 1382.66 602.617C1382.36 602.297 1382.16 601.81 1382.07 601.155C1381.2 602.561 1379.9 603.264 1378.16 603.264C1376.96 603.264 1376.01 602.928 1375.31 602.257C1374.62 601.57 1374.28 600.66 1374.28 599.526C1374.28 598.232 1374.73 597.234 1375.64 596.531C1376.57 595.828 1377.85 595.477 1379.48 595.477H1381.87V594.255C1381.87 593.248 1381.65 592.521 1381.2 592.074C1380.76 591.611 1380.01 591.379 1378.97 591.379C1378.02 591.379 1376.88 591.619 1375.57 592.098L1375.21 591.044C1376.62 590.485 1377.94 590.205 1379.17 590.205C1381.9 590.205 1383.26 591.531 1383.26 594.183V600.221ZM1378.4 602.137C1379.9 602.137 1381.06 601.403 1381.87 599.933V596.483H1379.69C1378.42 596.483 1377.44 596.73 1376.77 597.226C1376.1 597.721 1375.76 598.464 1375.76 599.454C1375.76 600.316 1376 600.979 1376.46 601.443C1376.92 601.906 1377.57 602.137 1378.4 602.137ZM1397.88 590.469L1393.95 596.267L1398.48 603H1396.85L1392.78 596.89H1390.91V603H1389.52V590.469H1390.91V595.788H1392.8L1396.35 590.469H1397.88Z" fill="white" fill-opacity="0.85"/>
<path d="M109.829 70.2054C110.547 70.2054 111.186 70.3092 111.745 70.5168C112.304 70.7085 112.848 71.028 113.375 71.4752L112.68 72.3857C112.265 72.0503 111.833 71.8027 111.386 71.643C110.955 71.4832 110.46 71.4034 109.9 71.4034C108.718 71.4034 107.776 71.8666 107.073 72.793C106.37 73.7035 106.019 75.0373 106.019 76.7944C106.019 78.5355 106.362 79.8453 107.049 80.7238C107.752 81.6023 108.694 82.0416 109.877 82.0416C110.436 82.0416 110.939 81.9537 111.386 81.778C111.849 81.6023 112.312 81.3388 112.776 80.9874L113.447 81.9218C112.392 82.8163 111.194 83.2636 109.853 83.2636C108.782 83.2636 107.848 83.008 107.049 82.4968C106.251 81.9857 105.628 81.2509 105.18 80.2925C104.749 79.3181 104.533 78.1601 104.533 76.8183C104.533 75.4925 104.749 74.3345 105.18 73.3441C105.628 72.3378 106.251 71.5631 107.049 71.02C107.848 70.4769 108.774 70.2054 109.829 70.2054ZM125.66 70.4689L125.492 71.6669H121.323V83H119.934V71.6669H115.621V70.4689H125.66ZM134.708 70.2054C136.225 70.2054 137.359 70.7724 138.11 71.9065C138.877 73.0247 139.26 74.614 139.26 76.6746C139.26 78.6872 138.845 80.2925 138.014 81.4905C137.2 82.6725 136.026 83.2636 134.492 83.2636C133.741 83.2636 133.063 83.1118 132.456 82.8083C131.849 82.4889 131.338 82.0656 130.922 81.5384V87.7201L129.533 87.9118V70.4689H130.731L130.85 72.2899C131.314 71.635 131.873 71.1238 132.528 70.7564C133.198 70.3891 133.925 70.2054 134.708 70.2054ZM134.229 82.0895C135.379 82.0895 136.257 81.6343 136.864 80.7238C137.471 79.8133 137.775 78.4636 137.775 76.6746C137.775 73.1285 136.665 71.3554 134.444 71.3554C133.694 71.3554 133.039 71.5471 132.48 71.9305C131.937 72.3138 131.417 72.841 130.922 73.5118V80.1727C131.753 81.4506 132.855 82.0895 134.229 82.0895ZM153.542 76.2672C153.542 76.6187 153.526 76.9541 153.494 77.2736H145.132C145.212 78.9028 145.595 80.1168 146.282 80.9155C146.985 81.6982 147.903 82.0895 149.037 82.0895C149.692 82.0895 150.267 81.9937 150.762 81.802C151.274 81.5943 151.825 81.2749 152.416 80.8436L153.063 81.7301C152.44 82.2413 151.801 82.6246 151.146 82.8802C150.491 83.1358 149.764 83.2636 148.965 83.2636C147.304 83.2636 146.002 82.6965 145.06 81.5624C144.117 80.4283 143.646 78.8549 143.646 76.8423C143.646 75.5165 143.846 74.3584 144.245 73.3681C144.661 72.3618 145.244 71.5871 145.994 71.044C146.761 70.4849 147.648 70.2054 148.654 70.2054C150.251 70.2054 151.465 70.7485 152.296 71.8346C153.126 72.9049 153.542 74.3824 153.542 76.2672ZM152.176 75.836C152.176 74.4303 151.881 73.3361 151.29 72.5534C150.714 71.7548 149.852 71.3554 148.702 71.3554C147.664 71.3554 146.825 71.7548 146.186 72.5534C145.547 73.3521 145.196 74.5661 145.132 76.1954H152.176V75.836ZM166.992 70.4689V83H165.602V71.643H160.763L160.379 76.2912C160.235 78.1281 160.084 79.4619 159.924 80.2925C159.764 81.1231 159.501 81.7541 159.133 82.1854C158.766 82.6166 158.183 82.9601 157.384 83.2156L157.001 82.0895C157.528 81.8978 157.903 81.6423 158.127 81.3228C158.367 80.9874 158.542 80.4682 158.654 79.7654C158.766 79.0626 158.886 77.8566 159.013 76.1474L159.493 70.4689H166.992ZM181.64 70.4689L177.711 76.2672L182.239 83H180.61L176.537 76.8902H174.668V83H173.278V70.4689H174.668V75.788H176.561L180.107 70.4689H181.64ZM193.869 80.2206C193.869 80.8755 193.949 81.3468 194.108 81.6343C194.284 81.9218 194.556 82.1374 194.923 82.2812L194.612 83.2636C194.037 83.1517 193.589 82.9361 193.27 82.6166C192.966 82.2972 192.767 81.81 192.671 81.1551C191.808 82.5607 190.506 83.2636 188.765 83.2636C187.567 83.2636 186.617 82.9281 185.914 82.2572C185.227 81.5704 184.884 80.6599 184.884 79.5258C184.884 78.232 185.339 77.2336 186.25 76.5308C187.176 75.828 188.454 75.4766 190.083 75.4766H192.479V74.2546C192.479 73.2483 192.256 72.5215 191.808 72.0742C191.361 71.611 190.618 71.3794 189.58 71.3794C188.622 71.3794 187.488 71.619 186.178 72.0982L185.818 71.044C187.224 70.4849 188.542 70.2054 189.772 70.2054C192.503 70.2054 193.869 71.5311 193.869 74.1827V80.2206ZM189.005 82.1374C190.506 82.1374 191.665 81.4027 192.479 79.9331V76.4829H190.299C189.021 76.4829 188.047 76.7305 187.376 77.2256C186.705 77.7208 186.369 78.4636 186.369 79.4539C186.369 80.3165 186.601 80.9794 187.064 81.4426C187.527 81.9058 188.174 82.1374 189.005 82.1374Z" fill="white" fill-opacity="0.85"/>
<path d="M245.327 341.221C245.327 341.876 245.407 342.347 245.566 342.634C245.742 342.922 246.014 343.137 246.381 343.281L246.07 344.264C245.494 344.152 245.047 343.936 244.728 343.617C244.424 343.297 244.225 342.81 244.129 342.155C243.266 343.561 241.964 344.264 240.223 344.264C239.025 344.264 238.075 343.928 237.372 343.257C236.685 342.57 236.342 341.66 236.342 340.526C236.342 339.232 236.797 338.234 237.707 337.531C238.634 336.828 239.912 336.477 241.541 336.477H243.937V335.255C243.937 334.248 243.713 333.521 243.266 333.074C242.819 332.611 242.076 332.379 241.038 332.379C240.08 332.379 238.945 332.619 237.636 333.098L237.276 332.044C238.682 331.485 240 331.205 241.23 331.205C243.961 331.205 245.327 332.531 245.327 335.183V341.221ZM240.463 343.137C241.964 343.137 243.122 342.403 243.937 340.933V337.483H241.757C240.479 337.483 239.504 337.73 238.834 338.226C238.163 338.721 237.827 339.464 237.827 340.454C237.827 341.316 238.059 341.979 238.522 342.443C238.985 342.906 239.632 343.137 240.463 343.137ZM259.203 344V338.106H252.973V344H251.584V331.469H252.973V336.932H259.203V331.469H260.592V344H259.203ZM268.257 344H266.867V331.469H274.271L274.103 332.667H268.257V344ZM281.877 331.205C282.596 331.205 283.235 331.309 283.794 331.517C284.353 331.709 284.896 332.028 285.423 332.475L284.729 333.386C284.313 333.05 283.882 332.803 283.435 332.643C283.003 332.483 282.508 332.403 281.949 332.403C280.767 332.403 279.825 332.867 279.122 333.793C278.419 334.704 278.068 336.037 278.068 337.794C278.068 339.535 278.411 340.845 279.098 341.724C279.801 342.602 280.743 343.042 281.925 343.042C282.484 343.042 282.988 342.954 283.435 342.778C283.898 342.602 284.361 342.339 284.824 341.987L285.495 342.922C284.441 343.816 283.243 344.264 281.901 344.264C280.831 344.264 279.897 344.008 279.098 343.497C278.299 342.986 277.676 342.251 277.229 341.293C276.798 340.318 276.582 339.16 276.582 337.818C276.582 336.493 276.798 335.334 277.229 334.344C277.676 333.338 278.299 332.563 279.098 332.02C279.897 331.477 280.823 331.205 281.877 331.205ZM297.709 331.469L297.541 332.667H293.372V344H291.982V332.667H287.67V331.469H297.709ZM306.757 331.205C308.274 331.205 309.408 331.772 310.159 332.907C310.926 334.025 311.309 335.614 311.309 337.675C311.309 339.687 310.894 341.293 310.063 342.491C309.248 343.673 308.074 344.264 306.541 344.264C305.79 344.264 305.111 344.112 304.504 343.808C303.897 343.489 303.386 343.066 302.971 342.538V348.72L301.581 348.912V331.469H302.779L302.899 333.29C303.362 332.635 303.921 332.124 304.576 331.756C305.247 331.389 305.974 331.205 306.757 331.205ZM306.277 343.09C307.428 343.09 308.306 342.634 308.913 341.724C309.52 340.813 309.824 339.464 309.824 337.675C309.824 334.128 308.713 332.355 306.493 332.355C305.742 332.355 305.087 332.547 304.528 332.93C303.985 333.314 303.466 333.841 302.971 334.512V341.173C303.802 342.451 304.904 343.09 306.277 343.09ZM325.591 337.267C325.591 337.619 325.575 337.954 325.543 338.274H317.181C317.26 339.903 317.644 341.117 318.331 341.915C319.033 342.698 319.952 343.09 321.086 343.09C321.741 343.09 322.316 342.994 322.811 342.802C323.322 342.594 323.873 342.275 324.464 341.844L325.111 342.73C324.488 343.241 323.849 343.625 323.195 343.88C322.54 344.136 321.813 344.264 321.014 344.264C319.353 344.264 318.051 343.697 317.109 342.562C316.166 341.428 315.695 339.855 315.695 337.842C315.695 336.516 315.895 335.358 316.294 334.368C316.709 333.362 317.292 332.587 318.043 332.044C318.81 331.485 319.696 331.205 320.703 331.205C322.3 331.205 323.514 331.748 324.345 332.835C325.175 333.905 325.591 335.382 325.591 337.267ZM324.225 336.836C324.225 335.43 323.929 334.336 323.338 333.553C322.763 332.755 321.901 332.355 320.751 332.355C319.712 332.355 318.874 332.755 318.235 333.553C317.596 334.352 317.244 335.566 317.181 337.195H324.225V336.836ZM342.366 344H341L340.353 336.692C340.257 335.51 340.193 334.24 340.161 332.883L336.663 342.443H335.345L331.943 332.883C331.911 334.24 331.855 335.51 331.775 336.692L331.176 344H329.835L330.937 331.469H332.71L336.016 341.029L339.443 331.469H341.24L342.366 344Z" fill="white" fill-opacity="0.85"/>
<path d="M900.819 549H899.43V536.469H906.833L906.666 537.667H900.819V549ZM915.935 536.205C917.452 536.205 918.586 536.772 919.337 537.907C920.104 539.025 920.487 540.614 920.487 542.675C920.487 544.687 920.072 546.293 919.241 547.491C918.426 548.673 917.252 549.264 915.719 549.264C914.968 549.264 914.289 549.112 913.682 548.808C913.075 548.489 912.564 548.066 912.149 547.538V553.72L910.759 553.912V536.469H911.957L912.077 538.29C912.54 537.635 913.099 537.124 913.754 536.756C914.425 536.389 915.152 536.205 915.935 536.205ZM915.455 548.09C916.605 548.09 917.484 547.634 918.091 546.724C918.698 545.813 919.001 544.464 919.001 542.675C919.001 539.128 917.891 537.355 915.671 537.355C914.92 537.355 914.265 537.547 913.706 537.93C913.163 538.314 912.644 538.841 912.149 539.512V546.173C912.98 547.451 914.082 548.09 915.455 548.09ZM933.432 546.221C933.432 546.876 933.512 547.347 933.672 547.634C933.848 547.922 934.119 548.137 934.487 548.281L934.175 549.264C933.6 549.152 933.153 548.936 932.833 548.617C932.53 548.297 932.33 547.81 932.234 547.155C931.372 548.561 930.07 549.264 928.329 549.264C927.131 549.264 926.18 548.928 925.478 548.257C924.791 547.57 924.447 546.66 924.447 545.526C924.447 544.232 924.903 543.234 925.813 542.531C926.739 541.828 928.017 541.477 929.647 541.477H932.043V540.255C932.043 539.248 931.819 538.521 931.372 538.074C930.925 537.611 930.182 537.379 929.143 537.379C928.185 537.379 927.051 537.619 925.741 538.098L925.382 537.044C926.787 536.485 928.105 536.205 929.335 536.205C932.067 536.205 933.432 537.531 933.432 540.183V546.221ZM928.568 548.137C930.07 548.137 931.228 547.403 932.043 545.933V542.483H929.862C928.584 542.483 927.61 542.73 926.939 543.226C926.268 543.721 925.933 544.464 925.933 545.454C925.933 546.316 926.164 546.979 926.628 547.443C927.091 547.906 927.738 548.137 928.568 548.137ZM950.591 536.205C952.028 536.205 953.059 536.764 953.682 537.883C954.305 539.001 954.616 540.598 954.616 542.675C954.616 544.703 954.257 546.308 953.538 547.491C952.835 548.673 951.829 549.264 950.519 549.264C949.289 549.264 948.243 548.681 947.38 547.514V553.72L946.038 553.912V547.538C945.208 548.689 944.146 549.264 942.852 549.264C941.574 549.264 940.576 548.673 939.857 547.491C939.154 546.293 938.803 544.687 938.803 542.675C938.803 540.63 939.138 539.041 939.809 537.907C940.48 536.772 941.51 536.205 942.9 536.205C944.194 536.205 945.24 536.772 946.038 537.907V531.198L947.38 531.365V537.954C948.195 536.788 949.265 536.205 950.591 536.205ZM943.115 548.113C944.249 548.113 945.224 547.483 946.038 546.221V539.272C945.224 537.994 944.249 537.355 943.115 537.355C942.221 537.355 941.526 537.811 941.031 538.721C940.536 539.616 940.288 540.933 940.288 542.675C940.288 544.432 940.528 545.781 941.007 546.724C941.502 547.65 942.205 548.113 943.115 548.113ZM950.351 548.113C951.246 548.113 951.933 547.65 952.412 546.724C952.891 545.781 953.131 544.432 953.131 542.675C953.131 540.902 952.907 539.576 952.46 538.697C952.012 537.803 951.326 537.355 950.399 537.355C949.185 537.355 948.179 537.994 947.38 539.272V546.221C947.812 546.844 948.267 547.315 948.746 547.634C949.225 547.954 949.76 548.113 950.351 548.113ZM968.893 542.267C968.893 542.619 968.877 542.954 968.845 543.274H960.483C960.563 544.903 960.946 546.117 961.633 546.915C962.336 547.698 963.254 548.09 964.388 548.09C965.043 548.09 965.618 547.994 966.113 547.802C966.625 547.594 967.176 547.275 967.767 546.844L968.414 547.73C967.791 548.241 967.152 548.625 966.497 548.88C965.842 549.136 965.115 549.264 964.316 549.264C962.655 549.264 961.353 548.697 960.411 547.562C959.468 546.428 958.997 544.855 958.997 542.842C958.997 541.516 959.197 540.358 959.596 539.368C960.012 538.362 960.595 537.587 961.345 537.044C962.112 536.485 962.999 536.205 964.005 536.205C965.602 536.205 966.816 536.748 967.647 537.835C968.477 538.905 968.893 540.382 968.893 542.267ZM967.527 541.836C967.527 540.43 967.232 539.336 966.641 538.553C966.065 537.755 965.203 537.355 964.053 537.355C963.015 537.355 962.176 537.755 961.537 538.553C960.898 539.352 960.547 540.566 960.483 542.195H967.527V541.836ZM985.668 549H984.302L983.655 541.692C983.559 540.51 983.496 539.24 983.464 537.883L979.965 547.443H978.648L975.245 537.883C975.213 539.24 975.157 540.51 975.078 541.692L974.479 549H973.137L974.239 536.469H976.012L979.319 546.029L982.745 536.469H984.542L985.668 549ZM998.826 546.221C998.826 546.876 998.906 547.347 999.066 547.634C999.242 547.922 999.513 548.137 999.881 548.281L999.569 549.264C998.994 549.152 998.547 548.936 998.227 548.617C997.924 548.297 997.724 547.81 997.628 547.155C996.766 548.561 995.464 549.264 993.723 549.264C992.525 549.264 991.574 548.928 990.872 548.257C990.185 547.57 989.841 546.66 989.841 545.526C989.841 544.232 990.297 543.234 991.207 542.531C992.133 541.828 993.411 541.477 995.041 541.477H997.437V540.255C997.437 539.248 997.213 538.521 996.766 538.074C996.318 537.611 995.576 537.379 994.537 537.379C993.579 537.379 992.445 537.619 991.135 538.098L990.776 537.044C992.181 536.485 993.499 536.205 994.729 536.205C997.461 536.205 998.826 537.531 998.826 540.183V546.221ZM993.962 548.137C995.464 548.137 996.622 547.403 997.437 545.933V542.483H995.256C993.978 542.483 993.004 542.73 992.333 543.226C991.662 543.721 991.327 544.464 991.327 545.454C991.327 546.316 991.558 546.979 992.022 547.443C992.485 547.906 993.132 548.137 993.962 548.137Z" fill="white" fill-opacity="0.85"/>
<path d="M125.327 600.221C125.327 600.876 125.407 601.347 125.566 601.634C125.742 601.922 126.014 602.137 126.381 602.281L126.07 603.264C125.494 603.152 125.047 602.936 124.728 602.617C124.424 602.297 124.225 601.81 124.129 601.155C123.266 602.561 121.964 603.264 120.223 603.264C119.025 603.264 118.075 602.928 117.372 602.257C116.685 601.57 116.342 600.66 116.342 599.526C116.342 598.232 116.797 597.234 117.707 596.531C118.634 595.828 119.912 595.477 121.541 595.477H123.937V594.255C123.937 593.248 123.713 592.521 123.266 592.074C122.819 591.611 122.076 591.379 121.038 591.379C120.08 591.379 118.945 591.619 117.636 592.098L117.276 591.044C118.682 590.485 120 590.205 121.23 590.205C123.961 590.205 125.327 591.531 125.327 594.183V600.221ZM120.463 602.137C121.964 602.137 123.122 601.403 123.937 599.933V596.483H121.757C120.479 596.483 119.504 596.73 118.834 597.226C118.163 597.721 117.827 598.464 117.827 599.454C117.827 600.316 118.059 600.979 118.522 601.443C118.985 601.906 119.632 602.137 120.463 602.137ZM136.447 591.236C137.885 591.236 139.011 591.747 139.826 592.769C140.64 593.775 141.048 595.173 141.048 596.962C141.048 599.007 140.584 600.572 139.658 601.658C138.732 602.728 137.47 603.264 135.872 603.264C134.243 603.264 132.949 602.673 131.991 601.491C131.048 600.293 130.577 598.504 130.577 596.123C130.577 594.287 130.697 592.793 130.937 591.643C131.192 590.493 131.647 589.55 132.302 588.816C132.973 588.065 133.924 587.466 135.154 587.019C136.08 586.683 136.823 586.388 137.382 586.132C137.957 585.877 138.508 585.573 139.035 585.222L139.658 586.252C138.748 586.875 137.462 587.474 135.8 588.049C134.97 588.352 134.307 588.704 133.812 589.103C133.317 589.503 132.917 590.086 132.614 590.852C132.31 591.603 132.103 592.633 131.991 593.943C132.454 593.144 133.061 592.498 133.812 592.002C134.563 591.491 135.441 591.236 136.447 591.236ZM135.896 602.09C138.34 602.09 139.562 600.412 139.562 597.058C139.562 595.477 139.275 594.303 138.7 593.536C138.141 592.769 137.326 592.386 136.256 592.386C135.345 592.386 134.523 592.641 133.788 593.152C133.069 593.664 132.494 594.382 132.063 595.309V596.531C132.047 598.32 132.366 599.694 133.021 600.652C133.692 601.61 134.65 602.09 135.896 602.09ZM148.476 590.205C149.642 590.205 150.609 590.501 151.375 591.092C152.158 591.683 152.549 592.49 152.549 593.512C152.549 595.013 151.679 595.948 149.938 596.315C151.008 596.427 151.815 596.73 152.358 597.226C152.917 597.705 153.196 598.424 153.196 599.382C153.196 600.628 152.749 601.586 151.855 602.257C150.976 602.928 149.826 603.264 148.404 603.264C147.414 603.264 146.543 603.12 145.793 602.832C145.042 602.545 144.355 602.145 143.732 601.634L144.499 600.772C145.058 601.203 145.633 601.53 146.224 601.754C146.831 601.978 147.542 602.09 148.356 602.09C149.379 602.09 150.193 601.874 150.8 601.443C151.423 601.011 151.735 600.316 151.735 599.358C151.735 598.511 151.415 597.905 150.776 597.537C150.137 597.17 149.227 596.986 148.045 596.986H146.559L146.655 595.86H147.853C148.892 595.86 149.698 595.66 150.273 595.261C150.848 594.862 151.136 594.287 151.136 593.536C151.136 592.833 150.88 592.298 150.369 591.93C149.874 591.547 149.203 591.355 148.356 591.355C147.638 591.355 147.015 591.443 146.488 591.619C145.976 591.779 145.425 592.042 144.834 592.41L144.163 591.547C144.802 591.1 145.465 590.764 146.152 590.541C146.839 590.317 147.614 590.205 148.476 590.205ZM166.031 600.221C166.031 600.876 166.111 601.347 166.27 601.634C166.446 601.922 166.718 602.137 167.085 602.281L166.773 603.264C166.198 603.152 165.751 602.936 165.432 602.617C165.128 602.297 164.929 601.81 164.833 601.155C163.97 602.561 162.668 603.264 160.927 603.264C159.729 603.264 158.779 602.928 158.076 602.257C157.389 601.57 157.046 600.66 157.046 599.526C157.046 598.232 157.501 597.234 158.411 596.531C159.338 595.828 160.616 595.477 162.245 595.477H164.641V594.255C164.641 593.248 164.417 592.521 163.97 592.074C163.523 591.611 162.78 591.379 161.742 591.379C160.783 591.379 159.649 591.619 158.34 592.098L157.98 591.044C159.386 590.485 160.704 590.205 161.934 590.205C164.665 590.205 166.031 591.531 166.031 594.183V600.221ZM161.167 602.137C162.668 602.137 163.826 601.403 164.641 599.933V596.483H162.461C161.183 596.483 160.208 596.73 159.538 597.226C158.867 597.721 158.531 598.464 158.531 599.454C158.531 600.316 158.763 600.979 159.226 601.443C159.689 601.906 160.336 602.137 161.167 602.137ZM181.081 601.826H182.734V606.474H181.632L181.344 603H172.287V590.469H173.677V601.826H179.691V590.469H181.081V601.826Z" fill="white" fill-opacity="0.85"/>
</g>
<defs>
<clipPath id="clip0_331_425">
<rect width="1440" height="854" fill="white"/>
</clipPath>
</defs>
</svg>
