<svg width="1318" height="959" viewBox="0 0 1318 959" fill="none" xmlns="http://www.w3.org/2000/svg">
<g clip-path="url(#clip0_370_308)">
<circle cx="457.263" cy="458.264" r="412.298" transform="rotate(-135.353 457.263 458.264)" fill="black" stroke="white" stroke-width="3.10825"/>
<path d="M192.279 197.889C336.84 51.5373 572.671 50.0859 719.023 194.647M722.265 721.392C577.704 867.743 341.872 869.195 195.521 724.633" stroke="white" stroke-width="10.3608"/>
<path d="M687.046 685.42C560.5 813.533 355.037 815.772 228.133 690.419" stroke="white" stroke-width="9.32474"/>
<path d="M226.943 232.028C353.489 103.915 558.952 101.677 685.856 227.029" stroke="white" stroke-width="9.32474"/>
<path d="M654.815 654.038C547.047 763.14 371.24 764.222 262.138 656.455" stroke="white" stroke-width="8.35796"/>
<path d="M259.173 263.409C366.941 154.307 542.749 153.225 651.851 260.993" stroke="white" stroke-width="8.35796"/>
<path d="M623.855 623.459C532.976 715.463 384.721 716.375 292.717 625.497" stroke="white" stroke-width="7.04813"/>
<path d="M290.134 293.99C381.013 201.986 529.269 201.074 621.273 291.953" stroke="white" stroke-width="7.04813"/>
<path d="M597.055 592.177C518.411 671.795 394.524 676.94 320.346 603.668" stroke="white" stroke-width="6.33084"/>
<path d="M315.44 325.116C394.084 245.499 517.971 240.354 592.15 313.626" stroke="white" stroke-width="6.33084"/>
<path d="M571.614 572.482C508.64 636.237 406.396 637.353 343.245 574.975" stroke="white" stroke-width="5.0522"/>
<path d="M342.374 344.965C405.348 281.211 507.593 280.094 570.743 342.472" stroke="white" stroke-width="5.0522"/>
<path d="M369.108 371.828C417.2 323.14 495.822 322.818 544.716 371.113C593.609 419.409 594.255 498.029 546.163 546.717C498.071 595.404 419.448 595.727 370.555 547.431C321.661 499.136 321.016 420.515 369.108 371.828Z" fill="white" stroke="black" stroke-width="0.829158"/>
<path d="M570 758.5L531 705L497.5 729L527 776.5L551.5 758.5H570Z" fill="black"/>
<path d="M627 631L609 618.5L531 705L570 758.5L575 753.807L588.645 741L627 705C601.8 673 616.5 642.333 627 631Z" fill="black"/>
<path d="M609 618.5L627 631L869.611 289.5L888 263.616L920.407 218L938.853 192.036L920.917 179.279L905.5 200.988L903.361 204L861 263.65L851.519 277L609 618.5Z" fill="black"/>
<path d="M575 753.807L609 803L588.645 741L575 753.807Z" fill="black"/>
<path d="M609 618.5L627 631M609 618.5L851.519 277M609 618.5L531 705M627 631L869.611 289.5M627 631C616.5 642.333 601.8 673 627 705L588.645 741M1034 94H1008.5L968.022 150.977M1034 94C1015.6 86.4 991.667 65.8333 982 56.5M1034 94L1038.75 88M982 56.5L990 82L950 138.325M982 56.5L986 51.1835M962 208.5L982 187L965 174.873M962 208.5L941.5 193.919M962 208.5L965.5 297.5M942 109L934 120L990 158L997.25 145.75M942 109L950 98L1004.5 133.5L997.25 145.75M942 109L997.25 145.75M861 263.65C852.2 266.569 835.667 245.1 828.5 234C823.013 236.333 819.934 248.2 851.519 277M861 263.65L851.519 277M861 263.65L903.361 204M931.5 150.977L907 133.5L888 155L891 158L920.917 179.279M931.5 150.977C934.158 146.868 941.579 138.586 950 138.325M931.5 150.977L965 174.873M950 138.325C955.848 140.201 967.64 145.358 968.022 150.977M950 138.325L920.917 179.279M968.022 150.977C970.515 153.9 973.4 162.772 965 174.873M968.022 150.977L938.853 192.036M990 45.8671L1021.5 4C1052.7 9.2 1069.5 32.5 1074 43.5L1043.51 82M990 45.8671C1002.67 50.0781 1031.11 63.2 1043.51 82M990 45.8671L986 51.1835M1043.51 82L1038.75 88M986 51.1835C999.168 56.4557 1028.15 71.2 1038.75 88M920.407 218C930.771 218.946 949.5 215.454 941.5 193.919M920.407 218L888 263.616M920.407 218L938.853 192.036M941.5 193.919L938.853 192.036M920.917 179.279L905.5 200.988L903.361 204M920.917 179.279L938.853 192.036M903.361 204C895.907 193.186 887.6 173.102 914 179.279M869.611 289.5C884.741 297 925.1 309.1 965.5 297.5M869.611 289.5L888 263.616M965.5 297.5C959.693 298.091 951.39 298.332 942 297.69M881.5 277C887.671 282.352 895.036 286.428 902.878 289.5M531 705L570 758.5M531 705L497.5 729L527 776.5L551.5 758.5H570M570 758.5L575 753.807M575 753.807L609 803L588.645 741M575 753.807L588.645 741M1059 945.5V932H1144V945.5M1059 945.5V959H1144V945.5M1059 945.5H1144M1159.5 945.5V932H1249V945.5M1159.5 945.5V959H1249V945.5M1159.5 945.5H1249M888 263.616C897.919 263.244 914.781 267.9 902.878 289.5M902.878 289.5C912.97 293.453 923.853 295.742 934 296.944M934 296.944V284.5H928V271H934H947V284.5H941.5L942 297.69M934 296.944C936.73 297.268 939.406 297.513 942 297.69M685 114C726.333 90.1667 817.5 47.5 843.5 43.5C869.5 39.5 925.333 46.9557 950 51.1835C991.833 66.9557 1077.2 122.4 1084 218C1090.8 313.6 1045.17 371.5 1021.5 388.5C984.574 412.333 902.5 463.2 869.611 476M1269.5 932V959H1314.5V932H1269.5ZM0 932.5V959H45.5V932.5H0Z" stroke="white" stroke-width="3.27"/>
<rect x="1152.42" y="530.422" width="164.157" height="373.157" stroke="white" stroke-width="2.84348"/>
<rect x="1174.42" y="823.422" width="120.157" height="14.1565" stroke="white" stroke-width="2.84348"/>
<rect x="1174.42" y="747.422" width="120.157" height="14.1565" stroke="white" stroke-width="2.84348"/>
<rect x="1174.42" y="672.422" width="120.157" height="13.1565" stroke="white" stroke-width="2.84348"/>
<rect x="1174.42" y="596.422" width="120.157" height="14.1565" stroke="white" stroke-width="2.84348"/>
<ellipse cx="1282" cy="603.5" rx="21" ry="12.5" fill="white"/>
<ellipse cx="1234.5" cy="679" rx="20.5" ry="13" fill="white"/>
<ellipse cx="1234.5" cy="756.5" rx="20.5" ry="12.5" fill="white"/>
<ellipse cx="1209" cy="830.5" rx="21" ry="12.5" fill="white"/>
<mask id="path-25-inside-1_370_308" fill="white">
<path d="M1095.32 629.293C1103.32 630.382 1110.62 634.458 1115.74 640.703C1120.86 646.947 1123.44 654.899 1122.94 662.961C1122.45 671.023 1118.92 678.6 1113.07 684.171C1107.22 689.742 1099.48 692.895 1091.41 692.998C1083.33 693.1 1075.51 690.144 1069.52 684.723C1063.54 679.302 1059.82 671.817 1059.12 663.77C1058.42 655.723 1060.79 647.709 1065.76 641.336C1070.72 634.964 1077.91 630.704 1085.88 629.412L1091 661L1095.32 629.293Z"/>
</mask>
<path d="M1095.32 629.293C1103.32 630.382 1110.62 634.458 1115.74 640.703C1120.86 646.947 1123.44 654.899 1122.94 662.961C1122.45 671.023 1118.92 678.6 1113.07 684.171C1107.22 689.742 1099.48 692.895 1091.41 692.998C1083.33 693.1 1075.51 690.144 1069.52 684.723C1063.54 679.302 1059.82 671.817 1059.12 663.77C1058.42 655.723 1060.79 647.709 1065.76 641.336C1070.72 634.964 1077.91 630.704 1085.88 629.412L1091 661L1095.32 629.293Z" stroke="white" stroke-width="6.54" mask="url(#path-25-inside-1_370_308)"/>
<path d="M1082.23 724.224C1090 722.011 1098.32 722.818 1105.52 726.483C1112.72 730.148 1118.26 736.399 1121.04 743.983C1123.83 751.567 1123.64 759.922 1120.51 767.371C1117.39 774.821 1111.57 780.814 1104.21 784.147C1096.85 787.481 1088.5 787.909 1080.85 785.346C1073.19 782.782 1066.78 777.417 1062.91 770.326C1059.04 763.235 1058 754.943 1059.99 747.115C1061.98 739.286 1066.86 732.5 1073.64 728.118L1091 755L1082.23 724.224Z" fill="white"/>
<path d="M968.16 746.461C970.316 738.677 975.335 731.995 982.212 727.757C989.088 723.52 997.313 722.039 1005.24 723.614C1013.16 725.188 1020.19 729.7 1024.93 736.244C1029.66 742.789 1031.75 750.882 1030.76 758.899C1029.78 766.917 1025.8 774.265 1019.62 779.47C1013.44 784.675 1005.53 787.352 997.459 786.963C989.391 786.574 981.768 783.148 976.121 777.373C970.473 771.598 967.219 763.901 967.01 755.826L999 755L968.16 746.461Z" fill="white"/>
<path d="M1113.29 826.04C1119.09 831.667 1122.54 839.277 1122.96 847.343C1123.38 855.41 1120.73 863.336 1115.54 869.532C1110.36 875.727 1103.03 879.734 1095.01 880.747C1087 881.76 1078.9 879.706 1072.34 874.995C1065.78 870.284 1061.24 863.266 1059.64 855.35C1058.03 847.433 1059.48 839.203 1063.7 832.311C1067.91 825.419 1074.57 820.375 1082.35 818.191C1090.13 816.008 1098.44 816.846 1105.63 820.538L1091 849L1113.29 826.04Z" fill="white"/>
<mask id="path-29-inside-2_370_308" fill="white">
<path d="M991.45 817.903C999.299 815.997 1007.58 817.13 1014.63 821.075C1021.68 825.019 1026.97 831.483 1029.45 839.17C1031.94 846.857 1031.42 855.198 1028.01 862.519C1024.59 869.841 1018.54 875.6 1011.05 878.643C1003.57 881.685 995.216 881.786 987.662 878.923C980.109 876.061 973.917 870.448 970.33 863.211C966.743 855.974 966.025 847.648 968.321 839.904C970.617 832.159 975.757 825.57 982.709 821.457L999.001 849L991.45 817.903Z"/>
</mask>
<path d="M991.45 817.903C999.299 815.997 1007.58 817.13 1014.63 821.075C1021.68 825.019 1026.97 831.483 1029.45 839.17C1031.94 846.857 1031.42 855.198 1028.01 862.519C1024.59 869.841 1018.54 875.6 1011.05 878.643C1003.57 881.685 995.216 881.786 987.662 878.923C980.109 876.061 973.917 870.448 970.33 863.211C966.743 855.974 966.025 847.648 968.321 839.904C970.617 832.159 975.757 825.57 982.709 821.457L999.001 849L991.45 817.903Z" stroke="white" stroke-width="6.54" mask="url(#path-29-inside-2_370_308)"/>
</g>
<defs>
<clipPath id="clip0_370_308">
<rect width="1318" height="959" fill="white"/>
</clipPath>
</defs>
</svg>
