<svg width="1509" height="324" viewBox="0 0 1509 324" fill="none" xmlns="http://www.w3.org/2000/svg">
<path d="M78.7964 0.467786C-10.5684 0.467786 -82.6367 72.5362 -82.6367 161.901C-82.6367 251.266 -10.5684 323.334 87.4446 323.334C165.278 323.334 208.519 277.21 208.519 277.21L159.513 199.376C159.513 199.376 136.451 222.438 107.624 222.438C61.5 222.438 55.7345 190.728 55.7345 190.728H240.229C240.229 188.422 240.229 164.207 240.229 161.901C240.229 72.5362 168.161 0.467786 78.7964 0.467786ZM52.8518 135.956C52.8518 112.894 64.3827 101.363 78.7964 101.363C93.21 101.363 104.741 112.894 104.741 135.956H52.8518Z" fill="white"/>
<path d="M416.279 0.467786C355.353 0.467786 309.23 34.0279 292.066 48.6086C287.303 52.6551 159.513 199.376 159.513 199.376L208.519 277.21C208.519 277.21 336.908 130.109 342.079 125.994C353.822 116.648 376.086 101.363 396.1 101.363C442.224 101.363 447.989 133.074 447.989 133.074H401.865C303.852 133.074 263.494 173.432 263.494 228.204C263.494 282.976 303.852 323.334 367.272 323.334C419.162 323.334 442.223 280.093 442.223 280.093L453.754 314.686H586.36C586.36 269.715 586.36 211.484 586.36 161.901C586.36 72.5362 514.292 0.467786 416.279 0.467786ZM419.162 231.087C410.513 231.087 401.865 222.438 401.865 213.79C401.865 196.494 416.279 182.08 447.989 182.08C447.989 216.673 433.575 231.087 419.162 231.087Z" fill="white"/>
<path d="M894.88 222.438C894.88 130.191 782.454 124.425 782.454 107.129C782.454 101.363 788.219 95.598 796.867 95.598C817.485 95.598 834.447 105.348 843.791 112.169C848.817 115.838 970.676 275.044 970.676 275.044L1013.92 205.858C1013.92 205.858 892.126 46.7195 886.885 42.5162C870.022 28.9909 827.42 0.467786 768.04 0.467786C678.675 0.467786 632.551 46.5915 632.551 101.363C632.551 193.611 744.978 199.376 744.978 216.673C744.978 222.438 739.213 228.204 730.564 228.204C699.775 228.204 676.294 213.589 665.323 205.171C660.887 201.767 555.258 67.1906 555.258 67.1906L512.017 136.376C512.017 136.376 617.511 271.083 621.994 275.044C638.406 289.543 684.671 323.334 759.392 323.334C848.757 323.334 894.88 277.21 894.88 222.438Z" fill="white"/>
<path d="M1084.94 0.467786C995.573 0.467786 923.505 72.5362 923.505 161.901C923.505 251.266 995.573 323.334 1093.59 323.334C1171.42 323.334 1214.66 277.21 1214.66 277.21L1165.65 199.376C1165.65 199.376 1142.59 222.438 1113.77 222.438C1067.64 222.438 1061.88 190.728 1061.88 190.728H1246.37C1246.37 188.422 1246.37 164.207 1246.37 161.901C1246.37 72.5362 1174.3 0.467786 1084.94 0.467786ZM1058.99 135.956C1058.99 112.894 1070.52 101.363 1084.94 101.363C1099.35 101.363 1110.88 112.894 1110.88 135.956H1058.99Z" fill="white"/>
<path d="M1422.42 0.467171C1361.49 0.467171 1315.37 34.0273 1298.21 48.608C1293.44 52.6544 1165.65 199.376 1165.65 199.376L1214.66 277.21C1214.66 277.21 1343.05 130.109 1348.22 125.993C1359.96 116.647 1382.23 101.363 1402.24 101.363C1448.37 101.363 1454.13 133.073 1454.13 133.073H1408.01C1309.99 133.073 1269.64 173.431 1269.64 228.203C1269.64 282.975 1309.99 323.333 1373.41 323.333C1425.3 323.333 1448.37 280.092 1448.37 280.092L1459.9 314.685H1592.5C1592.5 269.715 1592.5 211.483 1592.5 161.9C1592.5 72.5355 1520.43 0.467171 1422.42 0.467171ZM1425.3 231.086C1416.66 231.086 1408.01 222.438 1408.01 213.79C1408.01 196.493 1422.42 182.079 1454.13 182.079C1454.13 216.672 1439.72 231.086 1425.3 231.086Z" fill="white"/>
<path d="M1166.01 206.016C1166.25 205.816 1166.49 205.621 1166.71 205.433L1211.53 276.62C1210.26 277.805 1208.44 279.435 1206.09 281.37C1200.97 285.57 1193.32 291.198 1183.28 296.835C1163.21 308.104 1133.6 319.392 1095.48 319.392C999.511 319.392 929.344 248.954 929.344 161.9C929.344 74.7125 999.647 4.40879 1086.84 4.40879C1174.02 4.40879 1244.33 74.7125 1244.33 161.9V161.914V161.928V161.943V161.958V161.974V161.99V162.007V162.024V162.042V162.06V162.079V162.098V162.118V162.138V162.158V162.179V162.201V162.223V162.245V162.268V162.292V162.316V162.34V162.365V162.39V162.416V162.442V162.468V162.495V162.523V162.551V162.579V162.608V162.637V162.667V162.697V162.727V162.758V162.789V162.821V162.853V162.886V162.919V162.953V162.986V163.021V163.055V163.091V163.126V163.162V163.198V163.235V163.272V163.31V163.348V163.386V163.425V163.464V163.503V163.543V163.584V163.624V163.665V163.707V163.748V163.791V163.833V163.876V163.919V163.963V164.007V164.051V164.096V164.141V164.186V164.232V164.278V164.325V164.372V164.419V164.466V164.514V164.563V164.611V164.66V164.709V164.759V164.809V164.859V164.909V164.96V165.012V165.063V165.115V165.167V165.22V165.272V165.325V165.379V165.433V165.487V165.541V165.595V165.65V165.706V165.761V165.817V165.873V165.929V165.986V166.043V166.1V166.158V166.216V166.274V166.332V166.391V166.45V166.509V166.568V166.628V166.688V166.748V166.809V166.869V166.931V166.992V167.053V167.115V167.177V167.239V167.302V167.365V167.428V167.491V167.554V167.618V167.682V167.746V167.811V167.875V167.94V168.005V168.071V168.136V168.202V168.268V168.334V168.4V168.467V168.534V168.601V168.668V168.735V168.803V168.871V168.939V169.007V169.075V169.144V169.213V169.282V169.351V169.42V169.49V169.559V169.629V169.699V169.769V169.84V169.91V169.981V170.052V170.123V170.194V170.265V170.337V170.409V170.48V170.552V170.624V170.697V170.769V170.842V170.914V170.987V171.06V171.133V171.206V171.28V171.353V171.427V171.501V171.575V171.649V171.723V171.797V171.871V171.946V172.02V172.095V172.17V172.245V172.32V172.395V172.47V172.545V172.621V172.696V172.772V172.847V172.923V172.999V173.075V173.151V173.227V173.303V173.379V173.456V173.532V173.609V173.685V173.762V173.838V173.915V173.992V174.069V174.146V174.223V174.3V174.377V174.454V174.531V174.608V174.685V174.763V174.84V174.917V174.995V175.072V175.15V175.227V175.305V175.382V175.46V175.537V175.615V175.693V175.77V175.848V175.926V176.003V176.081V176.159V176.236V176.314V176.392V176.469V176.547V176.625V176.703V176.78V176.858V176.936V177.013V177.091V177.168V177.246V177.323V177.401V177.478V177.556V177.633V177.711V177.788V177.865V177.943V178.02V178.097V178.174V178.251V178.329V178.406V178.482V178.559V178.636V178.713V178.79V178.866V178.943V179.02V179.096V179.172V179.249V179.325V179.401V179.477V179.553V179.629V179.705V179.781V179.856V179.932V180.008V180.083V180.158V180.233V180.309V180.384V180.458V180.533V180.608V180.682V180.757V180.831V180.906V180.98V181.054V181.127V181.201V181.275V181.348V181.422V181.495V181.568V181.641V181.714V181.787V181.859V181.932V182.004V182.076V182.148V182.22V182.291V182.363V182.434V182.505V182.576V182.647V182.718V182.789V182.859V182.929V182.999V183.069V183.139V183.208V183.277V183.347V183.416V183.484V183.553V183.621V183.689V183.757V183.825V183.893V183.96V184.028V184.095V184.161V184.228V184.294V184.36V184.426V184.492V184.558V184.623V184.688V184.753V184.818V184.882V184.946V185.01V185.074V185.137V185.201V185.264V185.326V185.389V185.451V185.513V185.575V185.636V185.698V185.759V185.819V185.88V185.94V186V186.06V186.119V186.179V186.237V186.296V186.354V186.413V186.47V186.528V186.585V186.642V186.699V186.755V186.786H1063.77H1059.05L1059.9 191.433L1063.77 190.728C1059.9 191.433 1059.9 191.436 1059.9 191.439L1059.9 191.445L1059.9 191.46L1059.91 191.499C1059.91 191.529 1059.92 191.566 1059.93 191.611C1059.95 191.701 1059.97 191.821 1060.01 191.968C1060.08 192.263 1060.18 192.67 1060.32 193.173C1060.61 194.178 1061.07 195.571 1061.77 197.222C1063.17 200.521 1065.55 204.883 1069.51 209.234C1077.52 218.051 1091.59 226.379 1115.66 226.379C1131.09 226.379 1144.8 220.225 1154.48 214.264C1159.36 211.266 1163.29 208.269 1166.01 206.016ZM1056.95 135.956V139.897H1060.89H1112.78H1116.72V135.956C1116.72 123.804 1113.68 114.187 1108.27 107.526C1102.8 100.794 1095.17 97.4215 1086.84 97.4215C1078.5 97.4215 1070.87 100.794 1065.4 107.526C1059.99 114.187 1056.95 123.804 1056.95 135.956Z" fill="black" stroke="white" stroke-width="7.88301"/>
<path d="M777.438 107.128C777.438 111.534 780.945 114.549 784.066 116.573C787.472 118.781 792.168 120.905 797.424 123.106C799.685 124.053 802.081 125.027 804.583 126.045C813.948 129.853 824.811 134.271 835.724 140.147C863.229 154.957 889.865 178.396 889.865 222.438C889.865 248.641 878.866 272.737 857.094 290.362C835.268 308.03 802.35 319.392 758.318 319.392C688.406 319.392 643.931 289.314 626.045 274.258L665.349 210.877C677.754 219.667 700.456 232.145 729.49 232.145C739.724 232.145 747.846 225.163 747.846 216.672C747.846 212.267 744.339 209.252 741.218 207.228C737.812 205.02 733.116 202.896 727.86 200.695C725.599 199.748 723.203 198.774 720.701 197.756C711.336 193.948 700.473 189.53 689.56 183.654C662.055 168.844 635.419 145.405 635.419 101.363C635.419 75.1596 646.418 51.064 668.19 33.4392C690.016 15.7705 722.934 4.40879 766.966 4.40879C822.099 4.40879 862.498 29.5479 880.604 43.4406L841.556 106.553C831.423 99.7994 815.207 91.656 795.793 91.656C785.56 91.656 777.438 98.638 777.438 107.128Z" fill="black" stroke="white" stroke-width="7.88301"/>
<path d="M449.631 132.368L445.753 133.073C449.631 132.368 449.63 132.365 449.63 132.362L449.629 132.356L449.626 132.341L449.618 132.302C449.613 132.272 449.605 132.234 449.596 132.19C449.577 132.1 449.552 131.98 449.518 131.832C449.45 131.537 449.348 131.13 449.205 130.628C448.918 129.623 448.46 128.23 447.76 126.579C446.36 123.28 443.977 118.918 440.021 114.567C432.006 105.75 417.941 97.4215 393.864 97.4215C382.935 97.4215 371.701 101.566 361.925 106.681C353.833 110.915 346.498 115.943 340.82 120.244L295.036 49.4013C313.704 34.1445 357.397 4.40879 414.043 4.40879C510.015 4.40879 580.183 74.8464 580.183 161.9V162.191V162.482V162.773V163.064V163.356V163.647V163.939V164.231V164.523V164.815V165.108V165.401V165.694V165.987V166.28V166.574V166.867V167.161V167.455V167.749V168.044V168.338V168.633V168.928V169.223V169.518V169.814V170.109V170.405V170.701V170.997V171.293V171.59V171.886V172.183V172.48V172.777V173.074V173.372V173.669V173.967V174.265V174.563V174.861V175.16V175.458V175.757V176.056V176.355V176.654V176.953V177.252V177.552V177.852V178.152V178.452V178.752V179.052V179.352V179.653V179.954V180.255V180.556V180.857V181.158V181.459V181.761V182.062V182.364V182.666V182.968V183.27V183.573V183.875V184.178V184.48V184.783V185.086V185.389V185.692V185.996V186.299V186.603V186.906V187.21V187.514V187.818V188.122V188.426V188.73V189.035V189.339V189.644V189.949V190.254V190.559V190.864V191.169V191.474V191.779V192.085V192.391V192.696V193.002V193.308V193.614V193.92V194.226V194.532V194.839V195.145V195.451V195.758V196.065V196.372V196.678V196.985V197.292V197.599V197.907V198.214V198.521V198.829V199.136V199.444V199.751V200.059V200.367V200.675V200.983V201.291V201.599V201.907V202.215V202.524V202.832V203.14V203.449V203.757V204.066V204.375V204.683V204.992V205.301V205.61V205.919V206.228V206.537V206.846V207.155V207.464V207.774V208.083V208.392V208.702V209.011V209.321V209.63V209.94V210.25V210.559V210.869V211.179V211.489V211.798V212.108V212.418V212.728V213.038V213.348V213.658V213.968V214.278V214.588V214.899V215.209V215.519V215.829V216.139V216.45V216.76V217.07V217.381V217.691V218.001V218.312V218.622V218.933V219.243V219.554V219.864V220.174V220.485V220.795V221.106V221.416V221.727V222.037V222.348V222.659V222.969V223.28V223.59V223.901V224.211V224.522V224.832V225.143V225.453V225.764V226.074V226.385V226.695V227.006V227.316V227.627V227.937V228.247V228.558V228.868V229.178V229.489V229.799V230.109V230.42V230.73V231.04V231.35V231.661V231.971V232.281V232.591V232.901V233.211V233.521V233.831V234.141V234.451V234.761V235.071V235.381V235.69V236V236.31V236.619V236.929V237.239V237.548V237.858V238.167V238.476V238.786V239.095V239.404V239.713V240.023V240.332V240.641V240.95V241.259V241.567V241.876V242.185V242.494V242.802V243.111V243.419V243.728V244.036V244.344V244.653V244.961V245.269V245.577V245.885V246.193V246.501V246.808V247.116V247.424V247.731V248.039V248.346V248.653V248.96V249.268V249.575V249.882V250.188V250.495V250.802V251.109V251.415V251.721V252.028V252.334V252.64V252.946V253.252V253.558V253.864V254.17V254.475V254.781V255.086V255.391V255.697V256.002V256.307V256.612V256.916V257.221V257.526V257.83V258.134V258.439V258.743V259.047V259.351V259.654V259.958V260.262V260.565V260.868V261.172V261.475V261.778V262.08V262.383V262.686V262.988V263.29V263.593V263.895V264.197V264.499V264.8V265.102V265.403V265.704V266.006V266.307V266.607V266.908V267.209V267.509V267.81V268.11V268.41V268.71V269.009V269.309V269.608V269.908V270.207V270.506V270.805V271.104V271.402V271.7V271.999V272.297V272.595V272.892V273.19V273.488V273.785V274.082V274.379V274.676V274.972V275.269V275.565V275.861V276.157V276.453V276.749V277.044V277.34V277.635V277.93V278.224V278.519V278.813V279.108V279.402V279.695V279.989V280.283V280.576V280.869V281.162V281.455V281.748V282.04V282.332V282.624V282.916V283.208V283.499V283.79V284.081V284.372V284.663V284.953V285.244V285.534V285.824V286.113V286.403V286.692V286.981V287.27V287.559V287.847V288.135V288.423V288.711V288.999V289.286V289.573V289.86V290.147V290.433V290.72V291.006V291.292V291.577V291.863V292.148V292.433V292.718V293.002V293.287V293.571V293.854V294.138V294.422V294.705V294.988V295.27V295.553V295.835V296.117V296.399V296.68V296.962V297.243V297.523V297.804V298.084V298.364V298.644V298.924V299.203V299.482V299.761V300.04V300.318V300.596V300.874V301.151V301.429V301.706V301.983V302.259V302.535V302.811V303.087V303.363V303.638V303.913V304.188V304.462V304.736V305.01V305.284V305.557V305.83V306.103V306.376V306.648V306.92V307.192V307.463V307.735V308.006V308.276V308.547V308.817V309.086V309.356V309.625V309.894V310.163V310.431V310.699V310.744H454.359L443.727 278.846L440.826 270.144L436.512 278.233L436.512 278.233L436.511 278.235L436.51 278.238L436.506 278.243C436.5 278.256 436.488 278.278 436.47 278.31C436.434 278.374 436.377 278.478 436.296 278.618C436.136 278.898 435.885 279.324 435.544 279.876C434.86 280.98 433.814 282.582 432.395 284.518C429.552 288.394 425.234 293.577 419.362 298.758C407.638 309.103 389.791 319.392 365.036 319.392C334.171 319.392 309.243 309.584 292.064 293.436C274.898 277.3 265.199 254.584 265.199 228.203C265.199 201.884 274.837 179.335 296.07 163.24C317.463 147.023 351.08 137.015 399.629 137.015H445.753H450.476L449.631 132.368ZM449.694 182.08V178.138H445.753C429.354 178.138 416.881 181.86 408.411 188.313C399.838 194.845 395.688 203.945 395.688 213.79C395.688 219.396 398.451 224.672 402.247 228.468C406.043 232.264 411.319 235.028 416.925 235.028C425.577 235.028 433.945 230.658 440.001 221.775C445.997 212.982 449.694 199.866 449.694 182.08Z" fill="black" stroke="white" stroke-width="7.88301"/>
<path d="M1457.67 132.368L1453.79 133.073C1457.67 132.368 1457.67 132.365 1457.67 132.362L1457.67 132.356L1457.66 132.341L1457.66 132.302C1457.65 132.272 1457.64 132.234 1457.63 132.19C1457.62 132.1 1457.59 131.98 1457.56 131.832C1457.49 131.537 1457.39 131.13 1457.24 130.628C1456.96 129.623 1456.5 128.23 1455.8 126.579C1454.4 123.28 1452.02 118.918 1448.06 114.567C1440.04 105.75 1425.98 97.4215 1401.9 97.4215C1390.97 97.4215 1379.74 101.566 1369.96 106.681C1361.87 110.915 1354.54 115.943 1348.86 120.244L1303.07 49.4013C1321.74 34.1445 1365.44 4.40879 1422.08 4.40879C1518.05 4.40879 1588.22 74.8464 1588.22 161.9V162.191V162.482V162.773V163.064V163.356V163.647V163.939V164.231V164.523V164.815V165.108V165.401V165.694V165.987V166.28V166.574V166.867V167.161V167.455V167.749V168.044V168.338V168.633V168.928V169.223V169.518V169.814V170.109V170.405V170.701V170.997V171.293V171.59V171.886V172.183V172.48V172.777V173.074V173.372V173.669V173.967V174.265V174.563V174.861V175.16V175.458V175.757V176.056V176.355V176.654V176.953V177.252V177.552V177.852V178.152V178.452V178.752V179.052V179.352V179.653V179.954V180.255V180.556V180.857V181.158V181.459V181.761V182.062V182.364V182.666V182.968V183.27V183.573V183.875V184.178V184.48V184.783V185.086V185.389V185.692V185.996V186.299V186.603V186.906V187.21V187.514V187.818V188.122V188.426V188.73V189.035V189.339V189.644V189.949V190.254V190.559V190.864V191.169V191.474V191.779V192.085V192.391V192.696V193.002V193.308V193.614V193.92V194.226V194.532V194.839V195.145V195.451V195.758V196.065V196.372V196.678V196.985V197.292V197.599V197.907V198.214V198.521V198.829V199.136V199.444V199.751V200.059V200.367V200.675V200.983V201.291V201.599V201.907V202.215V202.524V202.832V203.14V203.449V203.757V204.066V204.375V204.683V204.992V205.301V205.61V205.919V206.228V206.537V206.846V207.155V207.464V207.774V208.083V208.392V208.702V209.011V209.321V209.63V209.94V210.25V210.559V210.869V211.179V211.489V211.798V212.108V212.418V212.728V213.038V213.348V213.658V213.968V214.278V214.588V214.899V215.209V215.519V215.829V216.139V216.45V216.76V217.07V217.381V217.691V218.001V218.312V218.622V218.933V219.243V219.554V219.864V220.174V220.485V220.795V221.106V221.416V221.727V222.037V222.348V222.659V222.969V223.28V223.59V223.901V224.211V224.522V224.832V225.143V225.453V225.764V226.074V226.385V226.695V227.006V227.316V227.627V227.937V228.247V228.558V228.868V229.178V229.489V229.799V230.109V230.42V230.73V231.04V231.35V231.661V231.971V232.281V232.591V232.901V233.211V233.521V233.831V234.141V234.451V234.761V235.071V235.381V235.69V236V236.31V236.619V236.929V237.239V237.548V237.858V238.167V238.476V238.786V239.095V239.404V239.713V240.023V240.332V240.641V240.95V241.259V241.567V241.876V242.185V242.494V242.802V243.111V243.419V243.728V244.036V244.344V244.653V244.961V245.269V245.577V245.885V246.193V246.501V246.808V247.116V247.424V247.731V248.039V248.346V248.653V248.96V249.268V249.575V249.882V250.188V250.495V250.802V251.109V251.415V251.721V252.028V252.334V252.64V252.946V253.252V253.558V253.864V254.17V254.475V254.781V255.086V255.391V255.697V256.002V256.307V256.612V256.916V257.221V257.526V257.83V258.134V258.439V258.743V259.047V259.351V259.654V259.958V260.262V260.565V260.868V261.172V261.475V261.778V262.08V262.383V262.686V262.988V263.29V263.593V263.895V264.197V264.499V264.8V265.102V265.403V265.704V266.006V266.307V266.607V266.908V267.209V267.509V267.81V268.11V268.41V268.71V269.009V269.309V269.608V269.908V270.207V270.506V270.805V271.104V271.402V271.7V271.999V272.297V272.595V272.892V273.19V273.488V273.785V274.082V274.379V274.676V274.972V275.269V275.565V275.861V276.157V276.453V276.749V277.044V277.34V277.635V277.93V278.224V278.519V278.813V279.108V279.402V279.695V279.989V280.283V280.576V280.869V281.162V281.455V281.748V282.04V282.332V282.624V282.916V283.208V283.499V283.79V284.081V284.372V284.663V284.953V285.244V285.534V285.824V286.113V286.403V286.692V286.981V287.27V287.559V287.847V288.135V288.423V288.711V288.999V289.286V289.573V289.86V290.147V290.433V290.72V291.006V291.292V291.577V291.863V292.148V292.433V292.718V293.002V293.287V293.571V293.854V294.138V294.422V294.705V294.988V295.27V295.553V295.835V296.117V296.399V296.68V296.962V297.243V297.523V297.804V298.084V298.364V298.644V298.924V299.203V299.482V299.761V300.04V300.318V300.596V300.874V301.151V301.429V301.706V301.983V302.259V302.535V302.811V303.087V303.363V303.638V303.913V304.188V304.462V304.736V305.01V305.284V305.557V305.83V306.103V306.376V306.648V306.92V307.192V307.463V307.735V308.006V308.276V308.547V308.817V309.086V309.356V309.625V309.894V310.163V310.431V310.699V310.744H1462.4L1451.77 278.846L1448.87 270.144L1444.55 278.233L1444.55 278.233L1444.55 278.235L1444.55 278.238L1444.55 278.243C1444.54 278.256 1444.53 278.278 1444.51 278.31C1444.47 278.374 1444.42 278.478 1444.34 278.618C1444.17 278.898 1443.92 279.324 1443.58 279.876C1442.9 280.98 1441.85 282.582 1440.43 284.518C1437.59 288.394 1433.27 293.577 1427.4 298.758C1415.68 309.103 1397.83 319.392 1373.08 319.392C1342.21 319.392 1317.28 309.584 1300.1 293.436C1282.94 277.3 1273.24 254.584 1273.24 228.203C1273.24 201.884 1282.88 179.335 1304.11 163.24C1325.5 147.023 1359.12 137.015 1407.67 137.015H1453.79H1458.51L1457.67 132.368ZM1457.73 182.08V178.138H1453.79C1437.39 178.138 1424.92 181.86 1416.45 188.313C1407.88 194.845 1403.73 203.945 1403.73 213.79C1403.73 219.396 1406.49 224.672 1410.29 228.468C1414.08 232.264 1419.36 235.028 1424.96 235.028C1433.62 235.028 1441.98 230.658 1448.04 221.775C1454.04 212.982 1457.73 199.866 1457.73 182.08Z" fill="black" stroke="white" stroke-width="7.88301"/>
<path d="M157.972 206.016C158.214 205.816 158.446 205.621 158.669 205.433L203.49 276.62C202.224 277.805 200.405 279.435 198.047 281.37C192.928 285.57 185.28 291.198 175.24 296.835C155.166 308.104 125.557 319.392 87.4446 319.392C-8.52785 319.392 -78.6952 248.954 -78.6952 161.9C-78.6952 74.7125 -8.39153 4.40879 78.7964 4.40879C165.984 4.40879 236.288 74.7125 236.288 161.9V161.914V161.928V161.943V161.958V161.974V161.99V162.007V162.024V162.042V162.06V162.079V162.098V162.118V162.138V162.158V162.179V162.201V162.223V162.245V162.268V162.292V162.316V162.34V162.365V162.39V162.416V162.442V162.468V162.495V162.523V162.551V162.579V162.608V162.637V162.667V162.697V162.727V162.758V162.789V162.821V162.853V162.886V162.919V162.953V162.986V163.021V163.055V163.091V163.126V163.162V163.198V163.235V163.272V163.31V163.348V163.386V163.425V163.464V163.503V163.543V163.584V163.624V163.665V163.707V163.748V163.791V163.833V163.876V163.919V163.963V164.007V164.051V164.096V164.141V164.186V164.232V164.278V164.325V164.372V164.419V164.466V164.514V164.563V164.611V164.66V164.709V164.759V164.809V164.859V164.909V164.96V165.012V165.063V165.115V165.167V165.22V165.272V165.325V165.379V165.433V165.487V165.541V165.595V165.65V165.706V165.761V165.817V165.873V165.929V165.986V166.043V166.1V166.158V166.216V166.274V166.332V166.391V166.45V166.509V166.568V166.628V166.688V166.748V166.809V166.869V166.931V166.992V167.053V167.115V167.177V167.239V167.302V167.365V167.428V167.491V167.554V167.618V167.682V167.746V167.811V167.875V167.94V168.005V168.071V168.136V168.202V168.268V168.334V168.4V168.467V168.534V168.601V168.668V168.735V168.803V168.871V168.939V169.007V169.075V169.144V169.213V169.282V169.351V169.42V169.49V169.559V169.629V169.699V169.769V169.84V169.91V169.981V170.052V170.123V170.194V170.265V170.337V170.409V170.48V170.552V170.624V170.697V170.769V170.842V170.914V170.987V171.06V171.133V171.206V171.28V171.353V171.427V171.501V171.575V171.649V171.723V171.797V171.871V171.946V172.02V172.095V172.17V172.245V172.32V172.395V172.47V172.545V172.621V172.696V172.772V172.847V172.923V172.999V173.075V173.151V173.227V173.303V173.379V173.456V173.532V173.609V173.685V173.762V173.838V173.915V173.992V174.069V174.146V174.223V174.3V174.377V174.454V174.531V174.608V174.685V174.763V174.84V174.917V174.995V175.072V175.15V175.227V175.305V175.382V175.46V175.537V175.615V175.693V175.77V175.848V175.926V176.003V176.081V176.159V176.236V176.314V176.392V176.469V176.547V176.625V176.703V176.78V176.858V176.936V177.013V177.091V177.168V177.246V177.323V177.401V177.478V177.556V177.633V177.711V177.788V177.865V177.943V178.02V178.097V178.174V178.251V178.329V178.406V178.482V178.559V178.636V178.713V178.79V178.866V178.943V179.02V179.096V179.172V179.249V179.325V179.401V179.477V179.553V179.629V179.705V179.781V179.856V179.932V180.008V180.083V180.158V180.233V180.309V180.384V180.458V180.533V180.608V180.682V180.757V180.831V180.906V180.98V181.054V181.127V181.201V181.275V181.348V181.422V181.495V181.568V181.641V181.714V181.787V181.859V181.932V182.004V182.076V182.148V182.22V182.291V182.363V182.434V182.505V182.576V182.647V182.718V182.789V182.859V182.929V182.999V183.069V183.139V183.208V183.277V183.347V183.416V183.484V183.553V183.621V183.689V183.757V183.825V183.893V183.96V184.028V184.095V184.161V184.228V184.294V184.36V184.426V184.492V184.558V184.623V184.688V184.753V184.818V184.882V184.946V185.01V185.074V185.137V185.201V185.264V185.326V185.389V185.451V185.513V185.575V185.636V185.698V185.759V185.819V185.88V185.94V186V186.06V186.119V186.179V186.237V186.296V186.354V186.413V186.47V186.528V186.585V186.642V186.699V186.755V186.786H55.7345H51.0118L51.8566 191.433L55.7345 190.728C51.8566 191.433 51.8571 191.436 51.8576 191.439L51.8588 191.445L51.8616 191.46L51.8691 191.499C51.8748 191.529 51.8822 191.566 51.8915 191.611C51.9099 191.701 51.9356 191.821 51.9696 191.968C52.0375 192.263 52.1389 192.67 52.2825 193.173C52.5696 194.178 53.0271 195.571 53.7276 197.222C55.1274 200.521 57.5105 204.883 61.4663 209.234C69.4818 218.051 83.5465 226.379 107.624 226.379C123.055 226.379 136.757 220.225 146.444 214.264C151.316 211.266 155.249 208.269 157.972 206.016ZM48.9103 135.956V139.897H52.8518H104.741H108.683V135.956C108.683 123.804 105.645 114.187 100.233 107.526C94.7637 100.794 87.1314 97.4215 78.7964 97.4215C70.4615 97.4215 62.8291 100.794 57.3599 107.526C51.948 114.187 48.9103 123.804 48.9103 135.956Z" fill="black" stroke="white" stroke-width="7.88301"/>
</svg>
